<?xml version="1.0" encoding="UTF-8" standalone="no"?>
<!-- Created with Inkscape (http://www.inkscape.org/) -->

<svg
   xmlns:ns0="http://www.iki.fi/pav/software/textext/"
   xmlns:dc="http://purl.org/dc/elements/1.1/"
   xmlns:cc="http://creativecommons.org/ns#"
   xmlns:rdf="http://www.w3.org/1999/02/22-rdf-syntax-ns#"
   xmlns:svg="http://www.w3.org/2000/svg"
   xmlns="http://www.w3.org/2000/svg"
   xmlns:xlink="http://www.w3.org/1999/xlink"
   xmlns:sodipodi="http://sodipodi.sourceforge.net/DTD/sodipodi-0.dtd"
   xmlns:inkscape="http://www.inkscape.org/namespaces/inkscape"
   width="387.55307"
   height="85.207504"
   id="svg2"
   sodipodi:version="0.32"
   inkscape:version="0.48.0 r9654"
   sodipodi:docname="states.svg"
   inkscape:output_extension="org.inkscape.output.svg.inkscape"
   version="1.0">
  <sodipodi:namedview
     id="base"
     pagecolor="#ffffff"
     bordercolor="#666666"
     borderopacity="1.0"
     inkscape:pageopacity="0.0"
     inkscape:pageshadow="2"
     inkscape:zoom="2.2654962"
     inkscape:cx="193.77654"
     inkscape:cy="41.786818"
     inkscape:document-units="px"
     inkscape:current-layer="layer1"
     showgrid="false"
     inkscape:window-width="1280"
     inkscape:window-height="725"
     inkscape:window-x="0"
     inkscape:window-y="25"
     inkscape:window-maximized="1" />
  <defs
     id="defs4">
    <marker
       inkscape:stockid="Arrow1Mend"
       orient="auto"
       refY="0"
       refX="0"
       id="Arrow1Mend"
       style="overflow:visible">
      <path
         id="path10940"
         d="M 0,0 L 5,-5 L -12.5,0 L 5,5 L 0,0 z"
         style="fill-rule:evenodd;stroke:#000000;stroke-width:1pt;marker-start:none"
         transform="matrix(-0.4,0,0,-0.4,-4,0)" />
    </marker>
    <inkscape:perspective
       id="perspective10"
       inkscape:persp3d-origin="372.04724 : 350.78739 : 1"
       inkscape:vp_z="744.09448 : 526.18109 : 1"
       inkscape:vp_y="0 : 1000 : 0"
       inkscape:vp_x="0 : 526.18109 : 1"
       sodipodi:type="inkscape:persp3d" />
  </defs>
  <metadata
     id="metadata7">
    <rdf:RDF>
      <cc:Work
         rdf:about="">
        <dc:format>image/svg+xml</dc:format>
        <dc:type
           rdf:resource="http://purl.org/dc/dcmitype/StillImage" />
        <dc:title />
      </cc:Work>
    </rdf:RDF>
  </metadata>
  <g
     transform="translate(-269.11438,-96.254624)"
     id="layer1"
     inkscape:groupmode="layer"
     inkscape:label="Camada 1">
    <path
       style="opacity:1;fill:none;fill-opacity:1;stroke:#000000;stroke-width:1;stroke-linecap:butt;stroke-linejoin:miter;marker-end:url(#Arrow1Mend);stroke-miterlimit:4;stroke-dasharray:none;stroke-dashoffset:0;stroke-opacity:1"
       d="M 291.25,143.07647 L 269.61438,143.07647 L 269.61438,107.24202 L 322.41071,107.24202 L 322.41071,123.25504"
       id="path10156"
       sodipodi:nodetypes="ccccc" />
    <rect
       ry="6.3796692"
       y="125.12512"
       x="291.68967"
       height="35.902683"
       width="60.906345"
       id="rect3782"
       style="fill:#e6e6e6;fill-opacity:1;stroke:#000000;stroke-width:1;stroke-linecap:butt;stroke-miterlimit:4;stroke-dasharray:none;stroke-opacity:1;display:inline" />
    <rect
       ry="6.3796692"
       y="125.12512"
       x="392.88013"
       height="35.902683"
       width="60.906345"
       id="rect9868"
       style="fill:#e6e6e6;fill-opacity:1;stroke:#000000;stroke-width:1;stroke-linecap:butt;stroke-miterlimit:4;stroke-dasharray:none;stroke-opacity:1;display:inline" />
    <rect
       ry="6.3796692"
       y="125.12512"
       x="494.07062"
       height="35.902683"
       width="60.906345"
       id="rect9870"
       style="fill:#e6e6e6;fill-opacity:1;stroke:#000000;stroke-width:1;stroke-linecap:butt;stroke-miterlimit:4;stroke-dasharray:none;stroke-opacity:1;display:inline" />
    <rect
       ry="6.3796692"
       y="125.12512"
       x="595.26111"
       height="35.902683"
       width="60.906345"
       id="rect9872"
       style="fill:#e6e6e6;fill-opacity:1;stroke:#000000;stroke-width:1;stroke-linecap:butt;stroke-miterlimit:4;stroke-dasharray:none;stroke-opacity:1;display:inline" />
    <path
       style="fill:none;fill-opacity:1;stroke:#000000;stroke-width:1;stroke-linecap:butt;stroke-linejoin:miter;marker-end:url(#Arrow1Mend);stroke-miterlimit:4;stroke-dasharray:none;stroke-dashoffset:0;stroke-opacity:1"
       d="M 352.54324,143.07646 L 390.67649,143.07646"
       id="path16919"
       sodipodi:nodetypes="cc" />
    <path
       style="fill:none;fill-opacity:1;stroke:#000000;stroke-width:1;stroke-linecap:butt;stroke-linejoin:miter;marker-end:url(#Arrow1Mend);stroke-miterlimit:4;stroke-dasharray:none;stroke-dashoffset:0;stroke-opacity:1"
       d="M 453.87222,143.07646 L 492.00547,143.07646"
       id="path23263"
       sodipodi:nodetypes="cc" />
    <path
       style="fill:none;fill-opacity:1;stroke:#000000;stroke-width:1;stroke-linecap:butt;stroke-linejoin:miter;marker-end:url(#Arrow1Mend);stroke-miterlimit:4;stroke-dasharray:none;stroke-dashoffset:0;stroke-opacity:1"
       d="M 555.20123,143.07646 L 593.33448,143.07646"
       id="path23265"
       sodipodi:nodetypes="cc" />
    <path
       style="opacity:1;fill:none;fill-opacity:1;stroke:#000000;stroke-width:1;stroke-linecap:butt;stroke-linejoin:miter;marker-end:url(#Arrow1Mend);stroke-miterlimit:4;stroke-dasharray:none;stroke-dashoffset:0;stroke-opacity:1"
       d="M 627.12499,161.09764 L 627.12499,180.96213 L 322.48214,180.96213 L 322.48214,163.07647"
       id="path23267"
       sodipodi:nodetypes="cccc" />
    <g
       ns0:text="\\begin{center}\nFault\\\\\nDetection\n\\end{center}"
       ns0:preamble="/home/diogo/.inkscape/extensions/preambulo_inkscape.tex"
       transform="translate(-73.07581,5.5839634)"
       id="g7120">
      <defs
         id="defs7122">
        <g
           id="g7124">
          <symbol
             overflow="visible"
             id="textext-4387735d-0">
            <path
               style="stroke:none;"
               d=""
               id="path7127" />
          </symbol>
          <symbol
             overflow="visible"
             id="textext-4387735d-1">
            <path
               style="stroke:none;"
               d="M 4.78125 -2.296875 L 4.78125 -4.609375 L 4.546875 -4.609375 C 4.421875 -3.8125 4.25 -3.671875 3.453125 -3.671875 L 2 -3.671875 L 2 -5.875 C 2 -6.15625 2.046875 -6.21875 2.328125 -6.21875 L 3.671875 -6.21875 C 4.8125 -6.21875 5.03125 -6.078125 5.1875 -5.171875 L 5.4375 -5.171875 L 5.40625 -6.59375 L 0.125 -6.59375 L 0.125 -6.40625 C 0.859375 -6.34375 0.984375 -6.203125 0.984375 -5.515625 L 0.984375 -1.203125 C 0.984375 -0.375 0.875 -0.234375 0.125 -0.1875 L 0.125 0 L 2.90625 0 L 2.90625 -0.1875 C 2.140625 -0.234375 2 -0.375 2 -1.09375 L 2 -3.265625 L 3.453125 -3.265625 C 4.25 -3.265625 4.421875 -3.109375 4.546875 -2.296875 L 4.78125 -2.296875 Z M 4.78125 -2.296875 "
               id="path7130" />
          </symbol>
          <symbol
             overflow="visible"
             id="textext-4387735d-2">
            <path
               style="stroke:none;"
               d="M 4.40625 -0.65625 C 4.234375 -0.515625 4.109375 -0.46875 3.96875 -0.46875 C 3.734375 -0.46875 3.671875 -0.609375 3.671875 -1.046875 L 3.671875 -2.984375 C 3.671875 -3.515625 3.625 -3.796875 3.46875 -4.03125 C 3.25 -4.390625 2.828125 -4.578125 2.234375 -4.578125 C 1.296875 -4.578125 0.5625 -4.09375 0.5625 -3.46875 C 0.5625 -3.234375 0.75 -3.046875 0.984375 -3.046875 C 1.21875 -3.046875 1.4375 -3.234375 1.4375 -3.453125 C 1.4375 -3.5 1.421875 -3.546875 1.421875 -3.625 C 1.390625 -3.703125 1.390625 -3.78125 1.390625 -3.859375 C 1.390625 -4.125 1.703125 -4.34375 2.109375 -4.34375 C 2.59375 -4.34375 2.859375 -4.0625 2.859375 -3.515625 L 2.859375 -2.90625 C 1.328125 -2.296875 1.15625 -2.21875 0.734375 -1.828125 C 0.515625 -1.640625 0.375 -1.296875 0.375 -0.96875 C 0.375 -0.34375 0.8125 0.09375 1.421875 0.09375 C 1.859375 0.09375 2.265625 -0.109375 2.875 -0.625 C 2.921875 -0.109375 3.09375 0.09375 3.515625 0.09375 C 3.84375 0.09375 4.0625 -0.015625 4.40625 -0.40625 L 4.40625 -0.65625 Z M 2.859375 -1.21875 C 2.859375 -0.921875 2.8125 -0.828125 2.609375 -0.703125 C 2.359375 -0.5625 2.078125 -0.484375 1.875 -0.484375 C 1.53125 -0.484375 1.25 -0.8125 1.25 -1.25 L 1.25 -1.28125 C 1.25 -1.875 1.65625 -2.234375 2.859375 -2.671875 L 2.859375 -1.21875 Z M 2.859375 -1.21875 "
               id="path7133" />
          </symbol>
          <symbol
             overflow="visible"
             id="textext-4387735d-3">
            <path
               style="stroke:none;"
               d="M 4.78125 -0.5 L 4.71875 -0.5 C 4.265625 -0.5 4.15625 -0.609375 4.15625 -1.0625 L 4.15625 -4.484375 L 2.578125 -4.484375 L 2.578125 -4.3125 C 3.203125 -4.28125 3.3125 -4.1875 3.3125 -3.6875 L 3.3125 -1.34375 C 3.3125 -1.0625 3.265625 -0.921875 3.125 -0.8125 C 2.859375 -0.59375 2.546875 -0.484375 2.25 -0.484375 C 1.859375 -0.484375 1.546875 -0.8125 1.546875 -1.234375 L 1.546875 -4.484375 L 0.09375 -4.484375 L 0.09375 -4.34375 C 0.5625 -4.3125 0.703125 -4.171875 0.703125 -3.703125 L 0.703125 -1.203125 C 0.703125 -0.40625 1.1875 0.09375 1.90625 0.09375 C 2.28125 0.09375 2.671875 -0.0625 2.9375 -0.328125 L 3.375 -0.75 L 3.375 0.0625 L 3.40625 0.09375 C 3.90625 -0.109375 4.265625 -0.21875 4.78125 -0.359375 L 4.78125 -0.5 Z M 4.78125 -0.5 "
               id="path7136" />
          </symbol>
          <symbol
             overflow="visible"
             id="textext-4387735d-4">
            <path
               style="stroke:none;"
               d="M 0.1875 -6.203125 L 0.25 -6.203125 C 0.359375 -6.21875 0.484375 -6.234375 0.5625 -6.234375 C 0.875 -6.234375 0.984375 -6.09375 0.984375 -5.625 L 0.984375 -0.875 C 0.984375 -0.328125 0.84375 -0.203125 0.203125 -0.15625 L 0.203125 0 L 2.5625 0 L 2.5625 -0.15625 C 1.9375 -0.1875 1.8125 -0.296875 1.8125 -0.84375 L 1.8125 -6.78125 L 1.78125 -6.8125 C 1.25 -6.640625 0.875 -6.546875 0.1875 -6.375 L 0.1875 -6.203125 Z M 0.1875 -6.203125 "
               id="path7139" />
          </symbol>
          <symbol
             overflow="visible"
             id="textext-4387735d-5">
            <path
               style="stroke:none;"
               d="M 2.546875 -4.484375 L 1.53125 -4.484375 L 1.53125 -5.640625 C 1.53125 -5.734375 1.53125 -5.765625 1.46875 -5.765625 C 1.390625 -5.6875 1.328125 -5.59375 1.265625 -5.5 C 0.890625 -4.9375 0.453125 -4.46875 0.296875 -4.421875 C 0.1875 -4.359375 0.125 -4.28125 0.125 -4.234375 C 0.125 -4.203125 0.140625 -4.1875 0.171875 -4.171875 L 0.703125 -4.171875 L 0.703125 -1.171875 C 0.703125 -0.328125 1 0.09375 1.578125 0.09375 C 2.078125 0.09375 2.453125 -0.140625 2.78125 -0.65625 L 2.65625 -0.765625 C 2.4375 -0.515625 2.265625 -0.421875 2.046875 -0.421875 C 1.6875 -0.421875 1.53125 -0.6875 1.53125 -1.3125 L 1.53125 -4.171875 L 2.546875 -4.171875 L 2.546875 -4.484375 Z M 2.546875 -4.484375 "
               id="path7142" />
          </symbol>
          <symbol
             overflow="visible"
             id="textext-4387735d-6">
            <path
               style="stroke:none;"
               d="M 1.03125 -1.09375 C 1.03125 -0.375 0.921875 -0.234375 0.15625 -0.1875 L 0.15625 0 L 2.984375 0 C 4.140625 0 5.1875 -0.328125 5.8125 -0.890625 C 6.453125 -1.46875 6.828125 -2.359375 6.828125 -3.328125 C 6.828125 -4.234375 6.53125 -5 5.984375 -5.546875 C 5.296875 -6.234375 4.21875 -6.59375 2.84375 -6.59375 L 0.15625 -6.59375 L 0.15625 -6.40625 C 0.953125 -6.34375 1.03125 -6.25 1.03125 -5.515625 L 1.03125 -1.09375 Z M 2.046875 -5.84375 C 2.046875 -6.15625 2.15625 -6.234375 2.578125 -6.234375 C 3.421875 -6.234375 4.078125 -6.078125 4.5625 -5.734375 C 5.328125 -5.1875 5.734375 -4.34375 5.734375 -3.265625 C 5.734375 -2.078125 5.328125 -1.25 4.53125 -0.78125 C 4.015625 -0.484375 3.4375 -0.375 2.578125 -0.375 C 2.171875 -0.375 2.046875 -0.453125 2.046875 -0.78125 L 2.046875 -5.84375 Z M 2.046875 -5.84375 "
               id="path7145" />
          </symbol>
          <symbol
             overflow="visible"
             id="textext-4387735d-7">
            <path
               style="stroke:none;"
               d="M 4.0625 -1.640625 C 3.59375 -0.875 3.15625 -0.59375 2.515625 -0.59375 C 1.953125 -0.59375 1.53125 -0.875 1.234375 -1.453125 C 1.0625 -1.828125 0.984375 -2.15625 0.96875 -2.765625 L 4.03125 -2.765625 C 3.953125 -3.40625 3.859375 -3.703125 3.609375 -4.015625 C 3.3125 -4.375 2.84375 -4.578125 2.328125 -4.578125 C 1.828125 -4.578125 1.359375 -4.40625 0.984375 -4.0625 C 0.515625 -3.65625 0.25 -2.953125 0.25 -2.140625 C 0.25 -0.75 0.96875 0.09375 2.109375 0.09375 C 3.0625 0.09375 3.8125 -0.484375 4.234375 -1.5625 L 4.0625 -1.640625 Z M 0.984375 -3.078125 C 1.09375 -3.859375 1.4375 -4.234375 2.046875 -4.234375 C 2.65625 -4.234375 2.890625 -3.953125 3.015625 -3.078125 L 0.984375 -3.078125 Z M 0.984375 -3.078125 "
               id="path7148" />
          </symbol>
          <symbol
             overflow="visible"
             id="textext-4387735d-8">
            <path
               style="stroke:none;"
               d="M 3.96875 -1.5625 C 3.484375 -0.859375 3.125 -0.625 2.5625 -0.625 C 1.65625 -0.625 1.015625 -1.421875 1.015625 -2.5625 C 1.015625 -3.59375 1.5625 -4.296875 2.375 -4.296875 C 2.734375 -4.296875 2.859375 -4.1875 2.953125 -3.8125 L 3.015625 -3.59375 C 3.09375 -3.3125 3.28125 -3.140625 3.484375 -3.140625 C 3.75 -3.140625 3.96875 -3.328125 3.96875 -3.5625 C 3.96875 -4.109375 3.265625 -4.578125 2.4375 -4.578125 C 1.9375 -4.578125 1.4375 -4.390625 1.03125 -4.03125 C 0.53125 -3.59375 0.25 -2.90625 0.25 -2.125 C 0.25 -0.828125 1.03125 0.09375 2.140625 0.09375 C 2.59375 0.09375 2.984375 -0.0625 3.34375 -0.375 C 3.625 -0.609375 3.8125 -0.875 4.109375 -1.46875 L 3.96875 -1.5625 Z M 3.96875 -1.5625 "
               id="path7151" />
          </symbol>
          <symbol
             overflow="visible"
             id="textext-4387735d-9">
            <path
               style="stroke:none;"
               d="M 1.75 -4.578125 L 0.203125 -4.03125 L 0.203125 -3.890625 L 0.28125 -3.890625 C 0.40625 -3.921875 0.53125 -3.921875 0.625 -3.921875 C 0.859375 -3.921875 0.953125 -3.765625 0.953125 -3.328125 L 0.953125 -1.015625 C 0.953125 -0.296875 0.84375 -0.1875 0.15625 -0.15625 L 0.15625 0 L 2.515625 0 L 2.515625 -0.15625 C 1.859375 -0.203125 1.78125 -0.296875 1.78125 -1.015625 L 1.78125 -4.5625 L 1.75 -4.578125 Z M 1.28125 -6.8125 C 1 -6.8125 0.78125 -6.578125 0.78125 -6.296875 C 0.78125 -6.015625 1 -5.796875 1.28125 -5.796875 C 1.5625 -5.796875 1.796875 -6.015625 1.796875 -6.296875 C 1.796875 -6.578125 1.5625 -6.8125 1.28125 -6.8125 Z M 1.28125 -6.8125 "
               id="path7154" />
          </symbol>
          <symbol
             overflow="visible"
             id="textext-4387735d-10">
            <path
               style="stroke:none;"
               d="M 2.5 -4.578125 C 1.203125 -4.578125 0.296875 -3.625 0.296875 -2.25 C 0.296875 -0.90625 1.21875 0.09375 2.46875 0.09375 C 3.734375 0.09375 4.6875 -0.953125 4.6875 -2.328125 C 4.6875 -3.640625 3.765625 -4.578125 2.5 -4.578125 Z M 2.359375 -4.3125 C 3.203125 -4.3125 3.78125 -3.34375 3.78125 -1.984375 C 3.78125 -0.859375 3.34375 -0.171875 2.59375 -0.171875 C 2.203125 -0.171875 1.828125 -0.421875 1.625 -0.8125 C 1.34375 -1.328125 1.1875 -2.03125 1.1875 -2.734375 C 1.1875 -3.6875 1.65625 -4.3125 2.359375 -4.3125 Z M 2.359375 -4.3125 "
               id="path7157" />
          </symbol>
          <symbol
             overflow="visible"
             id="textext-4387735d-11">
            <path
               style="stroke:none;"
               d="M 0.15625 -3.96875 C 0.21875 -4 0.3125 -4 0.421875 -4 C 0.703125 -4 0.796875 -3.859375 0.796875 -3.375 L 0.796875 -0.890625 C 0.796875 -0.328125 0.6875 -0.1875 0.171875 -0.15625 L 0.171875 0 L 2.296875 0 L 2.296875 -0.15625 C 1.78125 -0.1875 1.640625 -0.3125 1.640625 -0.671875 L 1.640625 -3.46875 C 2.109375 -3.921875 2.328125 -4.03125 2.65625 -4.03125 C 3.15625 -4.03125 3.390625 -3.734375 3.390625 -3.078125 L 3.390625 -0.984375 C 3.390625 -0.359375 3.265625 -0.1875 2.765625 -0.15625 L 2.765625 0 L 4.828125 0 L 4.828125 -0.15625 C 4.34375 -0.203125 4.234375 -0.3125 4.234375 -0.8125 L 4.234375 -3.09375 C 4.234375 -4.03125 3.78125 -4.578125 3.046875 -4.578125 C 2.59375 -4.578125 2.28125 -4.421875 1.609375 -3.78125 L 1.609375 -4.5625 L 1.53125 -4.578125 C 1.046875 -4.40625 0.703125 -4.296875 0.15625 -4.140625 L 0.15625 -3.96875 Z M 0.15625 -3.96875 "
               id="path7160" />
          </symbol>
        </g>
      </defs>
      <g
         id="textext-4387735d-12">
        <g
           style="fill:rgb(0%,0%,0%);fill-opacity:1;"
           id="g7163">
          <use
             xlink:href="#textext-4387735d-1"
             x="385.121"
             y="134.765"
             id="use7165" />
        </g>
        <g
           style="fill:rgb(0%,0%,0%);fill-opacity:1;"
           id="g7167">
          <use
             xlink:href="#textext-4387735d-2"
             x="390.510767"
             y="134.765"
             id="use7169" />
          <use
             xlink:href="#textext-4387735d-3"
             x="394.934161"
             y="134.765"
             id="use7171" />
          <use
             xlink:href="#textext-4387735d-4"
             x="399.915461"
             y="134.765"
             id="use7173" />
          <use
             xlink:href="#textext-4387735d-5"
             x="402.685064"
             y="134.765"
             id="use7175" />
        </g>
        <g
           style="fill:rgb(0%,0%,0%);fill-opacity:1;"
           id="g7177">
          <use
             xlink:href="#textext-4387735d-6"
             x="375.921"
             y="146.72"
             id="use7179" />
          <use
             xlink:href="#textext-4387735d-7"
             x="383.113997"
             y="146.72"
             id="use7181" />
          <use
             xlink:href="#textext-4387735d-5"
             x="387.537392"
             y="146.72"
             id="use7183" />
          <use
             xlink:href="#textext-4387735d-7"
             x="390.306994"
             y="146.72"
             id="use7185" />
          <use
             xlink:href="#textext-4387735d-8"
             x="394.730389"
             y="146.72"
             id="use7187" />
          <use
             xlink:href="#textext-4387735d-5"
             x="399.153783"
             y="146.72"
             id="use7189" />
          <use
             xlink:href="#textext-4387735d-9"
             x="401.923386"
             y="146.72"
             id="use7191" />
          <use
             xlink:href="#textext-4387735d-10"
             x="404.692989"
             y="146.72"
             id="use7193" />
          <use
             xlink:href="#textext-4387735d-11"
             x="409.674289"
             y="146.72"
             id="use7195" />
        </g>
      </g>
    </g>
    <g
       id="g7670"
       transform="translate(28.106868,5.6933384)"
       ns0:preamble="/home/diogo/.inkscape/extensions/preambulo_inkscape.tex"
       ns0:text="\\begin{center}\nFault\\\\\nIdentification\n\\end{center}">
      <defs
         id="defs7672">
        <g
           id="g7674">
          <symbol
             id="textext-d320ba9e-0"
             overflow="visible">
            <path
               id="path7677"
               d=""
               style="stroke:none;" />
          </symbol>
          <symbol
             id="textext-d320ba9e-1"
             overflow="visible">
            <path
               id="path7680"
               d="M 4.78125 -2.296875 L 4.78125 -4.609375 L 4.546875 -4.609375 C 4.421875 -3.8125 4.25 -3.671875 3.453125 -3.671875 L 2 -3.671875 L 2 -5.875 C 2 -6.15625 2.046875 -6.21875 2.328125 -6.21875 L 3.671875 -6.21875 C 4.8125 -6.21875 5.03125 -6.078125 5.1875 -5.171875 L 5.4375 -5.171875 L 5.40625 -6.59375 L 0.125 -6.59375 L 0.125 -6.40625 C 0.859375 -6.34375 0.984375 -6.203125 0.984375 -5.515625 L 0.984375 -1.203125 C 0.984375 -0.375 0.875 -0.234375 0.125 -0.1875 L 0.125 0 L 2.90625 0 L 2.90625 -0.1875 C 2.140625 -0.234375 2 -0.375 2 -1.09375 L 2 -3.265625 L 3.453125 -3.265625 C 4.25 -3.265625 4.421875 -3.109375 4.546875 -2.296875 L 4.78125 -2.296875 Z M 4.78125 -2.296875 "
               style="stroke:none;" />
          </symbol>
          <symbol
             id="textext-d320ba9e-2"
             overflow="visible">
            <path
               id="path7683"
               d="M 4.40625 -0.65625 C 4.234375 -0.515625 4.109375 -0.46875 3.96875 -0.46875 C 3.734375 -0.46875 3.671875 -0.609375 3.671875 -1.046875 L 3.671875 -2.984375 C 3.671875 -3.515625 3.625 -3.796875 3.46875 -4.03125 C 3.25 -4.390625 2.828125 -4.578125 2.234375 -4.578125 C 1.296875 -4.578125 0.5625 -4.09375 0.5625 -3.46875 C 0.5625 -3.234375 0.75 -3.046875 0.984375 -3.046875 C 1.21875 -3.046875 1.4375 -3.234375 1.4375 -3.453125 C 1.4375 -3.5 1.421875 -3.546875 1.421875 -3.625 C 1.390625 -3.703125 1.390625 -3.78125 1.390625 -3.859375 C 1.390625 -4.125 1.703125 -4.34375 2.109375 -4.34375 C 2.59375 -4.34375 2.859375 -4.0625 2.859375 -3.515625 L 2.859375 -2.90625 C 1.328125 -2.296875 1.15625 -2.21875 0.734375 -1.828125 C 0.515625 -1.640625 0.375 -1.296875 0.375 -0.96875 C 0.375 -0.34375 0.8125 0.09375 1.421875 0.09375 C 1.859375 0.09375 2.265625 -0.109375 2.875 -0.625 C 2.921875 -0.109375 3.09375 0.09375 3.515625 0.09375 C 3.84375 0.09375 4.0625 -0.015625 4.40625 -0.40625 L 4.40625 -0.65625 Z M 2.859375 -1.21875 C 2.859375 -0.921875 2.8125 -0.828125 2.609375 -0.703125 C 2.359375 -0.5625 2.078125 -0.484375 1.875 -0.484375 C 1.53125 -0.484375 1.25 -0.8125 1.25 -1.25 L 1.25 -1.28125 C 1.25 -1.875 1.65625 -2.234375 2.859375 -2.671875 L 2.859375 -1.21875 Z M 2.859375 -1.21875 "
               style="stroke:none;" />
          </symbol>
          <symbol
             id="textext-d320ba9e-3"
             overflow="visible">
            <path
               id="path7686"
               d="M 4.78125 -0.5 L 4.71875 -0.5 C 4.265625 -0.5 4.15625 -0.609375 4.15625 -1.0625 L 4.15625 -4.484375 L 2.578125 -4.484375 L 2.578125 -4.3125 C 3.203125 -4.28125 3.3125 -4.1875 3.3125 -3.6875 L 3.3125 -1.34375 C 3.3125 -1.0625 3.265625 -0.921875 3.125 -0.8125 C 2.859375 -0.59375 2.546875 -0.484375 2.25 -0.484375 C 1.859375 -0.484375 1.546875 -0.8125 1.546875 -1.234375 L 1.546875 -4.484375 L 0.09375 -4.484375 L 0.09375 -4.34375 C 0.5625 -4.3125 0.703125 -4.171875 0.703125 -3.703125 L 0.703125 -1.203125 C 0.703125 -0.40625 1.1875 0.09375 1.90625 0.09375 C 2.28125 0.09375 2.671875 -0.0625 2.9375 -0.328125 L 3.375 -0.75 L 3.375 0.0625 L 3.40625 0.09375 C 3.90625 -0.109375 4.265625 -0.21875 4.78125 -0.359375 L 4.78125 -0.5 Z M 4.78125 -0.5 "
               style="stroke:none;" />
          </symbol>
          <symbol
             id="textext-d320ba9e-4"
             overflow="visible">
            <path
               id="path7689"
               d="M 0.1875 -6.203125 L 0.25 -6.203125 C 0.359375 -6.21875 0.484375 -6.234375 0.5625 -6.234375 C 0.875 -6.234375 0.984375 -6.09375 0.984375 -5.625 L 0.984375 -0.875 C 0.984375 -0.328125 0.84375 -0.203125 0.203125 -0.15625 L 0.203125 0 L 2.5625 0 L 2.5625 -0.15625 C 1.9375 -0.1875 1.8125 -0.296875 1.8125 -0.84375 L 1.8125 -6.78125 L 1.78125 -6.8125 C 1.25 -6.640625 0.875 -6.546875 0.1875 -6.375 L 0.1875 -6.203125 Z M 0.1875 -6.203125 "
               style="stroke:none;" />
          </symbol>
          <symbol
             id="textext-d320ba9e-5"
             overflow="visible">
            <path
               id="path7692"
               d="M 2.546875 -4.484375 L 1.53125 -4.484375 L 1.53125 -5.640625 C 1.53125 -5.734375 1.53125 -5.765625 1.46875 -5.765625 C 1.390625 -5.6875 1.328125 -5.59375 1.265625 -5.5 C 0.890625 -4.9375 0.453125 -4.46875 0.296875 -4.421875 C 0.1875 -4.359375 0.125 -4.28125 0.125 -4.234375 C 0.125 -4.203125 0.140625 -4.1875 0.171875 -4.171875 L 0.703125 -4.171875 L 0.703125 -1.171875 C 0.703125 -0.328125 1 0.09375 1.578125 0.09375 C 2.078125 0.09375 2.453125 -0.140625 2.78125 -0.65625 L 2.65625 -0.765625 C 2.4375 -0.515625 2.265625 -0.421875 2.046875 -0.421875 C 1.6875 -0.421875 1.53125 -0.6875 1.53125 -1.3125 L 1.53125 -4.171875 L 2.546875 -4.171875 L 2.546875 -4.484375 Z M 2.546875 -4.484375 "
               style="stroke:none;" />
          </symbol>
          <symbol
             id="textext-d320ba9e-6"
             overflow="visible">
            <path
               id="path7695"
               d="M 1.140625 -1.09375 C 1.140625 -0.34375 1.015625 -0.21875 0.171875 -0.1875 L 0.171875 0 L 3.140625 0 L 3.140625 -0.1875 C 2.328125 -0.21875 2.15625 -0.359375 2.15625 -1.09375 L 2.15625 -5.515625 C 2.15625 -6.234375 2.296875 -6.375 3.140625 -6.40625 L 3.140625 -6.59375 L 0.171875 -6.59375 L 0.171875 -6.40625 C 1.03125 -6.359375 1.140625 -6.25 1.140625 -5.515625 L 1.140625 -1.09375 Z M 1.140625 -1.09375 "
               style="stroke:none;" />
          </symbol>
          <symbol
             id="textext-d320ba9e-7"
             overflow="visible">
            <path
               id="path7698"
               d="M 3.421875 0.09375 L 4.890625 -0.421875 L 4.890625 -0.578125 C 4.71875 -0.5625 4.6875 -0.5625 4.671875 -0.5625 C 4.3125 -0.5625 4.234375 -0.671875 4.234375 -1.140625 L 4.234375 -6.78125 L 4.171875 -6.8125 C 3.703125 -6.640625 3.34375 -6.546875 2.71875 -6.375 L 2.71875 -6.203125 C 2.796875 -6.21875 2.84375 -6.21875 2.9375 -6.21875 C 3.296875 -6.21875 3.390625 -6.125 3.390625 -5.71875 L 3.390625 -4.15625 C 3.015625 -4.46875 2.734375 -4.578125 2.34375 -4.578125 C 1.203125 -4.578125 0.265625 -3.453125 0.265625 -2.046875 C 0.265625 -0.765625 1.015625 0.09375 2.109375 0.09375 C 2.671875 0.09375 3.046875 -0.09375 3.390625 -0.5625 L 3.390625 0.0625 L 3.421875 0.09375 Z M 3.390625 -1.015625 C 3.390625 -0.953125 3.3125 -0.828125 3.21875 -0.71875 C 3.046875 -0.515625 2.796875 -0.421875 2.5 -0.421875 C 1.671875 -0.421875 1.125 -1.21875 1.125 -2.4375 C 1.125 -3.5625 1.609375 -4.3125 2.375 -4.3125 C 2.90625 -4.3125 3.390625 -3.84375 3.390625 -3.3125 L 3.390625 -1.015625 Z M 3.390625 -1.015625 "
               style="stroke:none;" />
          </symbol>
          <symbol
             id="textext-d320ba9e-8"
             overflow="visible">
            <path
               id="path7701"
               d="M 4.0625 -1.640625 C 3.59375 -0.875 3.15625 -0.59375 2.515625 -0.59375 C 1.953125 -0.59375 1.53125 -0.875 1.234375 -1.453125 C 1.0625 -1.828125 0.984375 -2.15625 0.96875 -2.765625 L 4.03125 -2.765625 C 3.953125 -3.40625 3.859375 -3.703125 3.609375 -4.015625 C 3.3125 -4.375 2.84375 -4.578125 2.328125 -4.578125 C 1.828125 -4.578125 1.359375 -4.40625 0.984375 -4.0625 C 0.515625 -3.65625 0.25 -2.953125 0.25 -2.140625 C 0.25 -0.75 0.96875 0.09375 2.109375 0.09375 C 3.0625 0.09375 3.8125 -0.484375 4.234375 -1.5625 L 4.0625 -1.640625 Z M 0.984375 -3.078125 C 1.09375 -3.859375 1.4375 -4.234375 2.046875 -4.234375 C 2.65625 -4.234375 2.890625 -3.953125 3.015625 -3.078125 L 0.984375 -3.078125 Z M 0.984375 -3.078125 "
               style="stroke:none;" />
          </symbol>
          <symbol
             id="textext-d320ba9e-9"
             overflow="visible">
            <path
               id="path7704"
               d="M 0.15625 -3.96875 C 0.21875 -4 0.3125 -4 0.421875 -4 C 0.703125 -4 0.796875 -3.859375 0.796875 -3.375 L 0.796875 -0.890625 C 0.796875 -0.328125 0.6875 -0.1875 0.171875 -0.15625 L 0.171875 0 L 2.296875 0 L 2.296875 -0.15625 C 1.78125 -0.1875 1.640625 -0.3125 1.640625 -0.671875 L 1.640625 -3.46875 C 2.109375 -3.921875 2.328125 -4.03125 2.65625 -4.03125 C 3.15625 -4.03125 3.390625 -3.734375 3.390625 -3.078125 L 3.390625 -0.984375 C 3.390625 -0.359375 3.265625 -0.1875 2.765625 -0.15625 L 2.765625 0 L 4.828125 0 L 4.828125 -0.15625 C 4.34375 -0.203125 4.234375 -0.3125 4.234375 -0.8125 L 4.234375 -3.09375 C 4.234375 -4.03125 3.78125 -4.578125 3.046875 -4.578125 C 2.59375 -4.578125 2.28125 -4.421875 1.609375 -3.78125 L 1.609375 -4.5625 L 1.53125 -4.578125 C 1.046875 -4.40625 0.703125 -4.296875 0.15625 -4.140625 L 0.15625 -3.96875 Z M 0.15625 -3.96875 "
               style="stroke:none;" />
          </symbol>
          <symbol
             id="textext-d320ba9e-10"
             overflow="visible">
            <path
               id="path7707"
               d="M 1.75 -4.578125 L 0.203125 -4.03125 L 0.203125 -3.890625 L 0.28125 -3.890625 C 0.40625 -3.921875 0.53125 -3.921875 0.625 -3.921875 C 0.859375 -3.921875 0.953125 -3.765625 0.953125 -3.328125 L 0.953125 -1.015625 C 0.953125 -0.296875 0.84375 -0.1875 0.15625 -0.15625 L 0.15625 0 L 2.515625 0 L 2.515625 -0.15625 C 1.859375 -0.203125 1.78125 -0.296875 1.78125 -1.015625 L 1.78125 -4.5625 L 1.75 -4.578125 Z M 1.28125 -6.8125 C 1 -6.8125 0.78125 -6.578125 0.78125 -6.296875 C 0.78125 -6.015625 1 -5.796875 1.28125 -5.796875 C 1.5625 -5.796875 1.796875 -6.015625 1.796875 -6.296875 C 1.796875 -6.578125 1.5625 -6.8125 1.28125 -6.8125 Z M 1.28125 -6.8125 "
               style="stroke:none;" />
          </symbol>
          <symbol
             id="textext-d320ba9e-11"
             overflow="visible">
            <path
               id="path7710"
               d="M 0.3125 -4.15625 L 0.984375 -4.15625 L 0.984375 -0.9375 C 0.984375 -0.296875 0.875 -0.171875 0.3125 -0.15625 L 0.3125 0 L 2.515625 0 L 2.515625 -0.15625 C 1.953125 -0.1875 1.828125 -0.328125 1.828125 -0.875 L 1.828125 -4.15625 L 2.6875 -4.15625 C 3.640625 -4.15625 3.6875 -4.125 3.6875 -3.59375 L 3.6875 -0.96875 C 3.6875 -0.296875 3.625 -0.203125 3 -0.15625 L 3 0 L 5.1875 0 L 5.1875 -0.15625 C 4.640625 -0.203125 4.53125 -0.328125 4.53125 -0.96875 L 4.53125 -3.578125 C 4.53125 -3.796875 4.53125 -4.03125 4.546875 -4.5625 L 4.5 -4.578125 C 4.0625 -4.515625 3.78125 -4.484375 3.375 -4.484375 L 1.8125 -4.484375 L 1.8125 -4.921875 C 1.8125 -5.359375 1.84375 -5.65625 1.890625 -5.828125 C 2.03125 -6.265625 2.421875 -6.5625 2.875 -6.5625 C 3.15625 -6.5625 3.34375 -6.4375 3.578125 -6.09375 C 3.765625 -5.828125 3.890625 -5.71875 4.0625 -5.71875 C 4.28125 -5.71875 4.421875 -5.890625 4.421875 -6.109375 C 4.421875 -6.53125 3.921875 -6.8125 3.15625 -6.8125 C 2.40625 -6.8125 1.828125 -6.546875 1.46875 -6.0625 C 1.171875 -5.65625 1.0625 -5.28125 1 -4.484375 L 0.3125 -4.484375 L 0.3125 -4.15625 Z M 0.3125 -4.15625 "
               style="stroke:none;" />
          </symbol>
          <symbol
             id="textext-d320ba9e-12"
             overflow="visible">
            <path
               id="path7713"
               d="M 3.96875 -1.5625 C 3.484375 -0.859375 3.125 -0.625 2.5625 -0.625 C 1.65625 -0.625 1.015625 -1.421875 1.015625 -2.5625 C 1.015625 -3.59375 1.5625 -4.296875 2.375 -4.296875 C 2.734375 -4.296875 2.859375 -4.1875 2.953125 -3.8125 L 3.015625 -3.59375 C 3.09375 -3.3125 3.28125 -3.140625 3.484375 -3.140625 C 3.75 -3.140625 3.96875 -3.328125 3.96875 -3.5625 C 3.96875 -4.109375 3.265625 -4.578125 2.4375 -4.578125 C 1.9375 -4.578125 1.4375 -4.390625 1.03125 -4.03125 C 0.53125 -3.59375 0.25 -2.90625 0.25 -2.125 C 0.25 -0.828125 1.03125 0.09375 2.140625 0.09375 C 2.59375 0.09375 2.984375 -0.0625 3.34375 -0.375 C 3.625 -0.609375 3.8125 -0.875 4.109375 -1.46875 L 3.96875 -1.5625 Z M 3.96875 -1.5625 "
               style="stroke:none;" />
          </symbol>
          <symbol
             id="textext-d320ba9e-13"
             overflow="visible">
            <path
               id="path7716"
               d="M 2.5 -4.578125 C 1.203125 -4.578125 0.296875 -3.625 0.296875 -2.25 C 0.296875 -0.90625 1.21875 0.09375 2.46875 0.09375 C 3.734375 0.09375 4.6875 -0.953125 4.6875 -2.328125 C 4.6875 -3.640625 3.765625 -4.578125 2.5 -4.578125 Z M 2.359375 -4.3125 C 3.203125 -4.3125 3.78125 -3.34375 3.78125 -1.984375 C 3.78125 -0.859375 3.34375 -0.171875 2.59375 -0.171875 C 2.203125 -0.171875 1.828125 -0.421875 1.625 -0.8125 C 1.34375 -1.328125 1.1875 -2.03125 1.1875 -2.734375 C 1.1875 -3.6875 1.65625 -4.3125 2.359375 -4.3125 Z M 2.359375 -4.3125 "
               style="stroke:none;" />
          </symbol>
        </g>
      </defs>
      <g
         id="textext-d320ba9e-14">
        <g
           id="g7719"
           style="fill:rgb(0%,0%,0%);fill-opacity:1;">
          <use
             id="use7721"
             y="134.765"
             x="385.121"
             xlink:href="#textext-d320ba9e-1" />
        </g>
        <g
           id="g7723"
           style="fill:rgb(0%,0%,0%);fill-opacity:1;">
          <use
             id="use7725"
             y="134.765"
             x="390.510767"
             xlink:href="#textext-d320ba9e-2" />
          <use
             id="use7727"
             y="134.765"
             x="394.934161"
             xlink:href="#textext-d320ba9e-3" />
          <use
             id="use7729"
             y="134.765"
             x="399.915461"
             xlink:href="#textext-d320ba9e-4" />
          <use
             id="use7731"
             y="134.765"
             x="402.685064"
             xlink:href="#textext-d320ba9e-5" />
        </g>
        <g
           id="g7733"
           style="fill:rgb(0%,0%,0%);fill-opacity:1;">
          <use
             id="use7735"
             y="146.72"
             x="368.723"
             xlink:href="#textext-d320ba9e-6" />
          <use
             id="use7737"
             y="146.72"
             x="372.040546"
             xlink:href="#textext-d320ba9e-7" />
          <use
             id="use7739"
             y="146.72"
             x="377.021846"
             xlink:href="#textext-d320ba9e-8" />
          <use
             id="use7741"
             y="146.72"
             x="381.44524"
             xlink:href="#textext-d320ba9e-9" />
          <use
             id="use7743"
             y="146.72"
             x="386.42654"
             xlink:href="#textext-d320ba9e-5" />
          <use
             id="use7745"
             y="146.72"
             x="389.196143"
             xlink:href="#textext-d320ba9e-10" />
          <use
             id="use7747"
             y="146.72"
             x="391.965746"
             xlink:href="#textext-d320ba9e-11" />
          <use
             id="use7749"
             y="146.72"
             x="397.504951"
             xlink:href="#textext-d320ba9e-12" />
          <use
             id="use7751"
             y="146.72"
             x="401.928346"
             xlink:href="#textext-d320ba9e-2" />
          <use
             id="use7753"
             y="146.72"
             x="406.35174"
             xlink:href="#textext-d320ba9e-5" />
          <use
             id="use7755"
             y="146.72"
             x="409.121343"
             xlink:href="#textext-d320ba9e-10" />
          <use
             id="use7757"
             y="146.72"
             x="411.890946"
             xlink:href="#textext-d320ba9e-13" />
          <use
             id="use7759"
             y="146.72"
             x="416.872246"
             xlink:href="#textext-d320ba9e-9" />
        </g>
      </g>
    </g>
    <g
       ns0:text="\\begin{center}\nFault\\\\\nDiagnosis\n\\end{center}"
       ns0:preamble="/home/diogo/.inkscape/extensions/preambulo_inkscape.tex"
       transform="translate(129.30495,5.6933384)"
       id="g8223">
      <defs
         id="defs8225">
        <g
           id="g8227">
          <symbol
             overflow="visible"
             id="textext-434f3fda-0">
            <path
               style="stroke:none;"
               d=""
               id="path8230" />
          </symbol>
          <symbol
             overflow="visible"
             id="textext-434f3fda-1">
            <path
               style="stroke:none;"
               d="M 4.78125 -2.296875 L 4.78125 -4.609375 L 4.546875 -4.609375 C 4.421875 -3.8125 4.25 -3.671875 3.453125 -3.671875 L 2 -3.671875 L 2 -5.875 C 2 -6.15625 2.046875 -6.21875 2.328125 -6.21875 L 3.671875 -6.21875 C 4.8125 -6.21875 5.03125 -6.078125 5.1875 -5.171875 L 5.4375 -5.171875 L 5.40625 -6.59375 L 0.125 -6.59375 L 0.125 -6.40625 C 0.859375 -6.34375 0.984375 -6.203125 0.984375 -5.515625 L 0.984375 -1.203125 C 0.984375 -0.375 0.875 -0.234375 0.125 -0.1875 L 0.125 0 L 2.90625 0 L 2.90625 -0.1875 C 2.140625 -0.234375 2 -0.375 2 -1.09375 L 2 -3.265625 L 3.453125 -3.265625 C 4.25 -3.265625 4.421875 -3.109375 4.546875 -2.296875 L 4.78125 -2.296875 Z M 4.78125 -2.296875 "
               id="path8233" />
          </symbol>
          <symbol
             overflow="visible"
             id="textext-434f3fda-2">
            <path
               style="stroke:none;"
               d="M 4.40625 -0.65625 C 4.234375 -0.515625 4.109375 -0.46875 3.96875 -0.46875 C 3.734375 -0.46875 3.671875 -0.609375 3.671875 -1.046875 L 3.671875 -2.984375 C 3.671875 -3.515625 3.625 -3.796875 3.46875 -4.03125 C 3.25 -4.390625 2.828125 -4.578125 2.234375 -4.578125 C 1.296875 -4.578125 0.5625 -4.09375 0.5625 -3.46875 C 0.5625 -3.234375 0.75 -3.046875 0.984375 -3.046875 C 1.21875 -3.046875 1.4375 -3.234375 1.4375 -3.453125 C 1.4375 -3.5 1.421875 -3.546875 1.421875 -3.625 C 1.390625 -3.703125 1.390625 -3.78125 1.390625 -3.859375 C 1.390625 -4.125 1.703125 -4.34375 2.109375 -4.34375 C 2.59375 -4.34375 2.859375 -4.0625 2.859375 -3.515625 L 2.859375 -2.90625 C 1.328125 -2.296875 1.15625 -2.21875 0.734375 -1.828125 C 0.515625 -1.640625 0.375 -1.296875 0.375 -0.96875 C 0.375 -0.34375 0.8125 0.09375 1.421875 0.09375 C 1.859375 0.09375 2.265625 -0.109375 2.875 -0.625 C 2.921875 -0.109375 3.09375 0.09375 3.515625 0.09375 C 3.84375 0.09375 4.0625 -0.015625 4.40625 -0.40625 L 4.40625 -0.65625 Z M 2.859375 -1.21875 C 2.859375 -0.921875 2.8125 -0.828125 2.609375 -0.703125 C 2.359375 -0.5625 2.078125 -0.484375 1.875 -0.484375 C 1.53125 -0.484375 1.25 -0.8125 1.25 -1.25 L 1.25 -1.28125 C 1.25 -1.875 1.65625 -2.234375 2.859375 -2.671875 L 2.859375 -1.21875 Z M 2.859375 -1.21875 "
               id="path8236" />
          </symbol>
          <symbol
             overflow="visible"
             id="textext-434f3fda-3">
            <path
               style="stroke:none;"
               d="M 4.78125 -0.5 L 4.71875 -0.5 C 4.265625 -0.5 4.15625 -0.609375 4.15625 -1.0625 L 4.15625 -4.484375 L 2.578125 -4.484375 L 2.578125 -4.3125 C 3.203125 -4.28125 3.3125 -4.1875 3.3125 -3.6875 L 3.3125 -1.34375 C 3.3125 -1.0625 3.265625 -0.921875 3.125 -0.8125 C 2.859375 -0.59375 2.546875 -0.484375 2.25 -0.484375 C 1.859375 -0.484375 1.546875 -0.8125 1.546875 -1.234375 L 1.546875 -4.484375 L 0.09375 -4.484375 L 0.09375 -4.34375 C 0.5625 -4.3125 0.703125 -4.171875 0.703125 -3.703125 L 0.703125 -1.203125 C 0.703125 -0.40625 1.1875 0.09375 1.90625 0.09375 C 2.28125 0.09375 2.671875 -0.0625 2.9375 -0.328125 L 3.375 -0.75 L 3.375 0.0625 L 3.40625 0.09375 C 3.90625 -0.109375 4.265625 -0.21875 4.78125 -0.359375 L 4.78125 -0.5 Z M 4.78125 -0.5 "
               id="path8239" />
          </symbol>
          <symbol
             overflow="visible"
             id="textext-434f3fda-4">
            <path
               style="stroke:none;"
               d="M 0.1875 -6.203125 L 0.25 -6.203125 C 0.359375 -6.21875 0.484375 -6.234375 0.5625 -6.234375 C 0.875 -6.234375 0.984375 -6.09375 0.984375 -5.625 L 0.984375 -0.875 C 0.984375 -0.328125 0.84375 -0.203125 0.203125 -0.15625 L 0.203125 0 L 2.5625 0 L 2.5625 -0.15625 C 1.9375 -0.1875 1.8125 -0.296875 1.8125 -0.84375 L 1.8125 -6.78125 L 1.78125 -6.8125 C 1.25 -6.640625 0.875 -6.546875 0.1875 -6.375 L 0.1875 -6.203125 Z M 0.1875 -6.203125 "
               id="path8242" />
          </symbol>
          <symbol
             overflow="visible"
             id="textext-434f3fda-5">
            <path
               style="stroke:none;"
               d="M 2.546875 -4.484375 L 1.53125 -4.484375 L 1.53125 -5.640625 C 1.53125 -5.734375 1.53125 -5.765625 1.46875 -5.765625 C 1.390625 -5.6875 1.328125 -5.59375 1.265625 -5.5 C 0.890625 -4.9375 0.453125 -4.46875 0.296875 -4.421875 C 0.1875 -4.359375 0.125 -4.28125 0.125 -4.234375 C 0.125 -4.203125 0.140625 -4.1875 0.171875 -4.171875 L 0.703125 -4.171875 L 0.703125 -1.171875 C 0.703125 -0.328125 1 0.09375 1.578125 0.09375 C 2.078125 0.09375 2.453125 -0.140625 2.78125 -0.65625 L 2.65625 -0.765625 C 2.4375 -0.515625 2.265625 -0.421875 2.046875 -0.421875 C 1.6875 -0.421875 1.53125 -0.6875 1.53125 -1.3125 L 1.53125 -4.171875 L 2.546875 -4.171875 L 2.546875 -4.484375 Z M 2.546875 -4.484375 "
               id="path8245" />
          </symbol>
          <symbol
             overflow="visible"
             id="textext-434f3fda-6">
            <path
               style="stroke:none;"
               d="M 1.03125 -1.09375 C 1.03125 -0.375 0.921875 -0.234375 0.15625 -0.1875 L 0.15625 0 L 2.984375 0 C 4.140625 0 5.1875 -0.328125 5.8125 -0.890625 C 6.453125 -1.46875 6.828125 -2.359375 6.828125 -3.328125 C 6.828125 -4.234375 6.53125 -5 5.984375 -5.546875 C 5.296875 -6.234375 4.21875 -6.59375 2.84375 -6.59375 L 0.15625 -6.59375 L 0.15625 -6.40625 C 0.953125 -6.34375 1.03125 -6.25 1.03125 -5.515625 L 1.03125 -1.09375 Z M 2.046875 -5.84375 C 2.046875 -6.15625 2.15625 -6.234375 2.578125 -6.234375 C 3.421875 -6.234375 4.078125 -6.078125 4.5625 -5.734375 C 5.328125 -5.1875 5.734375 -4.34375 5.734375 -3.265625 C 5.734375 -2.078125 5.328125 -1.25 4.53125 -0.78125 C 4.015625 -0.484375 3.4375 -0.375 2.578125 -0.375 C 2.171875 -0.375 2.046875 -0.453125 2.046875 -0.78125 L 2.046875 -5.84375 Z M 2.046875 -5.84375 "
               id="path8248" />
          </symbol>
          <symbol
             overflow="visible"
             id="textext-434f3fda-7">
            <path
               style="stroke:none;"
               d="M 1.75 -4.578125 L 0.203125 -4.03125 L 0.203125 -3.890625 L 0.28125 -3.890625 C 0.40625 -3.921875 0.53125 -3.921875 0.625 -3.921875 C 0.859375 -3.921875 0.953125 -3.765625 0.953125 -3.328125 L 0.953125 -1.015625 C 0.953125 -0.296875 0.84375 -0.1875 0.15625 -0.15625 L 0.15625 0 L 2.515625 0 L 2.515625 -0.15625 C 1.859375 -0.203125 1.78125 -0.296875 1.78125 -1.015625 L 1.78125 -4.5625 L 1.75 -4.578125 Z M 1.28125 -6.8125 C 1 -6.8125 0.78125 -6.578125 0.78125 -6.296875 C 0.78125 -6.015625 1 -5.796875 1.28125 -5.796875 C 1.5625 -5.796875 1.796875 -6.015625 1.796875 -6.296875 C 1.796875 -6.578125 1.5625 -6.8125 1.28125 -6.8125 Z M 1.28125 -6.8125 "
               id="path8251" />
          </symbol>
          <symbol
             overflow="visible"
             id="textext-434f3fda-8">
            <path
               style="stroke:none;"
               d="M 4.6875 -3.875 L 4.6875 -4.25 L 3.921875 -4.25 C 3.71875 -4.25 3.5625 -4.28125 3.375 -4.359375 L 3.15625 -4.4375 C 2.875 -4.53125 2.609375 -4.578125 2.359375 -4.578125 C 1.421875 -4.578125 0.6875 -3.875 0.6875 -2.953125 C 0.6875 -2.328125 0.953125 -1.953125 1.609375 -1.625 C 1.421875 -1.453125 1.25 -1.28125 1.1875 -1.21875 C 0.859375 -0.9375 0.734375 -0.734375 0.734375 -0.53125 C 0.734375 -0.328125 0.84375 -0.203125 1.25 -0.015625 C 0.546875 0.515625 0.28125 0.84375 0.28125 1.203125 C 0.28125 1.734375 1.0625 2.171875 2 2.171875 C 2.75 2.171875 3.53125 1.90625 4.046875 1.5 C 4.421875 1.1875 4.59375 0.875 4.59375 0.484375 C 4.59375 -0.125 4.125 -0.546875 3.390625 -0.578125 L 2.109375 -0.640625 C 1.578125 -0.65625 1.328125 -0.75 1.328125 -0.90625 C 1.328125 -1.109375 1.65625 -1.453125 1.921875 -1.53125 C 2.015625 -1.53125 2.078125 -1.515625 2.109375 -1.515625 C 2.296875 -1.5 2.4375 -1.484375 2.5 -1.484375 C 2.859375 -1.484375 3.265625 -1.640625 3.5625 -1.90625 C 3.890625 -2.1875 4.046875 -2.53125 4.046875 -3.03125 C 4.046875 -3.3125 4 -3.546875 3.859375 -3.875 L 4.6875 -3.875 Z M 1.46875 0.015625 C 1.796875 0.09375 2.59375 0.15625 3.078125 0.15625 C 3.984375 0.15625 4.3125 0.28125 4.3125 0.640625 C 4.3125 1.21875 3.5625 1.609375 2.4375 1.609375 C 1.5625 1.609375 0.984375 1.3125 0.984375 0.875 C 0.984375 0.640625 1.046875 0.515625 1.46875 0.015625 Z M 1.515625 -3.375 C 1.515625 -3.953125 1.796875 -4.3125 2.25 -4.3125 C 2.5625 -4.3125 2.828125 -4.140625 2.984375 -3.84375 C 3.15625 -3.484375 3.28125 -3.03125 3.28125 -2.640625 C 3.28125 -2.078125 2.984375 -1.734375 2.53125 -1.734375 C 1.9375 -1.734375 1.515625 -2.375 1.515625 -3.34375 L 1.515625 -3.375 Z M 1.515625 -3.375 "
               id="path8254" />
          </symbol>
          <symbol
             overflow="visible"
             id="textext-434f3fda-9">
            <path
               style="stroke:none;"
               d="M 0.15625 -3.96875 C 0.21875 -4 0.3125 -4 0.421875 -4 C 0.703125 -4 0.796875 -3.859375 0.796875 -3.375 L 0.796875 -0.890625 C 0.796875 -0.328125 0.6875 -0.1875 0.171875 -0.15625 L 0.171875 0 L 2.296875 0 L 2.296875 -0.15625 C 1.78125 -0.1875 1.640625 -0.3125 1.640625 -0.671875 L 1.640625 -3.46875 C 2.109375 -3.921875 2.328125 -4.03125 2.65625 -4.03125 C 3.15625 -4.03125 3.390625 -3.734375 3.390625 -3.078125 L 3.390625 -0.984375 C 3.390625 -0.359375 3.265625 -0.1875 2.765625 -0.15625 L 2.765625 0 L 4.828125 0 L 4.828125 -0.15625 C 4.34375 -0.203125 4.234375 -0.3125 4.234375 -0.8125 L 4.234375 -3.09375 C 4.234375 -4.03125 3.78125 -4.578125 3.046875 -4.578125 C 2.59375 -4.578125 2.28125 -4.421875 1.609375 -3.78125 L 1.609375 -4.5625 L 1.53125 -4.578125 C 1.046875 -4.40625 0.703125 -4.296875 0.15625 -4.140625 L 0.15625 -3.96875 Z M 0.15625 -3.96875 "
               id="path8257" />
          </symbol>
          <symbol
             overflow="visible"
             id="textext-434f3fda-10">
            <path
               style="stroke:none;"
               d="M 2.5 -4.578125 C 1.203125 -4.578125 0.296875 -3.625 0.296875 -2.25 C 0.296875 -0.90625 1.21875 0.09375 2.46875 0.09375 C 3.734375 0.09375 4.6875 -0.953125 4.6875 -2.328125 C 4.6875 -3.640625 3.765625 -4.578125 2.5 -4.578125 Z M 2.359375 -4.3125 C 3.203125 -4.3125 3.78125 -3.34375 3.78125 -1.984375 C 3.78125 -0.859375 3.34375 -0.171875 2.59375 -0.171875 C 2.203125 -0.171875 1.828125 -0.421875 1.625 -0.8125 C 1.34375 -1.328125 1.1875 -2.03125 1.1875 -2.734375 C 1.1875 -3.6875 1.65625 -4.3125 2.359375 -4.3125 Z M 2.359375 -4.3125 "
               id="path8260" />
          </symbol>
          <symbol
             overflow="visible"
             id="textext-434f3fda-11">
            <path
               style="stroke:none;"
               d="M 3.140625 -3.125 L 3.09375 -4.484375 L 2.984375 -4.484375 L 2.96875 -4.46875 C 2.875 -4.390625 2.875 -4.390625 2.828125 -4.390625 C 2.765625 -4.390625 2.671875 -4.40625 2.5625 -4.453125 C 2.34375 -4.53125 2.125 -4.578125 1.859375 -4.578125 C 1.078125 -4.578125 0.515625 -4.0625 0.515625 -3.34375 C 0.515625 -2.796875 0.828125 -2.390625 1.671875 -1.90625 L 2.25 -1.578125 C 2.609375 -1.390625 2.765625 -1.140625 2.765625 -0.84375 C 2.765625 -0.40625 2.453125 -0.125 1.9375 -0.125 C 1.609375 -0.125 1.296875 -0.25 1.109375 -0.46875 C 0.890625 -0.71875 0.8125 -0.953125 0.671875 -1.515625 L 0.515625 -1.515625 L 0.515625 0.046875 L 0.640625 0.046875 C 0.71875 -0.0625 0.75 -0.078125 0.875 -0.078125 C 0.96875 -0.078125 1.109375 -0.0625 1.328125 0 C 1.609375 0.0625 1.890625 0.09375 2.0625 0.09375 C 2.828125 0.09375 3.46875 -0.484375 3.46875 -1.171875 C 3.46875 -1.671875 3.234375 -2 2.625 -2.359375 L 1.5625 -3 C 1.28125 -3.15625 1.125 -3.40625 1.125 -3.671875 C 1.125 -4.078125 1.4375 -4.359375 1.890625 -4.359375 C 2.46875 -4.359375 2.765625 -4.015625 2.984375 -3.125 L 3.140625 -3.125 Z M 3.140625 -3.125 "
               id="path8263" />
          </symbol>
        </g>
      </defs>
      <g
         id="textext-434f3fda-12">
        <g
           style="fill:rgb(0%,0%,0%);fill-opacity:1;"
           id="g8266">
          <use
             xlink:href="#textext-434f3fda-1"
             x="385.121"
             y="134.765"
             id="use8268" />
        </g>
        <g
           style="fill:rgb(0%,0%,0%);fill-opacity:1;"
           id="g8270">
          <use
             xlink:href="#textext-434f3fda-2"
             x="390.510767"
             y="134.765"
             id="use8272" />
          <use
             xlink:href="#textext-434f3fda-3"
             x="394.934161"
             y="134.765"
             id="use8274" />
          <use
             xlink:href="#textext-434f3fda-4"
             x="399.915461"
             y="134.765"
             id="use8276" />
          <use
             xlink:href="#textext-434f3fda-5"
             x="402.685064"
             y="134.765"
             id="use8278" />
        </g>
        <g
           style="fill:rgb(0%,0%,0%);fill-opacity:1;"
           id="g8280">
          <use
             xlink:href="#textext-434f3fda-6"
             x="375.363"
             y="146.72"
             id="use8282" />
          <use
             xlink:href="#textext-434f3fda-7"
             x="382.555997"
             y="146.72"
             id="use8284" />
          <use
             xlink:href="#textext-434f3fda-2"
             x="385.3256"
             y="146.72"
             id="use8286" />
          <use
             xlink:href="#textext-434f3fda-8"
             x="389.748994"
             y="146.72"
             id="use8288" />
          <use
             xlink:href="#textext-434f3fda-9"
             x="394.730294"
             y="146.72"
             id="use8290" />
          <use
             xlink:href="#textext-434f3fda-10"
             x="399.711594"
             y="146.72"
             id="use8292" />
          <use
             xlink:href="#textext-434f3fda-11"
             x="404.692894"
             y="146.72"
             id="use8294" />
          <use
             xlink:href="#textext-434f3fda-7"
             x="408.568346"
             y="146.72"
             id="use8296" />
          <use
             xlink:href="#textext-434f3fda-11"
             x="411.337949"
             y="146.72"
             id="use8298" />
        </g>
      </g>
    </g>
    <g
       id="g8738"
       transform="translate(230.48782,5.583964)"
       ns0:preamble="/home/diogo/.inkscape/extensions/preambulo_inkscape.tex"
       ns0:text="\\begin{center}\nFault\\\\\nRecovery\n\\end{center}">
      <defs
         id="defs8740">
        <g
           id="g8742">
          <symbol
             id="textext-522b40e1-0"
             overflow="visible">
            <path
               id="path8745"
               d=""
               style="stroke:none;" />
          </symbol>
          <symbol
             id="textext-522b40e1-1"
             overflow="visible">
            <path
               id="path8748"
               d="M 4.78125 -2.296875 L 4.78125 -4.609375 L 4.546875 -4.609375 C 4.421875 -3.8125 4.25 -3.671875 3.453125 -3.671875 L 2 -3.671875 L 2 -5.875 C 2 -6.15625 2.046875 -6.21875 2.328125 -6.21875 L 3.671875 -6.21875 C 4.8125 -6.21875 5.03125 -6.078125 5.1875 -5.171875 L 5.4375 -5.171875 L 5.40625 -6.59375 L 0.125 -6.59375 L 0.125 -6.40625 C 0.859375 -6.34375 0.984375 -6.203125 0.984375 -5.515625 L 0.984375 -1.203125 C 0.984375 -0.375 0.875 -0.234375 0.125 -0.1875 L 0.125 0 L 2.90625 0 L 2.90625 -0.1875 C 2.140625 -0.234375 2 -0.375 2 -1.09375 L 2 -3.265625 L 3.453125 -3.265625 C 4.25 -3.265625 4.421875 -3.109375 4.546875 -2.296875 L 4.78125 -2.296875 Z M 4.78125 -2.296875 "
               style="stroke:none;" />
          </symbol>
          <symbol
             id="textext-522b40e1-2"
             overflow="visible">
            <path
               id="path8751"
               d="M 4.40625 -0.65625 C 4.234375 -0.515625 4.109375 -0.46875 3.96875 -0.46875 C 3.734375 -0.46875 3.671875 -0.609375 3.671875 -1.046875 L 3.671875 -2.984375 C 3.671875 -3.515625 3.625 -3.796875 3.46875 -4.03125 C 3.25 -4.390625 2.828125 -4.578125 2.234375 -4.578125 C 1.296875 -4.578125 0.5625 -4.09375 0.5625 -3.46875 C 0.5625 -3.234375 0.75 -3.046875 0.984375 -3.046875 C 1.21875 -3.046875 1.4375 -3.234375 1.4375 -3.453125 C 1.4375 -3.5 1.421875 -3.546875 1.421875 -3.625 C 1.390625 -3.703125 1.390625 -3.78125 1.390625 -3.859375 C 1.390625 -4.125 1.703125 -4.34375 2.109375 -4.34375 C 2.59375 -4.34375 2.859375 -4.0625 2.859375 -3.515625 L 2.859375 -2.90625 C 1.328125 -2.296875 1.15625 -2.21875 0.734375 -1.828125 C 0.515625 -1.640625 0.375 -1.296875 0.375 -0.96875 C 0.375 -0.34375 0.8125 0.09375 1.421875 0.09375 C 1.859375 0.09375 2.265625 -0.109375 2.875 -0.625 C 2.921875 -0.109375 3.09375 0.09375 3.515625 0.09375 C 3.84375 0.09375 4.0625 -0.015625 4.40625 -0.40625 L 4.40625 -0.65625 Z M 2.859375 -1.21875 C 2.859375 -0.921875 2.8125 -0.828125 2.609375 -0.703125 C 2.359375 -0.5625 2.078125 -0.484375 1.875 -0.484375 C 1.53125 -0.484375 1.25 -0.8125 1.25 -1.25 L 1.25 -1.28125 C 1.25 -1.875 1.65625 -2.234375 2.859375 -2.671875 L 2.859375 -1.21875 Z M 2.859375 -1.21875 "
               style="stroke:none;" />
          </symbol>
          <symbol
             id="textext-522b40e1-3"
             overflow="visible">
            <path
               id="path8754"
               d="M 4.78125 -0.5 L 4.71875 -0.5 C 4.265625 -0.5 4.15625 -0.609375 4.15625 -1.0625 L 4.15625 -4.484375 L 2.578125 -4.484375 L 2.578125 -4.3125 C 3.203125 -4.28125 3.3125 -4.1875 3.3125 -3.6875 L 3.3125 -1.34375 C 3.3125 -1.0625 3.265625 -0.921875 3.125 -0.8125 C 2.859375 -0.59375 2.546875 -0.484375 2.25 -0.484375 C 1.859375 -0.484375 1.546875 -0.8125 1.546875 -1.234375 L 1.546875 -4.484375 L 0.09375 -4.484375 L 0.09375 -4.34375 C 0.5625 -4.3125 0.703125 -4.171875 0.703125 -3.703125 L 0.703125 -1.203125 C 0.703125 -0.40625 1.1875 0.09375 1.90625 0.09375 C 2.28125 0.09375 2.671875 -0.0625 2.9375 -0.328125 L 3.375 -0.75 L 3.375 0.0625 L 3.40625 0.09375 C 3.90625 -0.109375 4.265625 -0.21875 4.78125 -0.359375 L 4.78125 -0.5 Z M 4.78125 -0.5 "
               style="stroke:none;" />
          </symbol>
          <symbol
             id="textext-522b40e1-4"
             overflow="visible">
            <path
               id="path8757"
               d="M 0.1875 -6.203125 L 0.25 -6.203125 C 0.359375 -6.21875 0.484375 -6.234375 0.5625 -6.234375 C 0.875 -6.234375 0.984375 -6.09375 0.984375 -5.625 L 0.984375 -0.875 C 0.984375 -0.328125 0.84375 -0.203125 0.203125 -0.15625 L 0.203125 0 L 2.5625 0 L 2.5625 -0.15625 C 1.9375 -0.1875 1.8125 -0.296875 1.8125 -0.84375 L 1.8125 -6.78125 L 1.78125 -6.8125 C 1.25 -6.640625 0.875 -6.546875 0.1875 -6.375 L 0.1875 -6.203125 Z M 0.1875 -6.203125 "
               style="stroke:none;" />
          </symbol>
          <symbol
             id="textext-522b40e1-5"
             overflow="visible">
            <path
               id="path8760"
               d="M 2.546875 -4.484375 L 1.53125 -4.484375 L 1.53125 -5.640625 C 1.53125 -5.734375 1.53125 -5.765625 1.46875 -5.765625 C 1.390625 -5.6875 1.328125 -5.59375 1.265625 -5.5 C 0.890625 -4.9375 0.453125 -4.46875 0.296875 -4.421875 C 0.1875 -4.359375 0.125 -4.28125 0.125 -4.234375 C 0.125 -4.203125 0.140625 -4.1875 0.171875 -4.171875 L 0.703125 -4.171875 L 0.703125 -1.171875 C 0.703125 -0.328125 1 0.09375 1.578125 0.09375 C 2.078125 0.09375 2.453125 -0.140625 2.78125 -0.65625 L 2.65625 -0.765625 C 2.4375 -0.515625 2.265625 -0.421875 2.046875 -0.421875 C 1.6875 -0.421875 1.53125 -0.6875 1.53125 -1.3125 L 1.53125 -4.171875 L 2.546875 -4.171875 L 2.546875 -4.484375 Z M 2.546875 -4.484375 "
               style="stroke:none;" />
          </symbol>
          <symbol
             id="textext-522b40e1-6"
             overflow="visible">
            <path
               id="path8763"
               d="M 6.5625 -0.1875 C 6.1875 -0.21875 5.984375 -0.3125 5.703125 -0.65625 L 3.65625 -3.1875 C 4.3125 -3.3125 4.609375 -3.421875 4.9375 -3.703125 C 5.265625 -3.953125 5.453125 -4.375 5.453125 -4.84375 C 5.453125 -5.28125 5.328125 -5.640625 5.0625 -5.9375 C 4.6875 -6.34375 3.859375 -6.59375 2.921875 -6.59375 L 0.171875 -6.59375 L 0.171875 -6.40625 C 0.921875 -6.328125 1.015625 -6.21875 1.015625 -5.515625 L 1.015625 -1.203125 C 1.015625 -0.375 0.921875 -0.25 0.171875 -0.1875 L 0.171875 0 L 2.9375 0 L 2.9375 -0.1875 C 2.15625 -0.234375 2.03125 -0.375 2.03125 -1.09375 L 2.03125 -3.046875 L 2.59375 -3.078125 L 4.96875 0 L 6.5625 0 L 6.5625 -0.1875 Z M 2.03125 -5.875 C 2.03125 -6.15625 2.140625 -6.234375 2.546875 -6.234375 C 3.78125 -6.234375 4.359375 -5.796875 4.359375 -4.859375 C 4.359375 -4.359375 4.15625 -3.953125 3.796875 -3.765625 C 3.34375 -3.5 2.984375 -3.4375 2.03125 -3.421875 L 2.03125 -5.875 Z M 2.03125 -5.875 "
               style="stroke:none;" />
          </symbol>
          <symbol
             id="textext-522b40e1-7"
             overflow="visible">
            <path
               id="path8766"
               d="M 4.0625 -1.640625 C 3.59375 -0.875 3.15625 -0.59375 2.515625 -0.59375 C 1.953125 -0.59375 1.53125 -0.875 1.234375 -1.453125 C 1.0625 -1.828125 0.984375 -2.15625 0.96875 -2.765625 L 4.03125 -2.765625 C 3.953125 -3.40625 3.859375 -3.703125 3.609375 -4.015625 C 3.3125 -4.375 2.84375 -4.578125 2.328125 -4.578125 C 1.828125 -4.578125 1.359375 -4.40625 0.984375 -4.0625 C 0.515625 -3.65625 0.25 -2.953125 0.25 -2.140625 C 0.25 -0.75 0.96875 0.09375 2.109375 0.09375 C 3.0625 0.09375 3.8125 -0.484375 4.234375 -1.5625 L 4.0625 -1.640625 Z M 0.984375 -3.078125 C 1.09375 -3.859375 1.4375 -4.234375 2.046875 -4.234375 C 2.65625 -4.234375 2.890625 -3.953125 3.015625 -3.078125 L 0.984375 -3.078125 Z M 0.984375 -3.078125 "
               style="stroke:none;" />
          </symbol>
          <symbol
             id="textext-522b40e1-8"
             overflow="visible">
            <path
               id="path8769"
               d="M 3.96875 -1.5625 C 3.484375 -0.859375 3.125 -0.625 2.5625 -0.625 C 1.65625 -0.625 1.015625 -1.421875 1.015625 -2.5625 C 1.015625 -3.59375 1.5625 -4.296875 2.375 -4.296875 C 2.734375 -4.296875 2.859375 -4.1875 2.953125 -3.8125 L 3.015625 -3.59375 C 3.09375 -3.3125 3.28125 -3.140625 3.484375 -3.140625 C 3.75 -3.140625 3.96875 -3.328125 3.96875 -3.5625 C 3.96875 -4.109375 3.265625 -4.578125 2.4375 -4.578125 C 1.9375 -4.578125 1.4375 -4.390625 1.03125 -4.03125 C 0.53125 -3.59375 0.25 -2.90625 0.25 -2.125 C 0.25 -0.828125 1.03125 0.09375 2.140625 0.09375 C 2.59375 0.09375 2.984375 -0.0625 3.34375 -0.375 C 3.625 -0.609375 3.8125 -0.875 4.109375 -1.46875 L 3.96875 -1.5625 Z M 3.96875 -1.5625 "
               style="stroke:none;" />
          </symbol>
          <symbol
             id="textext-522b40e1-9"
             overflow="visible">
            <path
               id="path8772"
               d="M 2.5 -4.578125 C 1.203125 -4.578125 0.296875 -3.625 0.296875 -2.25 C 0.296875 -0.90625 1.21875 0.09375 2.46875 0.09375 C 3.734375 0.09375 4.6875 -0.953125 4.6875 -2.328125 C 4.6875 -3.640625 3.765625 -4.578125 2.5 -4.578125 Z M 2.359375 -4.3125 C 3.203125 -4.3125 3.78125 -3.34375 3.78125 -1.984375 C 3.78125 -0.859375 3.34375 -0.171875 2.59375 -0.171875 C 2.203125 -0.171875 1.828125 -0.421875 1.625 -0.8125 C 1.34375 -1.328125 1.1875 -2.03125 1.1875 -2.734375 C 1.1875 -3.6875 1.65625 -4.3125 2.359375 -4.3125 Z M 2.359375 -4.3125 "
               style="stroke:none;" />
          </symbol>
          <symbol
             id="textext-522b40e1-10"
             overflow="visible">
            <path
               id="path8775"
               d="M 4.75 -4.484375 L 3.375 -4.484375 L 3.375 -4.34375 C 3.6875 -4.3125 3.84375 -4.203125 3.84375 -4.015625 C 3.84375 -3.921875 3.8125 -3.8125 3.78125 -3.71875 L 2.796875 -1.140625 L 1.78125 -3.6875 C 1.71875 -3.828125 1.6875 -3.96875 1.6875 -4.0625 C 1.6875 -4.234375 1.796875 -4.3125 2.140625 -4.34375 L 2.140625 -4.484375 L 0.1875 -4.484375 L 0.1875 -4.34375 C 0.5625 -4.3125 0.640625 -4.21875 1.09375 -3.1875 L 2.296875 -0.328125 C 2.3125 -0.265625 2.34375 -0.203125 2.375 -0.125 C 2.4375 0.0625 2.5 0.140625 2.546875 0.140625 C 2.609375 0.140625 2.6875 0.015625 2.828125 -0.359375 L 4.109375 -3.5625 C 4.390625 -4.234375 4.453125 -4.3125 4.75 -4.34375 L 4.75 -4.484375 Z M 4.75 -4.484375 "
               style="stroke:none;" />
          </symbol>
          <symbol
             id="textext-522b40e1-11"
             overflow="visible">
            <path
               id="path8778"
               d="M 0.0625 -3.890625 C 0.203125 -3.921875 0.296875 -3.921875 0.421875 -3.921875 C 0.671875 -3.921875 0.75 -3.765625 0.75 -3.328125 L 0.75 -0.84375 C 0.75 -0.34375 0.6875 -0.265625 0.046875 -0.15625 L 0.046875 0 L 2.4375 0 L 2.4375 -0.15625 C 1.765625 -0.171875 1.59375 -0.328125 1.59375 -0.890625 L 1.59375 -3.140625 C 1.59375 -3.453125 2.03125 -3.953125 2.296875 -3.953125 C 2.359375 -3.953125 2.4375 -3.90625 2.546875 -3.8125 C 2.71875 -3.671875 2.828125 -3.609375 2.953125 -3.609375 C 3.1875 -3.609375 3.34375 -3.78125 3.34375 -4.0625 C 3.34375 -4.390625 3.125 -4.578125 2.796875 -4.578125 C 2.375 -4.578125 2.078125 -4.359375 1.59375 -3.65625 L 1.59375 -4.5625 L 1.546875 -4.578125 C 1.015625 -4.359375 0.65625 -4.234375 0.0625 -4.046875 L 0.0625 -3.890625 Z M 0.0625 -3.890625 "
               style="stroke:none;" />
          </symbol>
          <symbol
             id="textext-522b40e1-12"
             overflow="visible">
            <path
               id="path8781"
               d="M 4.734375 -4.484375 L 3.390625 -4.484375 L 3.390625 -4.34375 C 3.703125 -4.34375 3.875 -4.25 3.875 -4.09375 C 3.875 -4.046875 3.859375 -3.984375 3.828125 -3.921875 L 2.859375 -1.171875 L 1.71875 -3.6875 C 1.65625 -3.828125 1.609375 -3.953125 1.609375 -4.0625 C 1.609375 -4.25 1.765625 -4.3125 2.1875 -4.34375 L 2.1875 -4.484375 L 0.140625 -4.484375 L 0.140625 -4.34375 C 0.40625 -4.3125 0.5625 -4.203125 0.640625 -4.03125 L 1.78125 -1.578125 L 1.8125 -1.5 L 1.96875 -1.203125 C 2.25 -0.703125 2.40625 -0.34375 2.40625 -0.1875 C 2.40625 -0.046875 2.171875 0.59375 2 0.890625 C 1.859375 1.140625 1.640625 1.328125 1.5 1.328125 C 1.453125 1.328125 1.359375 1.3125 1.25 1.265625 C 1.0625 1.203125 0.890625 1.15625 0.734375 1.15625 C 0.5 1.15625 0.296875 1.359375 0.296875 1.59375 C 0.296875 1.921875 0.625 2.171875 1.03125 2.171875 C 1.703125 2.171875 2.1875 1.609375 2.71875 0.171875 L 4.25 -3.890625 C 4.390625 -4.203125 4.5 -4.3125 4.734375 -4.34375 L 4.734375 -4.484375 Z M 4.734375 -4.484375 "
               style="stroke:none;" />
          </symbol>
        </g>
      </defs>
      <g
         id="textext-522b40e1-13">
        <g
           id="g8784"
           style="fill:rgb(0%,0%,0%);fill-opacity:1;">
          <use
             id="use8786"
             y="134.765"
             x="385.121"
             xlink:href="#textext-522b40e1-1" />
        </g>
        <g
           id="g8788"
           style="fill:rgb(0%,0%,0%);fill-opacity:1;">
          <use
             id="use8790"
             y="134.765"
             x="390.510767"
             xlink:href="#textext-522b40e1-2" />
          <use
             id="use8792"
             y="134.765"
             x="394.934161"
             xlink:href="#textext-522b40e1-3" />
          <use
             id="use8794"
             y="134.765"
             x="399.915461"
             xlink:href="#textext-522b40e1-4" />
          <use
             id="use8796"
             y="134.765"
             x="402.685064"
             xlink:href="#textext-522b40e1-5" />
        </g>
        <g
           id="g8798"
           style="fill:rgb(0%,0%,0%);fill-opacity:1;">
          <use
             id="use8800"
             y="146.72"
             x="376.349"
             xlink:href="#textext-522b40e1-6" />
          <use
             id="use8802"
             y="146.72"
             x="382.994054"
             xlink:href="#textext-522b40e1-7" />
          <use
             id="use8804"
             y="146.72"
             x="387.417449"
             xlink:href="#textext-522b40e1-8" />
          <use
             id="use8806"
             y="146.72"
             x="391.840843"
             xlink:href="#textext-522b40e1-9" />
        </g>
        <g
           id="g8808"
           style="fill:rgb(0%,0%,0%);fill-opacity:1;">
          <use
             id="use8810"
             y="146.72"
             x="396.672704"
             xlink:href="#textext-522b40e1-10" />
        </g>
        <g
           id="g8812"
           style="fill:rgb(0%,0%,0%);fill-opacity:1;">
          <use
             id="use8814"
             y="146.72"
             x="401.504565"
             xlink:href="#textext-522b40e1-7" />
          <use
             id="use8816"
             y="146.72"
             x="405.927959"
             xlink:href="#textext-522b40e1-11" />
          <use
             id="use8818"
             y="146.72"
             x="409.245505"
             xlink:href="#textext-522b40e1-12" />
        </g>
      </g>
    </g>
    <g
       ns0:text="No"
       ns0:preamble="/home/diogo/.inkscape/extensions/preambulo_inkscape.tex"
       transform="translate(67.452792,-30.282759)"
       id="g9282">
      <defs
         id="defs9284">
        <g
           id="g9286">
          <symbol
             style="overflow:visible"
             overflow="visible"
             id="textext-995b688a-0">
            <path
               inkscape:connector-curvature="0"
               style="stroke:none"
               d=""
               id="path9289" />
          </symbol>
          <symbol
             style="overflow:visible"
             overflow="visible"
             id="textext-995b688a-1">
            <path
               inkscape:connector-curvature="0"
               style="stroke:none"
               d="m 6.09375,0.109375 0,-5.25 c 0,-0.59375 0.109375,-0.953125 0.296875,-1.09375 0.140625,-0.09375 0.28125,-0.140625 0.65625,-0.171875 l 0,-0.1875 -2.34375,0 0,0.1875 c 0.375,0.03125 0.515625,0.0625 0.671875,0.15625 0.203125,0.140625 0.28125,0.5 0.28125,1.109375 l 0,3.359375 -3.828125,-4.8125 -1.703125,0 0,0.1875 c 0.421875,0 0.5625,0.078125 0.96875,0.546875 l 0,4.390625 c 0,1.03125 -0.140625,1.21875 -0.96875,1.28125 l 0,0.1875 2.34375,0 0,-0.1875 C 1.6875,-0.234375 1.53125,-0.453125 1.53125,-1.46875 l 0,-3.90625 4.40625,5.484375 0.15625,0 z m 0,0"
               id="path9292" />
          </symbol>
          <symbol
             style="overflow:visible"
             overflow="visible"
             id="textext-995b688a-2">
            <path
               inkscape:connector-curvature="0"
               style="stroke:none"
               d="m 2.5,-4.578125 c -1.296875,0 -2.203125,0.953125 -2.203125,2.328125 0,1.34375 0.921875,2.34375 2.171875,2.34375 1.265625,0 2.21875,-1.046875 2.21875,-2.421875 0,-1.3125 -0.921875,-2.25 -2.1875,-2.25 z M 2.359375,-4.3125 c 0.84375,0 1.421875,0.96875 1.421875,2.328125 0,1.125 -0.4375,1.8125 -1.1875,1.8125 -0.390625,0 -0.765625,-0.25 -0.96875,-0.640625 C 1.34375,-1.328125 1.1875,-2.03125 1.1875,-2.734375 1.1875,-3.6875 1.65625,-4.3125 2.359375,-4.3125 z m 0,0"
               id="path9295" />
          </symbol>
        </g>
      </defs>
      <g
         id="textext-995b688a-3">
        <g
           style="fill:#000000;fill-opacity:1"
           id="g9298">
          <use
             height="85.207504"
             width="387.55307"
             xlink:href="#textext-995b688a-1"
             x="223.43201"
             y="134.765"
             id="use9300" />
          <use
             height="85.207504"
             width="387.55307"
             xlink:href="#textext-995b688a-2"
             x="230.625"
             y="134.765"
             id="use9302" />
        </g>
      </g>
    </g>
    <g
       id="g9760"
       transform="translate(141.39904,4.5178347)"
       ns0:preamble="/home/diogo/.inkscape/extensions/preambulo_inkscape.tex"
       ns0:text="Yes">
      <defs
         id="defs9762">
        <g
           id="g9764">
          <symbol
             id="textext-355873fd-0"
             overflow="visible"
             style="overflow:visible">
            <path
               id="path9767"
               d=""
               style="stroke:none"
               inkscape:connector-curvature="0" />
          </symbol>
          <symbol
             id="textext-355873fd-1"
             overflow="visible"
             style="overflow:visible">
            <path
               id="path9770"
               d="m 7.015625,-6.59375 -2.1875,0 0,0.1875 c 0.515625,0 0.6875,0.09375 0.6875,0.328125 0,0.09375 -0.046875,0.21875 -0.140625,0.359375 L 3.953125,-3.453125 2.46875,-5.671875 C 2.359375,-5.828125 2.296875,-6 2.296875,-6.109375 c 0,-0.1875 0.140625,-0.265625 0.46875,-0.296875 0.03125,0 0.140625,0 0.25,0 l 0,-0.1875 -2.796875,0 0,0.1875 c 0.484375,0.015625 0.625,0.15625 1.609375,1.5625 l 1.3125,1.90625 0,1.734375 c 0,0.875 -0.09375,0.96875 -1,1.015625 l 0,0.1875 3.046875,0 0,-0.1875 C 4.296875,-0.203125 4.15625,-0.328125 4.15625,-1.09375 l 0,-1.921875 L 5.625,-5.28125 c 0.609375,-0.875 0.875,-1.09375 1.390625,-1.125 l 0,-0.1875 z m 0,0"
               style="stroke:none"
               inkscape:connector-curvature="0" />
          </symbol>
          <symbol
             id="textext-355873fd-2"
             overflow="visible"
             style="overflow:visible">
            <path
               id="path9773"
               d="M 4.0625,-1.640625 C 3.59375,-0.875 3.15625,-0.59375 2.515625,-0.59375 c -0.5625,0 -0.984375,-0.28125 -1.28125,-0.859375 -0.171875,-0.375 -0.25,-0.703125 -0.265625,-1.3125 l 3.0625,0 c -0.078125,-0.640625 -0.171875,-0.9375 -0.421875,-1.25 -0.296875,-0.359375 -0.765625,-0.5625 -1.28125,-0.5625 -0.5,0 -0.96875,0.171875 -1.34375,0.515625 C 0.515625,-3.65625 0.25,-2.953125 0.25,-2.140625 0.25,-0.75 0.96875,0.09375 2.109375,0.09375 c 0.953125,0 1.703125,-0.578125 2.125,-1.65625 L 4.0625,-1.640625 z m -3.078125,-1.4375 c 0.109375,-0.78125 0.453125,-1.15625 1.0625,-1.15625 0.609375,0 0.84375,0.28125 0.96875,1.15625 l -2.03125,0 z m 0,0"
               style="stroke:none"
               inkscape:connector-curvature="0" />
          </symbol>
          <symbol
             id="textext-355873fd-3"
             overflow="visible"
             style="overflow:visible">
            <path
               id="path9776"
               d="m 3.140625,-3.125 -0.046875,-1.359375 -0.109375,0 L 2.96875,-4.46875 C 2.875,-4.390625 2.875,-4.390625 2.828125,-4.390625 c -0.0625,0 -0.15625,-0.015625 -0.265625,-0.0625 -0.21875,-0.078125 -0.4375,-0.125 -0.703125,-0.125 -0.78125,0 -1.34375,0.515625 -1.34375,1.234375 0,0.546875 0.3125,0.953125 1.15625,1.4375 L 2.25,-1.578125 c 0.359375,0.1875 0.515625,0.4375 0.515625,0.734375 0,0.4375 -0.3125,0.71875 -0.828125,0.71875 -0.328125,0 -0.640625,-0.125 -0.828125,-0.34375 -0.21875,-0.25 -0.296875,-0.484375 -0.4375,-1.046875 l -0.15625,0 0,1.5625 0.125,0 C 0.71875,-0.0625 0.75,-0.078125 0.875,-0.078125 c 0.09375,0 0.234375,0.015625 0.453125,0.078125 0.28125,0.0625 0.5625,0.09375 0.734375,0.09375 0.765625,0 1.40625,-0.578125 1.40625,-1.265625 0,-0.5 -0.234375,-0.828125 -0.84375,-1.1875 L 1.5625,-3 C 1.28125,-3.15625 1.125,-3.40625 1.125,-3.671875 c 0,-0.40625 0.3125,-0.6875 0.765625,-0.6875 0.578125,0 0.875,0.34375 1.09375,1.234375 l 0.15625,0 z m 0,0"
               style="stroke:none"
               inkscape:connector-curvature="0" />
          </symbol>
        </g>
      </defs>
      <g
         id="textext-355873fd-4">
        <g
           id="g9779"
           style="fill:#000000;fill-opacity:1">
          <use
             id="use9781"
             y="134.765"
             x="223.43201"
             xlink:href="#textext-355873fd-1"
             width="387.55307"
             height="85.207504" />
        </g>
        <g
           id="g9783"
           style="fill:#000000;fill-opacity:1">
          <use
             id="use9785"
             y="134.765"
             x="229.62874"
             xlink:href="#textext-355873fd-2"
             width="387.55307"
             height="85.207504" />
          <use
             id="use9787"
             y="134.765"
             x="234.05214"
             xlink:href="#textext-355873fd-3"
             width="387.55307"
             height="85.207504" />
        </g>
      </g>
    </g>
  </g>
</svg>
