<?xml version="1.0" encoding="UTF-8" standalone="no"?>
<!-- Created with Inkscape (http://www.inkscape.org/) -->

<svg
   xmlns:ns0="http://www.iki.fi/pav/software/textext/"
   xmlns:dc="http://purl.org/dc/elements/1.1/"
   xmlns:cc="http://creativecommons.org/ns#"
   xmlns:rdf="http://www.w3.org/1999/02/22-rdf-syntax-ns#"
   xmlns:svg="http://www.w3.org/2000/svg"
   xmlns="http://www.w3.org/2000/svg"
   xmlns:xlink="http://www.w3.org/1999/xlink"
   xmlns:sodipodi="http://sodipodi.sourceforge.net/DTD/sodipodi-0.dtd"
   xmlns:inkscape="http://www.inkscape.org/namespaces/inkscape"
   width="180.21405"
   height="84.560043"
   id="svg2"
   sodipodi:version="0.32"
   inkscape:version="0.48.0 r9654"
   version="1.0"
   sodipodi:docname="nnarx.svg"
   inkscape:output_extension="org.inkscape.output.svg.inkscape">
  <sodipodi:namedview
     id="base"
     pagecolor="#ffffff"
     bordercolor="#666666"
     borderopacity="1.0"
     inkscape:pageopacity="0.0"
     inkscape:pageshadow="2"
     inkscape:zoom="4.4558124"
     inkscape:cx="90.107031"
     inkscape:cy="42.280022"
     inkscape:document-units="px"
     inkscape:current-layer="layer1"
     showgrid="false"
     inkscape:window-width="1272"
     inkscape:window-height="722"
     inkscape:window-x="0"
     inkscape:window-y="25"
     inkscape:window-maximized="0" />
  <defs
     id="defs4">
    <marker
       style="overflow:visible"
       id="Arrow1Mend"
       refX="0"
       refY="0"
       orient="auto"
       inkscape:stockid="Arrow1Mend">
      <path
         transform="matrix(-0.4,0,0,-0.4,-4,0)"
         style="fill-rule:evenodd;stroke:#000000;stroke-width:1pt;marker-start:none"
         d="M 0,0 L 5,-5 L -12.5,0 L 5,5 L 0,0 z"
         id="path3169" />
    </marker>
    <inkscape:perspective
       id="perspective10"
       inkscape:persp3d-origin="372.04724 : 350.78739 : 1"
       inkscape:vp_z="744.09448 : 526.18109 : 1"
       inkscape:vp_y="0 : 1000 : 0"
       inkscape:vp_x="0 : 526.18109 : 1"
       sodipodi:type="inkscape:persp3d" />
  </defs>
  <metadata
     id="metadata7">
    <rdf:RDF>
      <cc:Work
         rdf:about="">
        <dc:format>image/svg+xml</dc:format>
        <dc:type
           rdf:resource="http://purl.org/dc/dcmitype/StillImage" />
      </cc:Work>
    </rdf:RDF>
  </metadata>
  <g
     transform="translate(-236.27206,-50.716946)"
     id="layer1"
     inkscape:groupmode="layer"
     inkscape:label="Camada 1">
    <g
       id="g2443"
       ns0:preamble="/home/diogo/.inkscape/extensions/preambulo_inkscape.tex"
       ns0:text="$y(t-1)$"
       transform="translate(31.195176,-70.816634)">
      <defs
         id="defs2445">
        <g
           id="g2447">
          <symbol
             id="textext-91e61cdf-0"
             overflow="visible"
             style="overflow:visible">
            <path
               id="path2450"
               d=""
               style="stroke:none" />
          </symbol>
          <symbol
             id="textext-91e61cdf-1"
             overflow="visible"
             style="overflow:visible">
            <path
               id="path2453"
               d="M 0.15625,-3.984375 C 0.28125,-4.015625 0.34375,-4.03125 0.453125,-4.03125 C 1.03125,-4.03125 1.171875,-3.78125 1.640625,-2.0625 C 1.796875,-1.421875 2.046875,-0.25 2.046875,-0.078125 C 2.046875,0.078125 1.984375,0.234375 1.828125,0.421875 C 1.53125,0.828125 1.328125,1.09375 1.21875,1.203125 C 1,1.421875 0.890625,1.5 0.75,1.5 C 0.703125,1.5 0.625,1.46875 0.515625,1.390625 C 0.375,1.28125 0.265625,1.21875 0.15625,1.21875 C -0.0625,1.21875 -0.234375,1.390625 -0.234375,1.609375 C -0.234375,1.859375 -0.015625,2.046875 0.265625,2.046875 C 0.90625,2.046875 2.21875,0.5625 3.296875,-1.421875 C 3.96875,-2.640625 4.25,-3.359375 4.25,-3.84375 C 4.25,-4.140625 4,-4.390625 3.703125,-4.390625 C 3.46875,-4.390625 3.3125,-4.25 3.3125,-4.03125 C 3.3125,-3.875 3.390625,-3.765625 3.59375,-3.640625 C 3.78125,-3.53125 3.84375,-3.4375 3.84375,-3.296875 C 3.84375,-2.90625 3.484375,-2.125 2.625,-0.71875 L 2.4375,-1.875 C 2.28125,-2.75 1.71875,-4.390625 1.578125,-4.390625 L 1.53125,-4.390625 C 1.53125,-4.390625 1.484375,-4.390625 1.453125,-4.390625 C 1.359375,-4.375 1,-4.3125 0.46875,-4.21875 C 0.421875,-4.203125 0.296875,-4.171875 0.15625,-4.15625 L 0.15625,-3.984375 z"
               style="stroke:none" />
          </symbol>
          <symbol
             id="textext-91e61cdf-2"
             overflow="visible"
             style="overflow:visible">
            <path
               id="path2456"
               d="M 2.953125,-4.265625 L 2.15625,-4.265625 L 2.4375,-5.296875 C 2.4375,-5.3125 2.4375,-5.328125 2.4375,-5.34375 C 2.4375,-5.40625 2.40625,-5.4375 2.359375,-5.4375 C 2.296875,-5.4375 2.265625,-5.4375 2.21875,-5.359375 C 1.828125,-4.84375 1.203125,-4.34375 0.890625,-4.25 C 0.640625,-4.171875 0.5625,-4.109375 0.5625,-4 C 0.5625,-4 0.5625,-3.984375 0.578125,-3.953125 L 1.3125,-3.953125 L 0.59375,-1.203125 C 0.578125,-1.109375 0.5625,-1.09375 0.53125,-1 C 0.453125,-0.703125 0.375,-0.34375 0.375,-0.265625 C 0.375,-0.046875 0.578125,0.109375 0.84375,0.109375 C 1.3125,0.109375 1.640625,-0.171875 2.265625,-1.09375 L 2.140625,-1.171875 C 1.640625,-0.53125 1.484375,-0.375 1.328125,-0.375 C 1.234375,-0.375 1.171875,-0.453125 1.171875,-0.578125 C 1.171875,-0.59375 1.171875,-0.59375 1.1875,-0.625 L 2.0625,-3.953125 L 2.90625,-3.953125 L 2.953125,-4.265625 z"
               style="stroke:none" />
          </symbol>
          <symbol
             id="textext-91e61cdf-3"
             overflow="visible"
             style="overflow:visible">
            <path
               id="path2459"
               d=""
               style="stroke:none" />
          </symbol>
          <symbol
             id="textext-91e61cdf-4"
             overflow="visible"
             style="overflow:visible">
            <path
               id="path2462"
               d="M 6.59375,-2.296875 C 6.734375,-2.296875 6.921875,-2.296875 6.921875,-2.5 C 6.921875,-2.6875 6.734375,-2.6875 6.59375,-2.6875 L 1.15625,-2.6875 C 1.015625,-2.6875 0.828125,-2.6875 0.828125,-2.5 C 0.828125,-2.296875 1.015625,-2.296875 1.15625,-2.296875 L 6.59375,-2.296875 z"
               style="stroke:none" />
          </symbol>
          <symbol
             id="textext-91e61cdf-5"
             overflow="visible"
             style="overflow:visible">
            <path
               id="path2465"
               d=""
               style="stroke:none" />
          </symbol>
          <symbol
             id="textext-91e61cdf-6"
             overflow="visible"
             style="overflow:visible">
            <path
               id="path2468"
               d="M 2.90625,-6.734375 L 1.109375,-5.828125 L 1.109375,-5.6875 C 1.21875,-5.734375 1.328125,-5.78125 1.375,-5.796875 C 1.5625,-5.875 1.71875,-5.90625 1.828125,-5.90625 C 2.03125,-5.90625 2.125,-5.765625 2.125,-5.4375 L 2.125,-0.921875 C 2.125,-0.59375 2.046875,-0.375 1.890625,-0.28125 C 1.734375,-0.1875 1.59375,-0.15625 1.171875,-0.15625 L 1.171875,0 L 3.921875,0 L 3.921875,-0.15625 C 3.140625,-0.15625 2.984375,-0.265625 2.984375,-0.734375 L 2.984375,-6.71875 L 2.90625,-6.734375 z"
               style="stroke:none" />
          </symbol>
          <symbol
             id="textext-91e61cdf-7"
             overflow="visible"
             style="overflow:visible">
            <path
               id="path2471"
               d=""
               style="stroke:none" />
          </symbol>
          <symbol
             id="textext-91e61cdf-8"
             overflow="visible"
             style="overflow:visible">
            <path
               id="path2474"
               d="M 3.296875,2.390625 C 3.296875,2.359375 3.296875,2.34375 3.125,2.171875 C 1.890625,0.921875 1.5625,-0.96875 1.5625,-2.5 C 1.5625,-4.234375 1.9375,-5.96875 3.171875,-7.203125 C 3.296875,-7.328125 3.296875,-7.34375 3.296875,-7.375 C 3.296875,-7.453125 3.265625,-7.484375 3.203125,-7.484375 C 3.09375,-7.484375 2.203125,-6.796875 1.609375,-5.53125 C 1.109375,-4.4375 0.984375,-3.328125 0.984375,-2.5 C 0.984375,-1.71875 1.09375,-0.515625 1.640625,0.625 C 2.25,1.84375 3.09375,2.5 3.203125,2.5 C 3.265625,2.5 3.296875,2.46875 3.296875,2.390625 z"
               style="stroke:none" />
          </symbol>
          <symbol
             id="textext-91e61cdf-9"
             overflow="visible"
             style="overflow:visible">
            <path
               id="path2477"
               d="M 2.875,-2.5 C 2.875,-3.265625 2.765625,-4.46875 2.21875,-5.609375 C 1.625,-6.828125 0.765625,-7.484375 0.671875,-7.484375 C 0.609375,-7.484375 0.5625,-7.4375 0.5625,-7.375 C 0.5625,-7.34375 0.5625,-7.328125 0.75,-7.140625 C 1.734375,-6.15625 2.296875,-4.578125 2.296875,-2.5 C 2.296875,-0.78125 1.9375,0.96875 0.703125,2.21875 C 0.5625,2.34375 0.5625,2.359375 0.5625,2.390625 C 0.5625,2.453125 0.609375,2.5 0.671875,2.5 C 0.765625,2.5 1.671875,1.8125 2.25,0.546875 C 2.765625,-0.546875 2.875,-1.65625 2.875,-2.5 z"
               style="stroke:none" />
          </symbol>
        </g>
      </defs>
      <g
         id="textext-91e61cdf-10">
        <g
           id="g2480"
           style="fill:#000000;fill-opacity:1">
          <use
             id="use2482"
             y="134.765"
             x="223.43201"
             xlink:href="#textext-91e61cdf-1"
             width="204.60754"
             height="100.69223" />
        </g>
        <g
           id="g2484"
           style="fill:#000000;fill-opacity:1">
          <use
             id="use2486"
             y="134.765"
             x="227.855"
             xlink:href="#textext-91e61cdf-8"
             width="204.60754"
             height="100.69223" />
        </g>
        <g
           id="g2488"
           style="fill:#000000;fill-opacity:1">
          <use
             id="use2490"
             y="134.765"
             x="231.472"
             xlink:href="#textext-91e61cdf-2"
             width="204.60754"
             height="100.69223" />
        </g>
        <g
           id="g2492"
           style="fill:#000000;fill-opacity:1">
          <use
             id="use2494"
             y="134.765"
             x="236.302"
             xlink:href="#textext-91e61cdf-4"
             width="204.60754"
             height="100.69223" />
        </g>
        <g
           id="g2496"
           style="fill:#000000;fill-opacity:1">
          <use
             id="use2498"
             y="134.765"
             x="245.427"
             xlink:href="#textext-91e61cdf-6"
             width="204.60754"
             height="100.69223" />
        </g>
        <g
           id="g2500"
           style="fill:#000000;fill-opacity:1">
          <use
             id="use2502"
             y="134.765"
             x="250.408"
             xlink:href="#textext-91e61cdf-9"
             width="204.60754"
             height="100.69223" />
        </g>
      </g>
    </g>
    <g
       ns0:text="$y(t-n)$"
       ns0:preamble="/home/diogo/.inkscape/extensions/preambulo_inkscape.tex"
       transform="translate(31.195176,-49.789444)"
       id="g2733">
      <defs
         id="defs2735">
        <g
           id="g2737">
          <symbol
             style="overflow:visible"
             overflow="visible"
             id="textext-e92ee467-0">
            <path
               style="stroke:none"
               d=""
               id="path2740" />
          </symbol>
          <symbol
             style="overflow:visible"
             overflow="visible"
             id="textext-e92ee467-1">
            <path
               style="stroke:none"
               d="M 6.59375,-2.296875 C 6.734375,-2.296875 6.921875,-2.296875 6.921875,-2.5 C 6.921875,-2.6875 6.734375,-2.6875 6.59375,-2.6875 L 1.15625,-2.6875 C 1.015625,-2.6875 0.828125,-2.6875 0.828125,-2.5 C 0.828125,-2.296875 1.015625,-2.296875 1.15625,-2.296875 L 6.59375,-2.296875 z"
               id="path2743" />
          </symbol>
          <symbol
             style="overflow:visible"
             overflow="visible"
             id="textext-e92ee467-2">
            <path
               style="stroke:none"
               d=""
               id="path2746" />
          </symbol>
          <symbol
             style="overflow:visible"
             overflow="visible"
             id="textext-e92ee467-3">
            <path
               style="stroke:none"
               d="M 0.15625,-3.984375 C 0.28125,-4.015625 0.34375,-4.03125 0.453125,-4.03125 C 1.03125,-4.03125 1.171875,-3.78125 1.640625,-2.0625 C 1.796875,-1.421875 2.046875,-0.25 2.046875,-0.078125 C 2.046875,0.078125 1.984375,0.234375 1.828125,0.421875 C 1.53125,0.828125 1.328125,1.09375 1.21875,1.203125 C 1,1.421875 0.890625,1.5 0.75,1.5 C 0.703125,1.5 0.625,1.46875 0.515625,1.390625 C 0.375,1.28125 0.265625,1.21875 0.15625,1.21875 C -0.0625,1.21875 -0.234375,1.390625 -0.234375,1.609375 C -0.234375,1.859375 -0.015625,2.046875 0.265625,2.046875 C 0.90625,2.046875 2.21875,0.5625 3.296875,-1.421875 C 3.96875,-2.640625 4.25,-3.359375 4.25,-3.84375 C 4.25,-4.140625 4,-4.390625 3.703125,-4.390625 C 3.46875,-4.390625 3.3125,-4.25 3.3125,-4.03125 C 3.3125,-3.875 3.390625,-3.765625 3.59375,-3.640625 C 3.78125,-3.53125 3.84375,-3.4375 3.84375,-3.296875 C 3.84375,-2.90625 3.484375,-2.125 2.625,-0.71875 L 2.4375,-1.875 C 2.28125,-2.75 1.71875,-4.390625 1.578125,-4.390625 L 1.53125,-4.390625 C 1.53125,-4.390625 1.484375,-4.390625 1.453125,-4.390625 C 1.359375,-4.375 1,-4.3125 0.46875,-4.21875 C 0.421875,-4.203125 0.296875,-4.171875 0.15625,-4.15625 L 0.15625,-3.984375 z"
               id="path2749" />
          </symbol>
          <symbol
             style="overflow:visible"
             overflow="visible"
             id="textext-e92ee467-4">
            <path
               style="stroke:none"
               d="M 2.953125,-4.265625 L 2.15625,-4.265625 L 2.4375,-5.296875 C 2.4375,-5.3125 2.4375,-5.328125 2.4375,-5.34375 C 2.4375,-5.40625 2.40625,-5.4375 2.359375,-5.4375 C 2.296875,-5.4375 2.265625,-5.4375 2.21875,-5.359375 C 1.828125,-4.84375 1.203125,-4.34375 0.890625,-4.25 C 0.640625,-4.171875 0.5625,-4.109375 0.5625,-4 C 0.5625,-4 0.5625,-3.984375 0.578125,-3.953125 L 1.3125,-3.953125 L 0.59375,-1.203125 C 0.578125,-1.109375 0.5625,-1.09375 0.53125,-1 C 0.453125,-0.703125 0.375,-0.34375 0.375,-0.265625 C 0.375,-0.046875 0.578125,0.109375 0.84375,0.109375 C 1.3125,0.109375 1.640625,-0.171875 2.265625,-1.09375 L 2.140625,-1.171875 C 1.640625,-0.53125 1.484375,-0.375 1.328125,-0.375 C 1.234375,-0.375 1.171875,-0.453125 1.171875,-0.578125 C 1.171875,-0.59375 1.171875,-0.59375 1.1875,-0.625 L 2.0625,-3.953125 L 2.90625,-3.953125 L 2.953125,-4.265625 z"
               id="path2752" />
          </symbol>
          <symbol
             style="overflow:visible"
             overflow="visible"
             id="textext-e92ee467-5">
            <path
               style="stroke:none"
               d="M 4.578125,-1.171875 L 4.375,-0.90625 C 4.09375,-0.53125 3.90625,-0.375 3.765625,-0.375 C 3.6875,-0.375 3.609375,-0.453125 3.609375,-0.53125 C 3.609375,-0.609375 3.609375,-0.609375 3.75,-1.171875 L 4.3125,-3.21875 C 4.359375,-3.421875 4.40625,-3.65625 4.40625,-3.78125 C 4.40625,-4.140625 4.140625,-4.390625 3.75,-4.390625 C 3.109375,-4.390625 2.484375,-3.796875 1.453125,-2.203125 L 2.125,-4.375 L 2.09375,-4.390625 C 1.5625,-4.28125 1.34375,-4.25 0.484375,-4.09375 L 0.484375,-3.921875 C 0.984375,-3.921875 1.109375,-3.859375 1.109375,-3.65625 C 1.109375,-3.59375 1.109375,-3.53125 1.09375,-3.484375 L 0.140625,0 L 0.890625,0 C 1.359375,-1.578125 1.453125,-1.796875 1.890625,-2.46875 C 2.484375,-3.390625 2.984375,-3.890625 3.359375,-3.890625 C 3.515625,-3.890625 3.59375,-3.78125 3.59375,-3.59375 C 3.59375,-3.484375 3.53125,-3.15625 3.453125,-2.84375 L 3.015625,-1.203125 C 2.890625,-0.6875 2.859375,-0.546875 2.859375,-0.453125 C 2.859375,-0.0625 3,0.09375 3.328125,0.09375 C 3.78125,0.09375 4.03125,-0.125 4.71875,-1.03125 L 4.578125,-1.171875 z"
               id="path2755" />
          </symbol>
          <symbol
             style="overflow:visible"
             overflow="visible"
             id="textext-e92ee467-6">
            <path
               style="stroke:none"
               d=""
               id="path2758" />
          </symbol>
          <symbol
             style="overflow:visible"
             overflow="visible"
             id="textext-e92ee467-7">
            <path
               style="stroke:none"
               d="M 3.296875,2.390625 C 3.296875,2.359375 3.296875,2.34375 3.125,2.171875 C 1.890625,0.921875 1.5625,-0.96875 1.5625,-2.5 C 1.5625,-4.234375 1.9375,-5.96875 3.171875,-7.203125 C 3.296875,-7.328125 3.296875,-7.34375 3.296875,-7.375 C 3.296875,-7.453125 3.265625,-7.484375 3.203125,-7.484375 C 3.09375,-7.484375 2.203125,-6.796875 1.609375,-5.53125 C 1.109375,-4.4375 0.984375,-3.328125 0.984375,-2.5 C 0.984375,-1.71875 1.09375,-0.515625 1.640625,0.625 C 2.25,1.84375 3.09375,2.5 3.203125,2.5 C 3.265625,2.5 3.296875,2.46875 3.296875,2.390625 z"
               id="path2761" />
          </symbol>
          <symbol
             style="overflow:visible"
             overflow="visible"
             id="textext-e92ee467-8">
            <path
               style="stroke:none"
               d="M 2.875,-2.5 C 2.875,-3.265625 2.765625,-4.46875 2.21875,-5.609375 C 1.625,-6.828125 0.765625,-7.484375 0.671875,-7.484375 C 0.609375,-7.484375 0.5625,-7.4375 0.5625,-7.375 C 0.5625,-7.34375 0.5625,-7.328125 0.75,-7.140625 C 1.734375,-6.15625 2.296875,-4.578125 2.296875,-2.5 C 2.296875,-0.78125 1.9375,0.96875 0.703125,2.21875 C 0.5625,2.34375 0.5625,2.359375 0.5625,2.390625 C 0.5625,2.453125 0.609375,2.5 0.671875,2.5 C 0.765625,2.5 1.671875,1.8125 2.25,0.546875 C 2.765625,-0.546875 2.875,-1.65625 2.875,-2.5 z"
               id="path2764" />
          </symbol>
        </g>
      </defs>
      <g
         id="textext-e92ee467-9">
        <g
           style="fill:#000000;fill-opacity:1"
           id="g2767">
          <use
             height="100.69223"
             width="204.60754"
             xlink:href="#textext-e92ee467-3"
             x="223.43201"
             y="134.765"
             id="use2769" />
        </g>
        <g
           style="fill:#000000;fill-opacity:1"
           id="g2771">
          <use
             height="100.69223"
             width="204.60754"
             xlink:href="#textext-e92ee467-7"
             x="227.855"
             y="134.765"
             id="use2773" />
        </g>
        <g
           style="fill:#000000;fill-opacity:1"
           id="g2775">
          <use
             height="100.69223"
             width="204.60754"
             xlink:href="#textext-e92ee467-4"
             x="231.472"
             y="134.765"
             id="use2777" />
        </g>
        <g
           style="fill:#000000;fill-opacity:1"
           id="g2779">
          <use
             height="100.69223"
             width="204.60754"
             xlink:href="#textext-e92ee467-1"
             x="236.302"
             y="134.765"
             id="use2781" />
        </g>
        <g
           style="fill:#000000;fill-opacity:1"
           id="g2783">
          <use
             height="100.69223"
             width="204.60754"
             xlink:href="#textext-e92ee467-5"
             x="245.427"
             y="134.765"
             id="use2785" />
        </g>
        <g
           style="fill:#000000;fill-opacity:1"
           id="g2787">
          <use
             height="100.69223"
             width="204.60754"
             xlink:href="#textext-e92ee467-8"
             x="250.408"
             y="134.765"
             id="use2789" />
        </g>
      </g>
    </g>
    <path
       sodipodi:nodetypes="cc"
       id="path3955"
       d="M 288.75255,82.483368 L 315.92599,82.483368"
       style="fill:none;fill-rule:evenodd;stroke:#000000;stroke-width:0.5;stroke-linecap:butt;stroke-linejoin:miter;marker-end:url(#Arrow1Mend);stroke-opacity:1" />
    <g
       id="g3049"
       transform="translate(77.844763,-63.355911)"
       ns0:preamble="/home/diogo/.inkscape/extensions/preambulo_inkscape.tex"
       ns0:text="$\\vdots$">
      <defs
         id="defs3051">
        <g
           id="g3053">
          <symbol
             id="textext-849c4d31-0"
             overflow="visible"
             style="overflow:visible">
            <path
               id="path3056"
               d=""
               style="stroke:none" />
          </symbol>
          <symbol
             id="textext-849c4d31-1"
             overflow="visible"
             style="overflow:visible">
            <path
               id="path3059"
               d="M 1.25,-1 C 0.953125,-1 0.703125,-0.734375 0.703125,-0.421875 C 0.703125,-0.140625 0.953125,0.109375 1.234375,0.109375 C 1.546875,0.109375 1.796875,-0.140625 1.796875,-0.421875 C 1.796875,-0.734375 1.546875,-1 1.25,-1 z"
               style="stroke:none" />
          </symbol>
        </g>
      </defs>
      <g
         id="textext-849c4d31-2">
        <g
           id="g3062"
           style="fill:#000000;fill-opacity:1">
          <use
             id="use3064"
             y="131.786"
             x="223.43201"
             xlink:href="#textext-849c4d31-1"
             width="204.60754"
             height="100.69223" />
        </g>
        <g
           id="g3066"
           style="fill:#000000;fill-opacity:1">
          <use
             id="use3068"
             y="135.771"
             x="223.43201"
             xlink:href="#textext-849c4d31-1"
             width="204.60754"
             height="100.69223" />
        </g>
        <g
           id="g3070"
           style="fill:#000000;fill-opacity:1">
          <use
             id="use3072"
             y="139.756"
             x="223.43201"
             xlink:href="#textext-849c4d31-1"
             width="204.60754"
             height="100.69223" />
        </g>
      </g>
    </g>
    <g
       ns0:text="$u(t-d)$"
       ns0:preamble="/home/diogo/.inkscape/extensions/preambulo_inkscape.tex"
       transform="translate(30.119187,-28.762256)"
       id="g3396">
      <defs
         id="defs3398">
        <g
           id="g3400">
          <symbol
             style="overflow:visible"
             overflow="visible"
             id="textext-f36f3d0e-0">
            <path
               style="stroke:none"
               d=""
               id="path3403" />
          </symbol>
          <symbol
             style="overflow:visible"
             overflow="visible"
             id="textext-f36f3d0e-1">
            <path
               style="stroke:none"
               d="M 6.59375,-2.296875 C 6.734375,-2.296875 6.921875,-2.296875 6.921875,-2.5 C 6.921875,-2.6875 6.734375,-2.6875 6.59375,-2.6875 L 1.15625,-2.6875 C 1.015625,-2.6875 0.828125,-2.6875 0.828125,-2.5 C 0.828125,-2.296875 1.015625,-2.296875 1.15625,-2.296875 L 6.59375,-2.296875 z"
               id="path3406" />
          </symbol>
          <symbol
             style="overflow:visible"
             overflow="visible"
             id="textext-f36f3d0e-2">
            <path
               style="stroke:none"
               d=""
               id="path3409" />
          </symbol>
          <symbol
             style="overflow:visible"
             overflow="visible"
             id="textext-f36f3d0e-3">
            <path
               style="stroke:none"
               d="M 3.296875,2.390625 C 3.296875,2.359375 3.296875,2.34375 3.125,2.171875 C 1.890625,0.921875 1.5625,-0.96875 1.5625,-2.5 C 1.5625,-4.234375 1.9375,-5.96875 3.171875,-7.203125 C 3.296875,-7.328125 3.296875,-7.34375 3.296875,-7.375 C 3.296875,-7.453125 3.265625,-7.484375 3.203125,-7.484375 C 3.09375,-7.484375 2.203125,-6.796875 1.609375,-5.53125 C 1.109375,-4.4375 0.984375,-3.328125 0.984375,-2.5 C 0.984375,-1.71875 1.09375,-0.515625 1.640625,0.625 C 2.25,1.84375 3.09375,2.5 3.203125,2.5 C 3.265625,2.5 3.296875,2.46875 3.296875,2.390625 z"
               id="path3412" />
          </symbol>
          <symbol
             style="overflow:visible"
             overflow="visible"
             id="textext-f36f3d0e-4">
            <path
               style="stroke:none"
               d="M 2.875,-2.5 C 2.875,-3.265625 2.765625,-4.46875 2.21875,-5.609375 C 1.625,-6.828125 0.765625,-7.484375 0.671875,-7.484375 C 0.609375,-7.484375 0.5625,-7.4375 0.5625,-7.375 C 0.5625,-7.34375 0.5625,-7.328125 0.75,-7.140625 C 1.734375,-6.15625 2.296875,-4.578125 2.296875,-2.5 C 2.296875,-0.78125 1.9375,0.96875 0.703125,2.21875 C 0.5625,2.34375 0.5625,2.359375 0.5625,2.390625 C 0.5625,2.453125 0.609375,2.5 0.671875,2.5 C 0.765625,2.5 1.671875,1.8125 2.25,0.546875 C 2.765625,-0.546875 2.875,-1.65625 2.875,-2.5 z"
               id="path3415" />
          </symbol>
          <symbol
             style="overflow:visible"
             overflow="visible"
             id="textext-f36f3d0e-5">
            <path
               style="stroke:none"
               d=""
               id="path3418" />
          </symbol>
          <symbol
             style="overflow:visible"
             overflow="visible"
             id="textext-f36f3d0e-6">
            <path
               style="stroke:none"
               d="M 4.59375,-1.171875 C 4.078125,-0.515625 3.921875,-0.375 3.765625,-0.375 C 3.703125,-0.375 3.65625,-0.4375 3.65625,-0.546875 C 3.65625,-0.609375 3.65625,-0.609375 3.84375,-1.328125 L 4.640625,-4.3125 L 3.890625,-4.3125 C 3.328125,-2.765625 3.265625,-2.609375 2.796875,-1.875 C 2.203125,-0.921875 1.71875,-0.421875 1.390625,-0.421875 C 1.28125,-0.421875 1.1875,-0.515625 1.1875,-0.671875 C 1.1875,-0.703125 1.1875,-0.734375 1.203125,-0.75 L 2.109375,-4.375 L 2.078125,-4.390625 C 1.5,-4.265625 1.140625,-4.203125 0.578125,-4.125 L 0.578125,-3.984375 C 0.953125,-3.984375 0.984375,-3.984375 1.0625,-3.921875 C 1.125,-3.90625 1.171875,-3.8125 1.171875,-3.75 C 1.171875,-3.671875 1.125,-3.421875 1.03125,-3.078125 L 0.671875,-1.671875 C 0.484375,-0.953125 0.421875,-0.625 0.421875,-0.4375 C 0.421875,-0.078125 0.59375,0.109375 0.953125,0.109375 C 1.65625,0.109375 2.1875,-0.421875 3.328125,-2.359375 C 3.046875,-1.28125 2.875,-0.59375 2.875,-0.390625 C 2.875,-0.09375 3.0625,0.09375 3.359375,0.09375 C 3.828125,0.09375 4.0625,-0.109375 4.734375,-1.078125 L 4.59375,-1.171875 z"
               id="path3421" />
          </symbol>
          <symbol
             style="overflow:visible"
             overflow="visible"
             id="textext-f36f3d0e-7">
            <path
               style="stroke:none"
               d="M 2.953125,-4.265625 L 2.15625,-4.265625 L 2.4375,-5.296875 C 2.4375,-5.3125 2.4375,-5.328125 2.4375,-5.34375 C 2.4375,-5.40625 2.40625,-5.4375 2.359375,-5.4375 C 2.296875,-5.4375 2.265625,-5.4375 2.21875,-5.359375 C 1.828125,-4.84375 1.203125,-4.34375 0.890625,-4.25 C 0.640625,-4.171875 0.5625,-4.109375 0.5625,-4 C 0.5625,-4 0.5625,-3.984375 0.578125,-3.953125 L 1.3125,-3.953125 L 0.59375,-1.203125 C 0.578125,-1.109375 0.5625,-1.09375 0.53125,-1 C 0.453125,-0.703125 0.375,-0.34375 0.375,-0.265625 C 0.375,-0.046875 0.578125,0.109375 0.84375,0.109375 C 1.3125,0.109375 1.640625,-0.171875 2.265625,-1.09375 L 2.140625,-1.171875 C 1.640625,-0.53125 1.484375,-0.375 1.328125,-0.375 C 1.234375,-0.375 1.171875,-0.453125 1.171875,-0.578125 C 1.171875,-0.59375 1.171875,-0.59375 1.1875,-0.625 L 2.0625,-3.953125 L 2.90625,-3.953125 L 2.953125,-4.265625 z"
               id="path3424" />
          </symbol>
          <symbol
             style="overflow:visible"
             overflow="visible"
             id="textext-f36f3d0e-8">
            <path
               style="stroke:none"
               d="M 4.609375,-1.109375 C 4.078125,-0.484375 3.96875,-0.40625 3.796875,-0.40625 C 3.703125,-0.40625 3.625,-0.484375 3.625,-0.59375 C 3.625,-0.734375 3.9375,-1.953125 4.265625,-3.046875 C 4.53125,-3.96875 4.75,-4.765625 5.25,-6.765625 L 5.203125,-6.8125 C 4.671875,-6.703125 4.3125,-6.640625 3.671875,-6.578125 L 3.671875,-6.40625 C 4.234375,-6.390625 4.296875,-6.359375 4.296875,-6.15625 C 4.296875,-6.015625 4.28125,-5.96875 4.140625,-5.453125 L 3.703125,-3.8125 C 3.625,-4.234375 3.453125,-4.390625 3.0625,-4.390625 C 1.765625,-4.390625 0.15625,-2.515625 0.15625,-1.03125 C 0.15625,-0.3125 0.546875,0.109375 1.203125,0.109375 C 1.875,0.109375 2.3125,-0.203125 2.984375,-1.203125 C 2.875,-0.703125 2.859375,-0.546875 2.859375,-0.3125 C 2.859375,-0.046875 3.03125,0.125 3.28125,0.125 C 3.703125,0.125 4.21875,-0.28125 4.734375,-1 L 4.609375,-1.109375 z M 3.09375,-4.171875 C 3.40625,-4.140625 3.546875,-3.953125 3.546875,-3.59375 C 3.546875,-2.078125 2.515625,-0.375 1.59375,-0.375 C 1.25,-0.375 1.015625,-0.640625 1.015625,-1.03125 C 1.015625,-1.859375 1.515625,-3.015625 2.171875,-3.703125 C 2.453125,-4 2.828125,-4.1875 3.09375,-4.171875 z"
               id="path3427" />
          </symbol>
        </g>
      </defs>
      <g
         id="textext-f36f3d0e-9">
        <g
           style="fill:#000000;fill-opacity:1"
           id="g3430">
          <use
             height="100.69223"
             width="204.60754"
             xlink:href="#textext-f36f3d0e-6"
             x="223.43201"
             y="134.765"
             id="use3432" />
        </g>
        <g
           style="fill:#000000;fill-opacity:1"
           id="g3434">
          <use
             height="100.69223"
             width="204.60754"
             xlink:href="#textext-f36f3d0e-3"
             x="228.41299"
             y="134.765"
             id="use3436" />
        </g>
        <g
           style="fill:#000000;fill-opacity:1"
           id="g3438">
          <use
             height="100.69223"
             width="204.60754"
             xlink:href="#textext-f36f3d0e-7"
             x="232.03"
             y="134.765"
             id="use3440" />
        </g>
        <g
           style="fill:#000000;fill-opacity:1"
           id="g3442">
          <use
             height="100.69223"
             width="204.60754"
             xlink:href="#textext-f36f3d0e-1"
             x="236.86"
             y="134.765"
             id="use3444" />
        </g>
        <g
           style="fill:#000000;fill-opacity:1"
           id="g3446">
          <use
             height="100.69223"
             width="204.60754"
             xlink:href="#textext-f36f3d0e-8"
             x="245.985"
             y="134.765"
             id="use3448" />
        </g>
        <g
           style="fill:#000000;fill-opacity:1"
           id="g3450">
          <use
             height="100.69223"
             width="204.60754"
             xlink:href="#textext-f36f3d0e-4"
             x="251.48399"
             y="134.765"
             id="use3452" />
        </g>
      </g>
    </g>
    <g
       id="g3820"
       transform="translate(12.418183,-7.7350668)"
       ns0:preamble="/home/diogo/.inkscape/extensions/preambulo_inkscape.tex"
       ns0:text="$u(t-d-m)$">
      <defs
         id="defs3822">
        <g
           id="g3824">
          <symbol
             id="textext-3222be45-0"
             overflow="visible"
             style="overflow:visible">
            <path
               id="path3827"
               d=""
               style="stroke:none" />
          </symbol>
          <symbol
             id="textext-3222be45-1"
             overflow="visible"
             style="overflow:visible">
            <path
               id="path3830"
               d="M 6.59375,-2.296875 C 6.734375,-2.296875 6.921875,-2.296875 6.921875,-2.5 C 6.921875,-2.6875 6.734375,-2.6875 6.59375,-2.6875 L 1.15625,-2.6875 C 1.015625,-2.6875 0.828125,-2.6875 0.828125,-2.5 C 0.828125,-2.296875 1.015625,-2.296875 1.15625,-2.296875 L 6.59375,-2.296875 z"
               style="stroke:none" />
          </symbol>
          <symbol
             id="textext-3222be45-2"
             overflow="visible"
             style="overflow:visible">
            <path
               id="path3833"
               d=""
               style="stroke:none" />
          </symbol>
          <symbol
             id="textext-3222be45-3"
             overflow="visible"
             style="overflow:visible">
            <path
               id="path3836"
               d="M 4.59375,-1.171875 C 4.078125,-0.515625 3.921875,-0.375 3.765625,-0.375 C 3.703125,-0.375 3.65625,-0.4375 3.65625,-0.546875 C 3.65625,-0.609375 3.65625,-0.609375 3.84375,-1.328125 L 4.640625,-4.3125 L 3.890625,-4.3125 C 3.328125,-2.765625 3.265625,-2.609375 2.796875,-1.875 C 2.203125,-0.921875 1.71875,-0.421875 1.390625,-0.421875 C 1.28125,-0.421875 1.1875,-0.515625 1.1875,-0.671875 C 1.1875,-0.703125 1.1875,-0.734375 1.203125,-0.75 L 2.109375,-4.375 L 2.078125,-4.390625 C 1.5,-4.265625 1.140625,-4.203125 0.578125,-4.125 L 0.578125,-3.984375 C 0.953125,-3.984375 0.984375,-3.984375 1.0625,-3.921875 C 1.125,-3.90625 1.171875,-3.8125 1.171875,-3.75 C 1.171875,-3.671875 1.125,-3.421875 1.03125,-3.078125 L 0.671875,-1.671875 C 0.484375,-0.953125 0.421875,-0.625 0.421875,-0.4375 C 0.421875,-0.078125 0.59375,0.109375 0.953125,0.109375 C 1.65625,0.109375 2.1875,-0.421875 3.328125,-2.359375 C 3.046875,-1.28125 2.875,-0.59375 2.875,-0.390625 C 2.875,-0.09375 3.0625,0.09375 3.359375,0.09375 C 3.828125,0.09375 4.0625,-0.109375 4.734375,-1.078125 L 4.59375,-1.171875 z"
               style="stroke:none" />
          </symbol>
          <symbol
             id="textext-3222be45-4"
             overflow="visible"
             style="overflow:visible">
            <path
               id="path3839"
               d="M 2.953125,-4.265625 L 2.15625,-4.265625 L 2.4375,-5.296875 C 2.4375,-5.3125 2.4375,-5.328125 2.4375,-5.34375 C 2.4375,-5.40625 2.40625,-5.4375 2.359375,-5.4375 C 2.296875,-5.4375 2.265625,-5.4375 2.21875,-5.359375 C 1.828125,-4.84375 1.203125,-4.34375 0.890625,-4.25 C 0.640625,-4.171875 0.5625,-4.109375 0.5625,-4 C 0.5625,-4 0.5625,-3.984375 0.578125,-3.953125 L 1.3125,-3.953125 L 0.59375,-1.203125 C 0.578125,-1.109375 0.5625,-1.09375 0.53125,-1 C 0.453125,-0.703125 0.375,-0.34375 0.375,-0.265625 C 0.375,-0.046875 0.578125,0.109375 0.84375,0.109375 C 1.3125,0.109375 1.640625,-0.171875 2.265625,-1.09375 L 2.140625,-1.171875 C 1.640625,-0.53125 1.484375,-0.375 1.328125,-0.375 C 1.234375,-0.375 1.171875,-0.453125 1.171875,-0.578125 C 1.171875,-0.59375 1.171875,-0.59375 1.1875,-0.625 L 2.0625,-3.953125 L 2.90625,-3.953125 L 2.953125,-4.265625 z"
               style="stroke:none" />
          </symbol>
          <symbol
             id="textext-3222be45-5"
             overflow="visible"
             style="overflow:visible">
            <path
               id="path3842"
               d="M 4.609375,-1.109375 C 4.078125,-0.484375 3.96875,-0.40625 3.796875,-0.40625 C 3.703125,-0.40625 3.625,-0.484375 3.625,-0.59375 C 3.625,-0.734375 3.9375,-1.953125 4.265625,-3.046875 C 4.53125,-3.96875 4.75,-4.765625 5.25,-6.765625 L 5.203125,-6.8125 C 4.671875,-6.703125 4.3125,-6.640625 3.671875,-6.578125 L 3.671875,-6.40625 C 4.234375,-6.390625 4.296875,-6.359375 4.296875,-6.15625 C 4.296875,-6.015625 4.28125,-5.96875 4.140625,-5.453125 L 3.703125,-3.8125 C 3.625,-4.234375 3.453125,-4.390625 3.0625,-4.390625 C 1.765625,-4.390625 0.15625,-2.515625 0.15625,-1.03125 C 0.15625,-0.3125 0.546875,0.109375 1.203125,0.109375 C 1.875,0.109375 2.3125,-0.203125 2.984375,-1.203125 C 2.875,-0.703125 2.859375,-0.546875 2.859375,-0.3125 C 2.859375,-0.046875 3.03125,0.125 3.28125,0.125 C 3.703125,0.125 4.21875,-0.28125 4.734375,-1 L 4.609375,-1.109375 z M 3.09375,-4.171875 C 3.40625,-4.140625 3.546875,-3.953125 3.546875,-3.59375 C 3.546875,-2.078125 2.515625,-0.375 1.59375,-0.375 C 1.25,-0.375 1.015625,-0.640625 1.015625,-1.03125 C 1.015625,-1.859375 1.515625,-3.015625 2.171875,-3.703125 C 2.453125,-4 2.828125,-4.1875 3.09375,-4.171875 z"
               style="stroke:none" />
          </symbol>
          <symbol
             id="textext-3222be45-6"
             overflow="visible"
             style="overflow:visible">
            <path
               id="path3845"
               d="M 6.875,-1.171875 C 6.765625,-1.046875 6.6875,-0.953125 6.65625,-0.90625 C 6.375,-0.546875 6.171875,-0.375 6.015625,-0.375 C 5.9375,-0.375 5.890625,-0.4375 5.890625,-0.53125 C 5.890625,-0.59375 5.9375,-0.75 5.984375,-0.984375 L 6.671875,-3.484375 C 6.671875,-3.53125 6.703125,-3.703125 6.703125,-3.765625 C 6.703125,-4.125 6.453125,-4.390625 6.109375,-4.390625 C 5.921875,-4.390625 5.71875,-4.328125 5.484375,-4.171875 C 5,-3.859375 4.578125,-3.375 3.890625,-2.28125 C 4.140625,-3.046875 4.296875,-3.609375 4.296875,-3.796875 C 4.296875,-4.140625 4.0625,-4.390625 3.734375,-4.390625 C 3.125,-4.390625 2.421875,-3.734375 1.5,-2.296875 L 2.078125,-4.375 L 2.046875,-4.390625 C 1.5,-4.28125 1.28125,-4.234375 0.453125,-4.09375 L 0.453125,-3.921875 L 0.703125,-3.921875 C 0.96875,-3.921875 1.09375,-3.859375 1.09375,-3.703125 C 1.09375,-3.59375 0.875,-2.6875 0.515625,-1.421875 C 0.28125,-0.609375 0.25,-0.515625 0.125,0 L 0.875,0 C 1.34375,-1.578125 1.5,-1.953125 1.828125,-2.46875 C 2.390625,-3.3125 2.984375,-3.875 3.328125,-3.875 C 3.453125,-3.875 3.53125,-3.78125 3.53125,-3.625 C 3.53125,-3.53125 3.203125,-2.328125 2.578125,0 L 3.328125,0 C 3.734375,-1.5625 3.921875,-2.046875 4.4375,-2.765625 C 4.921875,-3.4375 5.421875,-3.875 5.71875,-3.875 C 5.828125,-3.875 5.90625,-3.78125 5.90625,-3.671875 C 5.90625,-3.625 5.890625,-3.5 5.84375,-3.3125 L 5.265625,-1.03125 C 5.171875,-0.65625 5.140625,-0.46875 5.140625,-0.375 C 5.140625,-0.0625 5.28125,0.09375 5.53125,0.09375 C 6,0.09375 6.4375,-0.234375 6.96875,-0.984375 L 7.015625,-1.046875 L 6.875,-1.171875 z"
               style="stroke:none" />
          </symbol>
          <symbol
             id="textext-3222be45-7"
             overflow="visible"
             style="overflow:visible">
            <path
               id="path3848"
               d=""
               style="stroke:none" />
          </symbol>
          <symbol
             id="textext-3222be45-8"
             overflow="visible"
             style="overflow:visible">
            <path
               id="path3851"
               d="M 3.296875,2.390625 C 3.296875,2.359375 3.296875,2.34375 3.125,2.171875 C 1.890625,0.921875 1.5625,-0.96875 1.5625,-2.5 C 1.5625,-4.234375 1.9375,-5.96875 3.171875,-7.203125 C 3.296875,-7.328125 3.296875,-7.34375 3.296875,-7.375 C 3.296875,-7.453125 3.265625,-7.484375 3.203125,-7.484375 C 3.09375,-7.484375 2.203125,-6.796875 1.609375,-5.53125 C 1.109375,-4.4375 0.984375,-3.328125 0.984375,-2.5 C 0.984375,-1.71875 1.09375,-0.515625 1.640625,0.625 C 2.25,1.84375 3.09375,2.5 3.203125,2.5 C 3.265625,2.5 3.296875,2.46875 3.296875,2.390625 z"
               style="stroke:none" />
          </symbol>
          <symbol
             id="textext-3222be45-9"
             overflow="visible"
             style="overflow:visible">
            <path
               id="path3854"
               d="M 2.875,-2.5 C 2.875,-3.265625 2.765625,-4.46875 2.21875,-5.609375 C 1.625,-6.828125 0.765625,-7.484375 0.671875,-7.484375 C 0.609375,-7.484375 0.5625,-7.4375 0.5625,-7.375 C 0.5625,-7.34375 0.5625,-7.328125 0.75,-7.140625 C 1.734375,-6.15625 2.296875,-4.578125 2.296875,-2.5 C 2.296875,-0.78125 1.9375,0.96875 0.703125,2.21875 C 0.5625,2.34375 0.5625,2.359375 0.5625,2.390625 C 0.5625,2.453125 0.609375,2.5 0.671875,2.5 C 0.765625,2.5 1.671875,1.8125 2.25,0.546875 C 2.765625,-0.546875 2.875,-1.65625 2.875,-2.5 z"
               style="stroke:none" />
          </symbol>
        </g>
      </defs>
      <g
         id="textext-3222be45-10">
        <g
           id="g3857"
           style="fill:#000000;fill-opacity:1">
          <use
             id="use3859"
             y="134.765"
             x="223.43201"
             xlink:href="#textext-3222be45-3"
             width="204.60754"
             height="100.69223" />
        </g>
        <g
           id="g3861"
           style="fill:#000000;fill-opacity:1">
          <use
             id="use3863"
             y="134.765"
             x="228.41299"
             xlink:href="#textext-3222be45-8"
             width="204.60754"
             height="100.69223" />
        </g>
        <g
           id="g3865"
           style="fill:#000000;fill-opacity:1">
          <use
             id="use3867"
             y="134.765"
             x="232.03"
             xlink:href="#textext-3222be45-4"
             width="204.60754"
             height="100.69223" />
        </g>
        <g
           id="g3869"
           style="fill:#000000;fill-opacity:1">
          <use
             id="use3871"
             y="134.765"
             x="236.86"
             xlink:href="#textext-3222be45-1"
             width="204.60754"
             height="100.69223" />
        </g>
        <g
           id="g3873"
           style="fill:#000000;fill-opacity:1">
          <use
             id="use3875"
             y="134.765"
             x="245.985"
             xlink:href="#textext-3222be45-5"
             width="204.60754"
             height="100.69223" />
        </g>
        <g
           id="g3877"
           style="fill:#000000;fill-opacity:1">
          <use
             id="use3879"
             y="134.765"
             x="252.868"
             xlink:href="#textext-3222be45-1"
             width="204.60754"
             height="100.69223" />
        </g>
        <g
           id="g3881"
           style="fill:#000000;fill-opacity:1">
          <use
             id="use3883"
             y="134.765"
             x="261.992"
             xlink:href="#textext-3222be45-6"
             width="204.60754"
             height="100.69223" />
        </g>
        <g
           id="g3885"
           style="fill:#000000;fill-opacity:1">
          <use
             id="use3887"
             y="134.765"
             x="269.185"
             xlink:href="#textext-3222be45-9"
             width="204.60754"
             height="100.69223" />
        </g>
      </g>
    </g>
    <rect
       style="opacity:1;fill:#e6e6e6;fill-opacity:1;stroke:#000000;stroke-width:1;stroke-linecap:square;stroke-linejoin:miter;stroke-miterlimit:4;stroke-dasharray:none;stroke-dashoffset:0;stroke-opacity:1"
       id="rect5121"
       width="52.02795"
       height="83.560043"
       x="317.60632"
       y="51.216946"
       ry="10.773463"
       rx="10.773463" />
    <g
       ns0:text="\\Large\nRNA"
       ns0:preamble="/home/diogo/.inkscape/extensions/preambulo_inkscape.tex"
       transform="translate(105.28842,-37.01022)"
       id="g6088">
      <defs
         id="defs6090">
        <g
           id="g6092">
          <symbol
             style="overflow:visible"
             overflow="visible"
             id="textext-d2d8c4a5-0">
            <path
               style="stroke:none"
               d=""
               id="path6095" />
          </symbol>
          <symbol
             style="overflow:visible"
             overflow="visible"
             id="textext-d2d8c4a5-1">
            <path
               style="stroke:none"
               d="M 9.453125,-0.265625 C 8.90625,-0.3125 8.625,-0.453125 8.203125,-0.953125 L 5.25,-4.578125 C 6.203125,-4.765625 6.640625,-4.9375 7.109375,-5.328125 C 7.578125,-5.6875 7.84375,-6.296875 7.84375,-6.96875 C 7.84375,-7.59375 7.65625,-8.125 7.28125,-8.53125 C 6.734375,-9.125 5.546875,-9.5 4.203125,-9.5 L 0.25,-9.5 L 0.25,-9.21875 C 1.3125,-9.109375 1.46875,-8.953125 1.46875,-7.9375 L 1.46875,-1.71875 C 1.46875,-0.53125 1.3125,-0.359375 0.25,-0.265625 L 0.25,0 L 4.21875,0 L 4.21875,-0.265625 C 3.109375,-0.34375 2.921875,-0.53125 2.921875,-1.5625 L 2.921875,-4.390625 L 3.734375,-4.421875 L 7.140625,0 L 9.453125,0 L 9.453125,-0.265625 z M 2.921875,-8.453125 C 2.921875,-8.84375 3.078125,-8.96875 3.65625,-8.96875 C 5.453125,-8.96875 6.28125,-8.34375 6.28125,-7 C 6.28125,-6.28125 5.984375,-5.6875 5.46875,-5.40625 C 4.8125,-5.03125 4.296875,-4.953125 2.921875,-4.921875 L 2.921875,-8.453125 z"
               id="path6098" />
          </symbol>
          <symbol
             style="overflow:visible"
             overflow="visible"
             id="textext-d2d8c4a5-2">
            <path
               style="stroke:none"
               d="M 8.78125,0.15625 L 8.78125,-7.390625 C 8.78125,-8.25 8.921875,-8.78125 9.1875,-8.96875 C 9.390625,-9.109375 9.59375,-9.171875 10.140625,-9.21875 L 10.140625,-9.5 L 6.765625,-9.5 L 6.765625,-9.21875 C 7.3125,-9.1875 7.515625,-9.125 7.734375,-9 C 8.015625,-8.796875 8.140625,-8.28125 8.140625,-7.390625 L 8.140625,-2.546875 L 2.625,-9.5 L 0.171875,-9.5 L 0.171875,-9.21875 C 0.78125,-9.21875 0.984375,-9.109375 1.5625,-8.4375 L 1.5625,-2.109375 C 1.5625,-0.625 1.359375,-0.359375 0.171875,-0.265625 L 0.171875,0 L 3.546875,0 L 3.546875,-0.265625 C 2.4375,-0.328125 2.1875,-0.65625 2.1875,-2.109375 L 2.1875,-7.734375 L 8.53125,0.15625 L 8.78125,0.15625 z"
               id="path6101" />
          </symbol>
          <symbol
             style="overflow:visible"
             overflow="visible"
             id="textext-d2d8c4a5-3">
            <path
               style="stroke:none"
               d="M 10.125,-0.265625 C 9.484375,-0.3125 9.34375,-0.453125 8.828125,-1.515625 L 5.265625,-9.671875 L 4.984375,-9.671875 L 2,-2.625 C 1.078125,-0.53125 0.90625,-0.296875 0.21875,-0.265625 L 0.21875,0 L 3.0625,0 L 3.0625,-0.265625 C 2.359375,-0.265625 2.078125,-0.453125 2.078125,-0.859375 C 2.078125,-1.03125 2.125,-1.234375 2.1875,-1.421875 L 2.859375,-3.09375 L 6.609375,-3.09375 L 7.203125,-1.71875 C 7.375,-1.328125 7.46875,-0.96875 7.46875,-0.765625 C 7.46875,-0.40625 7.234375,-0.28125 6.46875,-0.265625 L 6.46875,0 L 10.125,0 L 10.125,-0.265625 z M 3.09375,-3.6875 L 4.75,-7.625 L 6.40625,-3.6875 L 3.09375,-3.6875 z"
               id="path6104" />
          </symbol>
        </g>
      </defs>
      <g
         id="textext-d2d8c4a5-4">
        <g
           style="fill:#000000;fill-opacity:1"
           id="g6107">
          <use
             height="100.69223"
             width="204.60754"
             xlink:href="#textext-d2d8c4a5-1"
             x="223.43201"
             y="134.765"
             id="use6109" />
          <use
             height="100.69223"
             width="204.60754"
             xlink:href="#textext-d2d8c4a5-2"
             x="233.00092"
             y="134.765"
             id="use6111" />
        </g>
        <g
           style="fill:#000000;fill-opacity:1"
           id="g6113">
          <use
             height="100.69223"
             width="204.60754"
             xlink:href="#textext-d2d8c4a5-3"
             x="242.85675"
             y="134.765"
             id="use6115" />
        </g>
      </g>
    </g>
    <g
       id="g6599"
       transform="translate(178.69211,-39.275845)"
       ns0:preamble="/home/diogo/.inkscape/extensions/preambulo_inkscape.tex"
       ns0:text="$\\hat y(t)$">
      <defs
         id="defs6601">
        <g
           id="g6603">
          <symbol
             id="textext-afede0b5-0"
             overflow="visible"
             style="overflow:visible">
            <path
               id="path6606"
               d=""
               style="stroke:none" />
          </symbol>
          <symbol
             id="textext-afede0b5-1"
             overflow="visible"
             style="overflow:visible">
            <path
               id="path6609"
               d="M 3.203125,-5.046875 L 1.96875,-6.71875 L 1.34375,-6.71875 L 0.109375,-5.046875 L 0.453125,-5.046875 L 1.65625,-6.078125 L 2.875,-5.046875 L 3.203125,-5.046875 z"
               style="stroke:none" />
          </symbol>
          <symbol
             id="textext-afede0b5-2"
             overflow="visible"
             style="overflow:visible">
            <path
               id="path6612"
               d=""
               style="stroke:none" />
          </symbol>
          <symbol
             id="textext-afede0b5-3"
             overflow="visible"
             style="overflow:visible">
            <path
               id="path6615"
               d="M 0.15625,-3.984375 C 0.28125,-4.015625 0.34375,-4.03125 0.453125,-4.03125 C 1.03125,-4.03125 1.171875,-3.78125 1.640625,-2.0625 C 1.796875,-1.421875 2.046875,-0.25 2.046875,-0.078125 C 2.046875,0.078125 1.984375,0.234375 1.828125,0.421875 C 1.53125,0.828125 1.328125,1.09375 1.21875,1.203125 C 1,1.421875 0.890625,1.5 0.75,1.5 C 0.703125,1.5 0.625,1.46875 0.515625,1.390625 C 0.375,1.28125 0.265625,1.21875 0.15625,1.21875 C -0.0625,1.21875 -0.234375,1.390625 -0.234375,1.609375 C -0.234375,1.859375 -0.015625,2.046875 0.265625,2.046875 C 0.90625,2.046875 2.21875,0.5625 3.296875,-1.421875 C 3.96875,-2.640625 4.25,-3.359375 4.25,-3.84375 C 4.25,-4.140625 4,-4.390625 3.703125,-4.390625 C 3.46875,-4.390625 3.3125,-4.25 3.3125,-4.03125 C 3.3125,-3.875 3.390625,-3.765625 3.59375,-3.640625 C 3.78125,-3.53125 3.84375,-3.4375 3.84375,-3.296875 C 3.84375,-2.90625 3.484375,-2.125 2.625,-0.71875 L 2.4375,-1.875 C 2.28125,-2.75 1.71875,-4.390625 1.578125,-4.390625 L 1.53125,-4.390625 C 1.53125,-4.390625 1.484375,-4.390625 1.453125,-4.390625 C 1.359375,-4.375 1,-4.3125 0.46875,-4.21875 C 0.421875,-4.203125 0.296875,-4.171875 0.15625,-4.15625 L 0.15625,-3.984375 z"
               style="stroke:none" />
          </symbol>
          <symbol
             id="textext-afede0b5-4"
             overflow="visible"
             style="overflow:visible">
            <path
               id="path6618"
               d="M 2.953125,-4.265625 L 2.15625,-4.265625 L 2.4375,-5.296875 C 2.4375,-5.3125 2.4375,-5.328125 2.4375,-5.34375 C 2.4375,-5.40625 2.40625,-5.4375 2.359375,-5.4375 C 2.296875,-5.4375 2.265625,-5.4375 2.21875,-5.359375 C 1.828125,-4.84375 1.203125,-4.34375 0.890625,-4.25 C 0.640625,-4.171875 0.5625,-4.109375 0.5625,-4 C 0.5625,-4 0.5625,-3.984375 0.578125,-3.953125 L 1.3125,-3.953125 L 0.59375,-1.203125 C 0.578125,-1.109375 0.5625,-1.09375 0.53125,-1 C 0.453125,-0.703125 0.375,-0.34375 0.375,-0.265625 C 0.375,-0.046875 0.578125,0.109375 0.84375,0.109375 C 1.3125,0.109375 1.640625,-0.171875 2.265625,-1.09375 L 2.140625,-1.171875 C 1.640625,-0.53125 1.484375,-0.375 1.328125,-0.375 C 1.234375,-0.375 1.171875,-0.453125 1.171875,-0.578125 C 1.171875,-0.59375 1.171875,-0.59375 1.1875,-0.625 L 2.0625,-3.953125 L 2.90625,-3.953125 L 2.953125,-4.265625 z"
               style="stroke:none" />
          </symbol>
          <symbol
             id="textext-afede0b5-5"
             overflow="visible"
             style="overflow:visible">
            <path
               id="path6621"
               d=""
               style="stroke:none" />
          </symbol>
          <symbol
             id="textext-afede0b5-6"
             overflow="visible"
             style="overflow:visible">
            <path
               id="path6624"
               d="M 3.296875,2.390625 C 3.296875,2.359375 3.296875,2.34375 3.125,2.171875 C 1.890625,0.921875 1.5625,-0.96875 1.5625,-2.5 C 1.5625,-4.234375 1.9375,-5.96875 3.171875,-7.203125 C 3.296875,-7.328125 3.296875,-7.34375 3.296875,-7.375 C 3.296875,-7.453125 3.265625,-7.484375 3.203125,-7.484375 C 3.09375,-7.484375 2.203125,-6.796875 1.609375,-5.53125 C 1.109375,-4.4375 0.984375,-3.328125 0.984375,-2.5 C 0.984375,-1.71875 1.09375,-0.515625 1.640625,0.625 C 2.25,1.84375 3.09375,2.5 3.203125,2.5 C 3.265625,2.5 3.296875,2.46875 3.296875,2.390625 z"
               style="stroke:none" />
          </symbol>
          <symbol
             id="textext-afede0b5-7"
             overflow="visible"
             style="overflow:visible">
            <path
               id="path6627"
               d="M 2.875,-2.5 C 2.875,-3.265625 2.765625,-4.46875 2.21875,-5.609375 C 1.625,-6.828125 0.765625,-7.484375 0.671875,-7.484375 C 0.609375,-7.484375 0.5625,-7.4375 0.5625,-7.375 C 0.5625,-7.34375 0.5625,-7.328125 0.75,-7.140625 C 1.734375,-6.15625 2.296875,-4.578125 2.296875,-2.5 C 2.296875,-0.78125 1.9375,0.96875 0.703125,2.21875 C 0.5625,2.34375 0.5625,2.359375 0.5625,2.390625 C 0.5625,2.453125 0.609375,2.5 0.671875,2.5 C 0.765625,2.5 1.671875,1.8125 2.25,0.546875 C 2.765625,-0.546875 2.875,-1.65625 2.875,-2.5 z"
               style="stroke:none" />
          </symbol>
        </g>
      </defs>
      <g
         id="textext-afede0b5-8">
        <g
           id="g6630"
           style="fill:#000000;fill-opacity:1">
          <use
             id="use6632"
             y="134.765"
             x="224.73199"
             xlink:href="#textext-afede0b5-1"
             width="204.60754"
             height="100.69223" />
        </g>
        <g
           id="g6634"
           style="fill:#000000;fill-opacity:1">
          <use
             id="use6636"
             y="134.765"
             x="223.43201"
             xlink:href="#textext-afede0b5-3"
             width="204.60754"
             height="100.69223" />
        </g>
        <g
           id="g6638"
           style="fill:#000000;fill-opacity:1">
          <use
             id="use6640"
             y="134.765"
             x="227.855"
             xlink:href="#textext-afede0b5-6"
             width="204.60754"
             height="100.69223" />
        </g>
        <g
           id="g6642"
           style="fill:#000000;fill-opacity:1">
          <use
             id="use6644"
             y="134.765"
             x="231.472"
             xlink:href="#textext-afede0b5-4"
             width="204.60754"
             height="100.69223" />
        </g>
        <g
           id="g6646"
           style="fill:#000000;fill-opacity:1">
          <use
             id="use6648"
             y="134.765"
             x="234.91901"
             xlink:href="#textext-afede0b5-7"
             width="204.60754"
             height="100.69223" />
        </g>
      </g>
    </g>
    <path
       sodipodi:nodetypes="cc"
       id="path6916"
       d="M 288.75255,61.456178 L 315.92599,61.456178"
       style="fill:none;fill-rule:evenodd;stroke:#000000;stroke-width:0.5;stroke-linecap:butt;stroke-linejoin:miter;marker-end:url(#Arrow1Mend);stroke-opacity:1" />
    <path
       sodipodi:nodetypes="cc"
       id="path6920"
       d="M 288.75255,124.53775 L 315.92599,124.53775"
       style="fill:none;fill-rule:evenodd;stroke:#000000;stroke-width:0.5;stroke-linecap:butt;stroke-linejoin:miter;marker-end:url(#Arrow1Mend);stroke-opacity:1" />
    <g
       id="g6922"
       transform="translate(77.844763,-21.301529)"
       ns0:preamble="/home/diogo/.inkscape/extensions/preambulo_inkscape.tex"
       ns0:text="$\\vdots$">
      <defs
         id="defs6924">
        <g
           id="g6926">
          <symbol
             id="symbol6928"
             overflow="visible"
             style="overflow:visible">
            <path
               id="path6930"
               d=""
               style="stroke:none" />
          </symbol>
          <symbol
             id="symbol6932"
             overflow="visible"
             style="overflow:visible">
            <path
               id="path6934"
               d="M 1.25,-1 C 0.953125,-1 0.703125,-0.734375 0.703125,-0.421875 C 0.703125,-0.140625 0.953125,0.109375 1.234375,0.109375 C 1.546875,0.109375 1.796875,-0.140625 1.796875,-0.421875 C 1.796875,-0.734375 1.546875,-1 1.25,-1 z"
               style="stroke:none" />
          </symbol>
        </g>
      </defs>
      <g
         id="g6936">
        <g
           id="g6938"
           style="fill:#000000;fill-opacity:1">
          <use
             id="use6940"
             y="131.786"
             x="223.43201"
             xlink:href="#textext-849c4d31-1"
             width="204.60754"
             height="100.69223" />
        </g>
        <g
           id="g6942"
           style="fill:#000000;fill-opacity:1">
          <use
             id="use6944"
             y="135.771"
             x="223.43201"
             xlink:href="#textext-849c4d31-1"
             width="204.60754"
             height="100.69223" />
        </g>
        <g
           id="g6946"
           style="fill:#000000;fill-opacity:1">
          <use
             id="use6948"
             y="139.756"
             x="223.43201"
             xlink:href="#textext-849c4d31-1"
             width="204.60754"
             height="100.69223" />
        </g>
      </g>
    </g>
    <path
       sodipodi:nodetypes="cc"
       id="path6950"
       d="M 288.75255,103.51056 L 315.92599,103.51056"
       style="fill:none;fill-rule:evenodd;stroke:#000000;stroke-width:0.5;stroke-linecap:butt;stroke-linejoin:miter;marker-end:url(#Arrow1Mend);stroke-opacity:1" />
    <path
       sodipodi:nodetypes="cc"
       id="path6952"
       d="M 370.0495,92.996967 L 397.22294,92.996967"
       style="fill:none;fill-rule:evenodd;stroke:#000000;stroke-width:0.5;stroke-linecap:butt;stroke-linejoin:miter;marker-end:url(#Arrow1Mend);stroke-opacity:1" />
  </g>
</svg>
