<?xml version="1.0" encoding="UTF-8"?>
<svg width="315pt" xmlns:xlink="http://www.w3.org/1999/xlink" xmlns="http://www.w3.org/2000/svg" height="131pt" viewBox="0 0 315 131" >
 <g transform="translate(0.0761719, 0.576172)" style="fill:#ffffff; fill-rule:evenodd; stroke:none; stroke-width:0.06299; stroke-linecap:butt; stroke-linejoin:miter; stroke-dasharray:none;" >
  <path d="M0 0 C0 0 314.636 0 314.636 0 C314.636 0 314.636 130.39 314.636 130.39 C314.636 130.39 0 130.39 0 130.39 C0 130.39 0 0 0 0 Z" />
 </g>
 <g transform="translate(5.74512, 6.24512)" style="fill:none; stroke:#000000; stroke-width:1.8897; stroke-linecap:butt; stroke-linejoin:miter; stroke-dasharray:none;" >
  <path d="M0 0 C0 0 303.297 0 303.297 0 " />
 </g>
 <g transform="translate(5.74512, 26.0869)" style="fill:none; stroke:#000000; stroke-width:1.8897; stroke-linecap:butt; stroke-linejoin:miter; stroke-dasharray:none;" >
  <path d="M0 0 C0 0 303.297 0 303.297 0 " />
 </g>
 <g transform="translate(5.74512, 45.9297)" style="fill:none; stroke:#000000; stroke-width:1.8897; stroke-linecap:butt; stroke-linejoin:miter; stroke-dasharray:none;" >
  <path d="M0 0 C0 0 303.297 0 303.297 0 " />
 </g>
 <g transform="translate(5.74512, 85.6133)" style="fill:none; stroke:#000000; stroke-width:1.8897; stroke-linecap:butt; stroke-linejoin:miter; stroke-dasharray:none;" >
  <path d="M0 0 C0 0 303.297 0 303.297 0 " />
 </g>
 <g transform="translate(5.74512, 105.455)" style="fill:none; stroke:#000000; stroke-width:1.8897; stroke-linecap:butt; stroke-linejoin:miter; stroke-dasharray:none;" >
  <path d="M0 0 C0 0 303.297 0 303.297 0 " />
 </g>
 <g transform="translate(5.74512, 125.297)" style="fill:none; stroke:#000000; stroke-width:1.8897; stroke-linecap:butt; stroke-linejoin:miter; stroke-dasharray:none;" >
  <path d="M0 0 C0 0 303.297 0 303.297 0 " />
 </g>
 <g transform="translate(5.74512, 65.7715)" style="fill:none; stroke:#000000; stroke-width:1.8897; stroke-linecap:butt; stroke-linejoin:miter; stroke-dasharray:none;" >
  <path d="M0 0 C0 0 303.297 0 303.297 0 " />
 </g>
 <g transform="translate(115.809, 24.4307)" style="fill:#0000b0; fill-rule:evenodd; stroke:none; stroke-width:1.8897; stroke-linecap:butt; stroke-linejoin:miter; stroke-dasharray:none;" >
  <path d="M92.791 35.2392 C93.199 31.4297 93.336 29.9336 93.336 28.4365 C93.336 11.5654 79.049 0 57.961 0 C41.225 0 26.667 7.2119 15.646 20.9531 C5.986 32.9267 0 51.2939 0 68.8457 C0 90.6153 14.149 103.948 37.416 103.948 C62.178 103.948 80.41 90.2073 86.396 66.9414 C86.396 66.9414 66.94 66.9414 66.94 66.9414 C62.995 79.4583 53.335 86.5333 40.272 86.5333 C27.075 86.5333 20.272 79.1863 20.272 64.9004 C20.272 53.7431 23.809 41.7705 29.932 32.2461 C36.327 22.1777 44.762 17.416 55.647 17.416 C62.858 17.416 68.436 20.0009 71.294 24.6269 C73.062 27.3476 73.607 29.9336 73.607 35.2392 C73.607 35.2392 92.791 35.2392 92.791 35.2392 Z" />
 </g>
 <g transform="translate(23.7266, 6.31348)" style="fill:#0000b0; fill-rule:evenodd; stroke:none; stroke-width:1.8897; stroke-linecap:butt; stroke-linejoin:miter; stroke-dasharray:none;" >
  <path d="M0 99.1865 C0 99.1865 38.7763 99.1865 38.7763 99.1865 C58.5048 99.1865 69.9336 93.8795 79.8664 80.1386 C89.5264 66.8047 95.1044 50.0693 95.1044 34.0146 C95.1044 10.2051 84.4924 0 59.8652 0 C59.8652 0 21.0888 0 21.0888 0 C21.0888 0 0 99.1865 0 99.1865 Z M24.082 82.1797 C24.082 82.1797 37.8242 17.0078 37.8242 17.0078 C37.8242 17.0078 56.1923 17.0078 56.1923 17.0078 C68.7089 17.0078 74.832 22.9941 74.832 35.375 C74.832 46.124 71.2949 60.1377 66.6689 68.165 C60.8183 78.3701 54.1513 82.1797 42.3144 82.1797 C42.3144 82.1797 24.082 82.1797 24.082 82.1797 Z" />
 </g>
 <g transform="translate(201.037, 6.31348)" style="fill:#0000b0; fill-rule:evenodd; stroke:none; stroke-width:1.8897; stroke-linecap:butt; stroke-linejoin:miter; stroke-dasharray:none;" >
  <path d="M68.846 79.1855 C68.846 79.1855 71.295 99.1865 71.295 99.1865 C71.295 99.1865 92.112 99.1865 92.112 99.1865 C92.112 99.1865 78.914 0 78.914 0 C78.914 0 55.376 0 55.376 0 C55.376 0 0 99.1865 0 99.1865 C0 99.1865 20.817 99.1865 20.817 99.1865 C20.817 99.1865 31.838 79.1855 31.838 79.1855 C31.838 79.1855 68.846 79.1855 68.846 79.1855 Z M66.942 62.1787 C66.942 62.1787 41.227 62.1787 41.227 62.1787 C41.227 62.1787 62.179 23.6748 62.179 23.6748 C62.179 23.6748 66.942 62.1787 66.942 62.1787 Z" />
 </g>
</svg>
