<?xml version="1.0" encoding="UTF-8" standalone="no"?>
<svg
   xmlns:dc="http://purl.org/dc/elements/1.1/"
   xmlns:cc="http://creativecommons.org/ns#"
   xmlns:rdf="http://www.w3.org/1999/02/22-rdf-syntax-ns#"
   xmlns:svg="http://www.w3.org/2000/svg"
   xmlns="http://www.w3.org/2000/svg"
   xmlns:sodipodi="http://sodipodi.sourceforge.net/DTD/sodipodi-0.dtd"
   xmlns:inkscape="http://www.inkscape.org/namespaces/inkscape"
   width="261.471"
   height="205.066"
   id="svg2403"
   sodipodi:version="0.32"
   inkscape:version="0.46"
   sodipodi:docname="capes.svg"
   inkscape:output_extension="org.inkscape.output.svg.inkscape">
  <metadata
     id="metadata2424">
    <rdf:RDF>
      <cc:Work
         rdf:about="">
        <dc:format>image/svg+xml</dc:format>
        <dc:type
           rdf:resource="http://purl.org/dc/dcmitype/StillImage" />
      </cc:Work>
    </rdf:RDF>
  </metadata>
  <sodipodi:namedview
     inkscape:window-height="724"
     inkscape:window-width="645"
     inkscape:pageshadow="2"
     inkscape:pageopacity="0.0"
     guidetolerance="10.0"
     gridtolerance="10.0"
     objecttolerance="10.0"
     borderopacity="1.0"
     bordercolor="#666666"
     pagecolor="#ffffff"
     id="base"
     showgrid="false"
     inkscape:zoom="2.0969666"
     inkscape:cx="130.73533"
     inkscape:cy="102.53291"
     inkscape:window-x="50"
     inkscape:window-y="25"
     inkscape:current-layer="svg2403" />
  <defs
     id="defs2405">
    <inkscape:perspective
       sodipodi:type="inkscape:persp3d"
       inkscape:vp_x="0 : 102.533 : 1"
       inkscape:vp_y="0 : 1000 : 0"
       inkscape:vp_z="261.47101 : 102.533 : 1"
       inkscape:persp3d-origin="130.7355 : 68.355331 : 1"
       id="perspective2426" />
    <marker
       id="ArrowEnd"
       viewBox="0 0 10 10"
       refX="0"
       refY="5"
       markerUnits="strokeWidth"
       markerWidth="4"
       markerHeight="3"
       orient="auto">
      <path
         d="M 0 0 L 10 5 L 0 10 z"
         id="path2408" />
    </marker>
    <marker
       id="ArrowStart"
       viewBox="0 0 10 10"
       refX="10"
       refY="5"
       markerUnits="strokeWidth"
       markerWidth="4"
       markerHeight="3"
       orient="auto">
      <path
         d="M 10 0 L 0 5 L 10 10 z"
         id="path2411" />
    </marker>
    <inkscape:perspective
       id="perspective2475"
       inkscape:persp3d-origin="372.04724 : 350.78739 : 1"
       inkscape:vp_z="744.09448 : 526.18109 : 1"
       inkscape:vp_y="0 : 1000 : 0"
       inkscape:vp_x="0 : 526.18109 : 1"
       sodipodi:type="inkscape:persp3d" />
  </defs>
  <g
     id="g2413">
    <g
       id="g2415">
      <path
         style="stroke:#00ffff;stroke-width:0.21602700000000000;fill:#249ee1;fill-opacity:1"
         d="M 129.386 45.8821L 130.541 45.5581C 141.054 42.6084 151.979 40.8459 162.869 40.1212C 181.446 38.885 201.569 40.5853 219.279 46.5452C 233.863 51.4531 248.914 60.0885 256.113 74.2949C 260.053 82.0712 261.09 90.5966 259.835 99.1754C 258.929 105.468 256.863 111.399 253.409 116.753C 247.056 126.601 236.995 132.985 226.056 137.205C 220.316 142.286 213.352 146.175 206.372 149.222C 195.769 153.849 184.231 156.98 172.929 159.344C 157.323 162.61 141.304 164.57 125.427 165.916L 125.362 165.921L 125.296 165.921C 105.089 165.941 80.9327 164.137 62.1901 155.95C 50.3812 150.792 39.8165 142.574 36.1488 129.712C 35.9204 128.911 35.7231 128.107 35.5554 127.301C 22.147 122.079 7.36455 113.759 2.66653 100.229C 0.703583 94.5744 0.740433 88.6741 2.11786 82.8923L 2.14233 82.7891L 2.18065 82.6906C 3.83698 78.4092 6.10358 74.44 8.98284 70.8632C 19.9421 57.2476 38.018 51.4118 54.6544 48.6673C 64.9824 46.9635 75.5698 46.2966 86.0408 46.1589C 111.522 27.3727 142.303 13.4603 172.491 6.92281C 182.76 4.69894 193.212 3.26109 203.71 2.76933L 204.63 2.72627C 205.148 1.77724 206.156 1.13216 207.312 1.13216C 208.998 1.13216 210.365 2.49926 210.365 4.18447C 210.365 5.8694 208.998 7.23679 207.312 7.23679C 206.241 7.23679 205.298 6.68459 204.753 5.84876L 203.856 5.89092C 193.531 6.37473 183.252 7.79018 173.152 9.97719C 144.775 16.1225 115.832 28.8943 91.4175 46.133C 102.759 46.1707 114.122 46.7801 125.419 47.6852L 125.465 47.6888L 125.511 47.6953L 126.07 47.7746C 126.115 46.7315 127.579 45.893 129.386 45.8821zM 132.709 48.2032C 132.648 48.3819 132.545 48.5505 132.405 48.708C 144.148 50.5206 155.868 52.7957 167.343 55.8041C 178.423 58.7087 189.549 62.3589 199.902 67.2937C 214.937 74.46 229.828 85.1371 235.603 101.457C 237.609 107.125 238.355 113.096 238.047 119.091L 238.037 119.287L 237.978 119.476C 236.588 123.923 234.397 127.853 231.645 131.335C 239.325 127.484 246.144 122.249 250.783 115.059C 253.993 110.084 255.9 104.575 256.742 98.7267C 257.903 90.7853 256.973 82.9073 253.325 75.7074C 246.525 62.2867 232.037 54.136 218.282 49.507C 200.964 43.6789 181.241 42.0305 163.077 43.2393C 152.859 43.9194 142.606 45.5307 132.709 48.2032zM 81.7971 49.371C 72.8878 49.6196 63.9284 50.3047 55.163 51.7509C 39.3571 54.3583 21.8443 59.8686 11.4172 72.8226C 8.76202 76.1213 6.67023 79.776 5.13361 83.7193C 3.91894 88.8846 3.8644 94.1502 5.6189 99.2034C 9.75529 111.116 22.8927 118.793 35.0014 123.717C 33.9845 113.836 37.0351 103.787 41.4775 94.9845C 48.3395 81.3878 59.2283 69.0349 70.4596 58.8721C 74.0827 55.5936 77.8698 52.4234 81.7971 49.371zM 224.4 134.493C 229.132 130.201 232.927 125.023 234.935 118.732C 235.197 113.213 234.504 107.719 232.657 102.5C 227.183 87.0299 212.784 76.8959 198.557 70.1149C 188.384 65.2656 177.438 61.6814 166.551 58.8272C 152.963 55.2652 139.029 52.7424 125.124 50.7968C 112.658 49.7991 100.111 49.1629 87.6034 49.2673C 87.4318 49.2687 87.2602 49.2702 87.0883 49.272C 82.0088 53.0549 77.1486 57.0341 72.5564 61.1894C 61.6196 71.0857 50.9505 83.1503 44.2674 96.3926C 39.8737 105.099 36.8169 115.225 38.317 125.01C 40.162 125.701 41.9595 126.327 43.6719 126.896C 55.1913 130.724 67.2805 133.393 79.2195 135.531C 93.6443 138.115 108.246 139.951 122.822 141.436C 137.863 142.672 153.036 143.403 168.131 143.127C 180.526 142.9 193.157 142.006 205.351 139.691C 211.563 138.512 218.119 136.868 224.4 134.493zM 125.228 162.796C 140.957 161.462 156.829 159.52 172.289 156.286C 183.377 153.965 194.719 150.897 205.122 146.357C 209.062 144.638 213.033 142.628 216.762 140.257C 213.13 141.266 209.488 142.086 205.934 142.761C 193.565 145.11 180.762 146.022 168.187 146.252C 152.983 146.53 137.701 145.795 122.55 144.55L 122.52 144.547C 107.86 143.054 93.1765 141.206 78.6684 138.608C 66.5806 136.443 54.3495 133.737 42.6863 129.862C 41.5144 129.472 40.3118 129.059 39.0882 128.62C 39.1101 128.699 39.1319 128.777 39.154 128.855C 42.5524 140.771 52.5281 148.319 63.441 153.086C 81.7255 161.073 105.512 162.812 125.228 162.796z"
         id="path2417" />
      <path
         style="stroke:#009442;stroke-width:0.21602700000000000;fill:#009442;fill-opacity:1;stroke-opacity:1"
         d="M 132.271 79.766C 142.625 79.766 151.021 88.1622 151.021 98.5159C 151.021 108.87 142.625 117.266 132.271 117.266C 121.918 117.266 113.521 108.87 113.521 98.5159C 113.521 88.1622 121.918 79.766 132.271 79.766z"
         id="path2419" />
      <path
         style="stroke:#000000; stroke-width:0.216027; fill:#000000"
         d="M 54.61 182.747L 54.4892 185.388C 53.6455 185.043 52.8282 184.78 52.0211 184.607C 51.2194 184.435 50.402 184.345 49.5739 184.345C 46.9538 184.345 44.8735 185.111 43.333 186.641C 41.7921 188.171 41.0219 190.235 41.0219 192.835C 41.0219 195.465 41.787 197.535 43.3225 199.039C 44.8576 200.543 46.9538 201.298 49.6054 201.298C 50.444 201.298 51.2613 201.219 52.063 201.062C 52.8597 200.9 53.6455 200.669 54.4266 200.36L 54.5156 203.09C 53.7609 203.336 52.9541 203.525 52.0945 203.651C 51.2298 203.782 50.3232 203.845 49.359 203.845C 45.7852 203.845 42.9712 202.875 40.9065 200.936C 38.8471 198.997 37.8149 196.351 37.8149 193.002C 37.8149 189.617 38.8681 186.919 40.9694 184.912C 43.0707 182.904 45.9006 181.904 49.4534 181.904C 50.402 181.904 51.3138 181.972 52.1784 182.113C 53.0431 182.25 53.85 182.459 54.61 182.747zM 94.7896 184.639L 90.4611 195.738L 98.982 195.738L 94.7896 184.639zM 92.9922 181.966L 96.7078 181.966L 105.26 203.782L 101.958 203.782L 99.8572 198.18L 89.476 198.18L 87.3747 203.782L 84.2882 203.782L 92.9922 181.966zM 136.599 184.345L 136.599 192.5L 138.58 192.5C 140.2 192.5 141.436 192.143 142.301 191.425C 143.165 190.707 143.6 189.68 143.6 188.339C 143.6 187.081 143.202 186.101 142.4 185.399C 141.604 184.697 140.472 184.345 139.01 184.345L 136.599 184.345zM 133.544 181.966L 138.978 181.966C 141.578 181.966 143.527 182.506 144.827 183.581C 146.126 184.655 146.776 186.263 146.776 188.417C 146.776 190.461 146.084 192.049 144.696 193.181C 143.312 194.312 141.352 194.878 138.827 194.878L 136.599 194.878L 136.599 203.782L 133.544 203.782L 133.544 181.966zM 174.547 181.966L 186.358 181.966L 186.358 184.314L 177.602 184.314L 177.602 191.237L 185.882 191.237L 185.882 193.694L 177.602 193.694L 177.602 201.266L 186.647 201.266L 186.647 203.782L 174.547 203.782L 174.547 181.966zM 226.659 182.538L 226.35 185.21C 225.674 184.88 224.982 184.634 224.269 184.471C 223.562 184.309 222.813 184.225 222.037 184.225C 220.717 184.225 219.684 184.471 218.94 184.964C 218.201 185.451 217.829 186.127 217.829 186.987C 217.829 187.663 218.081 188.276 218.584 188.831C 219.082 189.382 220.166 190.115 221.822 191.027C 223.981 192.211 225.47 193.291 226.292 194.265C 227.11 195.235 227.518 196.346 227.518 197.593C 227.518 199.448 226.842 200.968 225.485 202.152C 224.128 203.341 222.388 203.934 220.255 203.934C 219.223 203.934 218.238 203.85 217.295 203.687C 216.351 203.525 215.471 203.284 214.654 202.969L 214.958 200.035C 215.859 200.506 216.729 200.852 217.567 201.078C 218.411 201.303 219.228 201.418 220.025 201.418C 221.303 201.418 222.336 201.13 223.111 200.559C 223.892 199.988 224.28 199.228 224.28 198.285C 224.28 196.823 222.75 195.224 219.69 193.485C 219.176 193.196 218.788 192.971 218.521 192.809C 217.352 192.133 216.435 191.31 215.77 190.335C 215.104 189.361 214.774 188.365 214.774 187.343C 214.774 185.64 215.424 184.293 216.718 183.297C 218.013 182.297 219.773 181.799 222.006 181.799C 222.834 181.799 223.641 181.862 224.416 181.982C 225.197 182.108 225.941 182.291 226.659 182.538z"
         id="path2421" />
    </g>
  </g>
</svg>
