<?xml version="1.0" encoding="UTF-8" standalone="no"?>
<!-- Created with Inkscape (http://www.inkscape.org/) -->

<svg
   xmlns:ns0="http://www.iki.fi/pav/software/textext/"
   xmlns:dc="http://purl.org/dc/elements/1.1/"
   xmlns:cc="http://creativecommons.org/ns#"
   xmlns:rdf="http://www.w3.org/1999/02/22-rdf-syntax-ns#"
   xmlns:svg="http://www.w3.org/2000/svg"
   xmlns="http://www.w3.org/2000/svg"
   xmlns:xlink="http://www.w3.org/1999/xlink"
   xmlns:sodipodi="http://sodipodi.sourceforge.net/DTD/sodipodi-0.dtd"
   xmlns:inkscape="http://www.inkscape.org/namespaces/inkscape"
   width="311.0188"
   height="7.0625"
   id="svg2"
   version="1.1"
   inkscape:version="0.48.0 r9654"
   sodipodi:docname="chain_reaction.eps">
  <sodipodi:namedview
     id="base"
     pagecolor="#ffffff"
     bordercolor="#666666"
     borderopacity="1.0"
     inkscape:pageopacity="0.0"
     inkscape:pageshadow="2"
     inkscape:zoom="3.6621579"
     inkscape:cx="155.50941"
     inkscape:cy="3.5312506"
     inkscape:document-units="px"
     inkscape:current-layer="layer1"
     showgrid="false"
     inkscape:window-width="1280"
     inkscape:window-height="725"
     inkscape:window-x="0"
     inkscape:window-y="25"
     inkscape:window-maximized="1"
     fit-margin-top="0"
     fit-margin-left="0"
     fit-margin-right="0"
     fit-margin-bottom="0" />
  <defs
     id="defs4" />
  <metadata
     id="metadata7">
    <rdf:RDF>
      <cc:Work
         rdf:about="">
        <dc:format>image/svg+xml</dc:format>
        <dc:type
           rdf:resource="http://purl.org/dc/dcmitype/StillImage" />
        <dc:title></dc:title>
      </cc:Work>
    </rdf:RDF>
  </metadata>
  <g
     id="layer1"
     inkscape:groupmode="layer"
     inkscape:label="Camada 1"
     transform="translate(-239.78337,-127.9525)">
    <g
       id="g2990"
       ns0:preamble="/home/diogo/.inkscape/extensions/preambulo_inkscape.tex"
       ns0:text="\\[\n\\ldots\n\\quad\\Longrightarrow\\quad\n\\text{Fault} \n\\quad\\longrightarrow\\quad\n\\text{Error}\n\\quad\\longrightarrow\\quad\n\\text{Failure}\n\\quad\\Longrightarrow\\quad\n\\text{Fault}\n\\quad\\longrightarrow\\quad\n\\ldots\n\\]\n">
      <defs
         id="defs2992">
        <g
           id="g2994">
          <symbol
             id="textext-cb348a2c-0"
             overflow="visible"
             style="overflow:visible">
            <path
               id="path2997"
               d=""
               style="stroke:none"
               inkscape:connector-curvature="0" />
          </symbol>
          <symbol
             id="textext-cb348a2c-1"
             overflow="visible"
             style="overflow:visible">
            <path
               id="path3000"
               d="m 1.90625,-0.53125 c 0,-0.28125 -0.234375,-0.53125 -0.515625,-0.53125 -0.296875,0 -0.53125,0.25 -0.53125,0.53125 C 0.859375,-0.234375 1.09375,0 1.390625,0 1.671875,0 1.90625,-0.234375 1.90625,-0.53125 z m 0,0"
               style="stroke:none"
               inkscape:connector-curvature="0" />
          </symbol>
          <symbol
             id="textext-cb348a2c-2"
             overflow="visible"
             style="overflow:visible">
            <path
               id="path3003"
               d=""
               style="stroke:none"
               inkscape:connector-curvature="0" />
          </symbol>
          <symbol
             id="textext-cb348a2c-3"
             overflow="visible"
             style="overflow:visible">
            <path
               id="path3006"
               d="m 6.84375,-3.265625 c 0.15625,0 0.34375,0 0.34375,-0.1875 C 7.1875,-3.65625 7,-3.65625 6.859375,-3.65625 l -5.96875,0 c -0.140625,0 -0.328125,0 -0.328125,0.203125 0,0.1875 0.1875,0.1875 0.328125,0.1875 l 5.953125,0 z m 0.015625,1.9375 c 0.140625,0 0.328125,0 0.328125,-0.203125 0,-0.1875 -0.1875,-0.1875 -0.34375,-0.1875 l -5.953125,0 c -0.140625,0 -0.328125,0 -0.328125,0.1875 0,0.203125 0.1875,0.203125 0.328125,0.203125 l 5.96875,0 z m 0,0"
               style="stroke:none"
               inkscape:connector-curvature="0" />
          </symbol>
          <symbol
             id="textext-cb348a2c-4"
             overflow="visible"
             style="overflow:visible">
            <path
               id="path3009"
               d=""
               style="stroke:none"
               inkscape:connector-curvature="0" />
          </symbol>
          <symbol
             id="textext-cb348a2c-5"
             overflow="visible"
             style="overflow:visible">
            <path
               id="path3012"
               d="M 7.234375,-3.265625 C 7.65625,-2.90625 8.171875,-2.640625 8.5,-2.5 8.140625,-2.328125 7.640625,-2.078125 7.234375,-1.71875 l -6.328125,0 c -0.171875,0 -0.359375,0 -0.359375,0.1875 0,0.203125 0.1875,0.203125 0.34375,0.203125 l 5.890625,0 C 6.3125,-0.875 5.796875,0.015625 5.796875,0.140625 5.796875,0.25 5.921875,0.25 5.984375,0.25 6.0625,0.25 6.125,0.25 6.171875,0.171875 6.375,-0.203125 6.65625,-0.734375 7.3125,-1.3125 8,-1.921875 8.65625,-2.1875 9.1875,-2.34375 c 0.15625,-0.0625 0.171875,-0.0625 0.1875,-0.09375 0.03125,0 0.03125,-0.03125 0.03125,-0.0625 0,-0.015625 0,-0.03125 -0.015625,-0.046875 l -0.03125,-0.03125 c -0.015625,0 -0.03125,-0.015625 -0.21875,-0.078125 -1.34375,-0.390625 -2.34375,-1.296875 -2.90625,-2.375 -0.109375,-0.1875 -0.109375,-0.203125 -0.25,-0.203125 -0.0625,0 -0.1875,0 -0.1875,0.109375 0,0.125 0.5,1 0.984375,1.46875 l -5.890625,0 c -0.15625,0 -0.34375,0 -0.34375,0.203125 0,0.1875 0.1875,0.1875 0.359375,0.1875 l 6.328125,0 z m 0,0"
               style="stroke:none"
               inkscape:connector-curvature="0" />
          </symbol>
          <symbol
             id="textext-cb348a2c-6"
             overflow="visible"
             style="overflow:visible">
            <path
               id="path3015"
               d="m 6.5625,-2.296875 c 0.171875,0 0.359375,0 0.359375,-0.203125 0,-0.1875 -0.1875,-0.1875 -0.359375,-0.1875 l -5.390625,0 c -0.171875,0 -0.34375,0 -0.34375,0.1875 0,0.203125 0.171875,0.203125 0.34375,0.203125 l 5.390625,0 z m 0,0"
               style="stroke:none"
               inkscape:connector-curvature="0" />
          </symbol>
          <symbol
             id="textext-cb348a2c-7"
             overflow="visible"
             style="overflow:visible">
            <path
               id="path3018"
               d="M 8.3125,-2.296875 C 7.765625,-1.875 7.5,-1.46875 7.421875,-1.328125 c -0.453125,0.6875 -0.53125,1.3125 -0.53125,1.3125 0,0.125 0.125,0.125 0.203125,0.125 C 7.25,0.109375 7.265625,0.09375 7.3125,-0.09375 7.53125,-1.0625 8.125,-1.90625 9.25,-2.359375 9.375,-2.40625 9.40625,-2.421875 9.40625,-2.5 c 0,-0.0625 -0.0625,-0.09375 -0.078125,-0.109375 C 8.875,-2.765625 7.671875,-3.265625 7.296875,-4.9375 7.265625,-5.0625 7.25,-5.09375 7.09375,-5.09375 c -0.078125,0 -0.203125,0 -0.203125,0.125 0,0.015625 0.09375,0.640625 0.5,1.3125 0.203125,0.296875 0.5,0.640625 0.921875,0.96875 l -7.40625,0 c -0.171875,0 -0.359375,0 -0.359375,0.1875 0,0.203125 0.1875,0.203125 0.359375,0.203125 l 7.40625,0 z m 0,0"
               style="stroke:none"
               inkscape:connector-curvature="0" />
          </symbol>
          <symbol
             id="textext-cb348a2c-8"
             overflow="visible"
             style="overflow:visible">
            <path
               id="path3021"
               d=""
               style="stroke:none"
               inkscape:connector-curvature="0" />
          </symbol>
          <symbol
             id="textext-cb348a2c-9"
             overflow="visible"
             style="overflow:visible">
            <path
               id="path3024"
               d="m 4.78125,-2.296875 0,-2.3125 -0.234375,0 c -0.125,0.796875 -0.296875,0.9375 -1.09375,0.9375 L 2,-3.671875 2,-5.875 c 0,-0.28125 0.046875,-0.34375 0.328125,-0.34375 l 1.34375,0 c 1.140625,0 1.359375,0.140625 1.515625,1.046875 l 0.25,0 -0.03125,-1.421875 -5.28125,0 0,0.1875 c 0.734375,0.0625 0.859375,0.203125 0.859375,0.890625 l 0,4.3125 C 0.984375,-0.375 0.875,-0.234375 0.125,-0.1875 l 0,0.1875 2.78125,0 0,-0.1875 C 2.140625,-0.234375 2,-0.375 2,-1.09375 l 0,-2.171875 1.453125,0 c 0.796875,0 0.96875,0.15625 1.09375,0.96875 l 0.234375,0 z m 0,0"
               style="stroke:none"
               inkscape:connector-curvature="0" />
          </symbol>
          <symbol
             id="textext-cb348a2c-10"
             overflow="visible"
             style="overflow:visible">
            <path
               id="path3027"
               d="m 4.40625,-0.65625 c -0.171875,0.140625 -0.296875,0.1875 -0.4375,0.1875 -0.234375,0 -0.296875,-0.140625 -0.296875,-0.578125 l 0,-1.9375 c 0,-0.53125 -0.046875,-0.8125 -0.203125,-1.046875 C 3.25,-4.390625 2.828125,-4.578125 2.234375,-4.578125 c -0.9375,0 -1.671875,0.484375 -1.671875,1.109375 0,0.234375 0.1875,0.421875 0.421875,0.421875 0.234375,0 0.453125,-0.1875 0.453125,-0.40625 0,-0.046875 -0.015625,-0.09375 -0.015625,-0.171875 -0.03125,-0.078125 -0.03125,-0.15625 -0.03125,-0.234375 0,-0.265625 0.3125,-0.484375 0.71875,-0.484375 0.484375,0 0.75,0.28125 0.75,0.828125 l 0,0.609375 c -1.53125,0.609375 -1.703125,0.6875 -2.125,1.078125 -0.21875,0.1875 -0.359375,0.53125 -0.359375,0.859375 0,0.625 0.4375,1.0625 1.046875,1.0625 0.4375,0 0.84375,-0.203125 1.453125,-0.71875 0.046875,0.515625 0.21875,0.71875 0.640625,0.71875 0.328125,0 0.546875,-0.109375 0.890625,-0.5 l 0,-0.25 z m -1.546875,-0.5625 c 0,0.296875 -0.046875,0.390625 -0.25,0.515625 -0.25,0.140625 -0.53125,0.21875 -0.734375,0.21875 C 1.53125,-0.484375 1.25,-0.8125 1.25,-1.25 l 0,-0.03125 c 0,-0.59375 0.40625,-0.953125 1.609375,-1.390625 l 0,1.453125 z m 0,0"
               style="stroke:none"
               inkscape:connector-curvature="0" />
          </symbol>
          <symbol
             id="textext-cb348a2c-11"
             overflow="visible"
             style="overflow:visible">
            <path
               id="path3030"
               d="m 4.78125,-0.5 -0.0625,0 c -0.453125,0 -0.5625,-0.109375 -0.5625,-0.5625 l 0,-3.421875 -1.578125,0 0,0.171875 c 0.625,0.03125 0.734375,0.125 0.734375,0.625 l 0,2.34375 c 0,0.28125 -0.046875,0.421875 -0.1875,0.53125 -0.265625,0.21875 -0.578125,0.328125 -0.875,0.328125 -0.390625,0 -0.703125,-0.328125 -0.703125,-0.75 l 0,-3.25 -1.453125,0 0,0.140625 c 0.46875,0.03125 0.609375,0.171875 0.609375,0.640625 l 0,2.5 c 0,0.796875 0.484375,1.296875 1.203125,1.296875 0.375,0 0.765625,-0.15625 1.03125,-0.421875 L 3.375,-0.75 l 0,0.8125 0.03125,0.03125 c 0.5,-0.203125 0.859375,-0.3125 1.375,-0.453125 l 0,-0.140625 z m 0,0"
               style="stroke:none"
               inkscape:connector-curvature="0" />
          </symbol>
          <symbol
             id="textext-cb348a2c-12"
             overflow="visible"
             style="overflow:visible">
            <path
               id="path3033"
               d="m 0.1875,-6.203125 0.0625,0 c 0.109375,-0.015625 0.234375,-0.03125 0.3125,-0.03125 0.3125,0 0.421875,0.140625 0.421875,0.609375 l 0,4.75 c 0,0.546875 -0.140625,0.671875 -0.78125,0.71875 l 0,0.15625 2.359375,0 0,-0.15625 c -0.625,-0.03125 -0.75,-0.140625 -0.75,-0.6875 l 0,-5.9375 L 1.78125,-6.8125 C 1.25,-6.640625 0.875,-6.546875 0.1875,-6.375 l 0,0.171875 z m 0,0"
               style="stroke:none"
               inkscape:connector-curvature="0" />
          </symbol>
          <symbol
             id="textext-cb348a2c-13"
             overflow="visible"
             style="overflow:visible">
            <path
               id="path3036"
               d="m 2.546875,-4.484375 -1.015625,0 0,-1.15625 c 0,-0.09375 0,-0.125 -0.0625,-0.125 C 1.390625,-5.6875 1.328125,-5.59375 1.265625,-5.5 c -0.375,0.5625 -0.8125,1.03125 -0.96875,1.078125 C 0.1875,-4.359375 0.125,-4.28125 0.125,-4.234375 c 0,0.03125 0.015625,0.046875 0.046875,0.0625 l 0.53125,0 0,3 c 0,0.84375 0.296875,1.265625 0.875,1.265625 0.5,0 0.875,-0.234375 1.203125,-0.75 l -0.125,-0.109375 c -0.21875,0.25 -0.390625,0.34375 -0.609375,0.34375 C 1.6875,-0.421875 1.53125,-0.6875 1.53125,-1.3125 l 0,-2.859375 1.015625,0 0,-0.3125 z m 0,0"
               style="stroke:none"
               inkscape:connector-curvature="0" />
          </symbol>
          <symbol
             id="textext-cb348a2c-14"
             overflow="visible"
             style="overflow:visible">
            <path
               id="path3039"
               d="m 5.953125,-1.6875 -0.28125,0 C 5.171875,-0.609375 4.75,-0.375 3.3125,-0.375 l -0.265625,0 C 2.5625,-0.375 2.140625,-0.421875 2.078125,-0.484375 2.03125,-0.515625 2,-0.625 2,-0.796875 l 0,-2.46875 1.53125,0 c 0.828125,0 0.96875,0.140625 1.109375,0.96875 l 0.21875,0 0,-2.3125 -0.21875,0 C 4.5625,-4.203125 4.53125,-4.0625 4.421875,-3.921875 4.28125,-3.75 4,-3.671875 3.53125,-3.671875 L 2,-3.671875 2,-5.875 c 0,-0.28125 0.0625,-0.34375 0.328125,-0.34375 l 1.34375,0 c 1.140625,0 1.359375,0.140625 1.515625,1.046875 l 0.25,0 -0.03125,-1.421875 -5.28125,0 0,0.1875 c 0.734375,0.0625 0.859375,0.203125 0.859375,0.890625 l 0,4.421875 c 0,0.703125 -0.140625,0.859375 -0.859375,0.90625 L 0.125,0 5.5,0 5.953125,-1.6875 z m 0,0"
               style="stroke:none"
               inkscape:connector-curvature="0" />
          </symbol>
          <symbol
             id="textext-cb348a2c-15"
             overflow="visible"
             style="overflow:visible">
            <path
               id="path3042"
               d="m 0.0625,-3.890625 c 0.140625,-0.03125 0.234375,-0.03125 0.359375,-0.03125 0.25,0 0.328125,0.15625 0.328125,0.59375 l 0,2.484375 c 0,0.5 -0.0625,0.578125 -0.703125,0.6875 l 0,0.15625 2.390625,0 0,-0.15625 C 1.765625,-0.171875 1.59375,-0.328125 1.59375,-0.890625 l 0,-2.25 c 0,-0.3125 0.4375,-0.8125 0.703125,-0.8125 0.0625,0 0.140625,0.046875 0.25,0.140625 0.171875,0.140625 0.28125,0.203125 0.40625,0.203125 0.234375,0 0.390625,-0.171875 0.390625,-0.453125 0,-0.328125 -0.21875,-0.515625 -0.546875,-0.515625 -0.421875,0 -0.71875,0.21875 -1.203125,0.921875 l 0,-0.90625 -0.046875,-0.015625 c -0.53125,0.21875 -0.890625,0.34375 -1.484375,0.53125 l 0,0.15625 z m 0,0"
               style="stroke:none"
               inkscape:connector-curvature="0" />
          </symbol>
          <symbol
             id="textext-cb348a2c-16"
             overflow="visible"
             style="overflow:visible">
            <path
               id="path3045"
               d="m 2.5,-4.578125 c -1.296875,0 -2.203125,0.953125 -2.203125,2.328125 0,1.34375 0.921875,2.34375 2.171875,2.34375 1.265625,0 2.21875,-1.046875 2.21875,-2.421875 0,-1.3125 -0.921875,-2.25 -2.1875,-2.25 z M 2.359375,-4.3125 c 0.84375,0 1.421875,0.96875 1.421875,2.328125 0,1.125 -0.4375,1.8125 -1.1875,1.8125 -0.390625,0 -0.765625,-0.25 -0.96875,-0.640625 C 1.34375,-1.328125 1.1875,-2.03125 1.1875,-2.734375 1.1875,-3.6875 1.65625,-4.3125 2.359375,-4.3125 z m 0,0"
               style="stroke:none"
               inkscape:connector-curvature="0" />
          </symbol>
          <symbol
             id="textext-cb348a2c-17"
             overflow="visible"
             style="overflow:visible">
            <path
               id="path3048"
               d="m 1.75,-4.578125 -1.546875,0.546875 0,0.140625 0.078125,0 c 0.125,-0.03125 0.25,-0.03125 0.34375,-0.03125 0.234375,0 0.328125,0.15625 0.328125,0.59375 l 0,2.3125 c 0,0.71875 -0.109375,0.828125 -0.796875,0.859375 l 0,0.15625 2.359375,0 0,-0.15625 C 1.859375,-0.203125 1.78125,-0.296875 1.78125,-1.015625 l 0,-3.546875 L 1.75,-4.578125 z M 1.28125,-6.8125 c -0.28125,0 -0.5,0.234375 -0.5,0.515625 0,0.28125 0.21875,0.5 0.5,0.5 0.28125,0 0.515625,-0.21875 0.515625,-0.5 0,-0.28125 -0.234375,-0.515625 -0.515625,-0.515625 z m 0,0"
               style="stroke:none"
               inkscape:connector-curvature="0" />
          </symbol>
          <symbol
             id="textext-cb348a2c-18"
             overflow="visible"
             style="overflow:visible">
            <path
               id="path3051"
               d="M 4.0625,-1.640625 C 3.59375,-0.875 3.15625,-0.59375 2.515625,-0.59375 c -0.5625,0 -0.984375,-0.28125 -1.28125,-0.859375 -0.171875,-0.375 -0.25,-0.703125 -0.265625,-1.3125 l 3.0625,0 c -0.078125,-0.640625 -0.171875,-0.9375 -0.421875,-1.25 -0.296875,-0.359375 -0.765625,-0.5625 -1.28125,-0.5625 -0.5,0 -0.96875,0.171875 -1.34375,0.515625 C 0.515625,-3.65625 0.25,-2.953125 0.25,-2.140625 0.25,-0.75 0.96875,0.09375 2.109375,0.09375 c 0.953125,0 1.703125,-0.578125 2.125,-1.65625 L 4.0625,-1.640625 z m -3.078125,-1.4375 c 0.109375,-0.78125 0.453125,-1.15625 1.0625,-1.15625 0.609375,0 0.84375,0.28125 0.96875,1.15625 l -2.03125,0 z m 0,0"
               style="stroke:none"
               inkscape:connector-curvature="0" />
          </symbol>
        </g>
      </defs>
      <g
         id="textext-cb348a2c-19">
        <g
           id="g3054"
           style="fill:#000000;fill-opacity:1">
          <use
             id="use3056"
             y="134.765"
             x="238.924"
             xlink:href="#textext-cb348a2c-1"
             width="744.09448"
             height="1052.3622" />
        </g>
        <g
           id="g3058"
           style="fill:#000000;fill-opacity:1">
          <use
             id="use3060"
             y="134.765"
             x="242.78749"
             xlink:href="#textext-cb348a2c-1"
             width="744.09448"
             height="1052.3622" />
        </g>
        <g
           id="g3062"
           style="fill:#000000;fill-opacity:1">
          <use
             id="use3064"
             y="134.765"
             x="246.66095"
             xlink:href="#textext-cb348a2c-1"
             width="744.09448"
             height="1052.3622" />
        </g>
        <g
           id="g3066"
           style="fill:#000000;fill-opacity:1">
          <use
             id="use3068"
             y="134.765"
             x="261.59299"
             xlink:href="#textext-cb348a2c-3"
             width="744.09448"
             height="1052.3622" />
        </g>
        <g
           id="g3070"
           style="fill:#000000;fill-opacity:1">
          <use
             id="use3072"
             y="134.765"
             x="267.673"
             xlink:href="#textext-cb348a2c-5"
             width="744.09448"
             height="1052.3622" />
        </g>
        <g
           id="g3074"
           style="fill:#000000;fill-opacity:1">
          <use
             id="use3076"
             y="134.765"
             x="289.81201"
             xlink:href="#textext-cb348a2c-9"
             width="744.09448"
             height="1052.3622" />
        </g>
        <g
           id="g3078"
           style="fill:#000000;fill-opacity:1">
          <use
             id="use3080"
             y="134.765"
             x="295.20178"
             xlink:href="#textext-cb348a2c-10"
             width="744.09448"
             height="1052.3622" />
          <use
             id="use3082"
             y="134.765"
             x="299.62515"
             xlink:href="#textext-cb348a2c-11"
             width="744.09448"
             height="1052.3622" />
          <use
             id="use3084"
             y="134.765"
             x="304.60648"
             xlink:href="#textext-cb348a2c-12"
             width="744.09448"
             height="1052.3622" />
          <use
             id="use3086"
             y="134.765"
             x="307.37607"
             xlink:href="#textext-cb348a2c-13"
             width="744.09448"
             height="1052.3622" />
        </g>
        <g
           id="g3088"
           style="fill:#000000;fill-opacity:1">
          <use
             id="use3090"
             y="134.765"
             x="322.32199"
             xlink:href="#textext-cb348a2c-6"
             width="744.09448"
             height="1052.3622" />
        </g>
        <g
           id="g3092"
           style="fill:#000000;fill-opacity:1">
          <use
             id="use3094"
             y="134.765"
             x="328.40717"
             xlink:href="#textext-cb348a2c-7"
             width="744.09448"
             height="1052.3622" />
        </g>
        <g
           id="g3096"
           style="fill:#000000;fill-opacity:1">
          <use
             id="use3098"
             y="134.765"
             x="350.54199"
             xlink:href="#textext-cb348a2c-14"
             width="744.09448"
             height="1052.3622" />
          <use
             id="use3100"
             y="134.765"
             x="356.62915"
             xlink:href="#textext-cb348a2c-15"
             width="744.09448"
             height="1052.3622" />
          <use
             id="use3102"
             y="134.765"
             x="359.94669"
             xlink:href="#textext-cb348a2c-15"
             width="744.09448"
             height="1052.3622" />
          <use
             id="use3104"
             y="134.765"
             x="363.26425"
             xlink:href="#textext-cb348a2c-16"
             width="744.09448"
             height="1052.3622" />
          <use
             id="use3106"
             y="134.765"
             x="368.24554"
             xlink:href="#textext-cb348a2c-15"
             width="744.09448"
             height="1052.3622" />
        </g>
        <g
           id="g3108"
           style="fill:#000000;fill-opacity:1">
          <use
             id="use3110"
             y="134.765"
             x="383.73901"
             xlink:href="#textext-cb348a2c-6"
             width="744.09448"
             height="1052.3622" />
        </g>
        <g
           id="g3112"
           style="fill:#000000;fill-opacity:1">
          <use
             id="use3114"
             y="134.765"
             x="389.82416"
             xlink:href="#textext-cb348a2c-7"
             width="744.09448"
             height="1052.3622" />
        </g>
        <g
           id="g3116"
           style="fill:#000000;fill-opacity:1">
          <use
             id="use3118"
             y="134.765"
             x="411.95901"
             xlink:href="#textext-cb348a2c-9"
             width="744.09448"
             height="1052.3622" />
        </g>
        <g
           id="g3120"
           style="fill:#000000;fill-opacity:1">
          <use
             id="use3122"
             y="134.765"
             x="417.34875"
             xlink:href="#textext-cb348a2c-10"
             width="744.09448"
             height="1052.3622" />
          <use
             id="use3124"
             y="134.765"
             x="421.77216"
             xlink:href="#textext-cb348a2c-17"
             width="744.09448"
             height="1052.3622" />
          <use
             id="use3126"
             y="134.765"
             x="424.54178"
             xlink:href="#textext-cb348a2c-12"
             width="744.09448"
             height="1052.3622" />
          <use
             id="use3128"
             y="134.765"
             x="427.31137"
             xlink:href="#textext-cb348a2c-11"
             width="744.09448"
             height="1052.3622" />
          <use
             id="use3130"
             y="134.765"
             x="432.29266"
             xlink:href="#textext-cb348a2c-15"
             width="744.09448"
             height="1052.3622" />
          <use
             id="use3132"
             y="134.765"
             x="435.6102"
             xlink:href="#textext-cb348a2c-18"
             width="744.09448"
             height="1052.3622" />
        </g>
        <g
           id="g3134"
           style="fill:#000000;fill-opacity:1">
          <use
             id="use3136"
             y="134.765"
             x="452.20999"
             xlink:href="#textext-cb348a2c-3"
             width="744.09448"
             height="1052.3622" />
        </g>
        <g
           id="g3138"
           style="fill:#000000;fill-opacity:1">
          <use
             id="use3140"
             y="134.765"
             x="458.29001"
             xlink:href="#textext-cb348a2c-5"
             width="744.09448"
             height="1052.3622" />
        </g>
        <g
           id="g3142"
           style="fill:#000000;fill-opacity:1">
          <use
             id="use3144"
             y="134.765"
             x="480.42899"
             xlink:href="#textext-cb348a2c-9"
             width="744.09448"
             height="1052.3622" />
        </g>
        <g
           id="g3146"
           style="fill:#000000;fill-opacity:1">
          <use
             id="use3148"
             y="134.765"
             x="485.81876"
             xlink:href="#textext-cb348a2c-10"
             width="744.09448"
             height="1052.3622" />
          <use
             id="use3150"
             y="134.765"
             x="490.24216"
             xlink:href="#textext-cb348a2c-11"
             width="744.09448"
             height="1052.3622" />
          <use
             id="use3152"
             y="134.765"
             x="495.22345"
             xlink:href="#textext-cb348a2c-12"
             width="744.09448"
             height="1052.3622" />
          <use
             id="use3154"
             y="134.765"
             x="497.99307"
             xlink:href="#textext-cb348a2c-13"
             width="744.09448"
             height="1052.3622" />
        </g>
        <g
           id="g3156"
           style="fill:#000000;fill-opacity:1">
          <use
             id="use3158"
             y="134.765"
             x="512.94"
             xlink:href="#textext-cb348a2c-6"
             width="744.09448"
             height="1052.3622" />
        </g>
        <g
           id="g3160"
           style="fill:#000000;fill-opacity:1">
          <use
             id="use3162"
             y="134.765"
             x="519.0152"
             xlink:href="#textext-cb348a2c-7"
             width="744.09448"
             height="1052.3622" />
        </g>
        <g
           id="g3164"
           style="fill:#000000;fill-opacity:1">
          <use
             id="use3166"
             y="134.765"
             x="541.159"
             xlink:href="#textext-cb348a2c-1"
             width="744.09448"
             height="1052.3622" />
        </g>
        <g
           id="g3168"
           style="fill:#000000;fill-opacity:1">
          <use
             id="use3170"
             y="134.765"
             x="545.02252"
             xlink:href="#textext-cb348a2c-1"
             width="744.09448"
             height="1052.3622" />
        </g>
        <g
           id="g3172"
           style="fill:#000000;fill-opacity:1">
          <use
             id="use3174"
             y="134.765"
             x="548.89594"
             xlink:href="#textext-cb348a2c-1"
             width="744.09448"
             height="1052.3622" />
        </g>
      </g>
    </g>
  </g>
</svg>
