<?xml version="1.0" encoding="UTF-8" standalone="no"?>
<!-- Created with Inkscape (http://www.inkscape.org/) -->
<svg
   xmlns:ns0="http://www.iki.fi/pav/software/textext/"
   xmlns:dc="http://purl.org/dc/elements/1.1/"
   xmlns:cc="http://creativecommons.org/ns#"
   xmlns:rdf="http://www.w3.org/1999/02/22-rdf-syntax-ns#"
   xmlns:svg="http://www.w3.org/2000/svg"
   xmlns="http://www.w3.org/2000/svg"
   xmlns:xlink="http://www.w3.org/1999/xlink"
   xmlns:sodipodi="http://sodipodi.sourceforge.net/DTD/sodipodi-0.dtd"
   xmlns:inkscape="http://www.inkscape.org/namespaces/inkscape"
   width="387.55307"
   height="85.207504"
   id="svg2"
   sodipodi:version="0.32"
   inkscape:version="0.46"
   sodipodi:docname="fases_monitoramento.svg"
   inkscape:output_extension="org.inkscape.output.svg.inkscape"
   version="1.0">
  <sodipodi:namedview
     id="base"
     pagecolor="#ffffff"
     bordercolor="#666666"
     borderopacity="1.0"
     inkscape:pageopacity="0.0"
     inkscape:pageshadow="2"
     inkscape:zoom="3.060226"
     inkscape:cx="193.77654"
     inkscape:cy="42.603751"
     inkscape:document-units="px"
     inkscape:current-layer="layer1"
     showgrid="false"
     inkscape:window-width="1280"
     inkscape:window-height="725"
     inkscape:window-x="0"
     inkscape:window-y="25" />
  <defs
     id="defs4">
    <marker
       inkscape:stockid="Arrow1Mend"
       orient="auto"
       refY="0"
       refX="0"
       id="Arrow1Mend"
       style="overflow:visible">
      <path
         id="path10940"
         d="M 0,0 L 5,-5 L -12.5,0 L 5,5 L 0,0 z"
         style="fill-rule:evenodd;stroke:#000000;stroke-width:1pt;marker-start:none"
         transform="matrix(-0.4,0,0,-0.4,-4,0)" />
    </marker>
    <inkscape:perspective
       id="perspective10"
       inkscape:persp3d-origin="372.04724 : 350.78739 : 1"
       inkscape:vp_z="744.09448 : 526.18109 : 1"
       inkscape:vp_y="0 : 1000 : 0"
       inkscape:vp_x="0 : 526.18109 : 1"
       sodipodi:type="inkscape:persp3d" />
  </defs>
  <metadata
     id="metadata7">
    <rdf:RDF>
      <cc:Work
         rdf:about="">
        <dc:format>image/svg+xml</dc:format>
        <dc:type
           rdf:resource="http://purl.org/dc/dcmitype/StillImage" />
      </cc:Work>
    </rdf:RDF>
  </metadata>
  <g
     transform="translate(-269.11438,-96.254624)"
     id="layer1"
     inkscape:groupmode="layer"
     inkscape:label="Camada 1">
    <path
       style="opacity:1;fill:none;fill-opacity:1;stroke:#000000;stroke-width:1;stroke-linecap:butt;stroke-linejoin:miter;marker-end:url(#Arrow1Mend);stroke-miterlimit:4;stroke-dasharray:none;stroke-dashoffset:0;stroke-opacity:1"
       d="M 291.25,143.07647 L 269.61438,143.07647 L 269.61438,107.24202 L 322.41071,107.24202 L 322.41071,123.25504"
       id="path10156"
       sodipodi:nodetypes="ccccc" />
    <rect
       ry="6.3796692"
       y="125.12512"
       x="291.68967"
       height="35.902683"
       width="60.906345"
       id="rect3782"
       style="fill:#e6e6e6;fill-opacity:1;stroke:#000000;stroke-width:1;stroke-linecap:butt;stroke-miterlimit:4;stroke-dasharray:none;stroke-opacity:1;display:inline" />
    <g
       ns0:text="\\begin{center}\nDetec\xc3\xa7\xc3\xa3o\\\\\nde Falha\n\\end{center}"
       ns0:preamble="/home/diogo/.inkscape/extensions/preambulo_inkscape.tex"
       transform="translate(-73.07581,5.5839634)"
       id="g3621">
      <defs
         id="defs3623">
        <g
           id="g3625">
          <symbol
             overflow="visible"
             id="textext-7f3bc4c1-0"
             style="overflow:visible">
            <path
               style="stroke:none"
               d=""
               id="path3628" />
          </symbol>
          <symbol
             overflow="visible"
             id="textext-7f3bc4c1-1"
             style="overflow:visible">
            <path
               style="stroke:none"
               d="M 1.03125,-1.09375 C 1.03125,-0.375 0.921875,-0.234375 0.15625,-0.1875 L 0.15625,0 L 2.984375,0 C 4.140625,0 5.1875,-0.328125 5.8125,-0.890625 C 6.453125,-1.46875 6.828125,-2.359375 6.828125,-3.328125 C 6.828125,-4.234375 6.53125,-5 5.984375,-5.546875 C 5.296875,-6.234375 4.21875,-6.59375 2.84375,-6.59375 L 0.15625,-6.59375 L 0.15625,-6.40625 C 0.953125,-6.34375 1.03125,-6.25 1.03125,-5.515625 L 1.03125,-1.09375 z M 2.046875,-5.84375 C 2.046875,-6.15625 2.15625,-6.234375 2.578125,-6.234375 C 3.421875,-6.234375 4.078125,-6.078125 4.5625,-5.734375 C 5.328125,-5.1875 5.734375,-4.34375 5.734375,-3.265625 C 5.734375,-2.078125 5.328125,-1.25 4.53125,-0.78125 C 4.015625,-0.484375 3.4375,-0.375 2.578125,-0.375 C 2.171875,-0.375 2.046875,-0.453125 2.046875,-0.78125 L 2.046875,-5.84375 z"
               id="path3631" />
          </symbol>
          <symbol
             overflow="visible"
             id="textext-7f3bc4c1-2"
             style="overflow:visible">
            <path
               style="stroke:none"
               d="M 4.0625,-1.640625 C 3.59375,-0.875 3.15625,-0.59375 2.515625,-0.59375 C 1.953125,-0.59375 1.53125,-0.875 1.234375,-1.453125 C 1.0625,-1.828125 0.984375,-2.15625 0.96875,-2.765625 L 4.03125,-2.765625 C 3.953125,-3.40625 3.859375,-3.703125 3.609375,-4.015625 C 3.3125,-4.375 2.84375,-4.578125 2.328125,-4.578125 C 1.828125,-4.578125 1.359375,-4.40625 0.984375,-4.0625 C 0.515625,-3.65625 0.25,-2.953125 0.25,-2.140625 C 0.25,-0.75 0.96875,0.09375 2.109375,0.09375 C 3.0625,0.09375 3.8125,-0.484375 4.234375,-1.5625 L 4.0625,-1.640625 z M 0.984375,-3.078125 C 1.09375,-3.859375 1.4375,-4.234375 2.046875,-4.234375 C 2.65625,-4.234375 2.890625,-3.953125 3.015625,-3.078125 L 0.984375,-3.078125 z"
               id="path3634" />
          </symbol>
          <symbol
             overflow="visible"
             id="textext-7f3bc4c1-3"
             style="overflow:visible">
            <path
               style="stroke:none"
               d="M 2.546875,-4.484375 L 1.53125,-4.484375 L 1.53125,-5.640625 C 1.53125,-5.734375 1.53125,-5.765625 1.46875,-5.765625 C 1.390625,-5.6875 1.328125,-5.59375 1.265625,-5.5 C 0.890625,-4.9375 0.453125,-4.46875 0.296875,-4.421875 C 0.1875,-4.359375 0.125,-4.28125 0.125,-4.234375 C 0.125,-4.203125 0.140625,-4.1875 0.171875,-4.171875 L 0.703125,-4.171875 L 0.703125,-1.171875 C 0.703125,-0.328125 1,0.09375 1.578125,0.09375 C 2.078125,0.09375 2.453125,-0.140625 2.78125,-0.65625 L 2.65625,-0.765625 C 2.4375,-0.515625 2.265625,-0.421875 2.046875,-0.421875 C 1.6875,-0.421875 1.53125,-0.6875 1.53125,-1.3125 L 1.53125,-4.171875 L 2.546875,-4.171875 L 2.546875,-4.484375 z"
               id="path3637" />
          </symbol>
          <symbol
             overflow="visible"
             id="textext-7f3bc4c1-4"
             style="overflow:visible">
            <path
               style="stroke:none"
               d="M 3.96875,-1.5625 C 3.484375,-0.859375 3.125,-0.625 2.5625,-0.625 C 1.65625,-0.625 1.015625,-1.421875 1.015625,-2.5625 C 1.015625,-3.59375 1.5625,-4.296875 2.375,-4.296875 C 2.734375,-4.296875 2.859375,-4.1875 2.953125,-3.8125 L 3.015625,-3.59375 C 3.09375,-3.3125 3.28125,-3.140625 3.484375,-3.140625 C 3.75,-3.140625 3.96875,-3.328125 3.96875,-3.5625 C 3.96875,-4.109375 3.265625,-4.578125 2.4375,-4.578125 C 1.9375,-4.578125 1.4375,-4.390625 1.03125,-4.03125 C 0.53125,-3.59375 0.25,-2.90625 0.25,-2.125 C 0.25,-0.828125 1.03125,0.09375 2.140625,0.09375 C 2.59375,0.09375 2.984375,-0.0625 3.34375,-0.375 C 3.625,-0.609375 3.8125,-0.875 4.109375,-1.46875 L 3.96875,-1.5625 z"
               id="path3640" />
          </symbol>
          <symbol
             overflow="visible"
             id="textext-7f3bc4c1-5"
             style="overflow:visible">
            <path
               style="stroke:none"
               d="M 2.25,0.09375 C 3.0625,0.03125 3.59375,-0.421875 4.109375,-1.46875 L 3.96875,-1.5625 C 3.484375,-0.859375 3.125,-0.625 2.5625,-0.625 C 1.65625,-0.625 1.015625,-1.421875 1.015625,-2.5625 C 1.015625,-3.59375 1.5625,-4.296875 2.375,-4.296875 C 2.734375,-4.296875 2.859375,-4.1875 2.953125,-3.8125 L 3.015625,-3.59375 C 3.09375,-3.3125 3.28125,-3.140625 3.5,-3.140625 C 3.75,-3.140625 3.96875,-3.328125 3.96875,-3.5625 C 3.96875,-4.109375 3.265625,-4.578125 2.4375,-4.578125 C 1.9375,-4.578125 1.4375,-4.390625 1.03125,-4.03125 C 0.53125,-3.59375 0.25,-2.90625 0.25,-2.109375 C 0.25,-0.921875 0.90625,-0.046875 1.90625,0.078125 L 1.53125,0.984375 L 1.609375,1.03125 C 1.6875,1 1.78125,1 1.890625,1 C 2.265625,1 2.40625,1.09375 2.40625,1.359375 C 2.40625,1.625 2.203125,1.796875 1.859375,1.796875 C 1.65625,1.796875 1.484375,1.765625 1.21875,1.671875 L 1.078125,1.984375 C 1.359375,2.109375 1.59375,2.140625 1.90625,2.140625 C 2.6875,2.140625 3.15625,1.828125 3.15625,1.3125 C 3.15625,0.875 2.84375,0.625 2.296875,0.625 C 2.203125,0.625 2.140625,0.625 2.046875,0.640625 L 2.25,0.09375 z"
               id="path3643" />
          </symbol>
          <symbol
             overflow="visible"
             id="textext-7f3bc4c1-6"
             style="overflow:visible">
            <path
               style="stroke:none"
               d="M 4.40625,-0.65625 C 4.234375,-0.515625 4.109375,-0.46875 3.96875,-0.46875 C 3.734375,-0.46875 3.671875,-0.609375 3.671875,-1.046875 L 3.671875,-2.984375 C 3.671875,-3.515625 3.625,-3.796875 3.46875,-4.03125 C 3.25,-4.390625 2.828125,-4.578125 2.234375,-4.578125 C 1.296875,-4.578125 0.5625,-4.09375 0.5625,-3.46875 C 0.5625,-3.234375 0.75,-3.046875 0.984375,-3.046875 C 1.21875,-3.046875 1.4375,-3.234375 1.4375,-3.453125 C 1.4375,-3.5 1.421875,-3.546875 1.421875,-3.625 C 1.390625,-3.703125 1.390625,-3.78125 1.390625,-3.859375 C 1.390625,-4.125 1.703125,-4.34375 2.109375,-4.34375 C 2.59375,-4.34375 2.859375,-4.0625 2.859375,-3.515625 L 2.859375,-2.90625 C 1.328125,-2.296875 1.15625,-2.21875 0.734375,-1.828125 C 0.515625,-1.640625 0.375,-1.296875 0.375,-0.96875 C 0.375,-0.34375 0.8125,0.09375 1.421875,0.09375 C 1.859375,0.09375 2.265625,-0.109375 2.875,-0.625 C 2.921875,-0.109375 3.09375,0.09375 3.515625,0.09375 C 3.84375,0.09375 4.0625,-0.015625 4.40625,-0.40625 L 4.40625,-0.65625 z M 2.859375,-1.21875 C 2.859375,-0.921875 2.8125,-0.828125 2.609375,-0.703125 C 2.359375,-0.5625 2.078125,-0.484375 1.875,-0.484375 C 1.53125,-0.484375 1.25,-0.8125 1.25,-1.25 L 1.25,-1.28125 C 1.25,-1.875 1.65625,-2.234375 2.859375,-2.671875 L 2.859375,-1.21875 z M 3.5625,-6.359375 C 3.40625,-5.984375 3.265625,-5.859375 3.046875,-5.859375 C 2.890625,-5.859375 2.703125,-5.921875 2.515625,-6.015625 L 2.265625,-6.125 C 2.046875,-6.25 1.796875,-6.3125 1.578125,-6.3125 C 1.078125,-6.3125 0.71875,-5.953125 0.5625,-5.296875 L 0.859375,-5.296875 C 0.96875,-5.609375 1.140625,-5.765625 1.359375,-5.765625 C 1.484375,-5.765625 1.625,-5.71875 1.78125,-5.65625 L 2,-5.546875 C 2.40625,-5.34375 2.5625,-5.296875 2.8125,-5.296875 C 3.359375,-5.296875 3.65625,-5.609375 3.859375,-6.359375 L 3.5625,-6.359375 z"
               id="path3646" />
          </symbol>
          <symbol
             overflow="visible"
             id="textext-7f3bc4c1-7"
             style="overflow:visible">
            <path
               style="stroke:none"
               d="M 2.5,-4.578125 C 1.203125,-4.578125 0.296875,-3.625 0.296875,-2.25 C 0.296875,-0.90625 1.21875,0.09375 2.46875,0.09375 C 3.734375,0.09375 4.6875,-0.953125 4.6875,-2.328125 C 4.6875,-3.640625 3.765625,-4.578125 2.5,-4.578125 z M 2.359375,-4.3125 C 3.203125,-4.3125 3.78125,-3.34375 3.78125,-1.984375 C 3.78125,-0.859375 3.34375,-0.171875 2.59375,-0.171875 C 2.203125,-0.171875 1.828125,-0.421875 1.625,-0.8125 C 1.34375,-1.328125 1.1875,-2.03125 1.1875,-2.734375 C 1.1875,-3.6875 1.65625,-4.3125 2.359375,-4.3125 z"
               id="path3649" />
          </symbol>
          <symbol
             overflow="visible"
             id="textext-7f3bc4c1-8"
             style="overflow:visible">
            <path
               style="stroke:none"
               d="M 3.421875,0.09375 L 4.890625,-0.421875 L 4.890625,-0.578125 C 4.71875,-0.5625 4.6875,-0.5625 4.671875,-0.5625 C 4.3125,-0.5625 4.234375,-0.671875 4.234375,-1.140625 L 4.234375,-6.78125 L 4.171875,-6.8125 C 3.703125,-6.640625 3.34375,-6.546875 2.71875,-6.375 L 2.71875,-6.203125 C 2.796875,-6.21875 2.84375,-6.21875 2.9375,-6.21875 C 3.296875,-6.21875 3.390625,-6.125 3.390625,-5.71875 L 3.390625,-4.15625 C 3.015625,-4.46875 2.734375,-4.578125 2.34375,-4.578125 C 1.203125,-4.578125 0.265625,-3.453125 0.265625,-2.046875 C 0.265625,-0.765625 1.015625,0.09375 2.109375,0.09375 C 2.671875,0.09375 3.046875,-0.09375 3.390625,-0.5625 L 3.390625,0.0625 L 3.421875,0.09375 z M 3.390625,-1.015625 C 3.390625,-0.953125 3.3125,-0.828125 3.21875,-0.71875 C 3.046875,-0.515625 2.796875,-0.421875 2.5,-0.421875 C 1.671875,-0.421875 1.125,-1.21875 1.125,-2.4375 C 1.125,-3.5625 1.609375,-4.3125 2.375,-4.3125 C 2.90625,-4.3125 3.390625,-3.84375 3.390625,-3.3125 L 3.390625,-1.015625 z"
               id="path3652" />
          </symbol>
          <symbol
             overflow="visible"
             id="textext-7f3bc4c1-9"
             style="overflow:visible">
            <path
               style="stroke:none"
               d="M 4.78125,-2.296875 L 4.78125,-4.609375 L 4.546875,-4.609375 C 4.421875,-3.8125 4.25,-3.671875 3.453125,-3.671875 L 2,-3.671875 L 2,-5.875 C 2,-6.15625 2.046875,-6.21875 2.328125,-6.21875 L 3.671875,-6.21875 C 4.8125,-6.21875 5.03125,-6.078125 5.1875,-5.171875 L 5.4375,-5.171875 L 5.40625,-6.59375 L 0.125,-6.59375 L 0.125,-6.40625 C 0.859375,-6.34375 0.984375,-6.203125 0.984375,-5.515625 L 0.984375,-1.203125 C 0.984375,-0.375 0.875,-0.234375 0.125,-0.1875 L 0.125,0 L 2.90625,0 L 2.90625,-0.1875 C 2.140625,-0.234375 2,-0.375 2,-1.09375 L 2,-3.265625 L 3.453125,-3.265625 C 4.25,-3.265625 4.421875,-3.109375 4.546875,-2.296875 L 4.78125,-2.296875 z"
               id="path3655" />
          </symbol>
          <symbol
             overflow="visible"
             id="textext-7f3bc4c1-10"
             style="overflow:visible">
            <path
               style="stroke:none"
               d="M 4.40625,-0.65625 C 4.234375,-0.515625 4.109375,-0.46875 3.96875,-0.46875 C 3.734375,-0.46875 3.671875,-0.609375 3.671875,-1.046875 L 3.671875,-2.984375 C 3.671875,-3.515625 3.625,-3.796875 3.46875,-4.03125 C 3.25,-4.390625 2.828125,-4.578125 2.234375,-4.578125 C 1.296875,-4.578125 0.5625,-4.09375 0.5625,-3.46875 C 0.5625,-3.234375 0.75,-3.046875 0.984375,-3.046875 C 1.21875,-3.046875 1.4375,-3.234375 1.4375,-3.453125 C 1.4375,-3.5 1.421875,-3.546875 1.421875,-3.625 C 1.390625,-3.703125 1.390625,-3.78125 1.390625,-3.859375 C 1.390625,-4.125 1.703125,-4.34375 2.109375,-4.34375 C 2.59375,-4.34375 2.859375,-4.0625 2.859375,-3.515625 L 2.859375,-2.90625 C 1.328125,-2.296875 1.15625,-2.21875 0.734375,-1.828125 C 0.515625,-1.640625 0.375,-1.296875 0.375,-0.96875 C 0.375,-0.34375 0.8125,0.09375 1.421875,0.09375 C 1.859375,0.09375 2.265625,-0.109375 2.875,-0.625 C 2.921875,-0.109375 3.09375,0.09375 3.515625,0.09375 C 3.84375,0.09375 4.0625,-0.015625 4.40625,-0.40625 L 4.40625,-0.65625 z M 2.859375,-1.21875 C 2.859375,-0.921875 2.8125,-0.828125 2.609375,-0.703125 C 2.359375,-0.5625 2.078125,-0.484375 1.875,-0.484375 C 1.53125,-0.484375 1.25,-0.8125 1.25,-1.25 L 1.25,-1.28125 C 1.25,-1.875 1.65625,-2.234375 2.859375,-2.671875 L 2.859375,-1.21875 z"
               id="path3658" />
          </symbol>
          <symbol
             overflow="visible"
             id="textext-7f3bc4c1-11"
             style="overflow:visible">
            <path
               style="stroke:none"
               d="M 0.1875,-6.203125 L 0.25,-6.203125 C 0.359375,-6.21875 0.484375,-6.234375 0.5625,-6.234375 C 0.875,-6.234375 0.984375,-6.09375 0.984375,-5.625 L 0.984375,-0.875 C 0.984375,-0.328125 0.84375,-0.203125 0.203125,-0.15625 L 0.203125,0 L 2.5625,0 L 2.5625,-0.15625 C 1.9375,-0.1875 1.8125,-0.296875 1.8125,-0.84375 L 1.8125,-6.78125 L 1.78125,-6.8125 C 1.25,-6.640625 0.875,-6.546875 0.1875,-6.375 L 0.1875,-6.203125 z"
               id="path3661" />
          </symbol>
          <symbol
             overflow="visible"
             id="textext-7f3bc4c1-12"
             style="overflow:visible">
            <path
               style="stroke:none"
               d="M 1.5625,-3.421875 C 1.984375,-3.875 2.28125,-4.046875 2.671875,-4.046875 C 3.171875,-4.046875 3.421875,-3.6875 3.421875,-2.984375 L 3.421875,-1.015625 C 3.421875,-0.34375 3.3125,-0.203125 2.734375,-0.15625 L 2.734375,0 L 4.859375,0 L 4.859375,-0.15625 C 4.3125,-0.25 4.25,-0.328125 4.25,-1.015625 L 4.25,-3 C 4.25,-4.046875 3.84375,-4.578125 3.03125,-4.578125 C 2.4375,-4.578125 2.03125,-4.34375 1.5625,-3.75 L 1.5625,-6.78125 L 1.515625,-6.8125 C 1.171875,-6.6875 0.921875,-6.609375 0.375,-6.453125 L 0.09375,-6.375 L 0.09375,-6.203125 C 0.140625,-6.21875 0.171875,-6.21875 0.21875,-6.21875 C 0.640625,-6.21875 0.734375,-6.140625 0.734375,-5.71875 L 0.734375,-1.015625 C 0.734375,-0.3125 0.671875,-0.234375 0.09375,-0.15625 L 0.09375,0 L 2.25,0 L 2.25,-0.15625 C 1.671875,-0.203125 1.5625,-0.328125 1.5625,-1.015625 L 1.5625,-3.421875 z"
               id="path3664" />
          </symbol>
        </g>
      </defs>
      <g
         id="textext-7f3bc4c1-13">
        <g
           style="fill:#000000;fill-opacity:1"
           id="g3667">
          <use
             xlink:href="#textext-7f3bc4c1-1"
             x="376.75699"
             y="134.765"
             id="use3669"
             width="744.09448"
             height="1052.3622" />
          <use
             xlink:href="#textext-7f3bc4c1-2"
             x="383.95001"
             y="134.765"
             id="use3671"
             width="744.09448"
             height="1052.3622" />
          <use
             xlink:href="#textext-7f3bc4c1-3"
             x="388.37338"
             y="134.765"
             id="use3673"
             width="744.09448"
             height="1052.3622" />
          <use
             xlink:href="#textext-7f3bc4c1-2"
             x="391.14301"
             y="134.765"
             id="use3675"
             width="744.09448"
             height="1052.3622" />
          <use
             xlink:href="#textext-7f3bc4c1-4"
             x="395.56638"
             y="134.765"
             id="use3677"
             width="744.09448"
             height="1052.3622" />
          <use
             xlink:href="#textext-7f3bc4c1-5"
             x="399.98978"
             y="134.765"
             id="use3679"
             width="744.09448"
             height="1052.3622" />
          <use
             xlink:href="#textext-7f3bc4c1-6"
             x="404.41318"
             y="134.765"
             id="use3681"
             width="744.09448"
             height="1052.3622" />
          <use
             xlink:href="#textext-7f3bc4c1-7"
             x="408.83658"
             y="134.765"
             id="use3683"
             width="744.09448"
             height="1052.3622" />
        </g>
        <g
           style="fill:#000000;fill-opacity:1"
           id="g3685">
          <use
             xlink:href="#textext-7f3bc4c1-8"
             x="378.34601"
             y="146.72"
             id="use3687"
             width="744.09448"
             height="1052.3622" />
          <use
             xlink:href="#textext-7f3bc4c1-2"
             x="383.3273"
             y="146.72"
             id="use3689"
             width="744.09448"
             height="1052.3622" />
        </g>
        <g
           style="fill:#000000;fill-opacity:1"
           id="g3691">
          <use
             xlink:href="#textext-7f3bc4c1-9"
             x="390.24133"
             y="146.72"
             id="use3693"
             width="744.09448"
             height="1052.3622" />
        </g>
        <g
           style="fill:#000000;fill-opacity:1"
           id="g3695">
          <use
             xlink:href="#textext-7f3bc4c1-10"
             x="395.6311"
             y="146.72"
             id="use3697"
             width="744.09448"
             height="1052.3622" />
          <use
             xlink:href="#textext-7f3bc4c1-11"
             x="400.0545"
             y="146.72"
             id="use3699"
             width="744.09448"
             height="1052.3622" />
          <use
             xlink:href="#textext-7f3bc4c1-12"
             x="402.8241"
             y="146.72"
             id="use3701"
             width="744.09448"
             height="1052.3622" />
          <use
             xlink:href="#textext-7f3bc4c1-10"
             x="407.80542"
             y="146.72"
             id="use3703"
             width="744.09448"
             height="1052.3622" />
        </g>
      </g>
    </g>
    <rect
       ry="6.3796692"
       y="125.12512"
       x="392.88013"
       height="35.902683"
       width="60.906345"
       id="rect9868"
       style="fill:#e6e6e6;fill-opacity:1;stroke:#000000;stroke-width:1;stroke-linecap:butt;stroke-miterlimit:4;stroke-dasharray:none;stroke-opacity:1;display:inline" />
    <g
       id="g3957"
       transform="translate(28.106868,5.6933384)"
       ns0:preamble="/home/diogo/.inkscape/extensions/preambulo_inkscape.tex"
       ns0:text="\\begin{center}\nIdentifica\xc3\xa7\xc3\xa3o\\\\\nde Falha\n\\end{center}">
      <defs
         id="defs3959">
        <g
           id="g3961">
          <symbol
             id="textext-e6a97aa1-0"
             overflow="visible"
             style="overflow:visible">
            <path
               id="path3964"
               d=""
               style="stroke:none" />
          </symbol>
          <symbol
             id="textext-e6a97aa1-1"
             overflow="visible"
             style="overflow:visible">
            <path
               id="path3967"
               d="M 1.140625,-1.09375 C 1.140625,-0.34375 1.015625,-0.21875 0.171875,-0.1875 L 0.171875,0 L 3.140625,0 L 3.140625,-0.1875 C 2.328125,-0.21875 2.15625,-0.359375 2.15625,-1.09375 L 2.15625,-5.515625 C 2.15625,-6.234375 2.296875,-6.375 3.140625,-6.40625 L 3.140625,-6.59375 L 0.171875,-6.59375 L 0.171875,-6.40625 C 1.03125,-6.359375 1.140625,-6.25 1.140625,-5.515625 L 1.140625,-1.09375 z"
               style="stroke:none" />
          </symbol>
          <symbol
             id="textext-e6a97aa1-2"
             overflow="visible"
             style="overflow:visible">
            <path
               id="path3970"
               d="M 3.421875,0.09375 L 4.890625,-0.421875 L 4.890625,-0.578125 C 4.71875,-0.5625 4.6875,-0.5625 4.671875,-0.5625 C 4.3125,-0.5625 4.234375,-0.671875 4.234375,-1.140625 L 4.234375,-6.78125 L 4.171875,-6.8125 C 3.703125,-6.640625 3.34375,-6.546875 2.71875,-6.375 L 2.71875,-6.203125 C 2.796875,-6.21875 2.84375,-6.21875 2.9375,-6.21875 C 3.296875,-6.21875 3.390625,-6.125 3.390625,-5.71875 L 3.390625,-4.15625 C 3.015625,-4.46875 2.734375,-4.578125 2.34375,-4.578125 C 1.203125,-4.578125 0.265625,-3.453125 0.265625,-2.046875 C 0.265625,-0.765625 1.015625,0.09375 2.109375,0.09375 C 2.671875,0.09375 3.046875,-0.09375 3.390625,-0.5625 L 3.390625,0.0625 L 3.421875,0.09375 z M 3.390625,-1.015625 C 3.390625,-0.953125 3.3125,-0.828125 3.21875,-0.71875 C 3.046875,-0.515625 2.796875,-0.421875 2.5,-0.421875 C 1.671875,-0.421875 1.125,-1.21875 1.125,-2.4375 C 1.125,-3.5625 1.609375,-4.3125 2.375,-4.3125 C 2.90625,-4.3125 3.390625,-3.84375 3.390625,-3.3125 L 3.390625,-1.015625 z"
               style="stroke:none" />
          </symbol>
          <symbol
             id="textext-e6a97aa1-3"
             overflow="visible"
             style="overflow:visible">
            <path
               id="path3973"
               d="M 4.0625,-1.640625 C 3.59375,-0.875 3.15625,-0.59375 2.515625,-0.59375 C 1.953125,-0.59375 1.53125,-0.875 1.234375,-1.453125 C 1.0625,-1.828125 0.984375,-2.15625 0.96875,-2.765625 L 4.03125,-2.765625 C 3.953125,-3.40625 3.859375,-3.703125 3.609375,-4.015625 C 3.3125,-4.375 2.84375,-4.578125 2.328125,-4.578125 C 1.828125,-4.578125 1.359375,-4.40625 0.984375,-4.0625 C 0.515625,-3.65625 0.25,-2.953125 0.25,-2.140625 C 0.25,-0.75 0.96875,0.09375 2.109375,0.09375 C 3.0625,0.09375 3.8125,-0.484375 4.234375,-1.5625 L 4.0625,-1.640625 z M 0.984375,-3.078125 C 1.09375,-3.859375 1.4375,-4.234375 2.046875,-4.234375 C 2.65625,-4.234375 2.890625,-3.953125 3.015625,-3.078125 L 0.984375,-3.078125 z"
               style="stroke:none" />
          </symbol>
          <symbol
             id="textext-e6a97aa1-4"
             overflow="visible"
             style="overflow:visible">
            <path
               id="path3976"
               d="M 0.15625,-3.96875 C 0.21875,-4 0.3125,-4 0.421875,-4 C 0.703125,-4 0.796875,-3.859375 0.796875,-3.375 L 0.796875,-0.890625 C 0.796875,-0.328125 0.6875,-0.1875 0.171875,-0.15625 L 0.171875,0 L 2.296875,0 L 2.296875,-0.15625 C 1.78125,-0.1875 1.640625,-0.3125 1.640625,-0.671875 L 1.640625,-3.46875 C 2.109375,-3.921875 2.328125,-4.03125 2.65625,-4.03125 C 3.15625,-4.03125 3.390625,-3.734375 3.390625,-3.078125 L 3.390625,-0.984375 C 3.390625,-0.359375 3.265625,-0.1875 2.765625,-0.15625 L 2.765625,0 L 4.828125,0 L 4.828125,-0.15625 C 4.34375,-0.203125 4.234375,-0.3125 4.234375,-0.8125 L 4.234375,-3.09375 C 4.234375,-4.03125 3.78125,-4.578125 3.046875,-4.578125 C 2.59375,-4.578125 2.28125,-4.421875 1.609375,-3.78125 L 1.609375,-4.5625 L 1.53125,-4.578125 C 1.046875,-4.40625 0.703125,-4.296875 0.15625,-4.140625 L 0.15625,-3.96875 z"
               style="stroke:none" />
          </symbol>
          <symbol
             id="textext-e6a97aa1-5"
             overflow="visible"
             style="overflow:visible">
            <path
               id="path3979"
               d="M 2.546875,-4.484375 L 1.53125,-4.484375 L 1.53125,-5.640625 C 1.53125,-5.734375 1.53125,-5.765625 1.46875,-5.765625 C 1.390625,-5.6875 1.328125,-5.59375 1.265625,-5.5 C 0.890625,-4.9375 0.453125,-4.46875 0.296875,-4.421875 C 0.1875,-4.359375 0.125,-4.28125 0.125,-4.234375 C 0.125,-4.203125 0.140625,-4.1875 0.171875,-4.171875 L 0.703125,-4.171875 L 0.703125,-1.171875 C 0.703125,-0.328125 1,0.09375 1.578125,0.09375 C 2.078125,0.09375 2.453125,-0.140625 2.78125,-0.65625 L 2.65625,-0.765625 C 2.4375,-0.515625 2.265625,-0.421875 2.046875,-0.421875 C 1.6875,-0.421875 1.53125,-0.6875 1.53125,-1.3125 L 1.53125,-4.171875 L 2.546875,-4.171875 L 2.546875,-4.484375 z"
               style="stroke:none" />
          </symbol>
          <symbol
             id="textext-e6a97aa1-6"
             overflow="visible"
             style="overflow:visible">
            <path
               id="path3982"
               d="M 1.75,-4.578125 L 0.203125,-4.03125 L 0.203125,-3.890625 L 0.28125,-3.890625 C 0.40625,-3.921875 0.53125,-3.921875 0.625,-3.921875 C 0.859375,-3.921875 0.953125,-3.765625 0.953125,-3.328125 L 0.953125,-1.015625 C 0.953125,-0.296875 0.84375,-0.1875 0.15625,-0.15625 L 0.15625,0 L 2.515625,0 L 2.515625,-0.15625 C 1.859375,-0.203125 1.78125,-0.296875 1.78125,-1.015625 L 1.78125,-4.5625 L 1.75,-4.578125 z M 1.28125,-6.8125 C 1,-6.8125 0.78125,-6.578125 0.78125,-6.296875 C 0.78125,-6.015625 1,-5.796875 1.28125,-5.796875 C 1.5625,-5.796875 1.796875,-6.015625 1.796875,-6.296875 C 1.796875,-6.578125 1.5625,-6.8125 1.28125,-6.8125 z"
               style="stroke:none" />
          </symbol>
          <symbol
             id="textext-e6a97aa1-7"
             overflow="visible"
             style="overflow:visible">
            <path
               id="path3985"
               d="M 0.3125,-4.15625 L 0.984375,-4.15625 L 0.984375,-0.9375 C 0.984375,-0.296875 0.875,-0.171875 0.3125,-0.15625 L 0.3125,0 L 2.515625,0 L 2.515625,-0.15625 C 1.953125,-0.1875 1.828125,-0.328125 1.828125,-0.875 L 1.828125,-4.15625 L 2.6875,-4.15625 C 3.640625,-4.15625 3.6875,-4.125 3.6875,-3.59375 L 3.6875,-0.96875 C 3.6875,-0.296875 3.625,-0.203125 3,-0.15625 L 3,0 L 5.1875,0 L 5.1875,-0.15625 C 4.640625,-0.203125 4.53125,-0.328125 4.53125,-0.96875 L 4.53125,-3.578125 C 4.53125,-3.796875 4.53125,-4.03125 4.546875,-4.5625 L 4.5,-4.578125 C 4.0625,-4.515625 3.78125,-4.484375 3.375,-4.484375 L 1.8125,-4.484375 L 1.8125,-4.921875 C 1.8125,-5.359375 1.84375,-5.65625 1.890625,-5.828125 C 2.03125,-6.265625 2.421875,-6.5625 2.875,-6.5625 C 3.15625,-6.5625 3.34375,-6.4375 3.578125,-6.09375 C 3.765625,-5.828125 3.890625,-5.71875 4.0625,-5.71875 C 4.28125,-5.71875 4.421875,-5.890625 4.421875,-6.109375 C 4.421875,-6.53125 3.921875,-6.8125 3.15625,-6.8125 C 2.40625,-6.8125 1.828125,-6.546875 1.46875,-6.0625 C 1.171875,-5.65625 1.0625,-5.28125 1,-4.484375 L 0.3125,-4.484375 L 0.3125,-4.15625 z"
               style="stroke:none" />
          </symbol>
          <symbol
             id="textext-e6a97aa1-8"
             overflow="visible"
             style="overflow:visible">
            <path
               id="path3988"
               d="M 3.96875,-1.5625 C 3.484375,-0.859375 3.125,-0.625 2.5625,-0.625 C 1.65625,-0.625 1.015625,-1.421875 1.015625,-2.5625 C 1.015625,-3.59375 1.5625,-4.296875 2.375,-4.296875 C 2.734375,-4.296875 2.859375,-4.1875 2.953125,-3.8125 L 3.015625,-3.59375 C 3.09375,-3.3125 3.28125,-3.140625 3.484375,-3.140625 C 3.75,-3.140625 3.96875,-3.328125 3.96875,-3.5625 C 3.96875,-4.109375 3.265625,-4.578125 2.4375,-4.578125 C 1.9375,-4.578125 1.4375,-4.390625 1.03125,-4.03125 C 0.53125,-3.59375 0.25,-2.90625 0.25,-2.125 C 0.25,-0.828125 1.03125,0.09375 2.140625,0.09375 C 2.59375,0.09375 2.984375,-0.0625 3.34375,-0.375 C 3.625,-0.609375 3.8125,-0.875 4.109375,-1.46875 L 3.96875,-1.5625 z"
               style="stroke:none" />
          </symbol>
          <symbol
             id="textext-e6a97aa1-9"
             overflow="visible"
             style="overflow:visible">
            <path
               id="path3991"
               d="M 4.40625,-0.65625 C 4.234375,-0.515625 4.109375,-0.46875 3.96875,-0.46875 C 3.734375,-0.46875 3.671875,-0.609375 3.671875,-1.046875 L 3.671875,-2.984375 C 3.671875,-3.515625 3.625,-3.796875 3.46875,-4.03125 C 3.25,-4.390625 2.828125,-4.578125 2.234375,-4.578125 C 1.296875,-4.578125 0.5625,-4.09375 0.5625,-3.46875 C 0.5625,-3.234375 0.75,-3.046875 0.984375,-3.046875 C 1.21875,-3.046875 1.4375,-3.234375 1.4375,-3.453125 C 1.4375,-3.5 1.421875,-3.546875 1.421875,-3.625 C 1.390625,-3.703125 1.390625,-3.78125 1.390625,-3.859375 C 1.390625,-4.125 1.703125,-4.34375 2.109375,-4.34375 C 2.59375,-4.34375 2.859375,-4.0625 2.859375,-3.515625 L 2.859375,-2.90625 C 1.328125,-2.296875 1.15625,-2.21875 0.734375,-1.828125 C 0.515625,-1.640625 0.375,-1.296875 0.375,-0.96875 C 0.375,-0.34375 0.8125,0.09375 1.421875,0.09375 C 1.859375,0.09375 2.265625,-0.109375 2.875,-0.625 C 2.921875,-0.109375 3.09375,0.09375 3.515625,0.09375 C 3.84375,0.09375 4.0625,-0.015625 4.40625,-0.40625 L 4.40625,-0.65625 z M 2.859375,-1.21875 C 2.859375,-0.921875 2.8125,-0.828125 2.609375,-0.703125 C 2.359375,-0.5625 2.078125,-0.484375 1.875,-0.484375 C 1.53125,-0.484375 1.25,-0.8125 1.25,-1.25 L 1.25,-1.28125 C 1.25,-1.875 1.65625,-2.234375 2.859375,-2.671875 L 2.859375,-1.21875 z"
               style="stroke:none" />
          </symbol>
          <symbol
             id="textext-e6a97aa1-10"
             overflow="visible"
             style="overflow:visible">
            <path
               id="path3994"
               d="M 2.25,0.09375 C 3.0625,0.03125 3.59375,-0.421875 4.109375,-1.46875 L 3.96875,-1.5625 C 3.484375,-0.859375 3.125,-0.625 2.5625,-0.625 C 1.65625,-0.625 1.015625,-1.421875 1.015625,-2.5625 C 1.015625,-3.59375 1.5625,-4.296875 2.375,-4.296875 C 2.734375,-4.296875 2.859375,-4.1875 2.953125,-3.8125 L 3.015625,-3.59375 C 3.09375,-3.3125 3.28125,-3.140625 3.5,-3.140625 C 3.75,-3.140625 3.96875,-3.328125 3.96875,-3.5625 C 3.96875,-4.109375 3.265625,-4.578125 2.4375,-4.578125 C 1.9375,-4.578125 1.4375,-4.390625 1.03125,-4.03125 C 0.53125,-3.59375 0.25,-2.90625 0.25,-2.109375 C 0.25,-0.921875 0.90625,-0.046875 1.90625,0.078125 L 1.53125,0.984375 L 1.609375,1.03125 C 1.6875,1 1.78125,1 1.890625,1 C 2.265625,1 2.40625,1.09375 2.40625,1.359375 C 2.40625,1.625 2.203125,1.796875 1.859375,1.796875 C 1.65625,1.796875 1.484375,1.765625 1.21875,1.671875 L 1.078125,1.984375 C 1.359375,2.109375 1.59375,2.140625 1.90625,2.140625 C 2.6875,2.140625 3.15625,1.828125 3.15625,1.3125 C 3.15625,0.875 2.84375,0.625 2.296875,0.625 C 2.203125,0.625 2.140625,0.625 2.046875,0.640625 L 2.25,0.09375 z"
               style="stroke:none" />
          </symbol>
          <symbol
             id="textext-e6a97aa1-11"
             overflow="visible"
             style="overflow:visible">
            <path
               id="path3997"
               d="M 4.40625,-0.65625 C 4.234375,-0.515625 4.109375,-0.46875 3.96875,-0.46875 C 3.734375,-0.46875 3.671875,-0.609375 3.671875,-1.046875 L 3.671875,-2.984375 C 3.671875,-3.515625 3.625,-3.796875 3.46875,-4.03125 C 3.25,-4.390625 2.828125,-4.578125 2.234375,-4.578125 C 1.296875,-4.578125 0.5625,-4.09375 0.5625,-3.46875 C 0.5625,-3.234375 0.75,-3.046875 0.984375,-3.046875 C 1.21875,-3.046875 1.4375,-3.234375 1.4375,-3.453125 C 1.4375,-3.5 1.421875,-3.546875 1.421875,-3.625 C 1.390625,-3.703125 1.390625,-3.78125 1.390625,-3.859375 C 1.390625,-4.125 1.703125,-4.34375 2.109375,-4.34375 C 2.59375,-4.34375 2.859375,-4.0625 2.859375,-3.515625 L 2.859375,-2.90625 C 1.328125,-2.296875 1.15625,-2.21875 0.734375,-1.828125 C 0.515625,-1.640625 0.375,-1.296875 0.375,-0.96875 C 0.375,-0.34375 0.8125,0.09375 1.421875,0.09375 C 1.859375,0.09375 2.265625,-0.109375 2.875,-0.625 C 2.921875,-0.109375 3.09375,0.09375 3.515625,0.09375 C 3.84375,0.09375 4.0625,-0.015625 4.40625,-0.40625 L 4.40625,-0.65625 z M 2.859375,-1.21875 C 2.859375,-0.921875 2.8125,-0.828125 2.609375,-0.703125 C 2.359375,-0.5625 2.078125,-0.484375 1.875,-0.484375 C 1.53125,-0.484375 1.25,-0.8125 1.25,-1.25 L 1.25,-1.28125 C 1.25,-1.875 1.65625,-2.234375 2.859375,-2.671875 L 2.859375,-1.21875 z M 3.5625,-6.359375 C 3.40625,-5.984375 3.265625,-5.859375 3.046875,-5.859375 C 2.890625,-5.859375 2.703125,-5.921875 2.515625,-6.015625 L 2.265625,-6.125 C 2.046875,-6.25 1.796875,-6.3125 1.578125,-6.3125 C 1.078125,-6.3125 0.71875,-5.953125 0.5625,-5.296875 L 0.859375,-5.296875 C 0.96875,-5.609375 1.140625,-5.765625 1.359375,-5.765625 C 1.484375,-5.765625 1.625,-5.71875 1.78125,-5.65625 L 2,-5.546875 C 2.40625,-5.34375 2.5625,-5.296875 2.8125,-5.296875 C 3.359375,-5.296875 3.65625,-5.609375 3.859375,-6.359375 L 3.5625,-6.359375 z"
               style="stroke:none" />
          </symbol>
          <symbol
             id="textext-e6a97aa1-12"
             overflow="visible"
             style="overflow:visible">
            <path
               id="path4000"
               d="M 2.5,-4.578125 C 1.203125,-4.578125 0.296875,-3.625 0.296875,-2.25 C 0.296875,-0.90625 1.21875,0.09375 2.46875,0.09375 C 3.734375,0.09375 4.6875,-0.953125 4.6875,-2.328125 C 4.6875,-3.640625 3.765625,-4.578125 2.5,-4.578125 z M 2.359375,-4.3125 C 3.203125,-4.3125 3.78125,-3.34375 3.78125,-1.984375 C 3.78125,-0.859375 3.34375,-0.171875 2.59375,-0.171875 C 2.203125,-0.171875 1.828125,-0.421875 1.625,-0.8125 C 1.34375,-1.328125 1.1875,-2.03125 1.1875,-2.734375 C 1.1875,-3.6875 1.65625,-4.3125 2.359375,-4.3125 z"
               style="stroke:none" />
          </symbol>
          <symbol
             id="textext-e6a97aa1-13"
             overflow="visible"
             style="overflow:visible">
            <path
               id="path4003"
               d="M 4.78125,-2.296875 L 4.78125,-4.609375 L 4.546875,-4.609375 C 4.421875,-3.8125 4.25,-3.671875 3.453125,-3.671875 L 2,-3.671875 L 2,-5.875 C 2,-6.15625 2.046875,-6.21875 2.328125,-6.21875 L 3.671875,-6.21875 C 4.8125,-6.21875 5.03125,-6.078125 5.1875,-5.171875 L 5.4375,-5.171875 L 5.40625,-6.59375 L 0.125,-6.59375 L 0.125,-6.40625 C 0.859375,-6.34375 0.984375,-6.203125 0.984375,-5.515625 L 0.984375,-1.203125 C 0.984375,-0.375 0.875,-0.234375 0.125,-0.1875 L 0.125,0 L 2.90625,0 L 2.90625,-0.1875 C 2.140625,-0.234375 2,-0.375 2,-1.09375 L 2,-3.265625 L 3.453125,-3.265625 C 4.25,-3.265625 4.421875,-3.109375 4.546875,-2.296875 L 4.78125,-2.296875 z"
               style="stroke:none" />
          </symbol>
          <symbol
             id="textext-e6a97aa1-14"
             overflow="visible"
             style="overflow:visible">
            <path
               id="path4006"
               d="M 0.1875,-6.203125 L 0.25,-6.203125 C 0.359375,-6.21875 0.484375,-6.234375 0.5625,-6.234375 C 0.875,-6.234375 0.984375,-6.09375 0.984375,-5.625 L 0.984375,-0.875 C 0.984375,-0.328125 0.84375,-0.203125 0.203125,-0.15625 L 0.203125,0 L 2.5625,0 L 2.5625,-0.15625 C 1.9375,-0.1875 1.8125,-0.296875 1.8125,-0.84375 L 1.8125,-6.78125 L 1.78125,-6.8125 C 1.25,-6.640625 0.875,-6.546875 0.1875,-6.375 L 0.1875,-6.203125 z"
               style="stroke:none" />
          </symbol>
          <symbol
             id="textext-e6a97aa1-15"
             overflow="visible"
             style="overflow:visible">
            <path
               id="path4009"
               d="M 1.5625,-3.421875 C 1.984375,-3.875 2.28125,-4.046875 2.671875,-4.046875 C 3.171875,-4.046875 3.421875,-3.6875 3.421875,-2.984375 L 3.421875,-1.015625 C 3.421875,-0.34375 3.3125,-0.203125 2.734375,-0.15625 L 2.734375,0 L 4.859375,0 L 4.859375,-0.15625 C 4.3125,-0.25 4.25,-0.328125 4.25,-1.015625 L 4.25,-3 C 4.25,-4.046875 3.84375,-4.578125 3.03125,-4.578125 C 2.4375,-4.578125 2.03125,-4.34375 1.5625,-3.75 L 1.5625,-6.78125 L 1.515625,-6.8125 C 1.171875,-6.6875 0.921875,-6.609375 0.375,-6.453125 L 0.09375,-6.375 L 0.09375,-6.203125 C 0.140625,-6.21875 0.171875,-6.21875 0.21875,-6.21875 C 0.640625,-6.21875 0.734375,-6.140625 0.734375,-5.71875 L 0.734375,-1.015625 C 0.734375,-0.3125 0.671875,-0.234375 0.09375,-0.15625 L 0.09375,0 L 2.25,0 L 2.25,-0.15625 C 1.671875,-0.203125 1.5625,-0.328125 1.5625,-1.015625 L 1.5625,-3.421875 z"
               style="stroke:none" />
          </symbol>
        </g>
      </defs>
      <g
         id="textext-e6a97aa1-16">
        <g
           id="g4012"
           style="fill:#000000;fill-opacity:1">
          <use
             id="use4014"
             y="134.765"
             x="369.55899"
             xlink:href="#textext-e6a97aa1-1"
             width="744.09448"
             height="1052.3622" />
          <use
             id="use4016"
             y="134.765"
             x="372.87656"
             xlink:href="#textext-e6a97aa1-2"
             width="744.09448"
             height="1052.3622" />
          <use
             id="use4018"
             y="134.765"
             x="377.85785"
             xlink:href="#textext-e6a97aa1-3"
             width="744.09448"
             height="1052.3622" />
          <use
             id="use4020"
             y="134.765"
             x="382.28125"
             xlink:href="#textext-e6a97aa1-4"
             width="744.09448"
             height="1052.3622" />
          <use
             id="use4022"
             y="134.765"
             x="387.26254"
             xlink:href="#textext-e6a97aa1-5"
             width="744.09448"
             height="1052.3622" />
          <use
             id="use4024"
             y="134.765"
             x="390.03214"
             xlink:href="#textext-e6a97aa1-6"
             width="744.09448"
             height="1052.3622" />
          <use
             id="use4026"
             y="134.765"
             x="392.80176"
             xlink:href="#textext-e6a97aa1-7"
             width="744.09448"
             height="1052.3622" />
          <use
             id="use4028"
             y="134.765"
             x="398.34094"
             xlink:href="#textext-e6a97aa1-8"
             width="744.09448"
             height="1052.3622" />
          <use
             id="use4030"
             y="134.765"
             x="402.76434"
             xlink:href="#textext-e6a97aa1-9"
             width="744.09448"
             height="1052.3622" />
          <use
             id="use4032"
             y="134.765"
             x="407.18774"
             xlink:href="#textext-e6a97aa1-10"
             width="744.09448"
             height="1052.3622" />
          <use
             id="use4034"
             y="134.765"
             x="411.61115"
             xlink:href="#textext-e6a97aa1-11"
             width="744.09448"
             height="1052.3622" />
          <use
             id="use4036"
             y="134.765"
             x="416.03452"
             xlink:href="#textext-e6a97aa1-12"
             width="744.09448"
             height="1052.3622" />
        </g>
        <g
           id="g4038"
           style="fill:#000000;fill-opacity:1">
          <use
             id="use4040"
             y="146.72"
             x="378.34601"
             xlink:href="#textext-e6a97aa1-2"
             width="744.09448"
             height="1052.3622" />
          <use
             id="use4042"
             y="146.72"
             x="383.3273"
             xlink:href="#textext-e6a97aa1-3"
             width="744.09448"
             height="1052.3622" />
        </g>
        <g
           id="g4044"
           style="fill:#000000;fill-opacity:1">
          <use
             id="use4046"
             y="146.72"
             x="390.24133"
             xlink:href="#textext-e6a97aa1-13"
             width="744.09448"
             height="1052.3622" />
        </g>
        <g
           id="g4048"
           style="fill:#000000;fill-opacity:1">
          <use
             id="use4050"
             y="146.72"
             x="395.6311"
             xlink:href="#textext-e6a97aa1-9"
             width="744.09448"
             height="1052.3622" />
          <use
             id="use4052"
             y="146.72"
             x="400.0545"
             xlink:href="#textext-e6a97aa1-14"
             width="744.09448"
             height="1052.3622" />
          <use
             id="use4054"
             y="146.72"
             x="402.8241"
             xlink:href="#textext-e6a97aa1-15"
             width="744.09448"
             height="1052.3622" />
          <use
             id="use4056"
             y="146.72"
             x="407.80542"
             xlink:href="#textext-e6a97aa1-9"
             width="744.09448"
             height="1052.3622" />
        </g>
      </g>
    </g>
    <rect
       ry="6.3796692"
       y="125.12512"
       x="494.07062"
       height="35.902683"
       width="60.906345"
       id="rect9870"
       style="fill:#e6e6e6;fill-opacity:1;stroke:#000000;stroke-width:1;stroke-linecap:butt;stroke-miterlimit:4;stroke-dasharray:none;stroke-opacity:1;display:inline" />
    <g
       ns0:text="\\begin{center}\nDiagn\xc3\xb3stico\\\\\nde Falha\n\\end{center}"
       ns0:preamble="/home/diogo/.inkscape/extensions/preambulo_inkscape.tex"
       transform="translate(129.30495,5.6933384)"
       id="g4494">
      <defs
         id="defs4496">
        <g
           id="g4498">
          <symbol
             overflow="visible"
             id="textext-42c6d2b4-0"
             style="overflow:visible">
            <path
               style="stroke:none"
               d=""
               id="path4501" />
          </symbol>
          <symbol
             overflow="visible"
             id="textext-42c6d2b4-1"
             style="overflow:visible">
            <path
               style="stroke:none"
               d="M 1.03125,-1.09375 C 1.03125,-0.375 0.921875,-0.234375 0.15625,-0.1875 L 0.15625,0 L 2.984375,0 C 4.140625,0 5.1875,-0.328125 5.8125,-0.890625 C 6.453125,-1.46875 6.828125,-2.359375 6.828125,-3.328125 C 6.828125,-4.234375 6.53125,-5 5.984375,-5.546875 C 5.296875,-6.234375 4.21875,-6.59375 2.84375,-6.59375 L 0.15625,-6.59375 L 0.15625,-6.40625 C 0.953125,-6.34375 1.03125,-6.25 1.03125,-5.515625 L 1.03125,-1.09375 z M 2.046875,-5.84375 C 2.046875,-6.15625 2.15625,-6.234375 2.578125,-6.234375 C 3.421875,-6.234375 4.078125,-6.078125 4.5625,-5.734375 C 5.328125,-5.1875 5.734375,-4.34375 5.734375,-3.265625 C 5.734375,-2.078125 5.328125,-1.25 4.53125,-0.78125 C 4.015625,-0.484375 3.4375,-0.375 2.578125,-0.375 C 2.171875,-0.375 2.046875,-0.453125 2.046875,-0.78125 L 2.046875,-5.84375 z"
               id="path4504" />
          </symbol>
          <symbol
             overflow="visible"
             id="textext-42c6d2b4-2"
             style="overflow:visible">
            <path
               style="stroke:none"
               d="M 1.75,-4.578125 L 0.203125,-4.03125 L 0.203125,-3.890625 L 0.28125,-3.890625 C 0.40625,-3.921875 0.53125,-3.921875 0.625,-3.921875 C 0.859375,-3.921875 0.953125,-3.765625 0.953125,-3.328125 L 0.953125,-1.015625 C 0.953125,-0.296875 0.84375,-0.1875 0.15625,-0.15625 L 0.15625,0 L 2.515625,0 L 2.515625,-0.15625 C 1.859375,-0.203125 1.78125,-0.296875 1.78125,-1.015625 L 1.78125,-4.5625 L 1.75,-4.578125 z M 1.28125,-6.8125 C 1,-6.8125 0.78125,-6.578125 0.78125,-6.296875 C 0.78125,-6.015625 1,-5.796875 1.28125,-5.796875 C 1.5625,-5.796875 1.796875,-6.015625 1.796875,-6.296875 C 1.796875,-6.578125 1.5625,-6.8125 1.28125,-6.8125 z"
               id="path4507" />
          </symbol>
          <symbol
             overflow="visible"
             id="textext-42c6d2b4-3"
             style="overflow:visible">
            <path
               style="stroke:none"
               d="M 4.40625,-0.65625 C 4.234375,-0.515625 4.109375,-0.46875 3.96875,-0.46875 C 3.734375,-0.46875 3.671875,-0.609375 3.671875,-1.046875 L 3.671875,-2.984375 C 3.671875,-3.515625 3.625,-3.796875 3.46875,-4.03125 C 3.25,-4.390625 2.828125,-4.578125 2.234375,-4.578125 C 1.296875,-4.578125 0.5625,-4.09375 0.5625,-3.46875 C 0.5625,-3.234375 0.75,-3.046875 0.984375,-3.046875 C 1.21875,-3.046875 1.4375,-3.234375 1.4375,-3.453125 C 1.4375,-3.5 1.421875,-3.546875 1.421875,-3.625 C 1.390625,-3.703125 1.390625,-3.78125 1.390625,-3.859375 C 1.390625,-4.125 1.703125,-4.34375 2.109375,-4.34375 C 2.59375,-4.34375 2.859375,-4.0625 2.859375,-3.515625 L 2.859375,-2.90625 C 1.328125,-2.296875 1.15625,-2.21875 0.734375,-1.828125 C 0.515625,-1.640625 0.375,-1.296875 0.375,-0.96875 C 0.375,-0.34375 0.8125,0.09375 1.421875,0.09375 C 1.859375,0.09375 2.265625,-0.109375 2.875,-0.625 C 2.921875,-0.109375 3.09375,0.09375 3.515625,0.09375 C 3.84375,0.09375 4.0625,-0.015625 4.40625,-0.40625 L 4.40625,-0.65625 z M 2.859375,-1.21875 C 2.859375,-0.921875 2.8125,-0.828125 2.609375,-0.703125 C 2.359375,-0.5625 2.078125,-0.484375 1.875,-0.484375 C 1.53125,-0.484375 1.25,-0.8125 1.25,-1.25 L 1.25,-1.28125 C 1.25,-1.875 1.65625,-2.234375 2.859375,-2.671875 L 2.859375,-1.21875 z"
               id="path4510" />
          </symbol>
          <symbol
             overflow="visible"
             id="textext-42c6d2b4-4"
             style="overflow:visible">
            <path
               style="stroke:none"
               d="M 4.6875,-3.875 L 4.6875,-4.25 L 3.921875,-4.25 C 3.71875,-4.25 3.5625,-4.28125 3.375,-4.359375 L 3.15625,-4.4375 C 2.875,-4.53125 2.609375,-4.578125 2.359375,-4.578125 C 1.421875,-4.578125 0.6875,-3.875 0.6875,-2.953125 C 0.6875,-2.328125 0.953125,-1.953125 1.609375,-1.625 C 1.421875,-1.453125 1.25,-1.28125 1.1875,-1.21875 C 0.859375,-0.9375 0.734375,-0.734375 0.734375,-0.53125 C 0.734375,-0.328125 0.84375,-0.203125 1.25,-0.015625 C 0.546875,0.515625 0.28125,0.84375 0.28125,1.203125 C 0.28125,1.734375 1.0625,2.171875 2,2.171875 C 2.75,2.171875 3.53125,1.90625 4.046875,1.5 C 4.421875,1.1875 4.59375,0.875 4.59375,0.484375 C 4.59375,-0.125 4.125,-0.546875 3.390625,-0.578125 L 2.109375,-0.640625 C 1.578125,-0.65625 1.328125,-0.75 1.328125,-0.90625 C 1.328125,-1.109375 1.65625,-1.453125 1.921875,-1.53125 C 2.015625,-1.53125 2.078125,-1.515625 2.109375,-1.515625 C 2.296875,-1.5 2.4375,-1.484375 2.5,-1.484375 C 2.859375,-1.484375 3.265625,-1.640625 3.5625,-1.90625 C 3.890625,-2.1875 4.046875,-2.53125 4.046875,-3.03125 C 4.046875,-3.3125 4,-3.546875 3.859375,-3.875 L 4.6875,-3.875 z M 1.46875,0.015625 C 1.796875,0.09375 2.59375,0.15625 3.078125,0.15625 C 3.984375,0.15625 4.3125,0.28125 4.3125,0.640625 C 4.3125,1.21875 3.5625,1.609375 2.4375,1.609375 C 1.5625,1.609375 0.984375,1.3125 0.984375,0.875 C 0.984375,0.640625 1.046875,0.515625 1.46875,0.015625 z M 1.515625,-3.375 C 1.515625,-3.953125 1.796875,-4.3125 2.25,-4.3125 C 2.5625,-4.3125 2.828125,-4.140625 2.984375,-3.84375 C 3.15625,-3.484375 3.28125,-3.03125 3.28125,-2.640625 C 3.28125,-2.078125 2.984375,-1.734375 2.53125,-1.734375 C 1.9375,-1.734375 1.515625,-2.375 1.515625,-3.34375 L 1.515625,-3.375 z"
               id="path4513" />
          </symbol>
          <symbol
             overflow="visible"
             id="textext-42c6d2b4-5"
             style="overflow:visible">
            <path
               style="stroke:none"
               d="M 0.15625,-3.96875 C 0.21875,-4 0.3125,-4 0.421875,-4 C 0.703125,-4 0.796875,-3.859375 0.796875,-3.375 L 0.796875,-0.890625 C 0.796875,-0.328125 0.6875,-0.1875 0.171875,-0.15625 L 0.171875,0 L 2.296875,0 L 2.296875,-0.15625 C 1.78125,-0.1875 1.640625,-0.3125 1.640625,-0.671875 L 1.640625,-3.46875 C 2.109375,-3.921875 2.328125,-4.03125 2.65625,-4.03125 C 3.15625,-4.03125 3.390625,-3.734375 3.390625,-3.078125 L 3.390625,-0.984375 C 3.390625,-0.359375 3.265625,-0.1875 2.765625,-0.15625 L 2.765625,0 L 4.828125,0 L 4.828125,-0.15625 C 4.34375,-0.203125 4.234375,-0.3125 4.234375,-0.8125 L 4.234375,-3.09375 C 4.234375,-4.03125 3.78125,-4.578125 3.046875,-4.578125 C 2.59375,-4.578125 2.28125,-4.421875 1.609375,-3.78125 L 1.609375,-4.5625 L 1.53125,-4.578125 C 1.046875,-4.40625 0.703125,-4.296875 0.15625,-4.140625 L 0.15625,-3.96875 z"
               id="path4516" />
          </symbol>
          <symbol
             overflow="visible"
             id="textext-42c6d2b4-6"
             style="overflow:visible">
            <path
               style="stroke:none"
               d="M 2.5,-4.578125 C 1.203125,-4.578125 0.296875,-3.625 0.296875,-2.25 C 0.296875,-0.90625 1.21875,0.09375 2.46875,0.09375 C 3.734375,0.09375 4.6875,-0.953125 4.6875,-2.328125 C 4.6875,-3.640625 3.765625,-4.578125 2.5,-4.578125 z M 2.359375,-4.3125 C 3.203125,-4.3125 3.78125,-3.34375 3.78125,-1.984375 C 3.78125,-0.859375 3.34375,-0.171875 2.59375,-0.171875 C 2.203125,-0.171875 1.828125,-0.421875 1.625,-0.8125 C 1.34375,-1.328125 1.1875,-2.03125 1.1875,-2.734375 C 1.1875,-3.6875 1.65625,-4.3125 2.359375,-4.3125 z M 2.15625,-5.046875 L 3.703125,-6.015625 C 3.90625,-6.15625 4,-6.28125 4,-6.4375 C 4,-6.640625 3.875,-6.765625 3.65625,-6.765625 C 3.5,-6.765625 3.40625,-6.703125 3.234375,-6.53125 L 1.765625,-5.046875 L 2.15625,-5.046875 z"
               id="path4519" />
          </symbol>
          <symbol
             overflow="visible"
             id="textext-42c6d2b4-7"
             style="overflow:visible">
            <path
               style="stroke:none"
               d="M 3.140625,-3.125 L 3.09375,-4.484375 L 2.984375,-4.484375 L 2.96875,-4.46875 C 2.875,-4.390625 2.875,-4.390625 2.828125,-4.390625 C 2.765625,-4.390625 2.671875,-4.40625 2.5625,-4.453125 C 2.34375,-4.53125 2.125,-4.578125 1.859375,-4.578125 C 1.078125,-4.578125 0.515625,-4.0625 0.515625,-3.34375 C 0.515625,-2.796875 0.828125,-2.390625 1.671875,-1.90625 L 2.25,-1.578125 C 2.609375,-1.390625 2.765625,-1.140625 2.765625,-0.84375 C 2.765625,-0.40625 2.453125,-0.125 1.9375,-0.125 C 1.609375,-0.125 1.296875,-0.25 1.109375,-0.46875 C 0.890625,-0.71875 0.8125,-0.953125 0.671875,-1.515625 L 0.515625,-1.515625 L 0.515625,0.046875 L 0.640625,0.046875 C 0.71875,-0.0625 0.75,-0.078125 0.875,-0.078125 C 0.96875,-0.078125 1.109375,-0.0625 1.328125,0 C 1.609375,0.0625 1.890625,0.09375 2.0625,0.09375 C 2.828125,0.09375 3.46875,-0.484375 3.46875,-1.171875 C 3.46875,-1.671875 3.234375,-2 2.625,-2.359375 L 1.5625,-3 C 1.28125,-3.15625 1.125,-3.40625 1.125,-3.671875 C 1.125,-4.078125 1.4375,-4.359375 1.890625,-4.359375 C 2.46875,-4.359375 2.765625,-4.015625 2.984375,-3.125 L 3.140625,-3.125 z"
               id="path4522" />
          </symbol>
          <symbol
             overflow="visible"
             id="textext-42c6d2b4-8"
             style="overflow:visible">
            <path
               style="stroke:none"
               d="M 2.546875,-4.484375 L 1.53125,-4.484375 L 1.53125,-5.640625 C 1.53125,-5.734375 1.53125,-5.765625 1.46875,-5.765625 C 1.390625,-5.6875 1.328125,-5.59375 1.265625,-5.5 C 0.890625,-4.9375 0.453125,-4.46875 0.296875,-4.421875 C 0.1875,-4.359375 0.125,-4.28125 0.125,-4.234375 C 0.125,-4.203125 0.140625,-4.1875 0.171875,-4.171875 L 0.703125,-4.171875 L 0.703125,-1.171875 C 0.703125,-0.328125 1,0.09375 1.578125,0.09375 C 2.078125,0.09375 2.453125,-0.140625 2.78125,-0.65625 L 2.65625,-0.765625 C 2.4375,-0.515625 2.265625,-0.421875 2.046875,-0.421875 C 1.6875,-0.421875 1.53125,-0.6875 1.53125,-1.3125 L 1.53125,-4.171875 L 2.546875,-4.171875 L 2.546875,-4.484375 z"
               id="path4525" />
          </symbol>
          <symbol
             overflow="visible"
             id="textext-42c6d2b4-9"
             style="overflow:visible">
            <path
               style="stroke:none"
               d="M 3.96875,-1.5625 C 3.484375,-0.859375 3.125,-0.625 2.5625,-0.625 C 1.65625,-0.625 1.015625,-1.421875 1.015625,-2.5625 C 1.015625,-3.59375 1.5625,-4.296875 2.375,-4.296875 C 2.734375,-4.296875 2.859375,-4.1875 2.953125,-3.8125 L 3.015625,-3.59375 C 3.09375,-3.3125 3.28125,-3.140625 3.484375,-3.140625 C 3.75,-3.140625 3.96875,-3.328125 3.96875,-3.5625 C 3.96875,-4.109375 3.265625,-4.578125 2.4375,-4.578125 C 1.9375,-4.578125 1.4375,-4.390625 1.03125,-4.03125 C 0.53125,-3.59375 0.25,-2.90625 0.25,-2.125 C 0.25,-0.828125 1.03125,0.09375 2.140625,0.09375 C 2.59375,0.09375 2.984375,-0.0625 3.34375,-0.375 C 3.625,-0.609375 3.8125,-0.875 4.109375,-1.46875 L 3.96875,-1.5625 z"
               id="path4528" />
          </symbol>
          <symbol
             overflow="visible"
             id="textext-42c6d2b4-10"
             style="overflow:visible">
            <path
               style="stroke:none"
               d="M 2.5,-4.578125 C 1.203125,-4.578125 0.296875,-3.625 0.296875,-2.25 C 0.296875,-0.90625 1.21875,0.09375 2.46875,0.09375 C 3.734375,0.09375 4.6875,-0.953125 4.6875,-2.328125 C 4.6875,-3.640625 3.765625,-4.578125 2.5,-4.578125 z M 2.359375,-4.3125 C 3.203125,-4.3125 3.78125,-3.34375 3.78125,-1.984375 C 3.78125,-0.859375 3.34375,-0.171875 2.59375,-0.171875 C 2.203125,-0.171875 1.828125,-0.421875 1.625,-0.8125 C 1.34375,-1.328125 1.1875,-2.03125 1.1875,-2.734375 C 1.1875,-3.6875 1.65625,-4.3125 2.359375,-4.3125 z"
               id="path4531" />
          </symbol>
          <symbol
             overflow="visible"
             id="textext-42c6d2b4-11"
             style="overflow:visible">
            <path
               style="stroke:none"
               d="M 3.421875,0.09375 L 4.890625,-0.421875 L 4.890625,-0.578125 C 4.71875,-0.5625 4.6875,-0.5625 4.671875,-0.5625 C 4.3125,-0.5625 4.234375,-0.671875 4.234375,-1.140625 L 4.234375,-6.78125 L 4.171875,-6.8125 C 3.703125,-6.640625 3.34375,-6.546875 2.71875,-6.375 L 2.71875,-6.203125 C 2.796875,-6.21875 2.84375,-6.21875 2.9375,-6.21875 C 3.296875,-6.21875 3.390625,-6.125 3.390625,-5.71875 L 3.390625,-4.15625 C 3.015625,-4.46875 2.734375,-4.578125 2.34375,-4.578125 C 1.203125,-4.578125 0.265625,-3.453125 0.265625,-2.046875 C 0.265625,-0.765625 1.015625,0.09375 2.109375,0.09375 C 2.671875,0.09375 3.046875,-0.09375 3.390625,-0.5625 L 3.390625,0.0625 L 3.421875,0.09375 z M 3.390625,-1.015625 C 3.390625,-0.953125 3.3125,-0.828125 3.21875,-0.71875 C 3.046875,-0.515625 2.796875,-0.421875 2.5,-0.421875 C 1.671875,-0.421875 1.125,-1.21875 1.125,-2.4375 C 1.125,-3.5625 1.609375,-4.3125 2.375,-4.3125 C 2.90625,-4.3125 3.390625,-3.84375 3.390625,-3.3125 L 3.390625,-1.015625 z"
               id="path4534" />
          </symbol>
          <symbol
             overflow="visible"
             id="textext-42c6d2b4-12"
             style="overflow:visible">
            <path
               style="stroke:none"
               d="M 4.0625,-1.640625 C 3.59375,-0.875 3.15625,-0.59375 2.515625,-0.59375 C 1.953125,-0.59375 1.53125,-0.875 1.234375,-1.453125 C 1.0625,-1.828125 0.984375,-2.15625 0.96875,-2.765625 L 4.03125,-2.765625 C 3.953125,-3.40625 3.859375,-3.703125 3.609375,-4.015625 C 3.3125,-4.375 2.84375,-4.578125 2.328125,-4.578125 C 1.828125,-4.578125 1.359375,-4.40625 0.984375,-4.0625 C 0.515625,-3.65625 0.25,-2.953125 0.25,-2.140625 C 0.25,-0.75 0.96875,0.09375 2.109375,0.09375 C 3.0625,0.09375 3.8125,-0.484375 4.234375,-1.5625 L 4.0625,-1.640625 z M 0.984375,-3.078125 C 1.09375,-3.859375 1.4375,-4.234375 2.046875,-4.234375 C 2.65625,-4.234375 2.890625,-3.953125 3.015625,-3.078125 L 0.984375,-3.078125 z"
               id="path4537" />
          </symbol>
          <symbol
             overflow="visible"
             id="textext-42c6d2b4-13"
             style="overflow:visible">
            <path
               style="stroke:none"
               d="M 4.78125,-2.296875 L 4.78125,-4.609375 L 4.546875,-4.609375 C 4.421875,-3.8125 4.25,-3.671875 3.453125,-3.671875 L 2,-3.671875 L 2,-5.875 C 2,-6.15625 2.046875,-6.21875 2.328125,-6.21875 L 3.671875,-6.21875 C 4.8125,-6.21875 5.03125,-6.078125 5.1875,-5.171875 L 5.4375,-5.171875 L 5.40625,-6.59375 L 0.125,-6.59375 L 0.125,-6.40625 C 0.859375,-6.34375 0.984375,-6.203125 0.984375,-5.515625 L 0.984375,-1.203125 C 0.984375,-0.375 0.875,-0.234375 0.125,-0.1875 L 0.125,0 L 2.90625,0 L 2.90625,-0.1875 C 2.140625,-0.234375 2,-0.375 2,-1.09375 L 2,-3.265625 L 3.453125,-3.265625 C 4.25,-3.265625 4.421875,-3.109375 4.546875,-2.296875 L 4.78125,-2.296875 z"
               id="path4540" />
          </symbol>
          <symbol
             overflow="visible"
             id="textext-42c6d2b4-14"
             style="overflow:visible">
            <path
               style="stroke:none"
               d="M 0.1875,-6.203125 L 0.25,-6.203125 C 0.359375,-6.21875 0.484375,-6.234375 0.5625,-6.234375 C 0.875,-6.234375 0.984375,-6.09375 0.984375,-5.625 L 0.984375,-0.875 C 0.984375,-0.328125 0.84375,-0.203125 0.203125,-0.15625 L 0.203125,0 L 2.5625,0 L 2.5625,-0.15625 C 1.9375,-0.1875 1.8125,-0.296875 1.8125,-0.84375 L 1.8125,-6.78125 L 1.78125,-6.8125 C 1.25,-6.640625 0.875,-6.546875 0.1875,-6.375 L 0.1875,-6.203125 z"
               id="path4543" />
          </symbol>
          <symbol
             overflow="visible"
             id="textext-42c6d2b4-15"
             style="overflow:visible">
            <path
               style="stroke:none"
               d="M 1.5625,-3.421875 C 1.984375,-3.875 2.28125,-4.046875 2.671875,-4.046875 C 3.171875,-4.046875 3.421875,-3.6875 3.421875,-2.984375 L 3.421875,-1.015625 C 3.421875,-0.34375 3.3125,-0.203125 2.734375,-0.15625 L 2.734375,0 L 4.859375,0 L 4.859375,-0.15625 C 4.3125,-0.25 4.25,-0.328125 4.25,-1.015625 L 4.25,-3 C 4.25,-4.046875 3.84375,-4.578125 3.03125,-4.578125 C 2.4375,-4.578125 2.03125,-4.34375 1.5625,-3.75 L 1.5625,-6.78125 L 1.515625,-6.8125 C 1.171875,-6.6875 0.921875,-6.609375 0.375,-6.453125 L 0.09375,-6.375 L 0.09375,-6.203125 C 0.140625,-6.21875 0.171875,-6.21875 0.21875,-6.21875 C 0.640625,-6.21875 0.734375,-6.140625 0.734375,-5.71875 L 0.734375,-1.015625 C 0.734375,-0.3125 0.671875,-0.234375 0.09375,-0.15625 L 0.09375,0 L 2.25,0 L 2.25,-0.15625 C 1.671875,-0.203125 1.5625,-0.328125 1.5625,-1.015625 L 1.5625,-3.421875 z"
               id="path4546" />
          </symbol>
        </g>
      </defs>
      <g
         id="textext-42c6d2b4-16">
        <g
           style="fill:#000000;fill-opacity:1"
           id="g4549">
          <use
             xlink:href="#textext-42c6d2b4-1"
             x="371.21301"
             y="134.765"
             id="use4551"
             width="744.09448"
             height="1052.3622" />
          <use
             xlink:href="#textext-42c6d2b4-2"
             x="378.40601"
             y="134.765"
             id="use4553"
             width="744.09448"
             height="1052.3622" />
          <use
             xlink:href="#textext-42c6d2b4-3"
             x="381.1756"
             y="134.765"
             id="use4555"
             width="744.09448"
             height="1052.3622" />
          <use
             xlink:href="#textext-42c6d2b4-4"
             x="385.599"
             y="134.765"
             id="use4557"
             width="744.09448"
             height="1052.3622" />
          <use
             xlink:href="#textext-42c6d2b4-5"
             x="390.58029"
             y="134.765"
             id="use4559"
             width="744.09448"
             height="1052.3622" />
          <use
             xlink:href="#textext-42c6d2b4-6"
             x="395.56158"
             y="134.765"
             id="use4561"
             width="744.09448"
             height="1052.3622" />
          <use
             xlink:href="#textext-42c6d2b4-7"
             x="400.54291"
             y="134.765"
             id="use4563"
             width="744.09448"
             height="1052.3622" />
          <use
             xlink:href="#textext-42c6d2b4-8"
             x="404.41833"
             y="134.765"
             id="use4565"
             width="744.09448"
             height="1052.3622" />
          <use
             xlink:href="#textext-42c6d2b4-2"
             x="407.18796"
             y="134.765"
             id="use4567"
             width="744.09448"
             height="1052.3622" />
          <use
             xlink:href="#textext-42c6d2b4-9"
             x="409.95755"
             y="134.765"
             id="use4569"
             width="744.09448"
             height="1052.3622" />
          <use
             xlink:href="#textext-42c6d2b4-10"
             x="414.38095"
             y="134.765"
             id="use4571"
             width="744.09448"
             height="1052.3622" />
        </g>
        <g
           style="fill:#000000;fill-opacity:1"
           id="g4573">
          <use
             xlink:href="#textext-42c6d2b4-11"
             x="378.34601"
             y="146.72"
             id="use4575"
             width="744.09448"
             height="1052.3622" />
          <use
             xlink:href="#textext-42c6d2b4-12"
             x="383.3273"
             y="146.72"
             id="use4577"
             width="744.09448"
             height="1052.3622" />
        </g>
        <g
           style="fill:#000000;fill-opacity:1"
           id="g4579">
          <use
             xlink:href="#textext-42c6d2b4-13"
             x="390.24133"
             y="146.72"
             id="use4581"
             width="744.09448"
             height="1052.3622" />
        </g>
        <g
           style="fill:#000000;fill-opacity:1"
           id="g4583">
          <use
             xlink:href="#textext-42c6d2b4-3"
             x="395.6311"
             y="146.72"
             id="use4585"
             width="744.09448"
             height="1052.3622" />
          <use
             xlink:href="#textext-42c6d2b4-14"
             x="400.0545"
             y="146.72"
             id="use4587"
             width="744.09448"
             height="1052.3622" />
          <use
             xlink:href="#textext-42c6d2b4-15"
             x="402.8241"
             y="146.72"
             id="use4589"
             width="744.09448"
             height="1052.3622" />
          <use
             xlink:href="#textext-42c6d2b4-3"
             x="407.80542"
             y="146.72"
             id="use4591"
             width="744.09448"
             height="1052.3622" />
        </g>
      </g>
    </g>
    <rect
       ry="6.3796692"
       y="125.12512"
       x="595.26111"
       height="35.902683"
       width="60.906345"
       id="rect9872"
       style="fill:#e6e6e6;fill-opacity:1;stroke:#000000;stroke-width:1;stroke-linecap:butt;stroke-miterlimit:4;stroke-dasharray:none;stroke-opacity:1;display:inline" />
    <g
       id="g5143"
       transform="translate(230.48782,5.583964)"
       ns0:preamble="/home/diogo/.inkscape/extensions/preambulo_inkscape.tex"
       ns0:text="\\begin{center}\nRecupera\xc3\xa7\xc3\xa3o\\\\\nde Falha\n\\end{center}">
      <defs
         id="defs5145">
        <g
           id="g5147">
          <symbol
             id="textext-2dea61c5-0"
             overflow="visible"
             style="overflow:visible">
            <path
               id="path5150"
               d=""
               style="stroke:none" />
          </symbol>
          <symbol
             id="textext-2dea61c5-1"
             overflow="visible"
             style="overflow:visible">
            <path
               id="path5153"
               d="M 6.5625,-0.1875 C 6.1875,-0.21875 5.984375,-0.3125 5.703125,-0.65625 L 3.65625,-3.1875 C 4.3125,-3.3125 4.609375,-3.421875 4.9375,-3.703125 C 5.265625,-3.953125 5.453125,-4.375 5.453125,-4.84375 C 5.453125,-5.28125 5.328125,-5.640625 5.0625,-5.9375 C 4.6875,-6.34375 3.859375,-6.59375 2.921875,-6.59375 L 0.171875,-6.59375 L 0.171875,-6.40625 C 0.921875,-6.328125 1.015625,-6.21875 1.015625,-5.515625 L 1.015625,-1.203125 C 1.015625,-0.375 0.921875,-0.25 0.171875,-0.1875 L 0.171875,0 L 2.9375,0 L 2.9375,-0.1875 C 2.15625,-0.234375 2.03125,-0.375 2.03125,-1.09375 L 2.03125,-3.046875 L 2.59375,-3.078125 L 4.96875,0 L 6.5625,0 L 6.5625,-0.1875 z M 2.03125,-5.875 C 2.03125,-6.15625 2.140625,-6.234375 2.546875,-6.234375 C 3.78125,-6.234375 4.359375,-5.796875 4.359375,-4.859375 C 4.359375,-4.359375 4.15625,-3.953125 3.796875,-3.765625 C 3.34375,-3.5 2.984375,-3.4375 2.03125,-3.421875 L 2.03125,-5.875 z"
               style="stroke:none" />
          </symbol>
          <symbol
             id="textext-2dea61c5-2"
             overflow="visible"
             style="overflow:visible">
            <path
               id="path5156"
               d="M 4.0625,-1.640625 C 3.59375,-0.875 3.15625,-0.59375 2.515625,-0.59375 C 1.953125,-0.59375 1.53125,-0.875 1.234375,-1.453125 C 1.0625,-1.828125 0.984375,-2.15625 0.96875,-2.765625 L 4.03125,-2.765625 C 3.953125,-3.40625 3.859375,-3.703125 3.609375,-4.015625 C 3.3125,-4.375 2.84375,-4.578125 2.328125,-4.578125 C 1.828125,-4.578125 1.359375,-4.40625 0.984375,-4.0625 C 0.515625,-3.65625 0.25,-2.953125 0.25,-2.140625 C 0.25,-0.75 0.96875,0.09375 2.109375,0.09375 C 3.0625,0.09375 3.8125,-0.484375 4.234375,-1.5625 L 4.0625,-1.640625 z M 0.984375,-3.078125 C 1.09375,-3.859375 1.4375,-4.234375 2.046875,-4.234375 C 2.65625,-4.234375 2.890625,-3.953125 3.015625,-3.078125 L 0.984375,-3.078125 z"
               style="stroke:none" />
          </symbol>
          <symbol
             id="textext-2dea61c5-3"
             overflow="visible"
             style="overflow:visible">
            <path
               id="path5159"
               d="M 3.96875,-1.5625 C 3.484375,-0.859375 3.125,-0.625 2.5625,-0.625 C 1.65625,-0.625 1.015625,-1.421875 1.015625,-2.5625 C 1.015625,-3.59375 1.5625,-4.296875 2.375,-4.296875 C 2.734375,-4.296875 2.859375,-4.1875 2.953125,-3.8125 L 3.015625,-3.59375 C 3.09375,-3.3125 3.28125,-3.140625 3.484375,-3.140625 C 3.75,-3.140625 3.96875,-3.328125 3.96875,-3.5625 C 3.96875,-4.109375 3.265625,-4.578125 2.4375,-4.578125 C 1.9375,-4.578125 1.4375,-4.390625 1.03125,-4.03125 C 0.53125,-3.59375 0.25,-2.90625 0.25,-2.125 C 0.25,-0.828125 1.03125,0.09375 2.140625,0.09375 C 2.59375,0.09375 2.984375,-0.0625 3.34375,-0.375 C 3.625,-0.609375 3.8125,-0.875 4.109375,-1.46875 L 3.96875,-1.5625 z"
               style="stroke:none" />
          </symbol>
          <symbol
             id="textext-2dea61c5-4"
             overflow="visible"
             style="overflow:visible">
            <path
               id="path5162"
               d="M 4.78125,-0.5 L 4.71875,-0.5 C 4.265625,-0.5 4.15625,-0.609375 4.15625,-1.0625 L 4.15625,-4.484375 L 2.578125,-4.484375 L 2.578125,-4.3125 C 3.203125,-4.28125 3.3125,-4.1875 3.3125,-3.6875 L 3.3125,-1.34375 C 3.3125,-1.0625 3.265625,-0.921875 3.125,-0.8125 C 2.859375,-0.59375 2.546875,-0.484375 2.25,-0.484375 C 1.859375,-0.484375 1.546875,-0.8125 1.546875,-1.234375 L 1.546875,-4.484375 L 0.09375,-4.484375 L 0.09375,-4.34375 C 0.5625,-4.3125 0.703125,-4.171875 0.703125,-3.703125 L 0.703125,-1.203125 C 0.703125,-0.40625 1.1875,0.09375 1.90625,0.09375 C 2.28125,0.09375 2.671875,-0.0625 2.9375,-0.328125 L 3.375,-0.75 L 3.375,0.0625 L 3.40625,0.09375 C 3.90625,-0.109375 4.265625,-0.21875 4.78125,-0.359375 L 4.78125,-0.5 z"
               style="stroke:none" />
          </symbol>
          <symbol
             id="textext-2dea61c5-5"
             overflow="visible"
             style="overflow:visible">
            <path
               id="path5165"
               d="M 0.09375,-3.921875 C 0.171875,-3.921875 0.25,-3.921875 0.34375,-3.921875 C 0.671875,-3.921875 0.75,-3.828125 0.75,-3.359375 L 0.75,1.3125 C 0.75,1.828125 0.640625,1.9375 0.046875,2 L 0.046875,2.15625 L 2.46875,2.15625 L 2.46875,1.984375 C 1.71875,1.96875 1.578125,1.859375 1.578125,1.234375 L 1.578125,-0.328125 C 1.9375,0 2.171875,0.09375 2.59375,0.09375 C 3.765625,0.09375 4.6875,-1.015625 4.6875,-2.46875 C 4.6875,-3.703125 3.984375,-4.578125 3.015625,-4.578125 C 2.46875,-4.578125 2.03125,-4.34375 1.578125,-3.796875 L 1.578125,-4.5625 L 1.53125,-4.578125 C 0.984375,-4.375 0.640625,-4.25 0.09375,-4.078125 L 0.09375,-3.921875 z M 1.578125,-3.328125 C 1.578125,-3.625 2.140625,-3.984375 2.609375,-3.984375 C 3.34375,-3.984375 3.828125,-3.234375 3.828125,-2.078125 C 3.828125,-0.96875 3.34375,-0.21875 2.625,-0.21875 C 2.15625,-0.21875 1.578125,-0.578125 1.578125,-0.875 L 1.578125,-3.328125 z"
               style="stroke:none" />
          </symbol>
          <symbol
             id="textext-2dea61c5-6"
             overflow="visible"
             style="overflow:visible">
            <path
               id="path5168"
               d="M 0.0625,-3.890625 C 0.203125,-3.921875 0.296875,-3.921875 0.421875,-3.921875 C 0.671875,-3.921875 0.75,-3.765625 0.75,-3.328125 L 0.75,-0.84375 C 0.75,-0.34375 0.6875,-0.265625 0.046875,-0.15625 L 0.046875,0 L 2.4375,0 L 2.4375,-0.15625 C 1.765625,-0.171875 1.59375,-0.328125 1.59375,-0.890625 L 1.59375,-3.140625 C 1.59375,-3.453125 2.03125,-3.953125 2.296875,-3.953125 C 2.359375,-3.953125 2.4375,-3.90625 2.546875,-3.8125 C 2.71875,-3.671875 2.828125,-3.609375 2.953125,-3.609375 C 3.1875,-3.609375 3.34375,-3.78125 3.34375,-4.0625 C 3.34375,-4.390625 3.125,-4.578125 2.796875,-4.578125 C 2.375,-4.578125 2.078125,-4.359375 1.59375,-3.65625 L 1.59375,-4.5625 L 1.546875,-4.578125 C 1.015625,-4.359375 0.65625,-4.234375 0.0625,-4.046875 L 0.0625,-3.890625 z"
               style="stroke:none" />
          </symbol>
          <symbol
             id="textext-2dea61c5-7"
             overflow="visible"
             style="overflow:visible">
            <path
               id="path5171"
               d="M 4.40625,-0.65625 C 4.234375,-0.515625 4.109375,-0.46875 3.96875,-0.46875 C 3.734375,-0.46875 3.671875,-0.609375 3.671875,-1.046875 L 3.671875,-2.984375 C 3.671875,-3.515625 3.625,-3.796875 3.46875,-4.03125 C 3.25,-4.390625 2.828125,-4.578125 2.234375,-4.578125 C 1.296875,-4.578125 0.5625,-4.09375 0.5625,-3.46875 C 0.5625,-3.234375 0.75,-3.046875 0.984375,-3.046875 C 1.21875,-3.046875 1.4375,-3.234375 1.4375,-3.453125 C 1.4375,-3.5 1.421875,-3.546875 1.421875,-3.625 C 1.390625,-3.703125 1.390625,-3.78125 1.390625,-3.859375 C 1.390625,-4.125 1.703125,-4.34375 2.109375,-4.34375 C 2.59375,-4.34375 2.859375,-4.0625 2.859375,-3.515625 L 2.859375,-2.90625 C 1.328125,-2.296875 1.15625,-2.21875 0.734375,-1.828125 C 0.515625,-1.640625 0.375,-1.296875 0.375,-0.96875 C 0.375,-0.34375 0.8125,0.09375 1.421875,0.09375 C 1.859375,0.09375 2.265625,-0.109375 2.875,-0.625 C 2.921875,-0.109375 3.09375,0.09375 3.515625,0.09375 C 3.84375,0.09375 4.0625,-0.015625 4.40625,-0.40625 L 4.40625,-0.65625 z M 2.859375,-1.21875 C 2.859375,-0.921875 2.8125,-0.828125 2.609375,-0.703125 C 2.359375,-0.5625 2.078125,-0.484375 1.875,-0.484375 C 1.53125,-0.484375 1.25,-0.8125 1.25,-1.25 L 1.25,-1.28125 C 1.25,-1.875 1.65625,-2.234375 2.859375,-2.671875 L 2.859375,-1.21875 z"
               style="stroke:none" />
          </symbol>
          <symbol
             id="textext-2dea61c5-8"
             overflow="visible"
             style="overflow:visible">
            <path
               id="path5174"
               d="M 2.25,0.09375 C 3.0625,0.03125 3.59375,-0.421875 4.109375,-1.46875 L 3.96875,-1.5625 C 3.484375,-0.859375 3.125,-0.625 2.5625,-0.625 C 1.65625,-0.625 1.015625,-1.421875 1.015625,-2.5625 C 1.015625,-3.59375 1.5625,-4.296875 2.375,-4.296875 C 2.734375,-4.296875 2.859375,-4.1875 2.953125,-3.8125 L 3.015625,-3.59375 C 3.09375,-3.3125 3.28125,-3.140625 3.5,-3.140625 C 3.75,-3.140625 3.96875,-3.328125 3.96875,-3.5625 C 3.96875,-4.109375 3.265625,-4.578125 2.4375,-4.578125 C 1.9375,-4.578125 1.4375,-4.390625 1.03125,-4.03125 C 0.53125,-3.59375 0.25,-2.90625 0.25,-2.109375 C 0.25,-0.921875 0.90625,-0.046875 1.90625,0.078125 L 1.53125,0.984375 L 1.609375,1.03125 C 1.6875,1 1.78125,1 1.890625,1 C 2.265625,1 2.40625,1.09375 2.40625,1.359375 C 2.40625,1.625 2.203125,1.796875 1.859375,1.796875 C 1.65625,1.796875 1.484375,1.765625 1.21875,1.671875 L 1.078125,1.984375 C 1.359375,2.109375 1.59375,2.140625 1.90625,2.140625 C 2.6875,2.140625 3.15625,1.828125 3.15625,1.3125 C 3.15625,0.875 2.84375,0.625 2.296875,0.625 C 2.203125,0.625 2.140625,0.625 2.046875,0.640625 L 2.25,0.09375 z"
               style="stroke:none" />
          </symbol>
          <symbol
             id="textext-2dea61c5-9"
             overflow="visible"
             style="overflow:visible">
            <path
               id="path5177"
               d="M 4.40625,-0.65625 C 4.234375,-0.515625 4.109375,-0.46875 3.96875,-0.46875 C 3.734375,-0.46875 3.671875,-0.609375 3.671875,-1.046875 L 3.671875,-2.984375 C 3.671875,-3.515625 3.625,-3.796875 3.46875,-4.03125 C 3.25,-4.390625 2.828125,-4.578125 2.234375,-4.578125 C 1.296875,-4.578125 0.5625,-4.09375 0.5625,-3.46875 C 0.5625,-3.234375 0.75,-3.046875 0.984375,-3.046875 C 1.21875,-3.046875 1.4375,-3.234375 1.4375,-3.453125 C 1.4375,-3.5 1.421875,-3.546875 1.421875,-3.625 C 1.390625,-3.703125 1.390625,-3.78125 1.390625,-3.859375 C 1.390625,-4.125 1.703125,-4.34375 2.109375,-4.34375 C 2.59375,-4.34375 2.859375,-4.0625 2.859375,-3.515625 L 2.859375,-2.90625 C 1.328125,-2.296875 1.15625,-2.21875 0.734375,-1.828125 C 0.515625,-1.640625 0.375,-1.296875 0.375,-0.96875 C 0.375,-0.34375 0.8125,0.09375 1.421875,0.09375 C 1.859375,0.09375 2.265625,-0.109375 2.875,-0.625 C 2.921875,-0.109375 3.09375,0.09375 3.515625,0.09375 C 3.84375,0.09375 4.0625,-0.015625 4.40625,-0.40625 L 4.40625,-0.65625 z M 2.859375,-1.21875 C 2.859375,-0.921875 2.8125,-0.828125 2.609375,-0.703125 C 2.359375,-0.5625 2.078125,-0.484375 1.875,-0.484375 C 1.53125,-0.484375 1.25,-0.8125 1.25,-1.25 L 1.25,-1.28125 C 1.25,-1.875 1.65625,-2.234375 2.859375,-2.671875 L 2.859375,-1.21875 z M 3.5625,-6.359375 C 3.40625,-5.984375 3.265625,-5.859375 3.046875,-5.859375 C 2.890625,-5.859375 2.703125,-5.921875 2.515625,-6.015625 L 2.265625,-6.125 C 2.046875,-6.25 1.796875,-6.3125 1.578125,-6.3125 C 1.078125,-6.3125 0.71875,-5.953125 0.5625,-5.296875 L 0.859375,-5.296875 C 0.96875,-5.609375 1.140625,-5.765625 1.359375,-5.765625 C 1.484375,-5.765625 1.625,-5.71875 1.78125,-5.65625 L 2,-5.546875 C 2.40625,-5.34375 2.5625,-5.296875 2.8125,-5.296875 C 3.359375,-5.296875 3.65625,-5.609375 3.859375,-6.359375 L 3.5625,-6.359375 z"
               style="stroke:none" />
          </symbol>
          <symbol
             id="textext-2dea61c5-10"
             overflow="visible"
             style="overflow:visible">
            <path
               id="path5180"
               d="M 2.5,-4.578125 C 1.203125,-4.578125 0.296875,-3.625 0.296875,-2.25 C 0.296875,-0.90625 1.21875,0.09375 2.46875,0.09375 C 3.734375,0.09375 4.6875,-0.953125 4.6875,-2.328125 C 4.6875,-3.640625 3.765625,-4.578125 2.5,-4.578125 z M 2.359375,-4.3125 C 3.203125,-4.3125 3.78125,-3.34375 3.78125,-1.984375 C 3.78125,-0.859375 3.34375,-0.171875 2.59375,-0.171875 C 2.203125,-0.171875 1.828125,-0.421875 1.625,-0.8125 C 1.34375,-1.328125 1.1875,-2.03125 1.1875,-2.734375 C 1.1875,-3.6875 1.65625,-4.3125 2.359375,-4.3125 z"
               style="stroke:none" />
          </symbol>
          <symbol
             id="textext-2dea61c5-11"
             overflow="visible"
             style="overflow:visible">
            <path
               id="path5183"
               d="M 3.421875,0.09375 L 4.890625,-0.421875 L 4.890625,-0.578125 C 4.71875,-0.5625 4.6875,-0.5625 4.671875,-0.5625 C 4.3125,-0.5625 4.234375,-0.671875 4.234375,-1.140625 L 4.234375,-6.78125 L 4.171875,-6.8125 C 3.703125,-6.640625 3.34375,-6.546875 2.71875,-6.375 L 2.71875,-6.203125 C 2.796875,-6.21875 2.84375,-6.21875 2.9375,-6.21875 C 3.296875,-6.21875 3.390625,-6.125 3.390625,-5.71875 L 3.390625,-4.15625 C 3.015625,-4.46875 2.734375,-4.578125 2.34375,-4.578125 C 1.203125,-4.578125 0.265625,-3.453125 0.265625,-2.046875 C 0.265625,-0.765625 1.015625,0.09375 2.109375,0.09375 C 2.671875,0.09375 3.046875,-0.09375 3.390625,-0.5625 L 3.390625,0.0625 L 3.421875,0.09375 z M 3.390625,-1.015625 C 3.390625,-0.953125 3.3125,-0.828125 3.21875,-0.71875 C 3.046875,-0.515625 2.796875,-0.421875 2.5,-0.421875 C 1.671875,-0.421875 1.125,-1.21875 1.125,-2.4375 C 1.125,-3.5625 1.609375,-4.3125 2.375,-4.3125 C 2.90625,-4.3125 3.390625,-3.84375 3.390625,-3.3125 L 3.390625,-1.015625 z"
               style="stroke:none" />
          </symbol>
          <symbol
             id="textext-2dea61c5-12"
             overflow="visible"
             style="overflow:visible">
            <path
               id="path5186"
               d="M 4.78125,-2.296875 L 4.78125,-4.609375 L 4.546875,-4.609375 C 4.421875,-3.8125 4.25,-3.671875 3.453125,-3.671875 L 2,-3.671875 L 2,-5.875 C 2,-6.15625 2.046875,-6.21875 2.328125,-6.21875 L 3.671875,-6.21875 C 4.8125,-6.21875 5.03125,-6.078125 5.1875,-5.171875 L 5.4375,-5.171875 L 5.40625,-6.59375 L 0.125,-6.59375 L 0.125,-6.40625 C 0.859375,-6.34375 0.984375,-6.203125 0.984375,-5.515625 L 0.984375,-1.203125 C 0.984375,-0.375 0.875,-0.234375 0.125,-0.1875 L 0.125,0 L 2.90625,0 L 2.90625,-0.1875 C 2.140625,-0.234375 2,-0.375 2,-1.09375 L 2,-3.265625 L 3.453125,-3.265625 C 4.25,-3.265625 4.421875,-3.109375 4.546875,-2.296875 L 4.78125,-2.296875 z"
               style="stroke:none" />
          </symbol>
          <symbol
             id="textext-2dea61c5-13"
             overflow="visible"
             style="overflow:visible">
            <path
               id="path5189"
               d="M 0.1875,-6.203125 L 0.25,-6.203125 C 0.359375,-6.21875 0.484375,-6.234375 0.5625,-6.234375 C 0.875,-6.234375 0.984375,-6.09375 0.984375,-5.625 L 0.984375,-0.875 C 0.984375,-0.328125 0.84375,-0.203125 0.203125,-0.15625 L 0.203125,0 L 2.5625,0 L 2.5625,-0.15625 C 1.9375,-0.1875 1.8125,-0.296875 1.8125,-0.84375 L 1.8125,-6.78125 L 1.78125,-6.8125 C 1.25,-6.640625 0.875,-6.546875 0.1875,-6.375 L 0.1875,-6.203125 z"
               style="stroke:none" />
          </symbol>
          <symbol
             id="textext-2dea61c5-14"
             overflow="visible"
             style="overflow:visible">
            <path
               id="path5192"
               d="M 1.5625,-3.421875 C 1.984375,-3.875 2.28125,-4.046875 2.671875,-4.046875 C 3.171875,-4.046875 3.421875,-3.6875 3.421875,-2.984375 L 3.421875,-1.015625 C 3.421875,-0.34375 3.3125,-0.203125 2.734375,-0.15625 L 2.734375,0 L 4.859375,0 L 4.859375,-0.15625 C 4.3125,-0.25 4.25,-0.328125 4.25,-1.015625 L 4.25,-3 C 4.25,-4.046875 3.84375,-4.578125 3.03125,-4.578125 C 2.4375,-4.578125 2.03125,-4.34375 1.5625,-3.75 L 1.5625,-6.78125 L 1.515625,-6.8125 C 1.171875,-6.6875 0.921875,-6.609375 0.375,-6.453125 L 0.09375,-6.375 L 0.09375,-6.203125 C 0.140625,-6.21875 0.171875,-6.21875 0.21875,-6.21875 C 0.640625,-6.21875 0.734375,-6.140625 0.734375,-5.71875 L 0.734375,-1.015625 C 0.734375,-0.3125 0.671875,-0.234375 0.09375,-0.15625 L 0.09375,0 L 2.25,0 L 2.25,-0.15625 C 1.671875,-0.203125 1.5625,-0.328125 1.5625,-1.015625 L 1.5625,-3.421875 z"
               style="stroke:none" />
          </symbol>
        </g>
      </defs>
      <g
         id="textext-2dea61c5-15">
        <g
           id="g5195"
           style="fill:#000000;fill-opacity:1">
          <use
             id="use5197"
             y="134.765"
             x="369.564"
             xlink:href="#textext-2dea61c5-1"
             width="744.09448"
             height="1052.3622" />
          <use
             id="use5199"
             y="134.765"
             x="376.20905"
             xlink:href="#textext-2dea61c5-2"
             width="744.09448"
             height="1052.3622" />
          <use
             id="use5201"
             y="134.765"
             x="380.63245"
             xlink:href="#textext-2dea61c5-3"
             width="744.09448"
             height="1052.3622" />
          <use
             id="use5203"
             y="134.765"
             x="385.05585"
             xlink:href="#textext-2dea61c5-4"
             width="744.09448"
             height="1052.3622" />
          <use
             id="use5205"
             y="134.765"
             x="390.03714"
             xlink:href="#textext-2dea61c5-5"
             width="744.09448"
             height="1052.3622" />
          <use
             id="use5207"
             y="134.765"
             x="395.01843"
             xlink:href="#textext-2dea61c5-2"
             width="744.09448"
             height="1052.3622" />
          <use
             id="use5209"
             y="134.765"
             x="399.44183"
             xlink:href="#textext-2dea61c5-6"
             width="744.09448"
             height="1052.3622" />
          <use
             id="use5211"
             y="134.765"
             x="402.75937"
             xlink:href="#textext-2dea61c5-7"
             width="744.09448"
             height="1052.3622" />
          <use
             id="use5213"
             y="134.765"
             x="407.18277"
             xlink:href="#textext-2dea61c5-8"
             width="744.09448"
             height="1052.3622" />
          <use
             id="use5215"
             y="134.765"
             x="411.60617"
             xlink:href="#textext-2dea61c5-9"
             width="744.09448"
             height="1052.3622" />
          <use
             id="use5217"
             y="134.765"
             x="416.02957"
             xlink:href="#textext-2dea61c5-10"
             width="744.09448"
             height="1052.3622" />
        </g>
        <g
           id="g5219"
           style="fill:#000000;fill-opacity:1">
          <use
             id="use5221"
             y="146.72"
             x="378.34601"
             xlink:href="#textext-2dea61c5-11"
             width="744.09448"
             height="1052.3622" />
          <use
             id="use5223"
             y="146.72"
             x="383.3273"
             xlink:href="#textext-2dea61c5-2"
             width="744.09448"
             height="1052.3622" />
        </g>
        <g
           id="g5225"
           style="fill:#000000;fill-opacity:1">
          <use
             id="use5227"
             y="146.72"
             x="390.24133"
             xlink:href="#textext-2dea61c5-12"
             width="744.09448"
             height="1052.3622" />
        </g>
        <g
           id="g5229"
           style="fill:#000000;fill-opacity:1">
          <use
             id="use5231"
             y="146.72"
             x="395.6311"
             xlink:href="#textext-2dea61c5-7"
             width="744.09448"
             height="1052.3622" />
          <use
             id="use5233"
             y="146.72"
             x="400.0545"
             xlink:href="#textext-2dea61c5-13"
             width="744.09448"
             height="1052.3622" />
          <use
             id="use5235"
             y="146.72"
             x="402.8241"
             xlink:href="#textext-2dea61c5-14"
             width="744.09448"
             height="1052.3622" />
          <use
             id="use5237"
             y="146.72"
             x="407.80542"
             xlink:href="#textext-2dea61c5-7"
             width="744.09448"
             height="1052.3622" />
        </g>
      </g>
    </g>
    <path
       style="fill:none;fill-opacity:1;stroke:#000000;stroke-width:1;stroke-linecap:butt;stroke-linejoin:miter;marker-end:url(#Arrow1Mend);stroke-miterlimit:4;stroke-dasharray:none;stroke-dashoffset:0;stroke-opacity:1"
       d="M 352.54324,143.07646 L 390.67649,143.07646"
       id="path16919"
       sodipodi:nodetypes="cc" />
    <path
       style="fill:none;fill-opacity:1;stroke:#000000;stroke-width:1;stroke-linecap:butt;stroke-linejoin:miter;marker-end:url(#Arrow1Mend);stroke-miterlimit:4;stroke-dasharray:none;stroke-dashoffset:0;stroke-opacity:1"
       d="M 453.87222,143.07646 L 492.00547,143.07646"
       id="path23263"
       sodipodi:nodetypes="cc" />
    <path
       style="fill:none;fill-opacity:1;stroke:#000000;stroke-width:1;stroke-linecap:butt;stroke-linejoin:miter;marker-end:url(#Arrow1Mend);stroke-miterlimit:4;stroke-dasharray:none;stroke-dashoffset:0;stroke-opacity:1"
       d="M 555.20123,143.07646 L 593.33448,143.07646"
       id="path23265"
       sodipodi:nodetypes="cc" />
    <path
       style="opacity:1;fill:none;fill-opacity:1;stroke:#000000;stroke-width:1;stroke-linecap:butt;stroke-linejoin:miter;marker-end:url(#Arrow1Mend);stroke-miterlimit:4;stroke-dasharray:none;stroke-dashoffset:0;stroke-opacity:1"
       d="M 627.12499,161.09764 L 627.12499,180.96213 L 322.48214,180.96213 L 322.48214,163.07647"
       id="path23267"
       sodipodi:nodetypes="cccc" />
    <g
       ns0:text="N\xc3\xa3o"
       ns0:preamble="/home/diogo/.inkscape/extensions/preambulo_inkscape.tex"
       transform="translate(62.915482,-31.916625)"
       id="g24086">
      <defs
         id="defs24088">
        <g
           id="g24090">
          <symbol
             style="overflow:visible"
             overflow="visible"
             id="textext-14b58467-0">
            <path
               style="stroke:none"
               d=""
               id="path24093" />
          </symbol>
          <symbol
             style="overflow:visible"
             overflow="visible"
             id="textext-14b58467-1">
            <path
               style="stroke:none"
               d="M 6.09375,0.109375 L 6.09375,-5.140625 C 6.09375,-5.734375 6.203125,-6.09375 6.390625,-6.234375 C 6.53125,-6.328125 6.671875,-6.375 7.046875,-6.40625 L 7.046875,-6.59375 L 4.703125,-6.59375 L 4.703125,-6.40625 C 5.078125,-6.375 5.21875,-6.34375 5.375,-6.25 C 5.578125,-6.109375 5.65625,-5.75 5.65625,-5.140625 L 5.65625,-1.78125 L 1.828125,-6.59375 L 0.125,-6.59375 L 0.125,-6.40625 C 0.546875,-6.40625 0.6875,-6.328125 1.09375,-5.859375 L 1.09375,-1.46875 C 1.09375,-0.4375 0.953125,-0.25 0.125,-0.1875 L 0.125,0 L 2.46875,0 L 2.46875,-0.1875 C 1.6875,-0.234375 1.53125,-0.453125 1.53125,-1.46875 L 1.53125,-5.375 L 5.9375,0.109375 L 6.09375,0.109375 z"
               id="path24096" />
          </symbol>
          <symbol
             style="overflow:visible"
             overflow="visible"
             id="textext-14b58467-2">
            <path
               style="stroke:none"
               d="M 4.40625,-0.65625 C 4.234375,-0.515625 4.109375,-0.46875 3.96875,-0.46875 C 3.734375,-0.46875 3.671875,-0.609375 3.671875,-1.046875 L 3.671875,-2.984375 C 3.671875,-3.515625 3.625,-3.796875 3.46875,-4.03125 C 3.25,-4.390625 2.828125,-4.578125 2.234375,-4.578125 C 1.296875,-4.578125 0.5625,-4.09375 0.5625,-3.46875 C 0.5625,-3.234375 0.75,-3.046875 0.984375,-3.046875 C 1.21875,-3.046875 1.4375,-3.234375 1.4375,-3.453125 C 1.4375,-3.5 1.421875,-3.546875 1.421875,-3.625 C 1.390625,-3.703125 1.390625,-3.78125 1.390625,-3.859375 C 1.390625,-4.125 1.703125,-4.34375 2.109375,-4.34375 C 2.59375,-4.34375 2.859375,-4.0625 2.859375,-3.515625 L 2.859375,-2.90625 C 1.328125,-2.296875 1.15625,-2.21875 0.734375,-1.828125 C 0.515625,-1.640625 0.375,-1.296875 0.375,-0.96875 C 0.375,-0.34375 0.8125,0.09375 1.421875,0.09375 C 1.859375,0.09375 2.265625,-0.109375 2.875,-0.625 C 2.921875,-0.109375 3.09375,0.09375 3.515625,0.09375 C 3.84375,0.09375 4.0625,-0.015625 4.40625,-0.40625 L 4.40625,-0.65625 z M 2.859375,-1.21875 C 2.859375,-0.921875 2.8125,-0.828125 2.609375,-0.703125 C 2.359375,-0.5625 2.078125,-0.484375 1.875,-0.484375 C 1.53125,-0.484375 1.25,-0.8125 1.25,-1.25 L 1.25,-1.28125 C 1.25,-1.875 1.65625,-2.234375 2.859375,-2.671875 L 2.859375,-1.21875 z M 3.5625,-6.359375 C 3.40625,-5.984375 3.265625,-5.859375 3.046875,-5.859375 C 2.890625,-5.859375 2.703125,-5.921875 2.515625,-6.015625 L 2.265625,-6.125 C 2.046875,-6.25 1.796875,-6.3125 1.578125,-6.3125 C 1.078125,-6.3125 0.71875,-5.953125 0.5625,-5.296875 L 0.859375,-5.296875 C 0.96875,-5.609375 1.140625,-5.765625 1.359375,-5.765625 C 1.484375,-5.765625 1.625,-5.71875 1.78125,-5.65625 L 2,-5.546875 C 2.40625,-5.34375 2.5625,-5.296875 2.8125,-5.296875 C 3.359375,-5.296875 3.65625,-5.609375 3.859375,-6.359375 L 3.5625,-6.359375 z"
               id="path24099" />
          </symbol>
          <symbol
             style="overflow:visible"
             overflow="visible"
             id="textext-14b58467-3">
            <path
               style="stroke:none"
               d="M 2.5,-4.578125 C 1.203125,-4.578125 0.296875,-3.625 0.296875,-2.25 C 0.296875,-0.90625 1.21875,0.09375 2.46875,0.09375 C 3.734375,0.09375 4.6875,-0.953125 4.6875,-2.328125 C 4.6875,-3.640625 3.765625,-4.578125 2.5,-4.578125 z M 2.359375,-4.3125 C 3.203125,-4.3125 3.78125,-3.34375 3.78125,-1.984375 C 3.78125,-0.859375 3.34375,-0.171875 2.59375,-0.171875 C 2.203125,-0.171875 1.828125,-0.421875 1.625,-0.8125 C 1.34375,-1.328125 1.1875,-2.03125 1.1875,-2.734375 C 1.1875,-3.6875 1.65625,-4.3125 2.359375,-4.3125 z"
               id="path24102" />
          </symbol>
        </g>
      </defs>
      <g
         id="textext-14b58467-4">
        <g
           style="fill:#000000;fill-opacity:1"
           id="g24105">
          <use
             height="1052.3622"
             width="744.09448"
             xlink:href="#textext-14b58467-1"
             x="223.43201"
             y="134.765"
             id="use24107" />
          <use
             height="1052.3622"
             width="744.09448"
             xlink:href="#textext-14b58467-2"
             x="230.625"
             y="134.765"
             id="use24109" />
          <use
             height="1052.3622"
             width="744.09448"
             xlink:href="#textext-14b58467-3"
             x="235.04839"
             y="134.765"
             id="use24111" />
        </g>
      </g>
    </g>
    <g
       id="g24673"
       transform="translate(140.32814,4.5178347)"
       ns0:preamble="/home/diogo/.inkscape/extensions/preambulo_inkscape.tex"
       ns0:text="Sim">
      <defs
         id="defs24675">
        <g
           id="g24677">
          <symbol
             id="textext-c91d3889-0"
             overflow="visible"
             style="overflow:visible">
            <path
               id="path24680"
               d=""
               style="stroke:none" />
          </symbol>
          <symbol
             id="textext-c91d3889-1"
             overflow="visible"
             style="overflow:visible">
            <path
               id="path24683"
               d="M 4.453125,-6.734375 L 4.25,-6.734375 C 4.203125,-6.515625 4.09375,-6.40625 3.921875,-6.40625 C 3.828125,-6.40625 3.65625,-6.4375 3.484375,-6.515625 C 3.125,-6.65625 2.75,-6.734375 2.4375,-6.734375 C 2,-6.734375 1.5625,-6.5625 1.234375,-6.28125 C 0.890625,-5.96875 0.703125,-5.546875 0.703125,-5.03125 C 0.703125,-4.234375 1.140625,-3.671875 2.265625,-3.09375 C 2.984375,-2.71875 3.5,-2.296875 3.75,-1.921875 C 3.84375,-1.796875 3.890625,-1.578125 3.890625,-1.34375 C 3.890625,-0.671875 3.390625,-0.21875 2.65625,-0.21875 C 1.78125,-0.21875 1.140625,-0.765625 0.640625,-1.984375 L 0.421875,-1.984375 L 0.71875,0.125 L 0.9375,0.125 C 0.953125,-0.0625 1.0625,-0.203125 1.21875,-0.203125 C 1.328125,-0.203125 1.5,-0.15625 1.6875,-0.09375 C 2.0625,0.0625 2.46875,0.140625 2.859375,0.140625 C 4,0.140625 4.890625,-0.640625 4.890625,-1.671875 C 4.890625,-2.5 4.34375,-3.140625 3.03125,-3.84375 C 1.984375,-4.421875 1.5625,-4.859375 1.5625,-5.40625 C 1.5625,-5.953125 1.984375,-6.328125 2.609375,-6.328125 C 3.046875,-6.328125 3.46875,-6.140625 3.8125,-5.78125 C 4.125,-5.46875 4.265625,-5.203125 4.421875,-4.609375 L 4.671875,-4.609375 L 4.453125,-6.734375 z"
               style="stroke:none" />
          </symbol>
          <symbol
             id="textext-c91d3889-2"
             overflow="visible"
             style="overflow:visible">
            <path
               id="path24686"
               d="M 1.75,-4.578125 L 0.203125,-4.03125 L 0.203125,-3.890625 L 0.28125,-3.890625 C 0.40625,-3.921875 0.53125,-3.921875 0.625,-3.921875 C 0.859375,-3.921875 0.953125,-3.765625 0.953125,-3.328125 L 0.953125,-1.015625 C 0.953125,-0.296875 0.84375,-0.1875 0.15625,-0.15625 L 0.15625,0 L 2.515625,0 L 2.515625,-0.15625 C 1.859375,-0.203125 1.78125,-0.296875 1.78125,-1.015625 L 1.78125,-4.5625 L 1.75,-4.578125 z M 1.28125,-6.8125 C 1,-6.8125 0.78125,-6.578125 0.78125,-6.296875 C 0.78125,-6.015625 1,-5.796875 1.28125,-5.796875 C 1.5625,-5.796875 1.796875,-6.015625 1.796875,-6.296875 C 1.796875,-6.578125 1.5625,-6.8125 1.28125,-6.8125 z"
               style="stroke:none" />
          </symbol>
          <symbol
             id="textext-c91d3889-3"
             overflow="visible"
             style="overflow:visible">
            <path
               id="path24689"
               d="M 0.1875,-3.96875 C 0.3125,-4 0.40625,-4 0.515625,-4 C 0.765625,-4 0.859375,-3.84375 0.859375,-3.375 L 0.859375,-0.84375 C 0.859375,-0.3125 0.71875,-0.15625 0.15625,-0.15625 L 0.15625,0 L 2.375,0 L 2.375,-0.15625 C 1.84375,-0.171875 1.6875,-0.28125 1.6875,-0.671875 L 1.6875,-3.484375 C 1.6875,-3.5 1.78125,-3.59375 1.84375,-3.671875 C 2.09375,-3.890625 2.515625,-4.0625 2.875,-4.0625 C 3.3125,-4.0625 3.53125,-3.71875 3.53125,-3.015625 L 3.53125,-0.859375 C 3.53125,-0.296875 3.421875,-0.1875 2.84375,-0.15625 L 2.84375,0 L 5.078125,0 L 5.078125,-0.15625 C 4.515625,-0.15625 4.359375,-0.328125 4.359375,-0.953125 L 4.359375,-3.453125 C 4.671875,-3.890625 5,-4.0625 5.453125,-4.0625 C 6.015625,-4.0625 6.203125,-3.796875 6.203125,-2.96875 L 6.203125,-0.875 C 6.203125,-0.296875 6.125,-0.21875 5.546875,-0.15625 L 5.546875,0 L 7.71875,0 L 7.71875,-0.15625 L 7.46875,-0.171875 C 7.171875,-0.1875 7.03125,-0.375 7.03125,-0.75 L 7.03125,-2.8125 C 7.03125,-3.984375 6.65625,-4.578125 5.875,-4.578125 C 5.296875,-4.578125 4.796875,-4.328125 4.25,-3.75 C 4.078125,-4.3125 3.734375,-4.578125 3.203125,-4.578125 C 2.765625,-4.578125 2.484375,-4.453125 1.65625,-3.8125 L 1.65625,-4.5625 L 1.578125,-4.578125 C 1.078125,-4.390625 0.734375,-4.28125 0.1875,-4.140625 L 0.1875,-3.96875 z"
               style="stroke:none" />
          </symbol>
        </g>
      </defs>
      <g
         id="textext-c91d3889-4">
        <g
           id="g24692"
           style="fill:#000000;fill-opacity:1">
          <use
             id="use24694"
             y="134.765"
             x="223.43201"
             xlink:href="#textext-c91d3889-1"
             width="387.55307"
             height="85.207504" />
          <use
             id="use24696"
             y="134.765"
             x="228.97121"
             xlink:href="#textext-c91d3889-2"
             width="387.55307"
             height="85.207504" />
          <use
             id="use24698"
             y="134.765"
             x="231.74081"
             xlink:href="#textext-c91d3889-3"
             width="387.55307"
             height="85.207504" />
        </g>
      </g>
    </g>
  </g>
</svg>
