<?xml version="1.0" encoding="UTF-8" standalone="no"?>
<!-- Created with Inkscape (http://www.inkscape.org/) -->
<svg
   xmlns:ns0="http://www.iki.fi/pav/software/textext/"
   xmlns:dc="http://purl.org/dc/elements/1.1/"
   xmlns:cc="http://creativecommons.org/ns#"
   xmlns:rdf="http://www.w3.org/1999/02/22-rdf-syntax-ns#"
   xmlns:svg="http://www.w3.org/2000/svg"
   xmlns="http://www.w3.org/2000/svg"
   xmlns:xlink="http://www.w3.org/1999/xlink"
   xmlns:sodipodi="http://sodipodi.sourceforge.net/DTD/sodipodi-0.dtd"
   xmlns:inkscape="http://www.inkscape.org/namespaces/inkscape"
   width="340.18661"
   height="65.900261"
   id="svg2"
   sodipodi:version="0.32"
   inkscape:version="0.46"
   sodipodi:docname="tipos_falha.svg"
   version="1.0"
   inkscape:output_extension="org.inkscape.output.svg.inkscape">
  <sodipodi:namedview
     id="base"
     pagecolor="#ffffff"
     bordercolor="#666666"
     borderopacity="1.0"
     inkscape:pageopacity="0.0"
     inkscape:pageshadow="2"
     inkscape:zoom="2.7190958"
     inkscape:cx="170.09331"
     inkscape:cy="32.95013"
     inkscape:document-units="px"
     inkscape:current-layer="layer1"
     showgrid="false"
     inkscape:window-width="1280"
     inkscape:window-height="725"
     inkscape:window-x="0"
     inkscape:window-y="25" />
  <defs
     id="defs4">
    <marker
       style="overflow:visible"
       id="Arrow1Mend"
       refX="0"
       refY="0"
       orient="auto"
       inkscape:stockid="Arrow1Mend">
      <path
         transform="matrix(-0.4,0,0,-0.4,-4,0)"
         style="fill-rule:evenodd;stroke:#000000;stroke-width:1pt;marker-start:none"
         d="M 0,0 L 5,-5 L -12.5,0 L 5,5 L 0,0 z"
         id="path3206" />
    </marker>
    <inkscape:perspective
       sodipodi:type="inkscape:persp3d"
       inkscape:vp_x="0 : 526.18109 : 1"
       inkscape:vp_y="0 : 1000 : 0"
       inkscape:vp_z="744.09448 : 526.18109 : 1"
       inkscape:persp3d-origin="372.04724 : 350.78739 : 1"
       id="perspective10" />
  </defs>
  <metadata
     id="metadata7">
    <rdf:RDF>
      <cc:Work
         rdf:about="">
        <dc:format>image/svg+xml</dc:format>
        <dc:type
           rdf:resource="http://purl.org/dc/dcmitype/StillImage" />
      </cc:Work>
    </rdf:RDF>
  </metadata>
  <g
     transform="translate(-118.35569,-97.479148)"
     inkscape:label="Camada 1"
     inkscape:groupmode="layer"
     id="layer1">
    <path
       style="opacity:1;fill:none;fill-opacity:1;stroke:#000000;stroke-width:0.5;stroke-linecap:butt;stroke-linejoin:miter;stroke-miterlimit:4;stroke-dasharray:none;stroke-dashoffset:0;stroke-opacity:1"
       id="path4061"
       sodipodi:nodetypes="cc"
       d="" />
    <path
       sodipodi:nodetypes="cc"
       style="fill:#ff0000;fill-opacity:1;stroke:#000000;stroke-width:0.5;stroke-linecap:butt;stroke-linejoin:miter;marker-end:url(#Arrow1Mend);stroke-miterlimit:4;stroke-dasharray:none;stroke-dashoffset:0;stroke-opacity:1"
       d="M 365.18828,162.30932 L 365.18828,110.96996"
       id="path4651" />
    <g
       transform="translate(131.00046,-17.654411)"
       ns0:text="$f$"
       ns0:preamble="/home/diogo/.inkscape/extensions/preambulo_inkscape.tex"
       id="g4653">
      <defs
         id="defs4655">
        <g
           id="g4657">
          <symbol
             style="overflow:visible"
             overflow="visible"
             id="symbol4659">
            <path
               style="stroke:none"
               d=""
               id="path4661" />
          </symbol>
          <symbol
             style="overflow:visible"
             overflow="visible"
             id="symbol4663">
            <path
               style="stroke:none"
               d="M 0.34375,-3.953125 L 1.25,-3.953125 L 0.375,0.234375 C 0.15625,1.3125 -0.171875,1.859375 -0.59375,1.859375 C -0.71875,1.859375 -0.796875,1.78125 -0.796875,1.6875 C -0.796875,1.671875 -0.78125,1.640625 -0.75,1.578125 C -0.71875,1.53125 -0.703125,1.484375 -0.703125,1.421875 C -0.703125,1.21875 -0.890625,1.046875 -1.09375,1.046875 C -1.3125,1.046875 -1.46875,1.21875 -1.46875,1.453125 C -1.46875,1.796875 -1.109375,2.0625 -0.671875,2.0625 C 0.203125,2.0625 0.90625,1.078125 1.3125,-0.75 L 2.03125,-3.953125 L 3.125,-3.953125 L 3.1875,-4.265625 L 2.109375,-4.265625 C 2.390625,-5.828125 2.765625,-6.546875 3.3125,-6.546875 C 3.453125,-6.546875 3.53125,-6.484375 3.53125,-6.421875 C 3.53125,-6.390625 3.53125,-6.375 3.5,-6.3125 C 3.453125,-6.234375 3.4375,-6.1875 3.4375,-6.109375 C 3.4375,-5.875 3.59375,-5.71875 3.8125,-5.71875 C 4.03125,-5.71875 4.234375,-5.890625 4.234375,-6.109375 C 4.234375,-6.484375 3.859375,-6.765625 3.375,-6.765625 C 2.875,-6.765625 2.5,-6.546875 2.140625,-6.078125 C 1.828125,-5.6875 1.640625,-5.21875 1.328125,-4.265625 L 0.421875,-4.265625 L 0.34375,-3.953125 z"
               id="path4665" />
          </symbol>
        </g>
      </defs>
      <g
         id="g4667">
        <g
           style="fill:#000000;fill-opacity:1"
           id="g4669">
          <use
             height="1052.3622"
             width="744.09448"
             xlink:href="#textext-b62815cf-1"
             x="224.92599"
             y="134.765"
             id="use4671" />
        </g>
      </g>
    </g>
    <path
       sodipodi:nodetypes="cz"
       style="fill:#ff0000;fill-opacity:1;stroke:#000000;stroke-width:0.5;stroke-linecap:butt;stroke-linejoin:miter;marker-end:url(#Arrow1Mend);stroke-miterlimit:4;stroke-dasharray:none;stroke-dashoffset:0;stroke-opacity:1"
       d="M 355.5193,152.96249 L 457.91731,152.96249"
       id="path4673" />
    <g
       id="g4675"
       transform="translate(232.40619,28.467084)"
       ns0:preamble="/home/diogo/.inkscape/extensions/preambulo_inkscape.tex"
       ns0:text="$t$">
      <defs
         id="defs4677">
        <g
           id="g4679">
          <symbol
             id="symbol4681"
             overflow="visible"
             style="overflow:visible">
            <path
               id="path4683"
               d=""
               style="stroke:none" />
          </symbol>
          <symbol
             id="symbol4685"
             overflow="visible"
             style="overflow:visible">
            <path
               id="path4687"
               d="M 2.953125,-4.265625 L 2.15625,-4.265625 L 2.4375,-5.296875 C 2.4375,-5.3125 2.4375,-5.328125 2.4375,-5.34375 C 2.4375,-5.40625 2.40625,-5.4375 2.359375,-5.4375 C 2.296875,-5.4375 2.265625,-5.4375 2.21875,-5.359375 C 1.828125,-4.84375 1.203125,-4.34375 0.890625,-4.25 C 0.640625,-4.171875 0.5625,-4.109375 0.5625,-4 C 0.5625,-4 0.5625,-3.984375 0.578125,-3.953125 L 1.3125,-3.953125 L 0.59375,-1.203125 C 0.578125,-1.109375 0.5625,-1.09375 0.53125,-1 C 0.453125,-0.703125 0.375,-0.34375 0.375,-0.265625 C 0.375,-0.046875 0.578125,0.109375 0.84375,0.109375 C 1.3125,0.109375 1.640625,-0.171875 2.265625,-1.09375 L 2.140625,-1.171875 C 1.640625,-0.53125 1.484375,-0.375 1.328125,-0.375 C 1.234375,-0.375 1.171875,-0.453125 1.171875,-0.578125 C 1.171875,-0.59375 1.171875,-0.59375 1.1875,-0.625 L 2.0625,-3.953125 L 2.90625,-3.953125 L 2.953125,-4.265625 z"
               style="stroke:none" />
          </symbol>
        </g>
      </defs>
      <g
         id="g4689">
        <g
           id="g4691"
           style="fill:#000000;fill-opacity:1">
          <use
             id="use4693"
             y="134.765"
             x="223.183"
             xlink:href="#textext-3afe61fd-1"
             width="744.09448"
             height="1052.3622" />
        </g>
      </g>
    </g>
    <g
       id="g4697"
       transform="translate(154.38812,27.011032)"
       ns0:preamble="/home/diogo/.inkscape/extensions/preambulo_inkscape.tex"
       ns0:text="$t_0$">
      <defs
         id="defs4699">
        <g
           id="g4701">
          <symbol
             id="symbol4703"
             overflow="visible"
             style="overflow:visible">
            <path
               id="path4705"
               d=""
               style="stroke:none" />
          </symbol>
          <symbol
             id="symbol4707"
             overflow="visible"
             style="overflow:visible">
            <path
               id="path4709"
               d="M 1.875,-4.984375 C 1.46875,-4.984375 1.15625,-4.859375 0.890625,-4.609375 C 0.453125,-4.1875 0.171875,-3.34375 0.171875,-2.484375 C 0.171875,-1.671875 0.421875,-0.8125 0.765625,-0.390625 C 1.046875,-0.078125 1.421875,0.109375 1.84375,0.109375 C 2.21875,0.109375 2.53125,-0.015625 2.796875,-0.28125 C 3.234375,-0.6875 3.515625,-1.546875 3.515625,-2.4375 C 3.515625,-3.953125 2.84375,-4.984375 1.875,-4.984375 z M 1.84375,-4.796875 C 2.46875,-4.796875 2.796875,-3.953125 2.796875,-2.421875 C 2.796875,-0.875 2.484375,-0.09375 1.84375,-0.09375 C 1.203125,-0.09375 0.890625,-0.875 0.890625,-2.40625 C 0.890625,-3.96875 1.21875,-4.796875 1.84375,-4.796875 z"
               style="stroke:none" />
          </symbol>
          <symbol
             id="symbol4711"
             overflow="visible"
             style="overflow:visible">
            <path
               id="path4713"
               d=""
               style="stroke:none" />
          </symbol>
          <symbol
             id="symbol4715"
             overflow="visible"
             style="overflow:visible">
            <path
               id="path4717"
               d="M 2.953125,-4.265625 L 2.15625,-4.265625 L 2.4375,-5.296875 C 2.4375,-5.3125 2.4375,-5.328125 2.4375,-5.34375 C 2.4375,-5.40625 2.40625,-5.4375 2.359375,-5.4375 C 2.296875,-5.4375 2.265625,-5.4375 2.21875,-5.359375 C 1.828125,-4.84375 1.203125,-4.34375 0.890625,-4.25 C 0.640625,-4.171875 0.5625,-4.109375 0.5625,-4 C 0.5625,-4 0.5625,-3.984375 0.578125,-3.953125 L 1.3125,-3.953125 L 0.59375,-1.203125 C 0.578125,-1.109375 0.5625,-1.09375 0.53125,-1 C 0.453125,-0.703125 0.375,-0.34375 0.375,-0.265625 C 0.375,-0.046875 0.578125,0.109375 0.84375,0.109375 C 1.3125,0.109375 1.640625,-0.171875 2.265625,-1.09375 L 2.140625,-1.171875 C 1.640625,-0.53125 1.484375,-0.375 1.328125,-0.375 C 1.234375,-0.375 1.171875,-0.453125 1.171875,-0.578125 C 1.171875,-0.59375 1.171875,-0.59375 1.1875,-0.625 L 2.0625,-3.953125 L 2.90625,-3.953125 L 2.953125,-4.265625 z"
               style="stroke:none" />
          </symbol>
        </g>
      </defs>
      <g
         id="g4719">
        <g
           id="g4721"
           style="fill:#000000;fill-opacity:1">
          <use
             id="use4723"
             y="134.765"
             x="223.183"
             xlink:href="#textext-4a96cdd6-3"
             width="744.09448"
             height="1052.3622" />
        </g>
        <g
           id="g4725"
           style="fill:#000000;fill-opacity:1">
          <use
             id="use4727"
             y="136.259"
             x="225.953"
             xlink:href="#textext-4a96cdd6-1"
             width="744.09448"
             height="1052.3622" />
        </g>
      </g>
    </g>
    <path
       sodipodi:nodetypes="cc"
       style="fill:#ff0000;fill-opacity:1;stroke:#000000;stroke-width:0.5;stroke-linecap:butt;stroke-linejoin:miter;marker-end:url(#Arrow1Mend);stroke-miterlimit:4;stroke-dasharray:none;stroke-dashoffset:0;stroke-opacity:1"
       d="M 129.08627,162.30932 L 129.08627,110.96996"
       id="path2383" />
    <g
       transform="translate(-105.10155,-17.654412)"
       ns0:text="$f$"
       ns0:preamble="/home/diogo/.inkscape/extensions/preambulo_inkscape.tex"
       id="g2392">
      <defs
         id="defs2394">
        <g
           id="g2396">
          <symbol
             style="overflow:visible"
             overflow="visible"
             id="textext-b62815cf-0">
            <path
               style="stroke:none"
               d=""
               id="path2399" />
          </symbol>
          <symbol
             style="overflow:visible"
             overflow="visible"
             id="textext-b62815cf-1">
            <path
               style="stroke:none"
               d="M 0.34375,-3.953125 L 1.25,-3.953125 L 0.375,0.234375 C 0.15625,1.3125 -0.171875,1.859375 -0.59375,1.859375 C -0.71875,1.859375 -0.796875,1.78125 -0.796875,1.6875 C -0.796875,1.671875 -0.78125,1.640625 -0.75,1.578125 C -0.71875,1.53125 -0.703125,1.484375 -0.703125,1.421875 C -0.703125,1.21875 -0.890625,1.046875 -1.09375,1.046875 C -1.3125,1.046875 -1.46875,1.21875 -1.46875,1.453125 C -1.46875,1.796875 -1.109375,2.0625 -0.671875,2.0625 C 0.203125,2.0625 0.90625,1.078125 1.3125,-0.75 L 2.03125,-3.953125 L 3.125,-3.953125 L 3.1875,-4.265625 L 2.109375,-4.265625 C 2.390625,-5.828125 2.765625,-6.546875 3.3125,-6.546875 C 3.453125,-6.546875 3.53125,-6.484375 3.53125,-6.421875 C 3.53125,-6.390625 3.53125,-6.375 3.5,-6.3125 C 3.453125,-6.234375 3.4375,-6.1875 3.4375,-6.109375 C 3.4375,-5.875 3.59375,-5.71875 3.8125,-5.71875 C 4.03125,-5.71875 4.234375,-5.890625 4.234375,-6.109375 C 4.234375,-6.484375 3.859375,-6.765625 3.375,-6.765625 C 2.875,-6.765625 2.5,-6.546875 2.140625,-6.078125 C 1.828125,-5.6875 1.640625,-5.21875 1.328125,-4.265625 L 0.421875,-4.265625 L 0.34375,-3.953125 z"
               id="path2402" />
          </symbol>
        </g>
      </defs>
      <g
         id="textext-b62815cf-2">
        <g
           style="fill:#000000;fill-opacity:1"
           id="g2405">
          <use
             height="1052.3622"
             width="744.09448"
             xlink:href="#textext-b62815cf-1"
             x="224.92599"
             y="134.765"
             id="use2407" />
        </g>
      </g>
    </g>
    <path
       sodipodi:nodetypes="cz"
       style="fill:#ff0000;fill-opacity:1;stroke:#000000;stroke-width:0.5;stroke-linecap:butt;stroke-linejoin:miter;marker-end:url(#Arrow1Mend);stroke-miterlimit:4;stroke-dasharray:none;stroke-dashoffset:0;stroke-opacity:1"
       d="M 119.41729,152.96249 L 221.8153,152.96249"
       id="path3972" />
    <g
       id="g4014"
       transform="translate(-3.6958209,28.467082)"
       ns0:preamble="/home/diogo/.inkscape/extensions/preambulo_inkscape.tex"
       ns0:text="$t$">
      <defs
         id="defs4016">
        <g
           id="g4018">
          <symbol
             id="textext-3afe61fd-0"
             overflow="visible"
             style="overflow:visible">
            <path
               id="path4021"
               d=""
               style="stroke:none" />
          </symbol>
          <symbol
             id="textext-3afe61fd-1"
             overflow="visible"
             style="overflow:visible">
            <path
               id="path4024"
               d="M 2.953125,-4.265625 L 2.15625,-4.265625 L 2.4375,-5.296875 C 2.4375,-5.3125 2.4375,-5.328125 2.4375,-5.34375 C 2.4375,-5.40625 2.40625,-5.4375 2.359375,-5.4375 C 2.296875,-5.4375 2.265625,-5.4375 2.21875,-5.359375 C 1.828125,-4.84375 1.203125,-4.34375 0.890625,-4.25 C 0.640625,-4.171875 0.5625,-4.109375 0.5625,-4 C 0.5625,-4 0.5625,-3.984375 0.578125,-3.953125 L 1.3125,-3.953125 L 0.59375,-1.203125 C 0.578125,-1.109375 0.5625,-1.09375 0.53125,-1 C 0.453125,-0.703125 0.375,-0.34375 0.375,-0.265625 C 0.375,-0.046875 0.578125,0.109375 0.84375,0.109375 C 1.3125,0.109375 1.640625,-0.171875 2.265625,-1.09375 L 2.140625,-1.171875 C 1.640625,-0.53125 1.484375,-0.375 1.328125,-0.375 C 1.234375,-0.375 1.171875,-0.453125 1.171875,-0.578125 C 1.171875,-0.59375 1.171875,-0.59375 1.1875,-0.625 L 2.0625,-3.953125 L 2.90625,-3.953125 L 2.953125,-4.265625 z"
               style="stroke:none" />
          </symbol>
        </g>
      </defs>
      <g
         id="textext-3afe61fd-2">
        <g
           id="g4027"
           style="fill:#000000;fill-opacity:1">
          <use
             id="use4029"
             y="134.765"
             x="223.183"
             xlink:href="#textext-3afe61fd-1"
             width="744.09448"
             height="1052.3622" />
        </g>
      </g>
    </g>
    <g
       id="g4349"
       transform="translate(-81.713885,27.01103)"
       ns0:preamble="/home/diogo/.inkscape/extensions/preambulo_inkscape.tex"
       ns0:text="$t_0$">
      <defs
         id="defs4351">
        <g
           id="g4353">
          <symbol
             id="textext-4a96cdd6-0"
             overflow="visible"
             style="overflow:visible">
            <path
               id="path4356"
               d=""
               style="stroke:none" />
          </symbol>
          <symbol
             id="textext-4a96cdd6-1"
             overflow="visible"
             style="overflow:visible">
            <path
               id="path4359"
               d="M 1.875,-4.984375 C 1.46875,-4.984375 1.15625,-4.859375 0.890625,-4.609375 C 0.453125,-4.1875 0.171875,-3.34375 0.171875,-2.484375 C 0.171875,-1.671875 0.421875,-0.8125 0.765625,-0.390625 C 1.046875,-0.078125 1.421875,0.109375 1.84375,0.109375 C 2.21875,0.109375 2.53125,-0.015625 2.796875,-0.28125 C 3.234375,-0.6875 3.515625,-1.546875 3.515625,-2.4375 C 3.515625,-3.953125 2.84375,-4.984375 1.875,-4.984375 z M 1.84375,-4.796875 C 2.46875,-4.796875 2.796875,-3.953125 2.796875,-2.421875 C 2.796875,-0.875 2.484375,-0.09375 1.84375,-0.09375 C 1.203125,-0.09375 0.890625,-0.875 0.890625,-2.40625 C 0.890625,-3.96875 1.21875,-4.796875 1.84375,-4.796875 z"
               style="stroke:none" />
          </symbol>
          <symbol
             id="textext-4a96cdd6-2"
             overflow="visible"
             style="overflow:visible">
            <path
               id="path4362"
               d=""
               style="stroke:none" />
          </symbol>
          <symbol
             id="textext-4a96cdd6-3"
             overflow="visible"
             style="overflow:visible">
            <path
               id="path4365"
               d="M 2.953125,-4.265625 L 2.15625,-4.265625 L 2.4375,-5.296875 C 2.4375,-5.3125 2.4375,-5.328125 2.4375,-5.34375 C 2.4375,-5.40625 2.40625,-5.4375 2.359375,-5.4375 C 2.296875,-5.4375 2.265625,-5.4375 2.21875,-5.359375 C 1.828125,-4.84375 1.203125,-4.34375 0.890625,-4.25 C 0.640625,-4.171875 0.5625,-4.109375 0.5625,-4 C 0.5625,-4 0.5625,-3.984375 0.578125,-3.953125 L 1.3125,-3.953125 L 0.59375,-1.203125 C 0.578125,-1.109375 0.5625,-1.09375 0.53125,-1 C 0.453125,-0.703125 0.375,-0.34375 0.375,-0.265625 C 0.375,-0.046875 0.578125,0.109375 0.84375,0.109375 C 1.3125,0.109375 1.640625,-0.171875 2.265625,-1.09375 L 2.140625,-1.171875 C 1.640625,-0.53125 1.484375,-0.375 1.328125,-0.375 C 1.234375,-0.375 1.171875,-0.453125 1.171875,-0.578125 C 1.171875,-0.59375 1.171875,-0.59375 1.1875,-0.625 L 2.0625,-3.953125 L 2.90625,-3.953125 L 2.953125,-4.265625 z"
               style="stroke:none" />
          </symbol>
        </g>
      </defs>
      <g
         id="textext-4a96cdd6-4">
        <g
           id="g4368"
           style="fill:#000000;fill-opacity:1">
          <use
             id="use4370"
             y="134.765"
             x="223.183"
             xlink:href="#textext-4a96cdd6-3"
             width="744.09448"
             height="1052.3622" />
        </g>
        <g
           id="g4372"
           style="fill:#000000;fill-opacity:1">
          <use
             id="use4374"
             y="136.259"
             x="225.953"
             xlink:href="#textext-4a96cdd6-1"
             width="744.09448"
             height="1052.3622" />
        </g>
      </g>
    </g>
    <path
       sodipodi:nodetypes="cc"
       style="fill:#ff0000;fill-opacity:1;stroke:#000000;stroke-width:0.5;stroke-linecap:butt;stroke-linejoin:miter;marker-end:url(#Arrow1Mend);stroke-miterlimit:4;stroke-dasharray:none;stroke-dashoffset:0;stroke-opacity:1"
       d="M 247.13728,162.30932 L 247.13728,110.96996"
       id="path4491" />
    <g
       transform="translate(12.949463,-17.654411)"
       ns0:text="$f$"
       ns0:preamble="/home/diogo/.inkscape/extensions/preambulo_inkscape.tex"
       id="g4493">
      <defs
         id="defs4495">
        <g
           id="g4497">
          <symbol
             style="overflow:visible"
             overflow="visible"
             id="symbol4499">
            <path
               style="stroke:none"
               d=""
               id="path4501" />
          </symbol>
          <symbol
             style="overflow:visible"
             overflow="visible"
             id="symbol4503">
            <path
               style="stroke:none"
               d="M 0.34375,-3.953125 L 1.25,-3.953125 L 0.375,0.234375 C 0.15625,1.3125 -0.171875,1.859375 -0.59375,1.859375 C -0.71875,1.859375 -0.796875,1.78125 -0.796875,1.6875 C -0.796875,1.671875 -0.78125,1.640625 -0.75,1.578125 C -0.71875,1.53125 -0.703125,1.484375 -0.703125,1.421875 C -0.703125,1.21875 -0.890625,1.046875 -1.09375,1.046875 C -1.3125,1.046875 -1.46875,1.21875 -1.46875,1.453125 C -1.46875,1.796875 -1.109375,2.0625 -0.671875,2.0625 C 0.203125,2.0625 0.90625,1.078125 1.3125,-0.75 L 2.03125,-3.953125 L 3.125,-3.953125 L 3.1875,-4.265625 L 2.109375,-4.265625 C 2.390625,-5.828125 2.765625,-6.546875 3.3125,-6.546875 C 3.453125,-6.546875 3.53125,-6.484375 3.53125,-6.421875 C 3.53125,-6.390625 3.53125,-6.375 3.5,-6.3125 C 3.453125,-6.234375 3.4375,-6.1875 3.4375,-6.109375 C 3.4375,-5.875 3.59375,-5.71875 3.8125,-5.71875 C 4.03125,-5.71875 4.234375,-5.890625 4.234375,-6.109375 C 4.234375,-6.484375 3.859375,-6.765625 3.375,-6.765625 C 2.875,-6.765625 2.5,-6.546875 2.140625,-6.078125 C 1.828125,-5.6875 1.640625,-5.21875 1.328125,-4.265625 L 0.421875,-4.265625 L 0.34375,-3.953125 z"
               id="path4505" />
          </symbol>
        </g>
      </defs>
      <g
         id="g4507">
        <g
           style="fill:#000000;fill-opacity:1"
           id="g4509">
          <use
             height="1052.3622"
             width="744.09448"
             xlink:href="#textext-b62815cf-1"
             x="224.92599"
             y="134.765"
             id="use4511" />
        </g>
      </g>
    </g>
    <path
       sodipodi:nodetypes="cz"
       style="fill:#ff0000;fill-opacity:1;stroke:#000000;stroke-width:0.5;stroke-linecap:butt;stroke-linejoin:miter;marker-end:url(#Arrow1Mend);stroke-miterlimit:4;stroke-dasharray:none;stroke-dashoffset:0;stroke-opacity:1"
       d="M 237.4683,152.96249 L 339.86631,152.96249"
       id="path4513" />
    <g
       id="g4515"
       transform="translate(114.35519,28.467084)"
       ns0:preamble="/home/diogo/.inkscape/extensions/preambulo_inkscape.tex"
       ns0:text="$t$">
      <defs
         id="defs4517">
        <g
           id="g4519">
          <symbol
             id="symbol4521"
             overflow="visible"
             style="overflow:visible">
            <path
               id="path4523"
               d=""
               style="stroke:none" />
          </symbol>
          <symbol
             id="symbol4525"
             overflow="visible"
             style="overflow:visible">
            <path
               id="path4527"
               d="M 2.953125,-4.265625 L 2.15625,-4.265625 L 2.4375,-5.296875 C 2.4375,-5.3125 2.4375,-5.328125 2.4375,-5.34375 C 2.4375,-5.40625 2.40625,-5.4375 2.359375,-5.4375 C 2.296875,-5.4375 2.265625,-5.4375 2.21875,-5.359375 C 1.828125,-4.84375 1.203125,-4.34375 0.890625,-4.25 C 0.640625,-4.171875 0.5625,-4.109375 0.5625,-4 C 0.5625,-4 0.5625,-3.984375 0.578125,-3.953125 L 1.3125,-3.953125 L 0.59375,-1.203125 C 0.578125,-1.109375 0.5625,-1.09375 0.53125,-1 C 0.453125,-0.703125 0.375,-0.34375 0.375,-0.265625 C 0.375,-0.046875 0.578125,0.109375 0.84375,0.109375 C 1.3125,0.109375 1.640625,-0.171875 2.265625,-1.09375 L 2.140625,-1.171875 C 1.640625,-0.53125 1.484375,-0.375 1.328125,-0.375 C 1.234375,-0.375 1.171875,-0.453125 1.171875,-0.578125 C 1.171875,-0.59375 1.171875,-0.59375 1.1875,-0.625 L 2.0625,-3.953125 L 2.90625,-3.953125 L 2.953125,-4.265625 z"
               style="stroke:none" />
          </symbol>
        </g>
      </defs>
      <g
         id="g4529">
        <g
           id="g4531"
           style="fill:#000000;fill-opacity:1">
          <use
             id="use4533"
             y="134.765"
             x="223.183"
             xlink:href="#textext-3afe61fd-1"
             width="744.09448"
             height="1052.3622" />
        </g>
      </g>
    </g>
    <path
       sodipodi:nodetypes="cc"
       style="fill:#b3b3b3;fill-opacity:1;stroke:#000000;stroke-width:0.5;stroke-linecap:butt;stroke-linejoin:miter;stroke-miterlimit:4;stroke-dasharray:none;stroke-dashoffset:0;stroke-opacity:1"
       d="M 262.45956,152.97512 L 340.24131,124.42568"
       id="path4535" />
    <g
       id="g4537"
       transform="translate(36.337126,27.011032)"
       ns0:preamble="/home/diogo/.inkscape/extensions/preambulo_inkscape.tex"
       ns0:text="$t_0$">
      <defs
         id="defs4539">
        <g
           id="g4541">
          <symbol
             id="symbol4543"
             overflow="visible"
             style="overflow:visible">
            <path
               id="path4545"
               d=""
               style="stroke:none" />
          </symbol>
          <symbol
             id="symbol4547"
             overflow="visible"
             style="overflow:visible">
            <path
               id="path4549"
               d="M 1.875,-4.984375 C 1.46875,-4.984375 1.15625,-4.859375 0.890625,-4.609375 C 0.453125,-4.1875 0.171875,-3.34375 0.171875,-2.484375 C 0.171875,-1.671875 0.421875,-0.8125 0.765625,-0.390625 C 1.046875,-0.078125 1.421875,0.109375 1.84375,0.109375 C 2.21875,0.109375 2.53125,-0.015625 2.796875,-0.28125 C 3.234375,-0.6875 3.515625,-1.546875 3.515625,-2.4375 C 3.515625,-3.953125 2.84375,-4.984375 1.875,-4.984375 z M 1.84375,-4.796875 C 2.46875,-4.796875 2.796875,-3.953125 2.796875,-2.421875 C 2.796875,-0.875 2.484375,-0.09375 1.84375,-0.09375 C 1.203125,-0.09375 0.890625,-0.875 0.890625,-2.40625 C 0.890625,-3.96875 1.21875,-4.796875 1.84375,-4.796875 z"
               style="stroke:none" />
          </symbol>
          <symbol
             id="symbol4551"
             overflow="visible"
             style="overflow:visible">
            <path
               id="path4553"
               d=""
               style="stroke:none" />
          </symbol>
          <symbol
             id="symbol4555"
             overflow="visible"
             style="overflow:visible">
            <path
               id="path4557"
               d="M 2.953125,-4.265625 L 2.15625,-4.265625 L 2.4375,-5.296875 C 2.4375,-5.3125 2.4375,-5.328125 2.4375,-5.34375 C 2.4375,-5.40625 2.40625,-5.4375 2.359375,-5.4375 C 2.296875,-5.4375 2.265625,-5.4375 2.21875,-5.359375 C 1.828125,-4.84375 1.203125,-4.34375 0.890625,-4.25 C 0.640625,-4.171875 0.5625,-4.109375 0.5625,-4 C 0.5625,-4 0.5625,-3.984375 0.578125,-3.953125 L 1.3125,-3.953125 L 0.59375,-1.203125 C 0.578125,-1.109375 0.5625,-1.09375 0.53125,-1 C 0.453125,-0.703125 0.375,-0.34375 0.375,-0.265625 C 0.375,-0.046875 0.578125,0.109375 0.84375,0.109375 C 1.3125,0.109375 1.640625,-0.171875 2.265625,-1.09375 L 2.140625,-1.171875 C 1.640625,-0.53125 1.484375,-0.375 1.328125,-0.375 C 1.234375,-0.375 1.171875,-0.453125 1.171875,-0.578125 C 1.171875,-0.59375 1.171875,-0.59375 1.1875,-0.625 L 2.0625,-3.953125 L 2.90625,-3.953125 L 2.953125,-4.265625 z"
               style="stroke:none" />
          </symbol>
        </g>
      </defs>
      <g
         id="g4559">
        <g
           id="g4561"
           style="fill:#000000;fill-opacity:1">
          <use
             id="use4563"
             y="134.765"
             x="223.183"
             xlink:href="#textext-4a96cdd6-3"
             width="744.09448"
             height="1052.3622" />
        </g>
        <g
           id="g4565"
           style="fill:#000000;fill-opacity:1">
          <use
             id="use4567"
             y="136.259"
             x="225.953"
             xlink:href="#textext-4a96cdd6-1"
             width="744.09448"
             height="1052.3622" />
        </g>
      </g>
    </g>
    <path
       style="fill:none;fill-opacity:1;stroke:#000000;stroke-width:0.5;stroke-linecap:butt;stroke-linejoin:miter;stroke-miterlimit:4;stroke-dasharray:none;stroke-dashoffset:0;stroke-opacity:1"
       d="M 144.1903,152.89252 L 144.1903,131.86219 L 222.1903,131.86219"
       id="path4887"
       sodipodi:nodetypes="ccc" />
    <path
       style="fill:none;fill-opacity:1;stroke:#000000;stroke-width:0.5;stroke-linecap:butt;stroke-linejoin:miter;stroke-miterlimit:4;stroke-dasharray:none;stroke-dashoffset:0;stroke-opacity:1"
       d="M 380.5,152.74411 L 380.5,130.11219 L 395.625,130.00628 L 395.625,152.88127"
       id="path4889"
       sodipodi:nodetypes="cccc" />
    <path
       style="fill:none;fill-opacity:1;stroke:#000000;stroke-width:0.5;stroke-linecap:butt;stroke-linejoin:miter;stroke-miterlimit:4;stroke-dasharray:none;stroke-dashoffset:0;stroke-opacity:1"
       d="M 406.84161,152.74411 L 406.84161,124.72007 L 416.87406,124.61416 L 416.87406,152.88127"
       id="path4891"
       sodipodi:nodetypes="cccc" />
    <path
       style="fill:none;fill-opacity:1;stroke:#000000;stroke-width:0.5;stroke-linecap:butt;stroke-linejoin:miter;stroke-miterlimit:4;stroke-dasharray:none;stroke-dashoffset:0;stroke-opacity:1"
       d="M 430.24732,152.74411 L 430.24732,138.20036 L 453.01115,138.09445 L 453.01115,152.88127"
       id="path4893"
       sodipodi:nodetypes="cccc" />
    <g
       ns0:text="$t_1$"
       ns0:preamble="/home/diogo/.inkscape/extensions/preambulo_inkscape.tex"
       transform="translate(181.0328,27.011032)"
       id="g5103">
      <defs
         id="defs5105">
        <g
           id="g5107">
          <symbol
             overflow="visible"
             id="textext-5db9217b-0"
             style="overflow:visible">
            <path
               style="stroke:none"
               d=""
               id="path5110" />
          </symbol>
          <symbol
             overflow="visible"
             id="textext-5db9217b-1"
             style="overflow:visible">
            <path
               style="stroke:none"
               d="M 2.953125,-4.265625 L 2.15625,-4.265625 L 2.4375,-5.296875 C 2.4375,-5.3125 2.4375,-5.328125 2.4375,-5.34375 C 2.4375,-5.40625 2.40625,-5.4375 2.359375,-5.4375 C 2.296875,-5.4375 2.265625,-5.4375 2.21875,-5.359375 C 1.828125,-4.84375 1.203125,-4.34375 0.890625,-4.25 C 0.640625,-4.171875 0.5625,-4.109375 0.5625,-4 C 0.5625,-4 0.5625,-3.984375 0.578125,-3.953125 L 1.3125,-3.953125 L 0.59375,-1.203125 C 0.578125,-1.109375 0.5625,-1.09375 0.53125,-1 C 0.453125,-0.703125 0.375,-0.34375 0.375,-0.265625 C 0.375,-0.046875 0.578125,0.109375 0.84375,0.109375 C 1.3125,0.109375 1.640625,-0.171875 2.265625,-1.09375 L 2.140625,-1.171875 C 1.640625,-0.53125 1.484375,-0.375 1.328125,-0.375 C 1.234375,-0.375 1.171875,-0.453125 1.171875,-0.578125 C 1.171875,-0.59375 1.171875,-0.59375 1.1875,-0.625 L 2.0625,-3.953125 L 2.90625,-3.953125 L 2.953125,-4.265625 z"
               id="path5113" />
          </symbol>
          <symbol
             overflow="visible"
             id="textext-5db9217b-2"
             style="overflow:visible">
            <path
               style="stroke:none"
               d=""
               id="path5116" />
          </symbol>
          <symbol
             overflow="visible"
             id="textext-5db9217b-3"
             style="overflow:visible">
            <path
               style="stroke:none"
               d="M 2.140625,-4.984375 L 0.8125,-4.3125 L 0.8125,-4.21875 C 0.90625,-4.25 0.984375,-4.28125 1.015625,-4.296875 C 1.15625,-4.34375 1.28125,-4.375 1.34375,-4.375 C 1.5,-4.375 1.578125,-4.265625 1.578125,-4.03125 L 1.578125,-0.6875 C 1.578125,-0.4375 1.515625,-0.265625 1.390625,-0.203125 C 1.28125,-0.140625 1.1875,-0.125 0.875,-0.109375 L 0.875,0 L 2.90625,0 L 2.90625,-0.109375 C 2.328125,-0.125 2.203125,-0.1875 2.203125,-0.546875 L 2.203125,-4.96875 L 2.140625,-4.984375 z"
               id="path5119" />
          </symbol>
        </g>
      </defs>
      <g
         id="textext-5db9217b-4">
        <g
           style="fill:#000000;fill-opacity:1"
           id="g5122">
          <use
             xlink:href="#textext-5db9217b-1"
             x="223.183"
             y="134.765"
             id="use5124"
             width="744.09448"
             height="1052.3622" />
        </g>
        <g
           style="fill:#000000;fill-opacity:1"
           id="g5126">
          <use
             xlink:href="#textext-5db9217b-3"
             x="225.953"
             y="136.259"
             id="use5128"
             width="744.09448"
             height="1052.3622" />
        </g>
      </g>
    </g>
    <g
       id="g5432"
       transform="translate(203.85373,27.011032)"
       ns0:preamble="/home/diogo/.inkscape/extensions/preambulo_inkscape.tex"
       ns0:text="$t_2$">
      <defs
         id="defs5434">
        <g
           id="g5436">
          <symbol
             id="textext-fd39c0ab-0"
             overflow="visible"
             style="overflow:visible">
            <path
               id="path5439"
               d=""
               style="stroke:none" />
          </symbol>
          <symbol
             id="textext-fd39c0ab-1"
             overflow="visible"
             style="overflow:visible">
            <path
               id="path5442"
               d="M 2.953125,-4.265625 L 2.15625,-4.265625 L 2.4375,-5.296875 C 2.4375,-5.3125 2.4375,-5.328125 2.4375,-5.34375 C 2.4375,-5.40625 2.40625,-5.4375 2.359375,-5.4375 C 2.296875,-5.4375 2.265625,-5.4375 2.21875,-5.359375 C 1.828125,-4.84375 1.203125,-4.34375 0.890625,-4.25 C 0.640625,-4.171875 0.5625,-4.109375 0.5625,-4 C 0.5625,-4 0.5625,-3.984375 0.578125,-3.953125 L 1.3125,-3.953125 L 0.59375,-1.203125 C 0.578125,-1.109375 0.5625,-1.09375 0.53125,-1 C 0.453125,-0.703125 0.375,-0.34375 0.375,-0.265625 C 0.375,-0.046875 0.578125,0.109375 0.84375,0.109375 C 1.3125,0.109375 1.640625,-0.171875 2.265625,-1.09375 L 2.140625,-1.171875 C 1.640625,-0.53125 1.484375,-0.375 1.328125,-0.375 C 1.234375,-0.375 1.171875,-0.453125 1.171875,-0.578125 C 1.171875,-0.59375 1.171875,-0.59375 1.1875,-0.625 L 2.0625,-3.953125 L 2.90625,-3.953125 L 2.953125,-4.265625 z"
               style="stroke:none" />
          </symbol>
          <symbol
             id="textext-fd39c0ab-2"
             overflow="visible"
             style="overflow:visible">
            <path
               id="path5445"
               d=""
               style="stroke:none" />
          </symbol>
          <symbol
             id="textext-fd39c0ab-3"
             overflow="visible"
             style="overflow:visible">
            <path
               id="path5448"
               d="M 3.5,-1.015625 L 3.40625,-1.046875 C 3.140625,-0.625 3.03125,-0.5625 2.703125,-0.5625 L 0.9375,-0.5625 L 2.1875,-1.859375 C 2.84375,-2.546875 3.125,-3.109375 3.125,-3.6875 C 3.125,-4.421875 2.53125,-4.984375 1.765625,-4.984375 C 1.359375,-4.984375 0.96875,-4.828125 0.703125,-4.53125 C 0.46875,-4.28125 0.359375,-4.046875 0.234375,-3.515625 L 0.390625,-3.484375 C 0.671875,-4.203125 0.9375,-4.4375 1.453125,-4.4375 C 2.078125,-4.4375 2.5,-4.015625 2.5,-3.40625 C 2.5,-2.828125 2.15625,-2.140625 1.53125,-1.484375 L 0.21875,-0.09375 L 0.21875,0 L 3.09375,0 L 3.5,-1.015625 z"
               style="stroke:none" />
          </symbol>
        </g>
      </defs>
      <g
         id="textext-fd39c0ab-4">
        <g
           id="g5451"
           style="fill:#000000;fill-opacity:1">
          <use
             id="use5453"
             y="134.765"
             x="223.183"
             xlink:href="#textext-fd39c0ab-1"
             width="744.09448"
             height="1052.3622" />
        </g>
        <g
           id="g5455"
           style="fill:#000000;fill-opacity:1">
          <use
             id="use5457"
             y="136.259"
             x="225.953"
             xlink:href="#textext-fd39c0ab-3"
             width="744.09448"
             height="1052.3622" />
        </g>
      </g>
    </g>
    <g
       id="g8757"
       transform="translate(-61.556717,-30.473351)"
       ns0:preamble="/home/diogo/.inkscape/extensions/preambulo_inkscape.tex"
       ns0:text="Abrupta">
      <defs
         id="defs8759">
        <g
           id="g8761">
          <symbol
             id="textext-bd3a042f-0"
             overflow="visible"
             style="overflow:visible">
            <path
               id="path8764"
               d=""
               style="stroke:none" />
          </symbol>
          <symbol
             id="textext-bd3a042f-1"
             overflow="visible"
             style="overflow:visible">
            <path
               id="path8767"
               d="M 7.03125,-0.1875 C 6.59375,-0.21875 6.484375,-0.3125 6.140625,-1.0625 L 3.65625,-6.71875 L 3.453125,-6.71875 L 1.390625,-1.828125 C 0.75,-0.375 0.625,-0.203125 0.15625,-0.1875 L 0.15625,0 L 2.125,0 L 2.125,-0.1875 C 1.640625,-0.1875 1.453125,-0.3125 1.453125,-0.59375 C 1.453125,-0.71875 1.46875,-0.859375 1.53125,-0.984375 L 1.984375,-2.15625 L 4.59375,-2.15625 L 5,-1.203125 C 5.125,-0.921875 5.1875,-0.671875 5.1875,-0.53125 C 5.1875,-0.28125 5.03125,-0.203125 4.5,-0.1875 L 4.5,0 L 7.03125,0 L 7.03125,-0.1875 z M 2.15625,-2.5625 L 3.296875,-5.296875 L 4.453125,-2.5625 L 2.15625,-2.5625 z"
               style="stroke:none" />
          </symbol>
          <symbol
             id="textext-bd3a042f-2"
             overflow="visible"
             style="overflow:visible">
            <path
               id="path8770"
               d="M 1.53125,-6.78125 L 1.46875,-6.8125 C 1.0625,-6.65625 0.78125,-6.578125 0.3125,-6.453125 L 0.03125,-6.375 L 0.03125,-6.203125 C 0.09375,-6.21875 0.125,-6.21875 0.203125,-6.21875 C 0.59375,-6.21875 0.6875,-6.125 0.6875,-5.71875 L 0.6875,-0.53125 C 0.6875,-0.234375 1.53125,0.09375 2.328125,0.09375 C 3.65625,0.09375 4.671875,-1 4.671875,-2.421875 C 4.671875,-3.65625 3.90625,-4.578125 2.90625,-4.578125 C 2.296875,-4.578125 1.71875,-4.234375 1.53125,-3.734375 L 1.53125,-6.78125 z M 1.53125,-3.203125 C 1.53125,-3.59375 2,-3.953125 2.515625,-3.953125 C 3.296875,-3.953125 3.78125,-3.1875 3.78125,-1.96875 C 3.78125,-0.859375 3.3125,-0.21875 2.5,-0.21875 C 1.96875,-0.21875 1.53125,-0.453125 1.53125,-0.703125 L 1.53125,-3.203125 z"
               style="stroke:none" />
          </symbol>
          <symbol
             id="textext-bd3a042f-3"
             overflow="visible"
             style="overflow:visible">
            <path
               id="path8773"
               d="M 0.0625,-3.890625 C 0.203125,-3.921875 0.296875,-3.921875 0.421875,-3.921875 C 0.671875,-3.921875 0.75,-3.765625 0.75,-3.328125 L 0.75,-0.84375 C 0.75,-0.34375 0.6875,-0.265625 0.046875,-0.15625 L 0.046875,0 L 2.4375,0 L 2.4375,-0.15625 C 1.765625,-0.171875 1.59375,-0.328125 1.59375,-0.890625 L 1.59375,-3.140625 C 1.59375,-3.453125 2.03125,-3.953125 2.296875,-3.953125 C 2.359375,-3.953125 2.4375,-3.90625 2.546875,-3.8125 C 2.71875,-3.671875 2.828125,-3.609375 2.953125,-3.609375 C 3.1875,-3.609375 3.34375,-3.78125 3.34375,-4.0625 C 3.34375,-4.390625 3.125,-4.578125 2.796875,-4.578125 C 2.375,-4.578125 2.078125,-4.359375 1.59375,-3.65625 L 1.59375,-4.5625 L 1.546875,-4.578125 C 1.015625,-4.359375 0.65625,-4.234375 0.0625,-4.046875 L 0.0625,-3.890625 z"
               style="stroke:none" />
          </symbol>
          <symbol
             id="textext-bd3a042f-4"
             overflow="visible"
             style="overflow:visible">
            <path
               id="path8776"
               d="M 4.78125,-0.5 L 4.71875,-0.5 C 4.265625,-0.5 4.15625,-0.609375 4.15625,-1.0625 L 4.15625,-4.484375 L 2.578125,-4.484375 L 2.578125,-4.3125 C 3.203125,-4.28125 3.3125,-4.1875 3.3125,-3.6875 L 3.3125,-1.34375 C 3.3125,-1.0625 3.265625,-0.921875 3.125,-0.8125 C 2.859375,-0.59375 2.546875,-0.484375 2.25,-0.484375 C 1.859375,-0.484375 1.546875,-0.8125 1.546875,-1.234375 L 1.546875,-4.484375 L 0.09375,-4.484375 L 0.09375,-4.34375 C 0.5625,-4.3125 0.703125,-4.171875 0.703125,-3.703125 L 0.703125,-1.203125 C 0.703125,-0.40625 1.1875,0.09375 1.90625,0.09375 C 2.28125,0.09375 2.671875,-0.0625 2.9375,-0.328125 L 3.375,-0.75 L 3.375,0.0625 L 3.40625,0.09375 C 3.90625,-0.109375 4.265625,-0.21875 4.78125,-0.359375 L 4.78125,-0.5 z"
               style="stroke:none" />
          </symbol>
          <symbol
             id="textext-bd3a042f-5"
             overflow="visible"
             style="overflow:visible">
            <path
               id="path8779"
               d="M 0.09375,-3.921875 C 0.171875,-3.921875 0.25,-3.921875 0.34375,-3.921875 C 0.671875,-3.921875 0.75,-3.828125 0.75,-3.359375 L 0.75,1.3125 C 0.75,1.828125 0.640625,1.9375 0.046875,2 L 0.046875,2.15625 L 2.46875,2.15625 L 2.46875,1.984375 C 1.71875,1.96875 1.578125,1.859375 1.578125,1.234375 L 1.578125,-0.328125 C 1.9375,0 2.171875,0.09375 2.59375,0.09375 C 3.765625,0.09375 4.6875,-1.015625 4.6875,-2.46875 C 4.6875,-3.703125 3.984375,-4.578125 3.015625,-4.578125 C 2.46875,-4.578125 2.03125,-4.34375 1.578125,-3.796875 L 1.578125,-4.5625 L 1.53125,-4.578125 C 0.984375,-4.375 0.640625,-4.25 0.09375,-4.078125 L 0.09375,-3.921875 z M 1.578125,-3.328125 C 1.578125,-3.625 2.140625,-3.984375 2.609375,-3.984375 C 3.34375,-3.984375 3.828125,-3.234375 3.828125,-2.078125 C 3.828125,-0.96875 3.34375,-0.21875 2.625,-0.21875 C 2.15625,-0.21875 1.578125,-0.578125 1.578125,-0.875 L 1.578125,-3.328125 z"
               style="stroke:none" />
          </symbol>
          <symbol
             id="textext-bd3a042f-6"
             overflow="visible"
             style="overflow:visible">
            <path
               id="path8782"
               d="M 2.546875,-4.484375 L 1.53125,-4.484375 L 1.53125,-5.640625 C 1.53125,-5.734375 1.53125,-5.765625 1.46875,-5.765625 C 1.390625,-5.6875 1.328125,-5.59375 1.265625,-5.5 C 0.890625,-4.9375 0.453125,-4.46875 0.296875,-4.421875 C 0.1875,-4.359375 0.125,-4.28125 0.125,-4.234375 C 0.125,-4.203125 0.140625,-4.1875 0.171875,-4.171875 L 0.703125,-4.171875 L 0.703125,-1.171875 C 0.703125,-0.328125 1,0.09375 1.578125,0.09375 C 2.078125,0.09375 2.453125,-0.140625 2.78125,-0.65625 L 2.65625,-0.765625 C 2.4375,-0.515625 2.265625,-0.421875 2.046875,-0.421875 C 1.6875,-0.421875 1.53125,-0.6875 1.53125,-1.3125 L 1.53125,-4.171875 L 2.546875,-4.171875 L 2.546875,-4.484375 z"
               style="stroke:none" />
          </symbol>
          <symbol
             id="textext-bd3a042f-7"
             overflow="visible"
             style="overflow:visible">
            <path
               id="path8785"
               d="M 4.40625,-0.65625 C 4.234375,-0.515625 4.109375,-0.46875 3.96875,-0.46875 C 3.734375,-0.46875 3.671875,-0.609375 3.671875,-1.046875 L 3.671875,-2.984375 C 3.671875,-3.515625 3.625,-3.796875 3.46875,-4.03125 C 3.25,-4.390625 2.828125,-4.578125 2.234375,-4.578125 C 1.296875,-4.578125 0.5625,-4.09375 0.5625,-3.46875 C 0.5625,-3.234375 0.75,-3.046875 0.984375,-3.046875 C 1.21875,-3.046875 1.4375,-3.234375 1.4375,-3.453125 C 1.4375,-3.5 1.421875,-3.546875 1.421875,-3.625 C 1.390625,-3.703125 1.390625,-3.78125 1.390625,-3.859375 C 1.390625,-4.125 1.703125,-4.34375 2.109375,-4.34375 C 2.59375,-4.34375 2.859375,-4.0625 2.859375,-3.515625 L 2.859375,-2.90625 C 1.328125,-2.296875 1.15625,-2.21875 0.734375,-1.828125 C 0.515625,-1.640625 0.375,-1.296875 0.375,-0.96875 C 0.375,-0.34375 0.8125,0.09375 1.421875,0.09375 C 1.859375,0.09375 2.265625,-0.109375 2.875,-0.625 C 2.921875,-0.109375 3.09375,0.09375 3.515625,0.09375 C 3.84375,0.09375 4.0625,-0.015625 4.40625,-0.40625 L 4.40625,-0.65625 z M 2.859375,-1.21875 C 2.859375,-0.921875 2.8125,-0.828125 2.609375,-0.703125 C 2.359375,-0.5625 2.078125,-0.484375 1.875,-0.484375 C 1.53125,-0.484375 1.25,-0.8125 1.25,-1.25 L 1.25,-1.28125 C 1.25,-1.875 1.65625,-2.234375 2.859375,-2.671875 L 2.859375,-1.21875 z"
               style="stroke:none" />
          </symbol>
        </g>
      </defs>
      <g
         id="textext-bd3a042f-8">
        <g
           id="g8788"
           style="fill:#000000;fill-opacity:1">
          <use
             id="use8790"
             y="134.765"
             x="223.43201"
             xlink:href="#textext-bd3a042f-1"
             width="340.18661"
             height="53.034451" />
          <use
             id="use8792"
             y="134.765"
             x="230.625"
             xlink:href="#textext-bd3a042f-2"
             width="340.18661"
             height="53.034451" />
          <use
             id="use8794"
             y="134.765"
             x="235.60629"
             xlink:href="#textext-bd3a042f-3"
             width="340.18661"
             height="53.034451" />
          <use
             id="use8796"
             y="134.765"
             x="238.92384"
             xlink:href="#textext-bd3a042f-4"
             width="340.18661"
             height="53.034451" />
          <use
             id="use8798"
             y="134.765"
             x="243.90514"
             xlink:href="#textext-bd3a042f-5"
             width="340.18661"
             height="53.034451" />
          <use
             id="use8800"
             y="134.765"
             x="248.88644"
             xlink:href="#textext-bd3a042f-6"
             width="340.18661"
             height="53.034451" />
          <use
             id="use8802"
             y="134.765"
             x="251.65605"
             xlink:href="#textext-bd3a042f-7"
             width="340.18661"
             height="53.034451" />
        </g>
      </g>
    </g>
    <g
       ns0:text="Intermitente"
       ns0:preamble="/home/diogo/.inkscape/extensions/preambulo_inkscape.tex"
       transform="translate(167.87967,-29.442101)"
       id="g9318">
      <defs
         id="defs9320">
        <g
           id="g9322">
          <symbol
             overflow="visible"
             id="textext-d96f9404-0"
             style="overflow:visible">
            <path
               style="stroke:none"
               d=""
               id="path9325" />
          </symbol>
          <symbol
             overflow="visible"
             id="textext-d96f9404-1"
             style="overflow:visible">
            <path
               style="stroke:none"
               d="M 1.140625,-1.09375 C 1.140625,-0.34375 1.015625,-0.21875 0.171875,-0.1875 L 0.171875,0 L 3.140625,0 L 3.140625,-0.1875 C 2.328125,-0.21875 2.15625,-0.359375 2.15625,-1.09375 L 2.15625,-5.515625 C 2.15625,-6.234375 2.296875,-6.375 3.140625,-6.40625 L 3.140625,-6.59375 L 0.171875,-6.59375 L 0.171875,-6.40625 C 1.03125,-6.359375 1.140625,-6.25 1.140625,-5.515625 L 1.140625,-1.09375 z"
               id="path9328" />
          </symbol>
          <symbol
             overflow="visible"
             id="textext-d96f9404-2"
             style="overflow:visible">
            <path
               style="stroke:none"
               d="M 0.15625,-3.96875 C 0.21875,-4 0.3125,-4 0.421875,-4 C 0.703125,-4 0.796875,-3.859375 0.796875,-3.375 L 0.796875,-0.890625 C 0.796875,-0.328125 0.6875,-0.1875 0.171875,-0.15625 L 0.171875,0 L 2.296875,0 L 2.296875,-0.15625 C 1.78125,-0.1875 1.640625,-0.3125 1.640625,-0.671875 L 1.640625,-3.46875 C 2.109375,-3.921875 2.328125,-4.03125 2.65625,-4.03125 C 3.15625,-4.03125 3.390625,-3.734375 3.390625,-3.078125 L 3.390625,-0.984375 C 3.390625,-0.359375 3.265625,-0.1875 2.765625,-0.15625 L 2.765625,0 L 4.828125,0 L 4.828125,-0.15625 C 4.34375,-0.203125 4.234375,-0.3125 4.234375,-0.8125 L 4.234375,-3.09375 C 4.234375,-4.03125 3.78125,-4.578125 3.046875,-4.578125 C 2.59375,-4.578125 2.28125,-4.421875 1.609375,-3.78125 L 1.609375,-4.5625 L 1.53125,-4.578125 C 1.046875,-4.40625 0.703125,-4.296875 0.15625,-4.140625 L 0.15625,-3.96875 z"
               id="path9331" />
          </symbol>
          <symbol
             overflow="visible"
             id="textext-d96f9404-3"
             style="overflow:visible">
            <path
               style="stroke:none"
               d="M 2.546875,-4.484375 L 1.53125,-4.484375 L 1.53125,-5.640625 C 1.53125,-5.734375 1.53125,-5.765625 1.46875,-5.765625 C 1.390625,-5.6875 1.328125,-5.59375 1.265625,-5.5 C 0.890625,-4.9375 0.453125,-4.46875 0.296875,-4.421875 C 0.1875,-4.359375 0.125,-4.28125 0.125,-4.234375 C 0.125,-4.203125 0.140625,-4.1875 0.171875,-4.171875 L 0.703125,-4.171875 L 0.703125,-1.171875 C 0.703125,-0.328125 1,0.09375 1.578125,0.09375 C 2.078125,0.09375 2.453125,-0.140625 2.78125,-0.65625 L 2.65625,-0.765625 C 2.4375,-0.515625 2.265625,-0.421875 2.046875,-0.421875 C 1.6875,-0.421875 1.53125,-0.6875 1.53125,-1.3125 L 1.53125,-4.171875 L 2.546875,-4.171875 L 2.546875,-4.484375 z"
               id="path9334" />
          </symbol>
          <symbol
             overflow="visible"
             id="textext-d96f9404-4"
             style="overflow:visible">
            <path
               style="stroke:none"
               d="M 4.0625,-1.640625 C 3.59375,-0.875 3.15625,-0.59375 2.515625,-0.59375 C 1.953125,-0.59375 1.53125,-0.875 1.234375,-1.453125 C 1.0625,-1.828125 0.984375,-2.15625 0.96875,-2.765625 L 4.03125,-2.765625 C 3.953125,-3.40625 3.859375,-3.703125 3.609375,-4.015625 C 3.3125,-4.375 2.84375,-4.578125 2.328125,-4.578125 C 1.828125,-4.578125 1.359375,-4.40625 0.984375,-4.0625 C 0.515625,-3.65625 0.25,-2.953125 0.25,-2.140625 C 0.25,-0.75 0.96875,0.09375 2.109375,0.09375 C 3.0625,0.09375 3.8125,-0.484375 4.234375,-1.5625 L 4.0625,-1.640625 z M 0.984375,-3.078125 C 1.09375,-3.859375 1.4375,-4.234375 2.046875,-4.234375 C 2.65625,-4.234375 2.890625,-3.953125 3.015625,-3.078125 L 0.984375,-3.078125 z"
               id="path9337" />
          </symbol>
          <symbol
             overflow="visible"
             id="textext-d96f9404-5"
             style="overflow:visible">
            <path
               style="stroke:none"
               d="M 0.0625,-3.890625 C 0.203125,-3.921875 0.296875,-3.921875 0.421875,-3.921875 C 0.671875,-3.921875 0.75,-3.765625 0.75,-3.328125 L 0.75,-0.84375 C 0.75,-0.34375 0.6875,-0.265625 0.046875,-0.15625 L 0.046875,0 L 2.4375,0 L 2.4375,-0.15625 C 1.765625,-0.171875 1.59375,-0.328125 1.59375,-0.890625 L 1.59375,-3.140625 C 1.59375,-3.453125 2.03125,-3.953125 2.296875,-3.953125 C 2.359375,-3.953125 2.4375,-3.90625 2.546875,-3.8125 C 2.71875,-3.671875 2.828125,-3.609375 2.953125,-3.609375 C 3.1875,-3.609375 3.34375,-3.78125 3.34375,-4.0625 C 3.34375,-4.390625 3.125,-4.578125 2.796875,-4.578125 C 2.375,-4.578125 2.078125,-4.359375 1.59375,-3.65625 L 1.59375,-4.5625 L 1.546875,-4.578125 C 1.015625,-4.359375 0.65625,-4.234375 0.0625,-4.046875 L 0.0625,-3.890625 z"
               id="path9340" />
          </symbol>
          <symbol
             overflow="visible"
             id="textext-d96f9404-6"
             style="overflow:visible">
            <path
               style="stroke:none"
               d="M 0.1875,-3.96875 C 0.3125,-4 0.40625,-4 0.515625,-4 C 0.765625,-4 0.859375,-3.84375 0.859375,-3.375 L 0.859375,-0.84375 C 0.859375,-0.3125 0.71875,-0.15625 0.15625,-0.15625 L 0.15625,0 L 2.375,0 L 2.375,-0.15625 C 1.84375,-0.171875 1.6875,-0.28125 1.6875,-0.671875 L 1.6875,-3.484375 C 1.6875,-3.5 1.78125,-3.59375 1.84375,-3.671875 C 2.09375,-3.890625 2.515625,-4.0625 2.875,-4.0625 C 3.3125,-4.0625 3.53125,-3.71875 3.53125,-3.015625 L 3.53125,-0.859375 C 3.53125,-0.296875 3.421875,-0.1875 2.84375,-0.15625 L 2.84375,0 L 5.078125,0 L 5.078125,-0.15625 C 4.515625,-0.15625 4.359375,-0.328125 4.359375,-0.953125 L 4.359375,-3.453125 C 4.671875,-3.890625 5,-4.0625 5.453125,-4.0625 C 6.015625,-4.0625 6.203125,-3.796875 6.203125,-2.96875 L 6.203125,-0.875 C 6.203125,-0.296875 6.125,-0.21875 5.546875,-0.15625 L 5.546875,0 L 7.71875,0 L 7.71875,-0.15625 L 7.46875,-0.171875 C 7.171875,-0.1875 7.03125,-0.375 7.03125,-0.75 L 7.03125,-2.8125 C 7.03125,-3.984375 6.65625,-4.578125 5.875,-4.578125 C 5.296875,-4.578125 4.796875,-4.328125 4.25,-3.75 C 4.078125,-4.3125 3.734375,-4.578125 3.203125,-4.578125 C 2.765625,-4.578125 2.484375,-4.453125 1.65625,-3.8125 L 1.65625,-4.5625 L 1.578125,-4.578125 C 1.078125,-4.390625 0.734375,-4.28125 0.1875,-4.140625 L 0.1875,-3.96875 z"
               id="path9343" />
          </symbol>
          <symbol
             overflow="visible"
             id="textext-d96f9404-7"
             style="overflow:visible">
            <path
               style="stroke:none"
               d="M 1.75,-4.578125 L 0.203125,-4.03125 L 0.203125,-3.890625 L 0.28125,-3.890625 C 0.40625,-3.921875 0.53125,-3.921875 0.625,-3.921875 C 0.859375,-3.921875 0.953125,-3.765625 0.953125,-3.328125 L 0.953125,-1.015625 C 0.953125,-0.296875 0.84375,-0.1875 0.15625,-0.15625 L 0.15625,0 L 2.515625,0 L 2.515625,-0.15625 C 1.859375,-0.203125 1.78125,-0.296875 1.78125,-1.015625 L 1.78125,-4.5625 L 1.75,-4.578125 z M 1.28125,-6.8125 C 1,-6.8125 0.78125,-6.578125 0.78125,-6.296875 C 0.78125,-6.015625 1,-5.796875 1.28125,-5.796875 C 1.5625,-5.796875 1.796875,-6.015625 1.796875,-6.296875 C 1.796875,-6.578125 1.5625,-6.8125 1.28125,-6.8125 z"
               id="path9346" />
          </symbol>
        </g>
      </defs>
      <g
         id="textext-d96f9404-8">
        <g
           style="fill:#000000;fill-opacity:1"
           id="g9349">
          <use
             xlink:href="#textext-d96f9404-1"
             x="223.43201"
             y="134.765"
             id="use9351"
             width="340.18661"
             height="53.034451" />
          <use
             xlink:href="#textext-d96f9404-2"
             x="226.74954"
             y="134.765"
             id="use9353"
             width="340.18661"
             height="53.034451" />
          <use
             xlink:href="#textext-d96f9404-3"
             x="231.73085"
             y="134.765"
             id="use9355"
             width="340.18661"
             height="53.034451" />
          <use
             xlink:href="#textext-d96f9404-4"
             x="234.50044"
             y="134.765"
             id="use9357"
             width="340.18661"
             height="53.034451" />
          <use
             xlink:href="#textext-d96f9404-5"
             x="238.92384"
             y="134.765"
             id="use9359"
             width="340.18661"
             height="53.034451" />
          <use
             xlink:href="#textext-d96f9404-6"
             x="242.24139"
             y="134.765"
             id="use9361"
             width="340.18661"
             height="53.034451" />
          <use
             xlink:href="#textext-d96f9404-7"
             x="249.99229"
             y="134.765"
             id="use9363"
             width="340.18661"
             height="53.034451" />
          <use
             xlink:href="#textext-d96f9404-3"
             x="252.76189"
             y="134.765"
             id="use9365"
             width="340.18661"
             height="53.034451" />
          <use
             xlink:href="#textext-d96f9404-4"
             x="255.53149"
             y="134.765"
             id="use9367"
             width="340.18661"
             height="53.034451" />
          <use
             xlink:href="#textext-d96f9404-2"
             x="259.9549"
             y="134.765"
             id="use9369"
             width="340.18661"
             height="53.034451" />
          <use
             xlink:href="#textext-d96f9404-3"
             x="264.93619"
             y="134.765"
             id="use9371"
             width="340.18661"
             height="53.034451" />
          <use
             xlink:href="#textext-d96f9404-4"
             x="267.70578"
             y="134.765"
             id="use9373"
             width="340.18661"
             height="53.034451" />
        </g>
      </g>
    </g>
    <g
       id="g9843"
       transform="translate(49.323963,-30.473351)"
       ns0:preamble="/home/diogo/.inkscape/extensions/preambulo_inkscape.tex"
       ns0:text="Incipiente">
      <defs
         id="defs9845">
        <g
           id="g9847">
          <symbol
             id="textext-623a22c8-0"
             overflow="visible"
             style="overflow:visible">
            <path
               id="path9850"
               d=""
               style="stroke:none" />
          </symbol>
          <symbol
             id="textext-623a22c8-1"
             overflow="visible"
             style="overflow:visible">
            <path
               id="path9853"
               d="M 1.140625,-1.09375 C 1.140625,-0.34375 1.015625,-0.21875 0.171875,-0.1875 L 0.171875,0 L 3.140625,0 L 3.140625,-0.1875 C 2.328125,-0.21875 2.15625,-0.359375 2.15625,-1.09375 L 2.15625,-5.515625 C 2.15625,-6.234375 2.296875,-6.375 3.140625,-6.40625 L 3.140625,-6.59375 L 0.171875,-6.59375 L 0.171875,-6.40625 C 1.03125,-6.359375 1.140625,-6.25 1.140625,-5.515625 L 1.140625,-1.09375 z"
               style="stroke:none" />
          </symbol>
          <symbol
             id="textext-623a22c8-2"
             overflow="visible"
             style="overflow:visible">
            <path
               id="path9856"
               d="M 0.15625,-3.96875 C 0.21875,-4 0.3125,-4 0.421875,-4 C 0.703125,-4 0.796875,-3.859375 0.796875,-3.375 L 0.796875,-0.890625 C 0.796875,-0.328125 0.6875,-0.1875 0.171875,-0.15625 L 0.171875,0 L 2.296875,0 L 2.296875,-0.15625 C 1.78125,-0.1875 1.640625,-0.3125 1.640625,-0.671875 L 1.640625,-3.46875 C 2.109375,-3.921875 2.328125,-4.03125 2.65625,-4.03125 C 3.15625,-4.03125 3.390625,-3.734375 3.390625,-3.078125 L 3.390625,-0.984375 C 3.390625,-0.359375 3.265625,-0.1875 2.765625,-0.15625 L 2.765625,0 L 4.828125,0 L 4.828125,-0.15625 C 4.34375,-0.203125 4.234375,-0.3125 4.234375,-0.8125 L 4.234375,-3.09375 C 4.234375,-4.03125 3.78125,-4.578125 3.046875,-4.578125 C 2.59375,-4.578125 2.28125,-4.421875 1.609375,-3.78125 L 1.609375,-4.5625 L 1.53125,-4.578125 C 1.046875,-4.40625 0.703125,-4.296875 0.15625,-4.140625 L 0.15625,-3.96875 z"
               style="stroke:none" />
          </symbol>
          <symbol
             id="textext-623a22c8-3"
             overflow="visible"
             style="overflow:visible">
            <path
               id="path9859"
               d="M 3.96875,-1.5625 C 3.484375,-0.859375 3.125,-0.625 2.5625,-0.625 C 1.65625,-0.625 1.015625,-1.421875 1.015625,-2.5625 C 1.015625,-3.59375 1.5625,-4.296875 2.375,-4.296875 C 2.734375,-4.296875 2.859375,-4.1875 2.953125,-3.8125 L 3.015625,-3.59375 C 3.09375,-3.3125 3.28125,-3.140625 3.484375,-3.140625 C 3.75,-3.140625 3.96875,-3.328125 3.96875,-3.5625 C 3.96875,-4.109375 3.265625,-4.578125 2.4375,-4.578125 C 1.9375,-4.578125 1.4375,-4.390625 1.03125,-4.03125 C 0.53125,-3.59375 0.25,-2.90625 0.25,-2.125 C 0.25,-0.828125 1.03125,0.09375 2.140625,0.09375 C 2.59375,0.09375 2.984375,-0.0625 3.34375,-0.375 C 3.625,-0.609375 3.8125,-0.875 4.109375,-1.46875 L 3.96875,-1.5625 z"
               style="stroke:none" />
          </symbol>
          <symbol
             id="textext-623a22c8-4"
             overflow="visible"
             style="overflow:visible">
            <path
               id="path9862"
               d="M 1.75,-4.578125 L 0.203125,-4.03125 L 0.203125,-3.890625 L 0.28125,-3.890625 C 0.40625,-3.921875 0.53125,-3.921875 0.625,-3.921875 C 0.859375,-3.921875 0.953125,-3.765625 0.953125,-3.328125 L 0.953125,-1.015625 C 0.953125,-0.296875 0.84375,-0.1875 0.15625,-0.15625 L 0.15625,0 L 2.515625,0 L 2.515625,-0.15625 C 1.859375,-0.203125 1.78125,-0.296875 1.78125,-1.015625 L 1.78125,-4.5625 L 1.75,-4.578125 z M 1.28125,-6.8125 C 1,-6.8125 0.78125,-6.578125 0.78125,-6.296875 C 0.78125,-6.015625 1,-5.796875 1.28125,-5.796875 C 1.5625,-5.796875 1.796875,-6.015625 1.796875,-6.296875 C 1.796875,-6.578125 1.5625,-6.8125 1.28125,-6.8125 z"
               style="stroke:none" />
          </symbol>
          <symbol
             id="textext-623a22c8-5"
             overflow="visible"
             style="overflow:visible">
            <path
               id="path9865"
               d="M 0.09375,-3.921875 C 0.171875,-3.921875 0.25,-3.921875 0.34375,-3.921875 C 0.671875,-3.921875 0.75,-3.828125 0.75,-3.359375 L 0.75,1.3125 C 0.75,1.828125 0.640625,1.9375 0.046875,2 L 0.046875,2.15625 L 2.46875,2.15625 L 2.46875,1.984375 C 1.71875,1.96875 1.578125,1.859375 1.578125,1.234375 L 1.578125,-0.328125 C 1.9375,0 2.171875,0.09375 2.59375,0.09375 C 3.765625,0.09375 4.6875,-1.015625 4.6875,-2.46875 C 4.6875,-3.703125 3.984375,-4.578125 3.015625,-4.578125 C 2.46875,-4.578125 2.03125,-4.34375 1.578125,-3.796875 L 1.578125,-4.5625 L 1.53125,-4.578125 C 0.984375,-4.375 0.640625,-4.25 0.09375,-4.078125 L 0.09375,-3.921875 z M 1.578125,-3.328125 C 1.578125,-3.625 2.140625,-3.984375 2.609375,-3.984375 C 3.34375,-3.984375 3.828125,-3.234375 3.828125,-2.078125 C 3.828125,-0.96875 3.34375,-0.21875 2.625,-0.21875 C 2.15625,-0.21875 1.578125,-0.578125 1.578125,-0.875 L 1.578125,-3.328125 z"
               style="stroke:none" />
          </symbol>
          <symbol
             id="textext-623a22c8-6"
             overflow="visible"
             style="overflow:visible">
            <path
               id="path9868"
               d="M 4.0625,-1.640625 C 3.59375,-0.875 3.15625,-0.59375 2.515625,-0.59375 C 1.953125,-0.59375 1.53125,-0.875 1.234375,-1.453125 C 1.0625,-1.828125 0.984375,-2.15625 0.96875,-2.765625 L 4.03125,-2.765625 C 3.953125,-3.40625 3.859375,-3.703125 3.609375,-4.015625 C 3.3125,-4.375 2.84375,-4.578125 2.328125,-4.578125 C 1.828125,-4.578125 1.359375,-4.40625 0.984375,-4.0625 C 0.515625,-3.65625 0.25,-2.953125 0.25,-2.140625 C 0.25,-0.75 0.96875,0.09375 2.109375,0.09375 C 3.0625,0.09375 3.8125,-0.484375 4.234375,-1.5625 L 4.0625,-1.640625 z M 0.984375,-3.078125 C 1.09375,-3.859375 1.4375,-4.234375 2.046875,-4.234375 C 2.65625,-4.234375 2.890625,-3.953125 3.015625,-3.078125 L 0.984375,-3.078125 z"
               style="stroke:none" />
          </symbol>
          <symbol
             id="textext-623a22c8-7"
             overflow="visible"
             style="overflow:visible">
            <path
               id="path9871"
               d="M 2.546875,-4.484375 L 1.53125,-4.484375 L 1.53125,-5.640625 C 1.53125,-5.734375 1.53125,-5.765625 1.46875,-5.765625 C 1.390625,-5.6875 1.328125,-5.59375 1.265625,-5.5 C 0.890625,-4.9375 0.453125,-4.46875 0.296875,-4.421875 C 0.1875,-4.359375 0.125,-4.28125 0.125,-4.234375 C 0.125,-4.203125 0.140625,-4.1875 0.171875,-4.171875 L 0.703125,-4.171875 L 0.703125,-1.171875 C 0.703125,-0.328125 1,0.09375 1.578125,0.09375 C 2.078125,0.09375 2.453125,-0.140625 2.78125,-0.65625 L 2.65625,-0.765625 C 2.4375,-0.515625 2.265625,-0.421875 2.046875,-0.421875 C 1.6875,-0.421875 1.53125,-0.6875 1.53125,-1.3125 L 1.53125,-4.171875 L 2.546875,-4.171875 L 2.546875,-4.484375 z"
               style="stroke:none" />
          </symbol>
        </g>
      </defs>
      <g
         id="textext-623a22c8-8">
        <g
           id="g9874"
           style="fill:#000000;fill-opacity:1">
          <use
             id="use9876"
             y="134.765"
             x="223.43201"
             xlink:href="#textext-623a22c8-1"
             width="340.18661"
             height="53.034451" />
          <use
             id="use9878"
             y="134.765"
             x="226.74954"
             xlink:href="#textext-623a22c8-2"
             width="340.18661"
             height="53.034451" />
          <use
             id="use9880"
             y="134.765"
             x="231.73085"
             xlink:href="#textext-623a22c8-3"
             width="340.18661"
             height="53.034451" />
          <use
             id="use9882"
             y="134.765"
             x="236.15424"
             xlink:href="#textext-623a22c8-4"
             width="340.18661"
             height="53.034451" />
          <use
             id="use9884"
             y="134.765"
             x="238.92384"
             xlink:href="#textext-623a22c8-5"
             width="340.18661"
             height="53.034451" />
          <use
             id="use9886"
             y="134.765"
             x="243.90514"
             xlink:href="#textext-623a22c8-4"
             width="340.18661"
             height="53.034451" />
          <use
             id="use9888"
             y="134.765"
             x="246.67474"
             xlink:href="#textext-623a22c8-6"
             width="340.18661"
             height="53.034451" />
          <use
             id="use9890"
             y="134.765"
             x="251.09814"
             xlink:href="#textext-623a22c8-2"
             width="340.18661"
             height="53.034451" />
          <use
             id="use9892"
             y="134.765"
             x="256.07944"
             xlink:href="#textext-623a22c8-7"
             width="340.18661"
             height="53.034451" />
          <use
             id="use9894"
             y="134.765"
             x="258.84903"
             xlink:href="#textext-623a22c8-6"
             width="340.18661"
             height="53.034451" />
        </g>
      </g>
    </g>
  </g>
</svg>
