<?xml version="1.0" encoding="UTF-8" standalone="no"?>
<!-- Created with Inkscape (http://www.inkscape.org/) -->

<svg
   xmlns:ns0="http://www.iki.fi/pav/software/textext/"
   xmlns:dc="http://purl.org/dc/elements/1.1/"
   xmlns:cc="http://creativecommons.org/ns#"
   xmlns:rdf="http://www.w3.org/1999/02/22-rdf-syntax-ns#"
   xmlns:svg="http://www.w3.org/2000/svg"
   xmlns="http://www.w3.org/2000/svg"
   xmlns:xlink="http://www.w3.org/1999/xlink"
   xmlns:sodipodi="http://sodipodi.sourceforge.net/DTD/sodipodi-0.dtd"
   xmlns:inkscape="http://www.inkscape.org/namespaces/inkscape"
   width="177.51636"
   height="133.5"
   id="svg6262"
   version="1.1"
   inkscape:version="0.48.0 r9654"
   sodipodi:docname="detec_prop_1.svg">
  <sodipodi:namedview
     id="base"
     pagecolor="#ffffff"
     bordercolor="#666666"
     borderopacity="1.0"
     inkscape:pageopacity="0.0"
     inkscape:pageshadow="2"
     inkscape:zoom="3.8200247"
     inkscape:cx="54.596093"
     inkscape:cy="66.758102"
     inkscape:document-units="px"
     inkscape:current-layer="layer1"
     showgrid="false"
     inkscape:window-width="1280"
     inkscape:window-height="725"
     inkscape:window-x="0"
     inkscape:window-y="25"
     inkscape:window-maximized="1"
     fit-margin-top="0"
     fit-margin-left="0"
     fit-margin-right="0"
     fit-margin-bottom="0" />
  <defs
     id="defs6264">
    <marker
       style="overflow:visible"
       id="Arrow1Mend"
       refX="0"
       refY="0"
       orient="auto"
       inkscape:stockid="Arrow1Mend">
      <path
         inkscape:connector-curvature="0"
         transform="matrix(-0.4,0,0,-0.4,-4,0)"
         style="fill-rule:evenodd;stroke:#000000;stroke-width:1pt;marker-start:none"
         d="M 0,0 5,-5 -12.5,0 5,5 0,0 z"
         id="path3169" />
    </marker>
    <marker
       style="overflow:visible"
       id="marker5963"
       refX="0"
       refY="0"
       orient="auto"
       inkscape:stockid="Arrow1Mend">
      <path
         inkscape:connector-curvature="0"
         transform="matrix(-0.4,0,0,-0.4,-4,0)"
         style="fill-rule:evenodd;stroke:#000000;stroke-width:1pt;marker-start:none"
         d="M 0,0 5,-5 -12.5,0 5,5 0,0 z"
         id="path5965" />
    </marker>
    <marker
       style="overflow:visible"
       id="marker5967"
       refX="0"
       refY="0"
       orient="auto"
       inkscape:stockid="Arrow1Mend">
      <path
         inkscape:connector-curvature="0"
         transform="matrix(-0.4,0,0,-0.4,-4,0)"
         style="fill-rule:evenodd;stroke:#000000;stroke-width:1pt;marker-start:none"
         d="M 0,0 5,-5 -12.5,0 5,5 0,0 z"
         id="path5969" />
    </marker>
    <marker
       style="overflow:visible"
       id="marker5971"
       refX="0"
       refY="0"
       orient="auto"
       inkscape:stockid="Arrow1Mend">
      <path
         inkscape:connector-curvature="0"
         transform="matrix(-0.4,0,0,-0.4,-4,0)"
         style="fill-rule:evenodd;stroke:#000000;stroke-width:1pt;marker-start:none"
         d="M 0,0 5,-5 -12.5,0 5,5 0,0 z"
         id="path5973" />
    </marker>
    <marker
       style="overflow:visible"
       id="marker5975"
       refX="0"
       refY="0"
       orient="auto"
       inkscape:stockid="Arrow1Mend">
      <path
         inkscape:connector-curvature="0"
         transform="matrix(-0.4,0,0,-0.4,-4,0)"
         style="fill-rule:evenodd;stroke:#000000;stroke-width:1pt;marker-start:none"
         d="M 0,0 5,-5 -12.5,0 5,5 0,0 z"
         id="path5977" />
    </marker>
    <marker
       style="overflow:visible"
       id="marker5979"
       refX="0"
       refY="0"
       orient="auto"
       inkscape:stockid="Arrow1Mend">
      <path
         inkscape:connector-curvature="0"
         transform="matrix(-0.4,0,0,-0.4,-4,0)"
         style="fill-rule:evenodd;stroke:#000000;stroke-width:1pt;marker-start:none"
         d="M 0,0 5,-5 -12.5,0 5,5 0,0 z"
         id="path5981" />
    </marker>
    <marker
       style="overflow:visible"
       id="Arrow1Mend-8"
       refX="0"
       refY="0"
       orient="auto"
       inkscape:stockid="Arrow1Mend">
      <path
         inkscape:connector-curvature="0"
         transform="matrix(-0.4,0,0,-0.4,-4,0)"
         style="fill-rule:evenodd;stroke:#000000;stroke-width:1pt;marker-start:none"
         d="M 0,0 5,-5 -12.5,0 5,5 0,0 z"
         id="path3169-6" />
    </marker>
    <marker
       style="overflow:visible"
       id="marker7031"
       refX="0"
       refY="0"
       orient="auto"
       inkscape:stockid="Arrow1Mend">
      <path
         inkscape:connector-curvature="0"
         transform="matrix(-0.4,0,0,-0.4,-4,0)"
         style="fill-rule:evenodd;stroke:#000000;stroke-width:1pt;marker-start:none"
         d="M 0,0 5,-5 -12.5,0 5,5 0,0 z"
         id="path7033" />
    </marker>
    <marker
       style="overflow:visible"
       id="Arrow1Mend-6"
       refX="0"
       refY="0"
       orient="auto"
       inkscape:stockid="Arrow1Mend">
      <path
         inkscape:connector-curvature="0"
         transform="matrix(-0.4,0,0,-0.4,-4,0)"
         style="fill-rule:evenodd;stroke:#000000;stroke-width:1pt;marker-start:none"
         d="M 0,0 5,-5 -12.5,0 5,5 0,0 z"
         id="path3169-4" />
    </marker>
  </defs>
  <metadata
     id="metadata6267">
    <rdf:RDF>
      <cc:Work
         rdf:about="">
        <dc:format>image/svg+xml</dc:format>
        <dc:type
           rdf:resource="http://purl.org/dc/dcmitype/StillImage" />
        <dc:title />
      </cc:Work>
    </rdf:RDF>
  </metadata>
  <g
     inkscape:label="Camada 1"
     inkscape:groupmode="layer"
     id="layer1"
     transform="translate(-251.64188,-490.09375)">
    <rect
       style="fill:#e6e6e6;fill-opacity:1;stroke:#000000;stroke-width:1;stroke-linecap:square;stroke-linejoin:miter;stroke-miterlimit:4;stroke-opacity:1;stroke-dasharray:none;stroke-dashoffset:0"
       id="rect5121"
       width="52.027954"
       height="132.50699"
       x="324.03244"
       y="490.58215"
       ry="10.773463"
       rx="10.773463" />
    <g
       ns0:text="\\Large\nRNA"
       ns0:preamble="/home/diogo/.inkscape/extensions/preambulo_inkscape.tex"
       transform="translate(111.71454,426.82846)"
       id="g6088">
      <defs
         id="defs6090">
        <g
           id="g6092">
          <symbol
             style="overflow:visible"
             overflow="visible"
             id="textext-d2d8c4a5-0">
            <path
               inkscape:connector-curvature="0"
               style="stroke:none"
               d=""
               id="path6095" />
          </symbol>
          <symbol
             style="overflow:visible"
             overflow="visible"
             id="textext-d2d8c4a5-1">
            <path
               inkscape:connector-curvature="0"
               style="stroke:none"
               d="M 9.453125,-0.265625 C 8.90625,-0.3125 8.625,-0.453125 8.203125,-0.953125 L 5.25,-4.578125 c 0.953125,-0.1875 1.390625,-0.359375 1.859375,-0.75 0.46875,-0.359375 0.734375,-0.96875 0.734375,-1.640625 0,-0.625 -0.1875,-1.15625 -0.5625,-1.5625 C 6.734375,-9.125 5.546875,-9.5 4.203125,-9.5 l -3.953125,0 0,0.28125 c 1.0625,0.109375 1.21875,0.265625 1.21875,1.28125 l 0,6.21875 c 0,1.1875 -0.15625,1.359375 -1.21875,1.453125 L 0.25,0 l 3.96875,0 0,-0.265625 C 3.109375,-0.34375 2.921875,-0.53125 2.921875,-1.5625 l 0,-2.828125 0.8125,-0.03125 L 7.140625,0 l 2.3125,0 0,-0.265625 z m -6.53125,-8.1875 c 0,-0.390625 0.15625,-0.515625 0.734375,-0.515625 1.796875,0 2.625,0.625 2.625,1.96875 0,0.71875 -0.296875,1.3125 -0.8125,1.59375 -0.65625,0.375 -1.171875,0.453125 -2.546875,0.484375 l 0,-3.53125 z"
               id="path6098" />
          </symbol>
          <symbol
             style="overflow:visible"
             overflow="visible"
             id="textext-d2d8c4a5-2">
            <path
               inkscape:connector-curvature="0"
               style="stroke:none"
               d="m 8.78125,0.15625 0,-7.546875 c 0,-0.859375 0.140625,-1.390625 0.40625,-1.578125 0.203125,-0.140625 0.40625,-0.203125 0.953125,-0.25 l 0,-0.28125 -3.375,0 0,0.28125 C 7.3125,-9.1875 7.515625,-9.125 7.734375,-9 c 0.28125,0.203125 0.40625,0.71875 0.40625,1.609375 l 0,4.84375 L 2.625,-9.5 l -2.453125,0 0,0.28125 c 0.609375,0 0.8125,0.109375 1.390625,0.78125 l 0,6.328125 c 0,1.484375 -0.203125,1.75 -1.390625,1.84375 l 0,0.265625 3.375,0 0,-0.265625 C 2.4375,-0.328125 2.1875,-0.65625 2.1875,-2.109375 l 0,-5.625 6.34375,7.890625 0.25,0 z"
               id="path6101" />
          </symbol>
          <symbol
             style="overflow:visible"
             overflow="visible"
             id="textext-d2d8c4a5-3">
            <path
               inkscape:connector-curvature="0"
               style="stroke:none"
               d="m 10.125,-0.265625 c -0.640625,-0.046875 -0.78125,-0.1875 -1.296875,-1.25 l -3.5625,-8.15625 -0.28125,0 L 2,-2.625 c -0.921875,2.09375 -1.09375,2.328125 -1.78125,2.359375 l 0,0.265625 2.84375,0 0,-0.265625 c -0.703125,0 -0.984375,-0.1875 -0.984375,-0.59375 0,-0.171875 0.046875,-0.375 0.109375,-0.5625 l 0.671875,-1.671875 3.75,0 0.59375,1.375 c 0.171875,0.390625 0.265625,0.75 0.265625,0.953125 0,0.359375 -0.234375,0.484375 -1,0.5 l 0,0.265625 3.65625,0 0,-0.265625 z M 3.09375,-3.6875 4.75,-7.625 l 1.65625,3.9375 -3.3125,0 z"
               id="path6104" />
          </symbol>
        </g>
      </defs>
      <g
         id="textext-d2d8c4a5-4">
        <g
           style="fill:#000000;fill-opacity:1"
           id="g6107">
          <use
             height="100.69223"
             width="204.60754"
             xlink:href="#textext-d2d8c4a5-1"
             x="223.43201"
             y="134.765"
             id="use6109" />
          <use
             height="100.69223"
             width="204.60754"
             xlink:href="#textext-d2d8c4a5-2"
             x="233.00092"
             y="134.765"
             id="use6111" />
        </g>
        <g
           style="fill:#000000;fill-opacity:1"
           id="g6113">
          <use
             height="100.69223"
             width="204.60754"
             xlink:href="#textext-d2d8c4a5-3"
             x="242.85675"
             y="134.765"
             id="use6115" />
        </g>
      </g>
    </g>
    <path
       inkscape:connector-curvature="0"
       sodipodi:nodetypes="cc"
       id="path3955"
       d="m 295.17868,525.17662 27.17344,0"
       style="fill:none;stroke:#000000;stroke-width:0.5;stroke-linecap:butt;stroke-linejoin:miter;stroke-opacity:1;marker-end:url(#Arrow1Mend)" />
    <path
       inkscape:connector-curvature="0"
       sodipodi:nodetypes="cc"
       id="path6916"
       d="m 295.17868,504.0706 27.17344,0"
       style="fill:none;stroke:#000000;stroke-width:0.5;stroke-linecap:butt;stroke-linejoin:miter;stroke-opacity:1;marker-end:url(#Arrow1Mend)" />
    <path
       inkscape:connector-curvature="0"
       sodipodi:nodetypes="cc"
       id="path6920"
       d="m 295.17868,567.38866 27.17344,0"
       style="fill:none;stroke:#000000;stroke-width:0.5;stroke-linecap:butt;stroke-linejoin:miter;stroke-opacity:1;marker-end:url(#Arrow1Mend)" />
    <path
       inkscape:connector-curvature="0"
       sodipodi:nodetypes="cc"
       id="path6950"
       d="m 295.17868,546.28264 27.17344,0"
       style="fill:none;stroke:#000000;stroke-width:0.5;stroke-linecap:butt;stroke-linejoin:miter;stroke-opacity:1;marker-end:url(#Arrow1Mend)" />
    <g
       ns0:text="$L_1(k-1)$"
       ns0:preamble="/home/diogo/.inkscape/extensions/preambulo_inkscape.tex"
       transform="translate(31.549881,371.79779)"
       id="g8207">
      <defs
         id="defs8209">
        <g
           id="g8211">
          <symbol
             style="overflow:visible"
             overflow="visible"
             id="textext-2003f492-0">
            <path
               inkscape:connector-curvature="0"
               style="stroke:none"
               d=""
               id="path8214" />
          </symbol>
          <symbol
             style="overflow:visible"
             overflow="visible"
             id="textext-2003f492-1">
            <path
               inkscape:connector-curvature="0"
               style="stroke:none"
               d="m 4.015625,-6.515625 -2.71875,0 0,0.171875 c 0.609375,0.046875 0.765625,0.140625 0.765625,0.421875 0,0.140625 -0.03125,0.375 -0.109375,0.625 l -1.21875,4.40625 c -0.1875,0.578125 -0.25,0.625 -0.8125,0.734375 L -0.078125,0 5,0 5.578125,-1.78125 5.375,-1.84375 c -0.34375,0.71875 -0.625,1.03125 -1.0625,1.25 -0.34375,0.171875 -0.75,0.234375 -1.625,0.234375 -0.75,0 -1,-0.078125 -1,-0.34375 0,-0.0625 0.046875,-0.296875 0.09375,-0.5 l 1.234375,-4.40625 c 0.140625,-0.515625 0.40625,-0.703125 1,-0.734375 l 0,-0.171875 z m 0,0"
               id="path8217" />
          </symbol>
          <symbol
             style="overflow:visible"
             overflow="visible"
             id="textext-2003f492-2">
            <path
               inkscape:connector-curvature="0"
               style="stroke:none"
               d="m 4.125,-1.09375 -0.140625,0.265625 c -0.1875,0.3125 -0.3125,0.421875 -0.453125,0.421875 -0.21875,0 -0.421875,-0.328125 -0.8125,-1.28125 C 2.671875,-1.828125 2.515625,-2.1875 2.359375,-2.578125 3.8125,-3.875 4.125,-4.078125 4.59375,-4.109375 l 0,-0.15625 -1.828125,0 0,0.15625 0.171875,0 c 0.25,0 0.375,0.078125 0.375,0.1875 0,0.1875 -0.484375,0.6875 -1.421875,1.390625 -0.140625,0.109375 -0.25,0.203125 -0.421875,0.328125 l 1.1875,-4.5625 L 2.609375,-6.8125 C 2.03125,-6.671875 1.640625,-6.609375 1.0625,-6.546875 l 0,0.171875 c 0.46875,-0.015625 0.65625,0.0625 0.671875,0.25 -0.015625,0.15625 -0.09375,0.4375 -0.21875,0.890625 -0.046875,0.140625 -0.0625,0.25 -0.09375,0.328125 L 1.40625,-4.8125 0.140625,0 l 0.75,0 0.46875,-1.796875 0.421875,-0.3125 c 0.15625,0.4375 0.421875,1.046875 0.59375,1.40625 0.328125,0.625 0.5,0.8125 0.796875,0.8125 0.390625,0 0.65625,-0.25 1.109375,-1.09375 L 4.125,-1.09375 z m 0,0"
               id="path8220" />
          </symbol>
          <symbol
             style="overflow:visible"
             overflow="visible"
             id="textext-2003f492-3">
            <path
               inkscape:connector-curvature="0"
               style="stroke:none"
               d=""
               id="path8223" />
          </symbol>
          <symbol
             style="overflow:visible"
             overflow="visible"
             id="textext-2003f492-4">
            <path
               inkscape:connector-curvature="0"
               style="stroke:none"
               d="M 2.140625,-4.984375 0.8125,-4.3125 l 0,0.09375 C 0.90625,-4.25 0.984375,-4.28125 1.015625,-4.296875 1.15625,-4.34375 1.28125,-4.375 1.34375,-4.375 c 0.15625,0 0.234375,0.109375 0.234375,0.34375 l 0,3.34375 c 0,0.25 -0.0625,0.421875 -0.1875,0.484375 C 1.28125,-0.140625 1.1875,-0.125 0.875,-0.109375 L 0.875,0 l 2.03125,0 0,-0.109375 C 2.328125,-0.125 2.203125,-0.1875 2.203125,-0.546875 l 0,-4.421875 -0.0625,-0.015625 z m 0,0"
               id="path8226" />
          </symbol>
          <symbol
             style="overflow:visible"
             overflow="visible"
             id="textext-2003f492-5">
            <path
               inkscape:connector-curvature="0"
               style="stroke:none"
               d=""
               id="path8229" />
          </symbol>
          <symbol
             style="overflow:visible"
             overflow="visible"
             id="textext-2003f492-6">
            <path
               inkscape:connector-curvature="0"
               style="stroke:none"
               d="m 3.296875,2.390625 c 0,-0.03125 0,-0.046875 -0.171875,-0.21875 C 1.890625,0.921875 1.5625,-0.96875 1.5625,-2.5 c 0,-1.734375 0.375,-3.46875 1.609375,-4.703125 0.125,-0.125 0.125,-0.140625 0.125,-0.171875 0,-0.078125 -0.03125,-0.109375 -0.09375,-0.109375 -0.109375,0 -1,0.6875 -1.59375,1.953125 -0.5,1.09375 -0.625,2.203125 -0.625,3.03125 0,0.78125 0.109375,1.984375 0.65625,3.125 C 2.25,1.84375 3.09375,2.5 3.203125,2.5 c 0.0625,0 0.09375,-0.03125 0.09375,-0.109375 z m 0,0"
               id="path8232" />
          </symbol>
          <symbol
             style="overflow:visible"
             overflow="visible"
             id="textext-2003f492-7">
            <path
               inkscape:connector-curvature="0"
               style="stroke:none"
               d="m 2.875,-2.5 c 0,-0.765625 -0.109375,-1.96875 -0.65625,-3.109375 -0.59375,-1.21875 -1.453125,-1.875 -1.546875,-1.875 -0.0625,0 -0.109375,0.046875 -0.109375,0.109375 0,0.03125 0,0.046875 0.1875,0.234375 0.984375,0.984375 1.546875,2.5625 1.546875,4.640625 0,1.71875 -0.359375,3.46875 -1.59375,4.71875 C 0.5625,2.34375 0.5625,2.359375 0.5625,2.390625 0.5625,2.453125 0.609375,2.5 0.671875,2.5 0.765625,2.5 1.671875,1.8125 2.25,0.546875 2.765625,-0.546875 2.875,-1.65625 2.875,-2.5 z m 0,0"
               id="path8235" />
          </symbol>
          <symbol
             style="overflow:visible"
             overflow="visible"
             id="textext-2003f492-8">
            <path
               inkscape:connector-curvature="0"
               style="stroke:none"
               d=""
               id="path8238" />
          </symbol>
          <symbol
             style="overflow:visible"
             overflow="visible"
             id="textext-2003f492-9">
            <path
               inkscape:connector-curvature="0"
               style="stroke:none"
               d="m 6.5625,-2.296875 c 0.171875,0 0.359375,0 0.359375,-0.203125 0,-0.1875 -0.1875,-0.1875 -0.359375,-0.1875 l -5.390625,0 c -0.171875,0 -0.34375,0 -0.34375,0.1875 0,0.203125 0.171875,0.203125 0.34375,0.203125 l 5.390625,0 z m 0,0"
               id="path8241" />
          </symbol>
          <symbol
             style="overflow:visible"
             overflow="visible"
             id="textext-2003f492-10">
            <path
               inkscape:connector-curvature="0"
               style="stroke:none"
               d=""
               id="path8244" />
          </symbol>
          <symbol
             style="overflow:visible"
             overflow="visible"
             id="textext-2003f492-11">
            <path
               inkscape:connector-curvature="0"
               style="stroke:none"
               d="m 2.90625,-6.734375 -1.796875,0.90625 0,0.140625 C 1.21875,-5.734375 1.328125,-5.78125 1.375,-5.796875 1.5625,-5.875 1.71875,-5.90625 1.828125,-5.90625 2.03125,-5.90625 2.125,-5.765625 2.125,-5.4375 l 0,4.515625 c 0,0.328125 -0.078125,0.546875 -0.234375,0.640625 -0.15625,0.09375 -0.296875,0.125 -0.71875,0.125 l 0,0.15625 2.75,0 0,-0.15625 c -0.78125,0 -0.9375,-0.109375 -0.9375,-0.578125 l 0,-5.984375 -0.078125,-0.015625 z m 0,0"
               id="path8247" />
          </symbol>
        </g>
      </defs>
      <g
         id="textext-2003f492-12">
        <g
           style="fill:#000000;fill-opacity:1"
           id="g8250">
          <use
             height="1052.3622"
             width="744.09448"
             xlink:href="#textext-2003f492-1"
             x="223.43201"
             y="134.765"
             id="use8252" />
        </g>
        <g
           style="fill:#000000;fill-opacity:1"
           id="g8254">
          <use
             height="1052.3622"
             width="744.09448"
             xlink:href="#textext-2003f492-4"
             x="228.97099"
             y="136.259"
             id="use8256" />
        </g>
        <g
           style="fill:#000000;fill-opacity:1"
           id="g8258">
          <use
             height="1052.3622"
             width="744.09448"
             xlink:href="#textext-2003f492-6"
             x="233.15601"
             y="134.765"
             id="use8260" />
        </g>
        <g
           style="fill:#000000;fill-opacity:1"
           id="g8262">
          <use
             height="1052.3622"
             width="744.09448"
             xlink:href="#textext-2003f492-2"
             x="237.021"
             y="134.765"
             id="use8264" />
        </g>
        <g
           style="fill:#000000;fill-opacity:1"
           id="g8266">
          <use
             height="1052.3622"
             width="744.09448"
             xlink:href="#textext-2003f492-9"
             x="242.99699"
             y="134.765"
             id="use8268" />
        </g>
        <g
           style="fill:#000000;fill-opacity:1"
           id="g8270">
          <use
             height="1052.3622"
             width="744.09448"
             xlink:href="#textext-2003f492-11"
             x="252.12199"
             y="134.765"
             id="use8272" />
        </g>
        <g
           style="fill:#000000;fill-opacity:1"
           id="g8274">
          <use
             height="1052.3622"
             width="744.09448"
             xlink:href="#textext-2003f492-7"
             x="257.103"
             y="134.765"
             id="use8276" />
        </g>
      </g>
    </g>
    <g
       id="g8734"
       transform="translate(31.549881,392.90381)"
       ns0:preamble="/home/diogo/.inkscape/extensions/preambulo_inkscape.tex"
       ns0:text="$L_2(k-1)$">
      <defs
         id="defs8736">
        <g
           id="g8738">
          <symbol
             id="textext-78124daa-0"
             overflow="visible"
             style="overflow:visible">
            <path
               id="path8741"
               d=""
               style="stroke:none"
               inkscape:connector-curvature="0" />
          </symbol>
          <symbol
             id="textext-78124daa-1"
             overflow="visible"
             style="overflow:visible">
            <path
               id="path8744"
               d="m 4.015625,-6.515625 -2.71875,0 0,0.171875 c 0.609375,0.046875 0.765625,0.140625 0.765625,0.421875 0,0.140625 -0.03125,0.375 -0.109375,0.625 l -1.21875,4.40625 c -0.1875,0.578125 -0.25,0.625 -0.8125,0.734375 L -0.078125,0 5,0 5.578125,-1.78125 5.375,-1.84375 c -0.34375,0.71875 -0.625,1.03125 -1.0625,1.25 -0.34375,0.171875 -0.75,0.234375 -1.625,0.234375 -0.75,0 -1,-0.078125 -1,-0.34375 0,-0.0625 0.046875,-0.296875 0.09375,-0.5 l 1.234375,-4.40625 c 0.140625,-0.515625 0.40625,-0.703125 1,-0.734375 l 0,-0.171875 z m 0,0"
               style="stroke:none"
               inkscape:connector-curvature="0" />
          </symbol>
          <symbol
             id="textext-78124daa-2"
             overflow="visible"
             style="overflow:visible">
            <path
               id="path8747"
               d="m 4.125,-1.09375 -0.140625,0.265625 c -0.1875,0.3125 -0.3125,0.421875 -0.453125,0.421875 -0.21875,0 -0.421875,-0.328125 -0.8125,-1.28125 C 2.671875,-1.828125 2.515625,-2.1875 2.359375,-2.578125 3.8125,-3.875 4.125,-4.078125 4.59375,-4.109375 l 0,-0.15625 -1.828125,0 0,0.15625 0.171875,0 c 0.25,0 0.375,0.078125 0.375,0.1875 0,0.1875 -0.484375,0.6875 -1.421875,1.390625 -0.140625,0.109375 -0.25,0.203125 -0.421875,0.328125 l 1.1875,-4.5625 L 2.609375,-6.8125 C 2.03125,-6.671875 1.640625,-6.609375 1.0625,-6.546875 l 0,0.171875 c 0.46875,-0.015625 0.65625,0.0625 0.671875,0.25 -0.015625,0.15625 -0.09375,0.4375 -0.21875,0.890625 -0.046875,0.140625 -0.0625,0.25 -0.09375,0.328125 L 1.40625,-4.8125 0.140625,0 l 0.75,0 0.46875,-1.796875 0.421875,-0.3125 c 0.15625,0.4375 0.421875,1.046875 0.59375,1.40625 0.328125,0.625 0.5,0.8125 0.796875,0.8125 0.390625,0 0.65625,-0.25 1.109375,-1.09375 L 4.125,-1.09375 z m 0,0"
               style="stroke:none"
               inkscape:connector-curvature="0" />
          </symbol>
          <symbol
             id="textext-78124daa-3"
             overflow="visible"
             style="overflow:visible">
            <path
               id="path8750"
               d=""
               style="stroke:none"
               inkscape:connector-curvature="0" />
          </symbol>
          <symbol
             id="textext-78124daa-4"
             overflow="visible"
             style="overflow:visible">
            <path
               id="path8753"
               d="M 3.5,-1.015625 3.40625,-1.046875 C 3.140625,-0.625 3.03125,-0.5625 2.703125,-0.5625 l -1.765625,0 1.25,-1.296875 c 0.65625,-0.6875 0.9375,-1.25 0.9375,-1.828125 0,-0.734375 -0.59375,-1.296875 -1.359375,-1.296875 -0.40625,0 -0.796875,0.15625 -1.0625,0.453125 -0.234375,0.25 -0.34375,0.484375 -0.46875,1.015625 l 0.15625,0.03125 c 0.28125,-0.71875 0.546875,-0.953125 1.0625,-0.953125 0.625,0 1.046875,0.421875 1.046875,1.03125 0,0.578125 -0.34375,1.265625 -0.96875,1.921875 L 0.21875,-0.09375 0.21875,0 3.09375,0 3.5,-1.015625 z m 0,0"
               style="stroke:none"
               inkscape:connector-curvature="0" />
          </symbol>
          <symbol
             id="textext-78124daa-5"
             overflow="visible"
             style="overflow:visible">
            <path
               id="path8756"
               d=""
               style="stroke:none"
               inkscape:connector-curvature="0" />
          </symbol>
          <symbol
             id="textext-78124daa-6"
             overflow="visible"
             style="overflow:visible">
            <path
               id="path8759"
               d="m 3.296875,2.390625 c 0,-0.03125 0,-0.046875 -0.171875,-0.21875 C 1.890625,0.921875 1.5625,-0.96875 1.5625,-2.5 c 0,-1.734375 0.375,-3.46875 1.609375,-4.703125 0.125,-0.125 0.125,-0.140625 0.125,-0.171875 0,-0.078125 -0.03125,-0.109375 -0.09375,-0.109375 -0.109375,0 -1,0.6875 -1.59375,1.953125 -0.5,1.09375 -0.625,2.203125 -0.625,3.03125 0,0.78125 0.109375,1.984375 0.65625,3.125 C 2.25,1.84375 3.09375,2.5 3.203125,2.5 c 0.0625,0 0.09375,-0.03125 0.09375,-0.109375 z m 0,0"
               style="stroke:none"
               inkscape:connector-curvature="0" />
          </symbol>
          <symbol
             id="textext-78124daa-7"
             overflow="visible"
             style="overflow:visible">
            <path
               id="path8762"
               d="m 2.875,-2.5 c 0,-0.765625 -0.109375,-1.96875 -0.65625,-3.109375 -0.59375,-1.21875 -1.453125,-1.875 -1.546875,-1.875 -0.0625,0 -0.109375,0.046875 -0.109375,0.109375 0,0.03125 0,0.046875 0.1875,0.234375 0.984375,0.984375 1.546875,2.5625 1.546875,4.640625 0,1.71875 -0.359375,3.46875 -1.59375,4.71875 C 0.5625,2.34375 0.5625,2.359375 0.5625,2.390625 0.5625,2.453125 0.609375,2.5 0.671875,2.5 0.765625,2.5 1.671875,1.8125 2.25,0.546875 2.765625,-0.546875 2.875,-1.65625 2.875,-2.5 z m 0,0"
               style="stroke:none"
               inkscape:connector-curvature="0" />
          </symbol>
          <symbol
             id="textext-78124daa-8"
             overflow="visible"
             style="overflow:visible">
            <path
               id="path8765"
               d=""
               style="stroke:none"
               inkscape:connector-curvature="0" />
          </symbol>
          <symbol
             id="textext-78124daa-9"
             overflow="visible"
             style="overflow:visible">
            <path
               id="path8768"
               d="m 6.5625,-2.296875 c 0.171875,0 0.359375,0 0.359375,-0.203125 0,-0.1875 -0.1875,-0.1875 -0.359375,-0.1875 l -5.390625,0 c -0.171875,0 -0.34375,0 -0.34375,0.1875 0,0.203125 0.171875,0.203125 0.34375,0.203125 l 5.390625,0 z m 0,0"
               style="stroke:none"
               inkscape:connector-curvature="0" />
          </symbol>
          <symbol
             id="textext-78124daa-10"
             overflow="visible"
             style="overflow:visible">
            <path
               id="path8771"
               d=""
               style="stroke:none"
               inkscape:connector-curvature="0" />
          </symbol>
          <symbol
             id="textext-78124daa-11"
             overflow="visible"
             style="overflow:visible">
            <path
               id="path8774"
               d="m 2.90625,-6.734375 -1.796875,0.90625 0,0.140625 C 1.21875,-5.734375 1.328125,-5.78125 1.375,-5.796875 1.5625,-5.875 1.71875,-5.90625 1.828125,-5.90625 2.03125,-5.90625 2.125,-5.765625 2.125,-5.4375 l 0,4.515625 c 0,0.328125 -0.078125,0.546875 -0.234375,0.640625 -0.15625,0.09375 -0.296875,0.125 -0.71875,0.125 l 0,0.15625 2.75,0 0,-0.15625 c -0.78125,0 -0.9375,-0.109375 -0.9375,-0.578125 l 0,-5.984375 -0.078125,-0.015625 z m 0,0"
               style="stroke:none"
               inkscape:connector-curvature="0" />
          </symbol>
        </g>
      </defs>
      <g
         id="textext-78124daa-12">
        <g
           id="g8777"
           style="fill:#000000;fill-opacity:1">
          <use
             id="use8779"
             y="134.765"
             x="223.43201"
             xlink:href="#textext-78124daa-1"
             width="744.09448"
             height="1052.3622" />
        </g>
        <g
           id="g8781"
           style="fill:#000000;fill-opacity:1">
          <use
             id="use8783"
             y="136.259"
             x="228.97099"
             xlink:href="#textext-78124daa-4"
             width="744.09448"
             height="1052.3622" />
        </g>
        <g
           id="g8785"
           style="fill:#000000;fill-opacity:1">
          <use
             id="use8787"
             y="134.765"
             x="233.15601"
             xlink:href="#textext-78124daa-6"
             width="744.09448"
             height="1052.3622" />
        </g>
        <g
           id="g8789"
           style="fill:#000000;fill-opacity:1">
          <use
             id="use8791"
             y="134.765"
             x="237.021"
             xlink:href="#textext-78124daa-2"
             width="744.09448"
             height="1052.3622" />
        </g>
        <g
           id="g8793"
           style="fill:#000000;fill-opacity:1">
          <use
             id="use8795"
             y="134.765"
             x="242.99699"
             xlink:href="#textext-78124daa-9"
             width="744.09448"
             height="1052.3622" />
        </g>
        <g
           id="g8797"
           style="fill:#000000;fill-opacity:1">
          <use
             id="use8799"
             y="134.765"
             x="252.12199"
             xlink:href="#textext-78124daa-11"
             width="744.09448"
             height="1052.3622" />
        </g>
        <g
           id="g8801"
           style="fill:#000000;fill-opacity:1">
          <use
             id="use8803"
             y="134.765"
             x="257.103"
             xlink:href="#textext-78124daa-7"
             width="744.09448"
             height="1052.3622" />
        </g>
      </g>
    </g>
    <path
       inkscape:connector-curvature="0"
       sodipodi:nodetypes="cc"
       id="path6920-8"
       d="m 295.17868,609.60069 27.17344,0"
       style="fill:none;stroke:#000000;stroke-width:0.5;stroke-linecap:butt;stroke-linejoin:miter;stroke-opacity:1;marker-end:url(#Arrow1Mend)" />
    <path
       inkscape:connector-curvature="0"
       sodipodi:nodetypes="cc"
       id="path6950-3"
       d="m 295.17868,588.49467 27.17344,0"
       style="fill:none;stroke:#000000;stroke-width:0.5;stroke-linecap:butt;stroke-linejoin:miter;stroke-opacity:1;marker-end:url(#Arrow1Mend)" />
    <path
       inkscape:connector-curvature="0"
       sodipodi:nodetypes="cc"
       id="path6952"
       d="m 376.47563,520.23506 27.17344,0"
       style="fill:none;stroke:#000000;stroke-width:0.5;stroke-linecap:butt;stroke-linejoin:miter;stroke-opacity:1;marker-end:url(#Arrow1Mend)" />
    <path
       inkscape:connector-curvature="0"
       sodipodi:nodetypes="cc"
       id="path6952-6-9"
       d="m 376.47563,595.55575 27.17344,0"
       style="fill:none;stroke:#000000;stroke-width:0.5;stroke-linecap:butt;stroke-linejoin:miter;stroke-opacity:1;marker-end:url(#Arrow1Mend)" />
    <g
       ns0:text="\\vdots"
       ns0:preamble="/home/diogo/.inkscape/extensions/preambulo_inkscape.tex"
       transform="translate(178.00992,434.56748)"
       id="g10003">
      <defs
         id="defs10005">
        <g
           id="g10007">
          <symbol
             style="overflow:visible"
             overflow="visible"
             id="textext-fde6b6ca-0">
            <path
               inkscape:connector-curvature="0"
               style="stroke:none"
               d=""
               id="path10010" />
          </symbol>
          <symbol
             style="overflow:visible"
             overflow="visible"
             id="textext-fde6b6ca-1">
            <path
               inkscape:connector-curvature="0"
               style="stroke:none"
               d="m 1.25,-1 c -0.296875,0 -0.546875,0.265625 -0.546875,0.578125 0,0.28125 0.25,0.53125 0.53125,0.53125 0.3125,0 0.5625,-0.25 0.5625,-0.53125 C 1.796875,-0.734375 1.546875,-1 1.25,-1 z m 0,0"
               id="path10013" />
          </symbol>
        </g>
      </defs>
      <g
         id="textext-fde6b6ca-2">
        <g
           style="fill:#000000;fill-opacity:1"
           id="g10016">
          <use
             height="1052.3622"
             width="744.09448"
             xlink:href="#textext-fde6b6ca-1"
             x="223.43201"
             y="131.786"
             id="use10018" />
        </g>
        <g
           style="fill:#000000;fill-opacity:1"
           id="g10020">
          <use
             height="1052.3622"
             width="744.09448"
             xlink:href="#textext-fde6b6ca-1"
             x="223.43201"
             y="135.771"
             id="use10022" />
        </g>
        <g
           style="fill:#000000;fill-opacity:1"
           id="g10024">
          <use
             height="1052.3622"
             width="744.09448"
             xlink:href="#textext-fde6b6ca-1"
             x="223.43201"
             y="139.756"
             id="use10026" />
        </g>
      </g>
    </g>
    <g
       id="g11506"
       transform="translate(185.11824,387.96225)"
       ns0:preamble="/home/diogo/.inkscape/extensions/preambulo_inkscape.tex"
       ns0:text="$F_0(k)$">
      <defs
         id="defs11508">
        <g
           id="g11510">
          <symbol
             style="overflow:visible"
             id="textext-c61757a4-0"
             overflow="visible">
            <path
               inkscape:connector-curvature="0"
               id="path11513"
               d=""
               style="stroke:none" />
          </symbol>
          <symbol
             style="overflow:visible"
             id="textext-c61757a4-1"
             overflow="visible">
            <path
               inkscape:connector-curvature="0"
               id="path11516"
               d="m 6.4375,-6.515625 -4.96875,0 0,0.171875 c 0.640625,0.046875 0.765625,0.109375 0.765625,0.40625 0,0.140625 -0.046875,0.390625 -0.109375,0.640625 l -1.234375,4.40625 c -0.171875,0.59375 -0.25,0.65625 -0.8125,0.734375 l 0,0.15625 2.515625,0 0,-0.15625 C 2.015625,-0.1875 1.828125,-0.296875 1.828125,-0.59375 c 0,-0.078125 0.03125,-0.234375 0.09375,-0.453125 l 0.625,-2.21875 C 2.90625,-3.25 3.125,-3.234375 3.34375,-3.234375 c 0.390625,0 0.46875,0 0.546875,0.046875 0.15625,0.078125 0.21875,0.203125 0.21875,0.40625 0,0.15625 -0.015625,0.28125 -0.078125,0.59375 L 4.203125,-2.140625 4.96875,-4.46875 4.78125,-4.53125 C 4.34375,-3.625 4.3125,-3.625 2.625,-3.59375 L 3.296875,-5.921875 C 3.34375,-6.125 3.484375,-6.1875 3.890625,-6.1875 c 1.6875,0 2.046875,0.140625 2.046875,0.75 0,0.0625 0,0.109375 -0.015625,0.25 C 5.90625,-5.140625 5.90625,-5.125 5.90625,-5 l 0.203125,0.015625 0.328125,-1.53125 z m 0,0"
               style="stroke:none" />
          </symbol>
          <symbol
             style="overflow:visible"
             id="textext-c61757a4-2"
             overflow="visible">
            <path
               inkscape:connector-curvature="0"
               id="path11519"
               d="m 4.125,-1.09375 -0.140625,0.265625 c -0.1875,0.3125 -0.3125,0.421875 -0.453125,0.421875 -0.21875,0 -0.421875,-0.328125 -0.8125,-1.28125 C 2.671875,-1.828125 2.515625,-2.1875 2.359375,-2.578125 3.8125,-3.875 4.125,-4.078125 4.59375,-4.109375 l 0,-0.15625 -1.828125,0 0,0.15625 0.171875,0 c 0.25,0 0.375,0.078125 0.375,0.1875 0,0.1875 -0.484375,0.6875 -1.421875,1.390625 -0.140625,0.109375 -0.25,0.203125 -0.421875,0.328125 l 1.1875,-4.5625 L 2.609375,-6.8125 C 2.03125,-6.671875 1.640625,-6.609375 1.0625,-6.546875 l 0,0.171875 c 0.46875,-0.015625 0.65625,0.0625 0.671875,0.25 -0.015625,0.15625 -0.09375,0.4375 -0.21875,0.890625 -0.046875,0.140625 -0.0625,0.25 -0.09375,0.328125 L 1.40625,-4.8125 0.140625,0 l 0.75,0 0.46875,-1.796875 0.421875,-0.3125 c 0.15625,0.4375 0.421875,1.046875 0.59375,1.40625 0.328125,0.625 0.5,0.8125 0.796875,0.8125 0.390625,0 0.65625,-0.25 1.109375,-1.09375 L 4.125,-1.09375 z m 0,0"
               style="stroke:none" />
          </symbol>
          <symbol
             style="overflow:visible"
             id="textext-c61757a4-3"
             overflow="visible">
            <path
               inkscape:connector-curvature="0"
               id="path11522"
               d=""
               style="stroke:none" />
          </symbol>
          <symbol
             style="overflow:visible"
             id="textext-c61757a4-4"
             overflow="visible">
            <path
               inkscape:connector-curvature="0"
               id="path11525"
               d="m 1.875,-4.984375 c -0.40625,0 -0.71875,0.125 -0.984375,0.375 -0.4375,0.421875 -0.71875,1.265625 -0.71875,2.125 0,0.8125 0.25,1.671875 0.59375,2.09375 0.28125,0.3125 0.65625,0.5 1.078125,0.5 0.375,0 0.6875,-0.125 0.953125,-0.390625 0.4375,-0.40625 0.71875,-1.265625 0.71875,-2.15625 0,-1.515625 -0.671875,-2.546875 -1.640625,-2.546875 z m -0.03125,0.1875 c 0.625,0 0.953125,0.84375 0.953125,2.375 0,1.546875 -0.3125,2.328125 -0.953125,2.328125 -0.640625,0 -0.953125,-0.78125 -0.953125,-2.3125 0,-1.5625 0.328125,-2.390625 0.953125,-2.390625 z m 0,0"
               style="stroke:none" />
          </symbol>
          <symbol
             style="overflow:visible"
             id="textext-c61757a4-5"
             overflow="visible">
            <path
               inkscape:connector-curvature="0"
               id="path11528"
               d=""
               style="stroke:none" />
          </symbol>
          <symbol
             style="overflow:visible"
             id="textext-c61757a4-6"
             overflow="visible">
            <path
               inkscape:connector-curvature="0"
               id="path11531"
               d="m 3.296875,2.390625 c 0,-0.03125 0,-0.046875 -0.171875,-0.21875 C 1.890625,0.921875 1.5625,-0.96875 1.5625,-2.5 c 0,-1.734375 0.375,-3.46875 1.609375,-4.703125 0.125,-0.125 0.125,-0.140625 0.125,-0.171875 0,-0.078125 -0.03125,-0.109375 -0.09375,-0.109375 -0.109375,0 -1,0.6875 -1.59375,1.953125 -0.5,1.09375 -0.625,2.203125 -0.625,3.03125 0,0.78125 0.109375,1.984375 0.65625,3.125 C 2.25,1.84375 3.09375,2.5 3.203125,2.5 c 0.0625,0 0.09375,-0.03125 0.09375,-0.109375 z m 0,0"
               style="stroke:none" />
          </symbol>
          <symbol
             style="overflow:visible"
             id="textext-c61757a4-7"
             overflow="visible">
            <path
               inkscape:connector-curvature="0"
               id="path11534"
               d="m 2.875,-2.5 c 0,-0.765625 -0.109375,-1.96875 -0.65625,-3.109375 -0.59375,-1.21875 -1.453125,-1.875 -1.546875,-1.875 -0.0625,0 -0.109375,0.046875 -0.109375,0.109375 0,0.03125 0,0.046875 0.1875,0.234375 0.984375,0.984375 1.546875,2.5625 1.546875,4.640625 0,1.71875 -0.359375,3.46875 -1.59375,4.71875 C 0.5625,2.34375 0.5625,2.359375 0.5625,2.390625 0.5625,2.453125 0.609375,2.5 0.671875,2.5 0.765625,2.5 1.671875,1.8125 2.25,0.546875 2.765625,-0.546875 2.875,-1.65625 2.875,-2.5 z m 0,0"
               style="stroke:none" />
          </symbol>
        </g>
      </defs>
      <g
         id="textext-c61757a4-8">
        <g
           id="g11537"
           style="fill:#000000;fill-opacity:1">
          <use
             height="1052.3622"
             width="744.09448"
             id="use11539"
             y="134.765"
             x="223.43201"
             xlink:href="#textext-c61757a4-1" />
        </g>
        <g
           id="g11541"
           style="fill:#000000;fill-opacity:1">
          <use
             height="1052.3622"
             width="744.09448"
             id="use11543"
             y="136.259"
             x="228.52299"
             xlink:href="#textext-c61757a4-4" />
        </g>
        <g
           id="g11545"
           style="fill:#000000;fill-opacity:1">
          <use
             height="1052.3622"
             width="744.09448"
             id="use11547"
             y="134.765"
             x="232.707"
             xlink:href="#textext-c61757a4-6" />
        </g>
        <g
           id="g11549"
           style="fill:#000000;fill-opacity:1">
          <use
             height="1052.3622"
             width="744.09448"
             id="use11551"
             y="134.765"
             x="236.573"
             xlink:href="#textext-c61757a4-2" />
        </g>
        <g
           id="g11553"
           style="fill:#000000;fill-opacity:1">
          <use
             height="1052.3622"
             width="744.09448"
             id="use11555"
             y="134.765"
             x="241.16499"
             xlink:href="#textext-c61757a4-7" />
        </g>
      </g>
    </g>
    <path
       inkscape:connector-curvature="0"
       sodipodi:nodetypes="cc"
       id="path6952-6"
       d="m 376.47563,546.35009 27.17344,0"
       style="fill:none;stroke:#000000;stroke-width:0.5;stroke-linecap:butt;stroke-linejoin:miter;stroke-opacity:1;marker-end:url(#Arrow1Mend)" />
    <g
       ns0:text="$F_1(k)$"
       ns0:preamble="/home/diogo/.inkscape/extensions/preambulo_inkscape.tex"
       transform="translate(185.11824,414.07728)"
       id="g12599">
      <defs
         id="defs12601">
        <g
           id="g12603">
          <symbol
             style="overflow:visible"
             overflow="visible"
             id="textext-38859fab-0">
            <path
               inkscape:connector-curvature="0"
               style="stroke:none"
               d=""
               id="path12606" />
          </symbol>
          <symbol
             style="overflow:visible"
             overflow="visible"
             id="textext-38859fab-1">
            <path
               inkscape:connector-curvature="0"
               style="stroke:none"
               d="m 6.4375,-6.515625 -4.96875,0 0,0.171875 c 0.640625,0.046875 0.765625,0.109375 0.765625,0.40625 0,0.140625 -0.046875,0.390625 -0.109375,0.640625 l -1.234375,4.40625 c -0.171875,0.59375 -0.25,0.65625 -0.8125,0.734375 l 0,0.15625 2.515625,0 0,-0.15625 C 2.015625,-0.1875 1.828125,-0.296875 1.828125,-0.59375 c 0,-0.078125 0.03125,-0.234375 0.09375,-0.453125 l 0.625,-2.21875 C 2.90625,-3.25 3.125,-3.234375 3.34375,-3.234375 c 0.390625,0 0.46875,0 0.546875,0.046875 0.15625,0.078125 0.21875,0.203125 0.21875,0.40625 0,0.15625 -0.015625,0.28125 -0.078125,0.59375 L 4.203125,-2.140625 4.96875,-4.46875 4.78125,-4.53125 C 4.34375,-3.625 4.3125,-3.625 2.625,-3.59375 L 3.296875,-5.921875 C 3.34375,-6.125 3.484375,-6.1875 3.890625,-6.1875 c 1.6875,0 2.046875,0.140625 2.046875,0.75 0,0.0625 0,0.109375 -0.015625,0.25 C 5.90625,-5.140625 5.90625,-5.125 5.90625,-5 l 0.203125,0.015625 0.328125,-1.53125 z m 0,0"
               id="path12609" />
          </symbol>
          <symbol
             style="overflow:visible"
             overflow="visible"
             id="textext-38859fab-2">
            <path
               inkscape:connector-curvature="0"
               style="stroke:none"
               d="m 4.125,-1.09375 -0.140625,0.265625 c -0.1875,0.3125 -0.3125,0.421875 -0.453125,0.421875 -0.21875,0 -0.421875,-0.328125 -0.8125,-1.28125 C 2.671875,-1.828125 2.515625,-2.1875 2.359375,-2.578125 3.8125,-3.875 4.125,-4.078125 4.59375,-4.109375 l 0,-0.15625 -1.828125,0 0,0.15625 0.171875,0 c 0.25,0 0.375,0.078125 0.375,0.1875 0,0.1875 -0.484375,0.6875 -1.421875,1.390625 -0.140625,0.109375 -0.25,0.203125 -0.421875,0.328125 l 1.1875,-4.5625 L 2.609375,-6.8125 C 2.03125,-6.671875 1.640625,-6.609375 1.0625,-6.546875 l 0,0.171875 c 0.46875,-0.015625 0.65625,0.0625 0.671875,0.25 -0.015625,0.15625 -0.09375,0.4375 -0.21875,0.890625 -0.046875,0.140625 -0.0625,0.25 -0.09375,0.328125 L 1.40625,-4.8125 0.140625,0 l 0.75,0 0.46875,-1.796875 0.421875,-0.3125 c 0.15625,0.4375 0.421875,1.046875 0.59375,1.40625 0.328125,0.625 0.5,0.8125 0.796875,0.8125 0.390625,0 0.65625,-0.25 1.109375,-1.09375 L 4.125,-1.09375 z m 0,0"
               id="path12612" />
          </symbol>
          <symbol
             style="overflow:visible"
             overflow="visible"
             id="textext-38859fab-3">
            <path
               inkscape:connector-curvature="0"
               style="stroke:none"
               d=""
               id="path12615" />
          </symbol>
          <symbol
             style="overflow:visible"
             overflow="visible"
             id="textext-38859fab-4">
            <path
               inkscape:connector-curvature="0"
               style="stroke:none"
               d="M 2.140625,-4.984375 0.8125,-4.3125 l 0,0.09375 C 0.90625,-4.25 0.984375,-4.28125 1.015625,-4.296875 1.15625,-4.34375 1.28125,-4.375 1.34375,-4.375 c 0.15625,0 0.234375,0.109375 0.234375,0.34375 l 0,3.34375 c 0,0.25 -0.0625,0.421875 -0.1875,0.484375 C 1.28125,-0.140625 1.1875,-0.125 0.875,-0.109375 L 0.875,0 l 2.03125,0 0,-0.109375 C 2.328125,-0.125 2.203125,-0.1875 2.203125,-0.546875 l 0,-4.421875 -0.0625,-0.015625 z m 0,0"
               id="path12618" />
          </symbol>
          <symbol
             style="overflow:visible"
             overflow="visible"
             id="textext-38859fab-5">
            <path
               inkscape:connector-curvature="0"
               style="stroke:none"
               d=""
               id="path12621" />
          </symbol>
          <symbol
             style="overflow:visible"
             overflow="visible"
             id="textext-38859fab-6">
            <path
               inkscape:connector-curvature="0"
               style="stroke:none"
               d="m 3.296875,2.390625 c 0,-0.03125 0,-0.046875 -0.171875,-0.21875 C 1.890625,0.921875 1.5625,-0.96875 1.5625,-2.5 c 0,-1.734375 0.375,-3.46875 1.609375,-4.703125 0.125,-0.125 0.125,-0.140625 0.125,-0.171875 0,-0.078125 -0.03125,-0.109375 -0.09375,-0.109375 -0.109375,0 -1,0.6875 -1.59375,1.953125 -0.5,1.09375 -0.625,2.203125 -0.625,3.03125 0,0.78125 0.109375,1.984375 0.65625,3.125 C 2.25,1.84375 3.09375,2.5 3.203125,2.5 c 0.0625,0 0.09375,-0.03125 0.09375,-0.109375 z m 0,0"
               id="path12624" />
          </symbol>
          <symbol
             style="overflow:visible"
             overflow="visible"
             id="textext-38859fab-7">
            <path
               inkscape:connector-curvature="0"
               style="stroke:none"
               d="m 2.875,-2.5 c 0,-0.765625 -0.109375,-1.96875 -0.65625,-3.109375 -0.59375,-1.21875 -1.453125,-1.875 -1.546875,-1.875 -0.0625,0 -0.109375,0.046875 -0.109375,0.109375 0,0.03125 0,0.046875 0.1875,0.234375 0.984375,0.984375 1.546875,2.5625 1.546875,4.640625 0,1.71875 -0.359375,3.46875 -1.59375,4.71875 C 0.5625,2.34375 0.5625,2.359375 0.5625,2.390625 0.5625,2.453125 0.609375,2.5 0.671875,2.5 0.765625,2.5 1.671875,1.8125 2.25,0.546875 2.765625,-0.546875 2.875,-1.65625 2.875,-2.5 z m 0,0"
               id="path12627" />
          </symbol>
        </g>
      </defs>
      <g
         id="textext-38859fab-8">
        <g
           style="fill:#000000;fill-opacity:1"
           id="g12630">
          <use
             height="1052.3622"
             width="744.09448"
             xlink:href="#textext-38859fab-1"
             x="223.43201"
             y="134.765"
             id="use12632" />
        </g>
        <g
           style="fill:#000000;fill-opacity:1"
           id="g12634">
          <use
             height="1052.3622"
             width="744.09448"
             xlink:href="#textext-38859fab-4"
             x="228.52299"
             y="136.259"
             id="use12636" />
        </g>
        <g
           style="fill:#000000;fill-opacity:1"
           id="g12638">
          <use
             height="1052.3622"
             width="744.09448"
             xlink:href="#textext-38859fab-6"
             x="232.707"
             y="134.765"
             id="use12640" />
        </g>
        <g
           style="fill:#000000;fill-opacity:1"
           id="g12642">
          <use
             height="1052.3622"
             width="744.09448"
             xlink:href="#textext-38859fab-2"
             x="236.573"
             y="134.765"
             id="use12644" />
        </g>
        <g
           style="fill:#000000;fill-opacity:1"
           id="g12646">
          <use
             height="1052.3622"
             width="744.09448"
             xlink:href="#textext-38859fab-7"
             x="241.16499"
             y="134.765"
             id="use12648" />
        </g>
      </g>
    </g>
    <g
       id="g13358"
       transform="translate(185.11824,463.28294)"
       ns0:preamble="/home/diogo/.inkscape/extensions/preambulo_inkscape.tex"
       ns0:text="$F_n(k)$">
      <defs
         id="defs13360">
        <g
           id="g13362">
          <symbol
             style="overflow:visible"
             id="textext-66bc1ce3-0"
             overflow="visible">
            <path
               inkscape:connector-curvature="0"
               id="path13365"
               d=""
               style="stroke:none" />
          </symbol>
          <symbol
             style="overflow:visible"
             id="textext-66bc1ce3-1"
             overflow="visible">
            <path
               inkscape:connector-curvature="0"
               id="path13368"
               d="m 6.4375,-6.515625 -4.96875,0 0,0.171875 c 0.640625,0.046875 0.765625,0.109375 0.765625,0.40625 0,0.140625 -0.046875,0.390625 -0.109375,0.640625 l -1.234375,4.40625 c -0.171875,0.59375 -0.25,0.65625 -0.8125,0.734375 l 0,0.15625 2.515625,0 0,-0.15625 C 2.015625,-0.1875 1.828125,-0.296875 1.828125,-0.59375 c 0,-0.078125 0.03125,-0.234375 0.09375,-0.453125 l 0.625,-2.21875 C 2.90625,-3.25 3.125,-3.234375 3.34375,-3.234375 c 0.390625,0 0.46875,0 0.546875,0.046875 0.15625,0.078125 0.21875,0.203125 0.21875,0.40625 0,0.15625 -0.015625,0.28125 -0.078125,0.59375 L 4.203125,-2.140625 4.96875,-4.46875 4.78125,-4.53125 C 4.34375,-3.625 4.3125,-3.625 2.625,-3.59375 L 3.296875,-5.921875 C 3.34375,-6.125 3.484375,-6.1875 3.890625,-6.1875 c 1.6875,0 2.046875,0.140625 2.046875,0.75 0,0.0625 0,0.109375 -0.015625,0.25 C 5.90625,-5.140625 5.90625,-5.125 5.90625,-5 l 0.203125,0.015625 0.328125,-1.53125 z m 0,0"
               style="stroke:none" />
          </symbol>
          <symbol
             style="overflow:visible"
             id="textext-66bc1ce3-2"
             overflow="visible">
            <path
               inkscape:connector-curvature="0"
               id="path13371"
               d="m 4.125,-1.09375 -0.140625,0.265625 c -0.1875,0.3125 -0.3125,0.421875 -0.453125,0.421875 -0.21875,0 -0.421875,-0.328125 -0.8125,-1.28125 C 2.671875,-1.828125 2.515625,-2.1875 2.359375,-2.578125 3.8125,-3.875 4.125,-4.078125 4.59375,-4.109375 l 0,-0.15625 -1.828125,0 0,0.15625 0.171875,0 c 0.25,0 0.375,0.078125 0.375,0.1875 0,0.1875 -0.484375,0.6875 -1.421875,1.390625 -0.140625,0.109375 -0.25,0.203125 -0.421875,0.328125 l 1.1875,-4.5625 L 2.609375,-6.8125 C 2.03125,-6.671875 1.640625,-6.609375 1.0625,-6.546875 l 0,0.171875 c 0.46875,-0.015625 0.65625,0.0625 0.671875,0.25 -0.015625,0.15625 -0.09375,0.4375 -0.21875,0.890625 -0.046875,0.140625 -0.0625,0.25 -0.09375,0.328125 L 1.40625,-4.8125 0.140625,0 l 0.75,0 0.46875,-1.796875 0.421875,-0.3125 c 0.15625,0.4375 0.421875,1.046875 0.59375,1.40625 0.328125,0.625 0.5,0.8125 0.796875,0.8125 0.390625,0 0.65625,-0.25 1.109375,-1.09375 L 4.125,-1.09375 z m 0,0"
               style="stroke:none" />
          </symbol>
          <symbol
             style="overflow:visible"
             id="textext-66bc1ce3-3"
             overflow="visible">
            <path
               inkscape:connector-curvature="0"
               id="path13374"
               d=""
               style="stroke:none" />
          </symbol>
          <symbol
             style="overflow:visible"
             id="textext-66bc1ce3-4"
             overflow="visible">
            <path
               inkscape:connector-curvature="0"
               id="path13377"
               d="m 3.390625,-0.859375 -0.15625,0.1875 c -0.203125,0.28125 -0.34375,0.390625 -0.453125,0.390625 -0.046875,0 -0.109375,-0.0625 -0.109375,-0.109375 0,-0.0625 0,-0.0625 0.09375,-0.46875 L 3.1875,-2.375 c 0.046875,-0.15625 0.078125,-0.328125 0.078125,-0.421875 0,-0.265625 -0.203125,-0.453125 -0.5,-0.453125 -0.46875,0 -0.921875,0.4375 -1.6875,1.625 l 0.5,-1.609375 L 1.546875,-3.25 C 1.15625,-3.171875 1,-3.140625 0.359375,-3.03125 l 0,0.125 c 0.375,0.015625 0.46875,0.046875 0.46875,0.203125 0,0.046875 -0.015625,0.078125 -0.015625,0.125 L 0.109375,0 0.65625,0 C 1,-1.171875 1.0625,-1.328125 1.390625,-1.828125 1.84375,-2.5 2.21875,-2.875 2.484375,-2.875 c 0.109375,0 0.171875,0.078125 0.171875,0.21875 0,0.078125 -0.03125,0.328125 -0.09375,0.546875 l -0.328125,1.21875 c -0.09375,0.375 -0.125,0.484375 -0.125,0.5625 0,0.28125 0.109375,0.390625 0.359375,0.390625 0.328125,0 0.515625,-0.15625 1.03125,-0.828125 l -0.109375,-0.09375 z m 0,0"
               style="stroke:none" />
          </symbol>
          <symbol
             style="overflow:visible"
             id="textext-66bc1ce3-5"
             overflow="visible">
            <path
               inkscape:connector-curvature="0"
               id="path13380"
               d=""
               style="stroke:none" />
          </symbol>
          <symbol
             style="overflow:visible"
             id="textext-66bc1ce3-6"
             overflow="visible">
            <path
               inkscape:connector-curvature="0"
               id="path13383"
               d="m 3.296875,2.390625 c 0,-0.03125 0,-0.046875 -0.171875,-0.21875 C 1.890625,0.921875 1.5625,-0.96875 1.5625,-2.5 c 0,-1.734375 0.375,-3.46875 1.609375,-4.703125 0.125,-0.125 0.125,-0.140625 0.125,-0.171875 0,-0.078125 -0.03125,-0.109375 -0.09375,-0.109375 -0.109375,0 -1,0.6875 -1.59375,1.953125 -0.5,1.09375 -0.625,2.203125 -0.625,3.03125 0,0.78125 0.109375,1.984375 0.65625,3.125 C 2.25,1.84375 3.09375,2.5 3.203125,2.5 c 0.0625,0 0.09375,-0.03125 0.09375,-0.109375 z m 0,0"
               style="stroke:none" />
          </symbol>
          <symbol
             style="overflow:visible"
             id="textext-66bc1ce3-7"
             overflow="visible">
            <path
               inkscape:connector-curvature="0"
               id="path13386"
               d="m 2.875,-2.5 c 0,-0.765625 -0.109375,-1.96875 -0.65625,-3.109375 -0.59375,-1.21875 -1.453125,-1.875 -1.546875,-1.875 -0.0625,0 -0.109375,0.046875 -0.109375,0.109375 0,0.03125 0,0.046875 0.1875,0.234375 0.984375,0.984375 1.546875,2.5625 1.546875,4.640625 0,1.71875 -0.359375,3.46875 -1.59375,4.71875 C 0.5625,2.34375 0.5625,2.359375 0.5625,2.390625 0.5625,2.453125 0.609375,2.5 0.671875,2.5 0.765625,2.5 1.671875,1.8125 2.25,0.546875 2.765625,-0.546875 2.875,-1.65625 2.875,-2.5 z m 0,0"
               style="stroke:none" />
          </symbol>
        </g>
      </defs>
      <g
         id="textext-66bc1ce3-8">
        <g
           id="g13389"
           style="fill:#000000;fill-opacity:1">
          <use
             height="1052.3622"
             width="744.09448"
             id="use13391"
             y="134.765"
             x="223.43201"
             xlink:href="#textext-66bc1ce3-1" />
        </g>
        <g
           id="g13393"
           style="fill:#000000;fill-opacity:1">
          <use
             height="1052.3622"
             width="744.09448"
             id="use13395"
             y="136.259"
             x="228.52299"
             xlink:href="#textext-66bc1ce3-4" />
        </g>
        <g
           id="g13397"
           style="fill:#000000;fill-opacity:1">
          <use
             height="1052.3622"
             width="744.09448"
             id="use13399"
             y="134.765"
             x="232.707"
             xlink:href="#textext-66bc1ce3-6" />
        </g>
        <g
           id="g13401"
           style="fill:#000000;fill-opacity:1">
          <use
             height="1052.3622"
             width="744.09448"
             id="use13403"
             y="134.765"
             x="236.573"
             xlink:href="#textext-66bc1ce3-2" />
        </g>
        <g
           id="g13405"
           style="fill:#000000;fill-opacity:1">
          <use
             height="1052.3622"
             width="744.09448"
             id="use13407"
             y="134.765"
             x="241.16499"
             xlink:href="#textext-66bc1ce3-7" />
        </g>
      </g>
    </g>
    <g
       ns0:text="$V_{p_{\\tiny 1}}(k-1)$"
       ns0:preamble="/home/diogo/.inkscape/extensions/preambulo_inkscape.tex"
       transform="translate(27.957871,413.75501)"
       id="g38021">
      <defs
         id="defs38023">
        <g
           id="g38025">
          <symbol
             overflow="visible"
             id="textext-be7b21bf-0"
             style="overflow:visible">
            <path
               style="stroke:none"
               d=""
               id="path38028"
               inkscape:connector-curvature="0" />
          </symbol>
          <symbol
             overflow="visible"
             id="textext-be7b21bf-1"
             style="overflow:visible">
            <path
               style="stroke:none"
               d="m 6.859375,-6.515625 -1.859375,0 0,0.171875 c 0.453125,0.046875 0.625,0.140625 0.625,0.328125 0,0.1875 -0.1875,0.625 -0.515625,1.1875 L 3.0625,-1.28125 2.40625,-5.6875 C 2.390625,-5.734375 2.390625,-5.78125 2.390625,-5.84375 c 0,-0.34375 0.140625,-0.4375 0.765625,-0.5 l 0,-0.171875 -2.40625,0 0,0.171875 C 1.3125,-6.28125 1.328125,-6.25 1.546875,-5 l 0.84375,5.171875 0.1875,0 3.71875,-6.125 C 6.46875,-6.21875 6.625,-6.34375 6.859375,-6.34375 l 0,-0.171875 z m 0,0"
               id="path38031"
               inkscape:connector-curvature="0" />
          </symbol>
          <symbol
             overflow="visible"
             id="textext-be7b21bf-2"
             style="overflow:visible">
            <path
               style="stroke:none"
               d="m 4.125,-1.09375 -0.140625,0.265625 c -0.1875,0.3125 -0.3125,0.421875 -0.453125,0.421875 -0.21875,0 -0.421875,-0.328125 -0.8125,-1.28125 C 2.671875,-1.828125 2.515625,-2.1875 2.359375,-2.578125 3.8125,-3.875 4.125,-4.078125 4.59375,-4.109375 l 0,-0.15625 -1.828125,0 0,0.15625 0.171875,0 c 0.25,0 0.375,0.078125 0.375,0.1875 0,0.1875 -0.484375,0.6875 -1.421875,1.390625 -0.140625,0.109375 -0.25,0.203125 -0.421875,0.328125 l 1.1875,-4.5625 L 2.609375,-6.8125 C 2.03125,-6.671875 1.640625,-6.609375 1.0625,-6.546875 l 0,0.171875 c 0.46875,-0.015625 0.65625,0.0625 0.671875,0.25 -0.015625,0.15625 -0.09375,0.4375 -0.21875,0.890625 -0.046875,0.140625 -0.0625,0.25 -0.09375,0.328125 L 1.40625,-4.8125 0.140625,0 l 0.75,0 0.46875,-1.796875 0.421875,-0.3125 c 0.15625,0.4375 0.421875,1.046875 0.59375,1.40625 0.328125,0.625 0.5,0.8125 0.796875,0.8125 0.390625,0 0.65625,-0.25 1.109375,-1.09375 L 4.125,-1.09375 z m 0,0"
               id="path38034"
               inkscape:connector-curvature="0" />
          </symbol>
          <symbol
             overflow="visible"
             id="textext-be7b21bf-3"
             style="overflow:visible">
            <path
               style="stroke:none"
               d=""
               id="path38037"
               inkscape:connector-curvature="0" />
          </symbol>
          <symbol
             overflow="visible"
             id="textext-be7b21bf-4"
             style="overflow:visible">
            <path
               style="stroke:none"
               d="m 0.40625,-2.984375 0.171875,0 c 0,0 0.015625,0 0.03125,0 0.09375,-0.046875 0.28125,0.09375 0.28125,0.203125 0,0.0625 -0.265625,1.109375 -0.515625,2.09375 C 0.171875,0.046875 0,0.75 -0.0625,0.953125 c -0.078125,0.34375 -0.171875,0.4375 -0.484375,0.4375 l 0,0.125 1.5,0 0,-0.109375 c -0.34375,0 -0.46875,-0.078125 -0.46875,-0.21875 0,-0.109375 0.125,-0.6875 0.28125,-1.234375 0.171875,0.09375 0.3125,0.125 0.484375,0.125 1.078125,0 2.203125,-1.234375 2.203125,-2.40625 C 3.453125,-2.90625 3.140625,-3.25 2.609375,-3.25 2.125,-3.25 1.78125,-3.015625 1.34375,-2.421875 L 1.5625,-3.15625 1.578125,-3.21875 c 0,0 0,-0.015625 0,-0.03125 l -0.015625,0 c 0,-0.015625 -0.015625,-0.015625 -0.015625,-0.015625 L 1.53125,-3.25 0.390625,-3.09375 0.40625,-2.984375 z m 1.9375,0.046875 c 0.3125,0.015625 0.453125,0.203125 0.453125,0.640625 0,0.484375 -0.21875,1.109375 -0.53125,1.578125 -0.3125,0.4375 -0.671875,0.65625 -1.046875,0.65625 -0.203125,0 -0.359375,-0.109375 -0.359375,-0.265625 0,-0.25 0.265625,-1.21875 0.484375,-1.765625 0.203125,-0.5 0.625,-0.859375 1,-0.84375 z m 0,0"
               id="path38040"
               inkscape:connector-curvature="0" />
          </symbol>
          <symbol
             overflow="visible"
             id="textext-be7b21bf-5"
             style="overflow:visible">
            <path
               style="stroke:none"
               d=""
               id="path38043"
               inkscape:connector-curvature="0" />
          </symbol>
          <symbol
             overflow="visible"
             id="textext-be7b21bf-6"
             style="overflow:visible">
            <path
               style="stroke:none"
               d="M 1.734375,-4.046875 0.671875,-3.5 l 0,0.078125 c 0.0625,-0.03125 0.125,-0.046875 0.15625,-0.0625 0.109375,-0.046875 0.203125,-0.0625 0.265625,-0.0625 0.125,0 0.1875,0.09375 0.1875,0.28125 l 0,2.703125 c 0,0.203125 -0.046875,0.34375 -0.15625,0.390625 -0.078125,0.0625 -0.171875,0.078125 -0.421875,0.078125 l 0,0.09375 1.65625,0 0,-0.09375 c -0.46875,0 -0.5625,-0.0625 -0.5625,-0.34375 l 0,-3.59375 -0.0625,-0.015625 z m 0,0"
               id="path38046"
               inkscape:connector-curvature="0" />
          </symbol>
          <symbol
             overflow="visible"
             id="textext-be7b21bf-7"
             style="overflow:visible">
            <path
               style="stroke:none"
               d=""
               id="path38049"
               inkscape:connector-curvature="0" />
          </symbol>
          <symbol
             overflow="visible"
             id="textext-be7b21bf-8"
             style="overflow:visible">
            <path
               style="stroke:none"
               d="m 3.296875,2.390625 c 0,-0.03125 0,-0.046875 -0.171875,-0.21875 C 1.890625,0.921875 1.5625,-0.96875 1.5625,-2.5 c 0,-1.734375 0.375,-3.46875 1.609375,-4.703125 0.125,-0.125 0.125,-0.140625 0.125,-0.171875 0,-0.078125 -0.03125,-0.109375 -0.09375,-0.109375 -0.109375,0 -1,0.6875 -1.59375,1.953125 -0.5,1.09375 -0.625,2.203125 -0.625,3.03125 0,0.78125 0.109375,1.984375 0.65625,3.125 C 2.25,1.84375 3.09375,2.5 3.203125,2.5 c 0.0625,0 0.09375,-0.03125 0.09375,-0.109375 z m 0,0"
               id="path38052"
               inkscape:connector-curvature="0" />
          </symbol>
          <symbol
             overflow="visible"
             id="textext-be7b21bf-9"
             style="overflow:visible">
            <path
               style="stroke:none"
               d="m 2.875,-2.5 c 0,-0.765625 -0.109375,-1.96875 -0.65625,-3.109375 -0.59375,-1.21875 -1.453125,-1.875 -1.546875,-1.875 -0.0625,0 -0.109375,0.046875 -0.109375,0.109375 0,0.03125 0,0.046875 0.1875,0.234375 0.984375,0.984375 1.546875,2.5625 1.546875,4.640625 0,1.71875 -0.359375,3.46875 -1.59375,4.71875 C 0.5625,2.34375 0.5625,2.359375 0.5625,2.390625 0.5625,2.453125 0.609375,2.5 0.671875,2.5 0.765625,2.5 1.671875,1.8125 2.25,0.546875 2.765625,-0.546875 2.875,-1.65625 2.875,-2.5 z m 0,0"
               id="path38055"
               inkscape:connector-curvature="0" />
          </symbol>
          <symbol
             overflow="visible"
             id="textext-be7b21bf-10"
             style="overflow:visible">
            <path
               style="stroke:none"
               d=""
               id="path38058"
               inkscape:connector-curvature="0" />
          </symbol>
          <symbol
             overflow="visible"
             id="textext-be7b21bf-11"
             style="overflow:visible">
            <path
               style="stroke:none"
               d="m 6.5625,-2.296875 c 0.171875,0 0.359375,0 0.359375,-0.203125 0,-0.1875 -0.1875,-0.1875 -0.359375,-0.1875 l -5.390625,0 c -0.171875,0 -0.34375,0 -0.34375,0.1875 0,0.203125 0.171875,0.203125 0.34375,0.203125 l 5.390625,0 z m 0,0"
               id="path38061"
               inkscape:connector-curvature="0" />
          </symbol>
          <symbol
             overflow="visible"
             id="textext-be7b21bf-12"
             style="overflow:visible">
            <path
               style="stroke:none"
               d=""
               id="path38064"
               inkscape:connector-curvature="0" />
          </symbol>
          <symbol
             overflow="visible"
             id="textext-be7b21bf-13"
             style="overflow:visible">
            <path
               style="stroke:none"
               d="m 2.90625,-6.734375 -1.796875,0.90625 0,0.140625 C 1.21875,-5.734375 1.328125,-5.78125 1.375,-5.796875 1.5625,-5.875 1.71875,-5.90625 1.828125,-5.90625 2.03125,-5.90625 2.125,-5.765625 2.125,-5.4375 l 0,4.515625 c 0,0.328125 -0.078125,0.546875 -0.234375,0.640625 -0.15625,0.09375 -0.296875,0.125 -0.71875,0.125 l 0,0.15625 2.75,0 0,-0.15625 c -0.78125,0 -0.9375,-0.109375 -0.9375,-0.578125 l 0,-5.984375 -0.078125,-0.015625 z m 0,0"
               id="path38067"
               inkscape:connector-curvature="0" />
          </symbol>
        </g>
      </defs>
      <g
         id="textext-be7b21bf-14">
        <g
           style="fill:#000000;fill-opacity:1"
           id="g38070">
          <use
             xlink:href="#textext-be7b21bf-1"
             x="222.93401"
             y="134.765"
             id="use38072"
             width="174.25447"
             height="133.5" />
        </g>
        <g
           style="fill:#000000;fill-opacity:1"
           id="g38074">
          <use
             xlink:href="#textext-be7b21bf-4"
             x="229.076"
             y="136.259"
             id="use38076"
             width="174.25447"
             height="133.5" />
        </g>
        <g
           style="fill:#000000;fill-opacity:1"
           id="g38078">
          <use
             xlink:href="#textext-be7b21bf-6"
             x="232.76199"
             y="137.675"
             id="use38080"
             width="174.25447"
             height="133.5" />
        </g>
        <g
           style="fill:#000000;fill-opacity:1"
           id="g38082">
          <use
             xlink:href="#textext-be7b21bf-8"
             x="236.74699"
             y="134.765"
             id="use38084"
             width="174.25447"
             height="133.5" />
        </g>
        <g
           style="fill:#000000;fill-opacity:1"
           id="g38086">
          <use
             xlink:href="#textext-be7b21bf-2"
             x="240.61301"
             y="134.765"
             id="use38088"
             width="174.25447"
             height="133.5" />
        </g>
        <g
           style="fill:#000000;fill-opacity:1"
           id="g38090">
          <use
             xlink:href="#textext-be7b21bf-11"
             x="246.589"
             y="134.765"
             id="use38092"
             width="174.25447"
             height="133.5" />
        </g>
        <g
           style="fill:#000000;fill-opacity:1"
           id="g38094">
          <use
             xlink:href="#textext-be7b21bf-13"
             x="255.713"
             y="134.765"
             id="use38096"
             width="174.25447"
             height="133.5" />
        </g>
        <g
           style="fill:#000000;fill-opacity:1"
           id="g38098">
          <use
             xlink:href="#textext-be7b21bf-9"
             x="260.69501"
             y="134.765"
             id="use38100"
             width="174.25447"
             height="133.5" />
        </g>
      </g>
    </g>
    <g
       id="g38828"
       transform="translate(27.957871,434.86103)"
       ns0:preamble="/home/diogo/.inkscape/extensions/preambulo_inkscape.tex"
       ns0:text="$V_{p_{\\tiny 2}}(k-1)$">
      <defs
         id="defs38830">
        <g
           id="g38832">
          <symbol
             id="textext-dab41393-0"
             overflow="visible"
             style="overflow:visible">
            <path
               id="path38835"
               d=""
               style="stroke:none"
               inkscape:connector-curvature="0" />
          </symbol>
          <symbol
             id="textext-dab41393-1"
             overflow="visible"
             style="overflow:visible">
            <path
               id="path38838"
               d="m 6.859375,-6.515625 -1.859375,0 0,0.171875 c 0.453125,0.046875 0.625,0.140625 0.625,0.328125 0,0.1875 -0.1875,0.625 -0.515625,1.1875 L 3.0625,-1.28125 2.40625,-5.6875 C 2.390625,-5.734375 2.390625,-5.78125 2.390625,-5.84375 c 0,-0.34375 0.140625,-0.4375 0.765625,-0.5 l 0,-0.171875 -2.40625,0 0,0.171875 C 1.3125,-6.28125 1.328125,-6.25 1.546875,-5 l 0.84375,5.171875 0.1875,0 3.71875,-6.125 C 6.46875,-6.21875 6.625,-6.34375 6.859375,-6.34375 l 0,-0.171875 z m 0,0"
               style="stroke:none"
               inkscape:connector-curvature="0" />
          </symbol>
          <symbol
             id="textext-dab41393-2"
             overflow="visible"
             style="overflow:visible">
            <path
               id="path38841"
               d="m 4.125,-1.09375 -0.140625,0.265625 c -0.1875,0.3125 -0.3125,0.421875 -0.453125,0.421875 -0.21875,0 -0.421875,-0.328125 -0.8125,-1.28125 C 2.671875,-1.828125 2.515625,-2.1875 2.359375,-2.578125 3.8125,-3.875 4.125,-4.078125 4.59375,-4.109375 l 0,-0.15625 -1.828125,0 0,0.15625 0.171875,0 c 0.25,0 0.375,0.078125 0.375,0.1875 0,0.1875 -0.484375,0.6875 -1.421875,1.390625 -0.140625,0.109375 -0.25,0.203125 -0.421875,0.328125 l 1.1875,-4.5625 L 2.609375,-6.8125 C 2.03125,-6.671875 1.640625,-6.609375 1.0625,-6.546875 l 0,0.171875 c 0.46875,-0.015625 0.65625,0.0625 0.671875,0.25 -0.015625,0.15625 -0.09375,0.4375 -0.21875,0.890625 -0.046875,0.140625 -0.0625,0.25 -0.09375,0.328125 L 1.40625,-4.8125 0.140625,0 l 0.75,0 0.46875,-1.796875 0.421875,-0.3125 c 0.15625,0.4375 0.421875,1.046875 0.59375,1.40625 0.328125,0.625 0.5,0.8125 0.796875,0.8125 0.390625,0 0.65625,-0.25 1.109375,-1.09375 L 4.125,-1.09375 z m 0,0"
               style="stroke:none"
               inkscape:connector-curvature="0" />
          </symbol>
          <symbol
             id="textext-dab41393-3"
             overflow="visible"
             style="overflow:visible">
            <path
               id="path38844"
               d=""
               style="stroke:none"
               inkscape:connector-curvature="0" />
          </symbol>
          <symbol
             id="textext-dab41393-4"
             overflow="visible"
             style="overflow:visible">
            <path
               id="path38847"
               d="m 0.40625,-2.984375 0.171875,0 c 0,0 0.015625,0 0.03125,0 0.09375,-0.046875 0.28125,0.09375 0.28125,0.203125 0,0.0625 -0.265625,1.109375 -0.515625,2.09375 C 0.171875,0.046875 0,0.75 -0.0625,0.953125 c -0.078125,0.34375 -0.171875,0.4375 -0.484375,0.4375 l 0,0.125 1.5,0 0,-0.109375 c -0.34375,0 -0.46875,-0.078125 -0.46875,-0.21875 0,-0.109375 0.125,-0.6875 0.28125,-1.234375 0.171875,0.09375 0.3125,0.125 0.484375,0.125 1.078125,0 2.203125,-1.234375 2.203125,-2.40625 C 3.453125,-2.90625 3.140625,-3.25 2.609375,-3.25 2.125,-3.25 1.78125,-3.015625 1.34375,-2.421875 L 1.5625,-3.15625 1.578125,-3.21875 c 0,0 0,-0.015625 0,-0.03125 l -0.015625,0 c 0,-0.015625 -0.015625,-0.015625 -0.015625,-0.015625 L 1.53125,-3.25 0.390625,-3.09375 0.40625,-2.984375 z m 1.9375,0.046875 c 0.3125,0.015625 0.453125,0.203125 0.453125,0.640625 0,0.484375 -0.21875,1.109375 -0.53125,1.578125 -0.3125,0.4375 -0.671875,0.65625 -1.046875,0.65625 -0.203125,0 -0.359375,-0.109375 -0.359375,-0.265625 0,-0.25 0.265625,-1.21875 0.484375,-1.765625 0.203125,-0.5 0.625,-0.859375 1,-0.84375 z m 0,0"
               style="stroke:none"
               inkscape:connector-curvature="0" />
          </symbol>
          <symbol
             id="textext-dab41393-5"
             overflow="visible"
             style="overflow:visible">
            <path
               id="path38850"
               d=""
               style="stroke:none"
               inkscape:connector-curvature="0" />
          </symbol>
          <symbol
             id="textext-dab41393-6"
             overflow="visible"
             style="overflow:visible">
            <path
               id="path38853"
               d="M 2.84375,-0.8125 2.765625,-0.84375 c -0.21875,0.328125 -0.296875,0.390625 -0.5625,0.390625 l -1.4375,0 1,-1.0625 c 0.53125,-0.546875 0.765625,-1 0.765625,-1.46875 0,-0.59375 -0.484375,-1.0625 -1.09375,-1.0625 -0.34375,0 -0.640625,0.140625 -0.875,0.375 -0.1875,0.203125 -0.28125,0.390625 -0.375,0.8125 l 0.125,0.03125 c 0.234375,-0.578125 0.453125,-0.78125 0.859375,-0.78125 0.515625,0 0.84375,0.34375 0.84375,0.84375 0,0.46875 -0.265625,1.03125 -0.765625,1.5625 l -1.078125,1.125 0,0.078125 2.34375,0 0.328125,-0.8125 z m 0,0"
               style="stroke:none"
               inkscape:connector-curvature="0" />
          </symbol>
          <symbol
             id="textext-dab41393-7"
             overflow="visible"
             style="overflow:visible">
            <path
               id="path38856"
               d=""
               style="stroke:none"
               inkscape:connector-curvature="0" />
          </symbol>
          <symbol
             id="textext-dab41393-8"
             overflow="visible"
             style="overflow:visible">
            <path
               id="path38859"
               d="m 3.296875,2.390625 c 0,-0.03125 0,-0.046875 -0.171875,-0.21875 C 1.890625,0.921875 1.5625,-0.96875 1.5625,-2.5 c 0,-1.734375 0.375,-3.46875 1.609375,-4.703125 0.125,-0.125 0.125,-0.140625 0.125,-0.171875 0,-0.078125 -0.03125,-0.109375 -0.09375,-0.109375 -0.109375,0 -1,0.6875 -1.59375,1.953125 -0.5,1.09375 -0.625,2.203125 -0.625,3.03125 0,0.78125 0.109375,1.984375 0.65625,3.125 C 2.25,1.84375 3.09375,2.5 3.203125,2.5 c 0.0625,0 0.09375,-0.03125 0.09375,-0.109375 z m 0,0"
               style="stroke:none"
               inkscape:connector-curvature="0" />
          </symbol>
          <symbol
             id="textext-dab41393-9"
             overflow="visible"
             style="overflow:visible">
            <path
               id="path38862"
               d="m 2.875,-2.5 c 0,-0.765625 -0.109375,-1.96875 -0.65625,-3.109375 -0.59375,-1.21875 -1.453125,-1.875 -1.546875,-1.875 -0.0625,0 -0.109375,0.046875 -0.109375,0.109375 0,0.03125 0,0.046875 0.1875,0.234375 0.984375,0.984375 1.546875,2.5625 1.546875,4.640625 0,1.71875 -0.359375,3.46875 -1.59375,4.71875 C 0.5625,2.34375 0.5625,2.359375 0.5625,2.390625 0.5625,2.453125 0.609375,2.5 0.671875,2.5 0.765625,2.5 1.671875,1.8125 2.25,0.546875 2.765625,-0.546875 2.875,-1.65625 2.875,-2.5 z m 0,0"
               style="stroke:none"
               inkscape:connector-curvature="0" />
          </symbol>
          <symbol
             id="textext-dab41393-10"
             overflow="visible"
             style="overflow:visible">
            <path
               id="path38865"
               d=""
               style="stroke:none"
               inkscape:connector-curvature="0" />
          </symbol>
          <symbol
             id="textext-dab41393-11"
             overflow="visible"
             style="overflow:visible">
            <path
               id="path38868"
               d="m 6.5625,-2.296875 c 0.171875,0 0.359375,0 0.359375,-0.203125 0,-0.1875 -0.1875,-0.1875 -0.359375,-0.1875 l -5.390625,0 c -0.171875,0 -0.34375,0 -0.34375,0.1875 0,0.203125 0.171875,0.203125 0.34375,0.203125 l 5.390625,0 z m 0,0"
               style="stroke:none"
               inkscape:connector-curvature="0" />
          </symbol>
          <symbol
             id="textext-dab41393-12"
             overflow="visible"
             style="overflow:visible">
            <path
               id="path38871"
               d=""
               style="stroke:none"
               inkscape:connector-curvature="0" />
          </symbol>
          <symbol
             id="textext-dab41393-13"
             overflow="visible"
             style="overflow:visible">
            <path
               id="path38874"
               d="m 2.90625,-6.734375 -1.796875,0.90625 0,0.140625 C 1.21875,-5.734375 1.328125,-5.78125 1.375,-5.796875 1.5625,-5.875 1.71875,-5.90625 1.828125,-5.90625 2.03125,-5.90625 2.125,-5.765625 2.125,-5.4375 l 0,4.515625 c 0,0.328125 -0.078125,0.546875 -0.234375,0.640625 -0.15625,0.09375 -0.296875,0.125 -0.71875,0.125 l 0,0.15625 2.75,0 0,-0.15625 c -0.78125,0 -0.9375,-0.109375 -0.9375,-0.578125 l 0,-5.984375 -0.078125,-0.015625 z m 0,0"
               style="stroke:none"
               inkscape:connector-curvature="0" />
          </symbol>
        </g>
      </defs>
      <g
         id="textext-dab41393-14">
        <g
           id="g38877"
           style="fill:#000000;fill-opacity:1">
          <use
             id="use38879"
             y="134.765"
             x="222.93401"
             xlink:href="#textext-dab41393-1"
             width="174.25447"
             height="133.5" />
        </g>
        <g
           id="g38881"
           style="fill:#000000;fill-opacity:1">
          <use
             id="use38883"
             y="136.259"
             x="229.076"
             xlink:href="#textext-dab41393-4"
             width="174.25447"
             height="133.5" />
        </g>
        <g
           id="g38885"
           style="fill:#000000;fill-opacity:1">
          <use
             id="use38887"
             y="137.675"
             x="232.76199"
             xlink:href="#textext-dab41393-6"
             width="174.25447"
             height="133.5" />
        </g>
        <g
           id="g38889"
           style="fill:#000000;fill-opacity:1">
          <use
             id="use38891"
             y="134.765"
             x="236.74699"
             xlink:href="#textext-dab41393-8"
             width="174.25447"
             height="133.5" />
        </g>
        <g
           id="g38893"
           style="fill:#000000;fill-opacity:1">
          <use
             id="use38895"
             y="134.765"
             x="240.61301"
             xlink:href="#textext-dab41393-2"
             width="174.25447"
             height="133.5" />
        </g>
        <g
           id="g38897"
           style="fill:#000000;fill-opacity:1">
          <use
             id="use38899"
             y="134.765"
             x="246.589"
             xlink:href="#textext-dab41393-11"
             width="174.25447"
             height="133.5" />
        </g>
        <g
           id="g38901"
           style="fill:#000000;fill-opacity:1">
          <use
             id="use38903"
             y="134.765"
             x="255.713"
             xlink:href="#textext-dab41393-13"
             width="174.25447"
             height="133.5" />
        </g>
        <g
           id="g38905"
           style="fill:#000000;fill-opacity:1">
          <use
             id="use38907"
             y="134.765"
             x="260.69501"
             xlink:href="#textext-dab41393-9"
             width="174.25447"
             height="133.5" />
        </g>
      </g>
    </g>
    <g
       ns0:text="$e_1(k)$"
       ns0:preamble="/home/diogo/.inkscape/extensions/preambulo_inkscape.tex"
       transform="translate(48.154877,456.22186)"
       id="g10870">
      <defs
         id="defs10872">
        <g
           id="g10874">
          <symbol
             overflow="visible"
             id="textext-21ab94d0-0"
             style="overflow:visible">
            <path
               style="stroke:none"
               d=""
               id="path10877"
               inkscape:connector-curvature="0" />
          </symbol>
          <symbol
             overflow="visible"
             id="textext-21ab94d0-1"
             style="overflow:visible">
            <path
               style="stroke:none"
               d="m 3.5625,-1.09375 c -0.71875,0.59375 -1.015625,0.75 -1.453125,0.75 -0.5625,0 -0.9375,-0.359375 -0.9375,-0.890625 0,-0.15625 0.03125,-0.296875 0.109375,-0.625 l 0.28125,-0.03125 c 1.484375,-0.21875 2.546875,-0.96875 2.546875,-1.828125 0,-0.421875 -0.296875,-0.671875 -0.796875,-0.671875 -1.4375,0 -3,1.640625 -3,3.140625 0,0.796875 0.53125,1.359375 1.3125,1.359375 0.703125,0 1.46875,-0.40625 2.0625,-1.078125 l -0.125,-0.125 z M 1.515625,-2.515625 c 0.34375,-0.890625 1.078125,-1.65625 1.578125,-1.65625 0.21875,0 0.359375,0.171875 0.359375,0.390625 0,0.3125 -0.1875,0.671875 -0.5,0.96875 -0.375,0.34375 -0.75,0.53125 -1.609375,0.734375 l 0.171875,-0.4375 z m 0,0"
               id="path10880"
               inkscape:connector-curvature="0" />
          </symbol>
          <symbol
             overflow="visible"
             id="textext-21ab94d0-2"
             style="overflow:visible">
            <path
               style="stroke:none"
               d="m 4.125,-1.09375 -0.140625,0.265625 c -0.1875,0.3125 -0.3125,0.421875 -0.453125,0.421875 -0.21875,0 -0.421875,-0.328125 -0.8125,-1.28125 C 2.671875,-1.828125 2.515625,-2.1875 2.359375,-2.578125 3.8125,-3.875 4.125,-4.078125 4.59375,-4.109375 l 0,-0.15625 -1.828125,0 0,0.15625 0.171875,0 c 0.25,0 0.375,0.078125 0.375,0.1875 0,0.1875 -0.484375,0.6875 -1.421875,1.390625 -0.140625,0.109375 -0.25,0.203125 -0.421875,0.328125 l 1.1875,-4.5625 L 2.609375,-6.8125 C 2.03125,-6.671875 1.640625,-6.609375 1.0625,-6.546875 l 0,0.171875 c 0.46875,-0.015625 0.65625,0.0625 0.671875,0.25 -0.015625,0.15625 -0.09375,0.4375 -0.21875,0.890625 -0.046875,0.140625 -0.0625,0.25 -0.09375,0.328125 L 1.40625,-4.8125 0.140625,0 l 0.75,0 0.46875,-1.796875 0.421875,-0.3125 c 0.15625,0.4375 0.421875,1.046875 0.59375,1.40625 0.328125,0.625 0.5,0.8125 0.796875,0.8125 0.390625,0 0.65625,-0.25 1.109375,-1.09375 L 4.125,-1.09375 z m 0,0"
               id="path10883"
               inkscape:connector-curvature="0" />
          </symbol>
          <symbol
             overflow="visible"
             id="textext-21ab94d0-3"
             style="overflow:visible">
            <path
               style="stroke:none"
               d=""
               id="path10886"
               inkscape:connector-curvature="0" />
          </symbol>
          <symbol
             overflow="visible"
             id="textext-21ab94d0-4"
             style="overflow:visible">
            <path
               style="stroke:none"
               d="M 2.140625,-4.984375 0.8125,-4.3125 l 0,0.09375 C 0.90625,-4.25 0.984375,-4.28125 1.015625,-4.296875 1.15625,-4.34375 1.28125,-4.375 1.34375,-4.375 c 0.15625,0 0.234375,0.109375 0.234375,0.34375 l 0,3.34375 c 0,0.25 -0.0625,0.421875 -0.1875,0.484375 C 1.28125,-0.140625 1.1875,-0.125 0.875,-0.109375 L 0.875,0 l 2.03125,0 0,-0.109375 C 2.328125,-0.125 2.203125,-0.1875 2.203125,-0.546875 l 0,-4.421875 -0.0625,-0.015625 z m 0,0"
               id="path10889"
               inkscape:connector-curvature="0" />
          </symbol>
          <symbol
             overflow="visible"
             id="textext-21ab94d0-5"
             style="overflow:visible">
            <path
               style="stroke:none"
               d=""
               id="path10892"
               inkscape:connector-curvature="0" />
          </symbol>
          <symbol
             overflow="visible"
             id="textext-21ab94d0-6"
             style="overflow:visible">
            <path
               style="stroke:none"
               d="m 3.296875,2.390625 c 0,-0.03125 0,-0.046875 -0.171875,-0.21875 C 1.890625,0.921875 1.5625,-0.96875 1.5625,-2.5 c 0,-1.734375 0.375,-3.46875 1.609375,-4.703125 0.125,-0.125 0.125,-0.140625 0.125,-0.171875 0,-0.078125 -0.03125,-0.109375 -0.09375,-0.109375 -0.109375,0 -1,0.6875 -1.59375,1.953125 -0.5,1.09375 -0.625,2.203125 -0.625,3.03125 0,0.78125 0.109375,1.984375 0.65625,3.125 C 2.25,1.84375 3.09375,2.5 3.203125,2.5 c 0.0625,0 0.09375,-0.03125 0.09375,-0.109375 z m 0,0"
               id="path10895"
               inkscape:connector-curvature="0" />
          </symbol>
          <symbol
             overflow="visible"
             id="textext-21ab94d0-7"
             style="overflow:visible">
            <path
               style="stroke:none"
               d="m 2.875,-2.5 c 0,-0.765625 -0.109375,-1.96875 -0.65625,-3.109375 -0.59375,-1.21875 -1.453125,-1.875 -1.546875,-1.875 -0.0625,0 -0.109375,0.046875 -0.109375,0.109375 0,0.03125 0,0.046875 0.1875,0.234375 0.984375,0.984375 1.546875,2.5625 1.546875,4.640625 0,1.71875 -0.359375,3.46875 -1.59375,4.71875 C 0.5625,2.34375 0.5625,2.359375 0.5625,2.390625 0.5625,2.453125 0.609375,2.5 0.671875,2.5 0.765625,2.5 1.671875,1.8125 2.25,0.546875 2.765625,-0.546875 2.875,-1.65625 2.875,-2.5 z m 0,0"
               id="path10898"
               inkscape:connector-curvature="0" />
          </symbol>
        </g>
      </defs>
      <g
         id="textext-21ab94d0-8">
        <g
           style="fill:#000000;fill-opacity:1"
           id="g10901">
          <use
             xlink:href="#textext-21ab94d0-1"
             x="223.43201"
             y="134.765"
             id="use10903"
             width="177.51636"
             height="133.5" />
        </g>
        <g
           style="fill:#000000;fill-opacity:1"
           id="g10905">
          <use
             xlink:href="#textext-21ab94d0-4"
             x="227.855"
             y="136.259"
             id="use10907"
             width="177.51636"
             height="133.5" />
        </g>
        <g
           style="fill:#000000;fill-opacity:1"
           id="g10909">
          <use
             xlink:href="#textext-21ab94d0-6"
             x="232.03999"
             y="134.765"
             id="use10911"
             width="177.51636"
             height="133.5" />
        </g>
        <g
           style="fill:#000000;fill-opacity:1"
           id="g10913">
          <use
             xlink:href="#textext-21ab94d0-2"
             x="235.905"
             y="134.765"
             id="use10915"
             width="177.51636"
             height="133.5" />
        </g>
        <g
           style="fill:#000000;fill-opacity:1"
           id="g10917">
          <use
             xlink:href="#textext-21ab94d0-7"
             x="240.498"
             y="134.765"
             id="use10919"
             width="177.51636"
             height="133.5" />
        </g>
      </g>
    </g>
    <g
       id="g11689"
       transform="translate(48.154877,477.32788)"
       ns0:preamble="/home/diogo/.inkscape/extensions/preambulo_inkscape.tex"
       ns0:text="$e_2(k)$">
      <defs
         id="defs11691">
        <g
           id="g11693">
          <symbol
             id="textext-b91e7615-0"
             overflow="visible"
             style="overflow:visible">
            <path
               id="path11696"
               d=""
               style="stroke:none"
               inkscape:connector-curvature="0" />
          </symbol>
          <symbol
             id="textext-b91e7615-1"
             overflow="visible"
             style="overflow:visible">
            <path
               id="path11699"
               d="m 3.5625,-1.09375 c -0.71875,0.59375 -1.015625,0.75 -1.453125,0.75 -0.5625,0 -0.9375,-0.359375 -0.9375,-0.890625 0,-0.15625 0.03125,-0.296875 0.109375,-0.625 l 0.28125,-0.03125 c 1.484375,-0.21875 2.546875,-0.96875 2.546875,-1.828125 0,-0.421875 -0.296875,-0.671875 -0.796875,-0.671875 -1.4375,0 -3,1.640625 -3,3.140625 0,0.796875 0.53125,1.359375 1.3125,1.359375 0.703125,0 1.46875,-0.40625 2.0625,-1.078125 l -0.125,-0.125 z M 1.515625,-2.515625 c 0.34375,-0.890625 1.078125,-1.65625 1.578125,-1.65625 0.21875,0 0.359375,0.171875 0.359375,0.390625 0,0.3125 -0.1875,0.671875 -0.5,0.96875 -0.375,0.34375 -0.75,0.53125 -1.609375,0.734375 l 0.171875,-0.4375 z m 0,0"
               style="stroke:none"
               inkscape:connector-curvature="0" />
          </symbol>
          <symbol
             id="textext-b91e7615-2"
             overflow="visible"
             style="overflow:visible">
            <path
               id="path11702"
               d="m 4.125,-1.09375 -0.140625,0.265625 c -0.1875,0.3125 -0.3125,0.421875 -0.453125,0.421875 -0.21875,0 -0.421875,-0.328125 -0.8125,-1.28125 C 2.671875,-1.828125 2.515625,-2.1875 2.359375,-2.578125 3.8125,-3.875 4.125,-4.078125 4.59375,-4.109375 l 0,-0.15625 -1.828125,0 0,0.15625 0.171875,0 c 0.25,0 0.375,0.078125 0.375,0.1875 0,0.1875 -0.484375,0.6875 -1.421875,1.390625 -0.140625,0.109375 -0.25,0.203125 -0.421875,0.328125 l 1.1875,-4.5625 L 2.609375,-6.8125 C 2.03125,-6.671875 1.640625,-6.609375 1.0625,-6.546875 l 0,0.171875 c 0.46875,-0.015625 0.65625,0.0625 0.671875,0.25 -0.015625,0.15625 -0.09375,0.4375 -0.21875,0.890625 -0.046875,0.140625 -0.0625,0.25 -0.09375,0.328125 L 1.40625,-4.8125 0.140625,0 l 0.75,0 0.46875,-1.796875 0.421875,-0.3125 c 0.15625,0.4375 0.421875,1.046875 0.59375,1.40625 0.328125,0.625 0.5,0.8125 0.796875,0.8125 0.390625,0 0.65625,-0.25 1.109375,-1.09375 L 4.125,-1.09375 z m 0,0"
               style="stroke:none"
               inkscape:connector-curvature="0" />
          </symbol>
          <symbol
             id="textext-b91e7615-3"
             overflow="visible"
             style="overflow:visible">
            <path
               id="path11705"
               d=""
               style="stroke:none"
               inkscape:connector-curvature="0" />
          </symbol>
          <symbol
             id="textext-b91e7615-4"
             overflow="visible"
             style="overflow:visible">
            <path
               id="path11708"
               d="M 3.5,-1.015625 3.40625,-1.046875 C 3.140625,-0.625 3.03125,-0.5625 2.703125,-0.5625 l -1.765625,0 1.25,-1.296875 c 0.65625,-0.6875 0.9375,-1.25 0.9375,-1.828125 0,-0.734375 -0.59375,-1.296875 -1.359375,-1.296875 -0.40625,0 -0.796875,0.15625 -1.0625,0.453125 -0.234375,0.25 -0.34375,0.484375 -0.46875,1.015625 l 0.15625,0.03125 c 0.28125,-0.71875 0.546875,-0.953125 1.0625,-0.953125 0.625,0 1.046875,0.421875 1.046875,1.03125 0,0.578125 -0.34375,1.265625 -0.96875,1.921875 L 0.21875,-0.09375 0.21875,0 3.09375,0 3.5,-1.015625 z m 0,0"
               style="stroke:none"
               inkscape:connector-curvature="0" />
          </symbol>
          <symbol
             id="textext-b91e7615-5"
             overflow="visible"
             style="overflow:visible">
            <path
               id="path11711"
               d=""
               style="stroke:none"
               inkscape:connector-curvature="0" />
          </symbol>
          <symbol
             id="textext-b91e7615-6"
             overflow="visible"
             style="overflow:visible">
            <path
               id="path11714"
               d="m 3.296875,2.390625 c 0,-0.03125 0,-0.046875 -0.171875,-0.21875 C 1.890625,0.921875 1.5625,-0.96875 1.5625,-2.5 c 0,-1.734375 0.375,-3.46875 1.609375,-4.703125 0.125,-0.125 0.125,-0.140625 0.125,-0.171875 0,-0.078125 -0.03125,-0.109375 -0.09375,-0.109375 -0.109375,0 -1,0.6875 -1.59375,1.953125 -0.5,1.09375 -0.625,2.203125 -0.625,3.03125 0,0.78125 0.109375,1.984375 0.65625,3.125 C 2.25,1.84375 3.09375,2.5 3.203125,2.5 c 0.0625,0 0.09375,-0.03125 0.09375,-0.109375 z m 0,0"
               style="stroke:none"
               inkscape:connector-curvature="0" />
          </symbol>
          <symbol
             id="textext-b91e7615-7"
             overflow="visible"
             style="overflow:visible">
            <path
               id="path11717"
               d="m 2.875,-2.5 c 0,-0.765625 -0.109375,-1.96875 -0.65625,-3.109375 -0.59375,-1.21875 -1.453125,-1.875 -1.546875,-1.875 -0.0625,0 -0.109375,0.046875 -0.109375,0.109375 0,0.03125 0,0.046875 0.1875,0.234375 0.984375,0.984375 1.546875,2.5625 1.546875,4.640625 0,1.71875 -0.359375,3.46875 -1.59375,4.71875 C 0.5625,2.34375 0.5625,2.359375 0.5625,2.390625 0.5625,2.453125 0.609375,2.5 0.671875,2.5 0.765625,2.5 1.671875,1.8125 2.25,0.546875 2.765625,-0.546875 2.875,-1.65625 2.875,-2.5 z m 0,0"
               style="stroke:none"
               inkscape:connector-curvature="0" />
          </symbol>
        </g>
      </defs>
      <g
         id="textext-b91e7615-8">
        <g
           id="g11720"
           style="fill:#000000;fill-opacity:1">
          <use
             id="use11722"
             y="134.765"
             x="223.43201"
             xlink:href="#textext-b91e7615-1"
             width="177.51636"
             height="133.5" />
        </g>
        <g
           id="g11724"
           style="fill:#000000;fill-opacity:1">
          <use
             id="use11726"
             y="136.259"
             x="227.855"
             xlink:href="#textext-b91e7615-4"
             width="177.51636"
             height="133.5" />
        </g>
        <g
           id="g11728"
           style="fill:#000000;fill-opacity:1">
          <use
             id="use11730"
             y="134.765"
             x="232.03999"
             xlink:href="#textext-b91e7615-6"
             width="177.51636"
             height="133.5" />
        </g>
        <g
           id="g11732"
           style="fill:#000000;fill-opacity:1">
          <use
             id="use11734"
             y="134.765"
             x="235.905"
             xlink:href="#textext-b91e7615-2"
             width="177.51636"
             height="133.5" />
        </g>
        <g
           id="g11736"
           style="fill:#000000;fill-opacity:1">
          <use
             id="use11738"
             y="134.765"
             x="240.498"
             xlink:href="#textext-b91e7615-7"
             width="177.51636"
             height="133.5" />
        </g>
      </g>
    </g>
  </g>
</svg>
